  0
SECTION
  2
HEADER
  9
$ACADVER
  1
AC1027
  9
$ACADMAINTVER
 70
     8
  9
$DWGCODEPAGE
  3
ANSI_1252
  9
$REQUIREDVERSIONS
160
                 0
  9
$INSBASE
 10
0.0
 20
0.0
 30
0.0
  9
$EXTMIN
 10
44.52029191668117
 20
46.37389702898801
 30
0.0
  9
$EXTMAX
 10
317.8802919166811
 20
167.133897028988
 30
0.0
  9
$LIMMIN
 10
0.0
 20
0.0
  9
$LIMMAX
 10
12.0
 20
9.0
  9
$ORTHOMODE
 70
     0
  9
$REGENMODE
 70
     1
  9
$FILLMODE
 70
     1
  9
$QTEXTMODE
 70
     0
  9
$MIRRTEXT
 70
     0
  9
$LTSCALE
 40
1.0
  9
$ATTMODE
 70
     1
  9
$TEXTSIZE
 40
0.2
  9
$TRACEWID
 40
0.05
  9
$TEXTSTYLE
  7
Standard
  9
$CLAYER
  8
cut3
  9
$CELTYPE
  6
ByLayer
  9
$CECOLOR
 62
   256
  9
$CELTSCALE
 40
1.0
  9
$DISPSILH
 70
     0
  9
$DIMSCALE
 40
1.0
  9
$DIMASZ
 40
0.18
  9
$DIMEXO
 40
0.0625
  9
$DIMDLI
 40
0.38
  9
$DIMRND
 40
0.0
  9
$DIMDLE
 40
0.0
  9
$DIMEXE
 40
0.18
  9
$DIMTP
 40
0.0
  9
$DIMTM
 40
0.0
  9
$DIMTXT
 40
0.18
  9
$DIMCEN
 40
0.09
  9
$DIMTSZ
 40
0.0
  9
$DIMTOL
 70
     0
  9
$DIMLIM
 70
     0
  9
$DIMTIH
 70
     1
  9
$DIMTOH
 70
     1
  9
$DIMSE1
 70
     0
  9
$DIMSE2
 70
     0
  9
$DIMTAD
 70
     0
  9
$DIMZIN
 70
     0
  9
$DIMBLK
  1

  9
$DIMASO
 70
     1
  9
$DIMSHO
 70
     1
  9
$DIMPOST
  1

  9
$DIMAPOST
  1

  9
$DIMALT
 70
     0
  9
$DIMALTD
 70
     2
  9
$DIMALTF
 40
25.4
  9
$DIMLFAC
 40
1.0
  9
$DIMTOFL
 70
     0
  9
$DIMTVP
 40
0.0
  9
$DIMTIX
 70
     0
  9
$DIMSOXD
 70
     0
  9
$DIMSAH
 70
     0
  9
$DIMBLK1
  1

  9
$DIMBLK2
  1

  9
$DIMSTYLE
  2
Standard
  9
$DIMCLRD
 70
     0
  9
$DIMCLRE
 70
     0
  9
$DIMCLRT
 70
     0
  9
$DIMTFAC
 40
1.0
  9
$DIMGAP
 40
0.09
  9
$DIMJUST
 70
     0
  9
$DIMSD1
 70
     0
  9
$DIMSD2
 70
     0
  9
$DIMTOLJ
 70
     1
  9
$DIMTZIN
 70
     0
  9
$DIMALTZ
 70
     0
  9
$DIMALTTZ
 70
     0
  9
$DIMUPT
 70
     0
  9
$DIMDEC
 70
     4
  9
$DIMTDEC
 70
     4
  9
$DIMALTU
 70
     2
  9
$DIMALTTD
 70
     2
  9
$DIMTXSTY
  7
Standard
  9
$DIMAUNIT
 70
     0
  9
$DIMADEC
 70
     0
  9
$DIMALTRND
 40
0.0
  9
$DIMAZIN
 70
     0
  9
$DIMDSEP
 70
    46
  9
$DIMATFIT
 70
     3
  9
$DIMFRAC
 70
     0
  9
$DIMLDRBLK
  1

  9
$DIMLUNIT
 70
     2
  9
$DIMLWD
 70
    -2
  9
$DIMLWE
 70
    -2
  9
$DIMTMOVE
 70
     0
  9
$DIMFXL
 40
1.0
  9
$DIMFXLON
 70
     0
  9
$DIMJOGANG
 40
0.7853981633974483
  9
$DIMTFILL
 70
     0
  9
$DIMTFILLCLR
 70
     0
  9
$DIMARCSYM
 70
     0
  9
$DIMLTYPE
  6

  9
$DIMLTEX1
  6

  9
$DIMLTEX2
  6

  9
$DIMTXTDIRECTION
 70
     0
  9
$LUNITS
 70
     2
  9
$LUPREC
 70
     4
  9
$SKETCHINC
 40
0.1
  9
$FILLETRAD
 40
4.0
  9
$AUNITS
 70
     0
  9
$AUPREC
 70
     0
  9
$MENU
  1
.
  9
$ELEVATION
 40
0.0
  9
$PELEVATION
 40
0.0
  9
$THICKNESS
 40
0.0
  9
$LIMCHECK
 70
     0
  9
$CHAMFERA
 40
0.0
  9
$CHAMFERB
 40
0.0
  9
$CHAMFERC
 40
0.0
  9
$CHAMFERD
 40
0.0
  9
$SKPOLY
 70
     0
  9
$TDCREATE
 40
2452643.063384271
  9
$TDUCREATE
 40
2452643.063384271
  9
$TDUPDATE
 40
2457461.725335648
  9
$TDUUPDATE
 40
2457461.725335648
  9
$TDINDWG
 40
0.0
  9
$TDUSRTIMER
 40
2457461.677800926
  9
$USRTIMER
 70
     1
  9
$ANGBASE
 50
0.0
  9
$ANGDIR
 70
     0
  9
$PDMODE
 70
     0
  9
$PDSIZE
 40
0.0
  9
$PLINEWID
 40
0.0
  9
$SPLFRAME
 70
     0
  9
$SPLINETYPE
 70
     6
  9
$SPLINESEGS
 70
     8
  9
$HANDSEED
  5
624
  9
$SURFTAB1
 70
     6
  9
$SURFTAB2
 70
     6
  9
$SURFTYPE
 70
     6
  9
$SURFU
 70
     6
  9
$SURFV
 70
     6
  9
$UCSBASE
  2

  9
$UCSNAME
  2

  9
$UCSORG
 10
0.0
 20
0.0
 30
0.0
  9
$UCSXDIR
 10
1.0
 20
0.0
 30
0.0
  9
$UCSYDIR
 10
0.0
 20
1.0
 30
0.0
  9
$UCSORTHOREF
  2

  9
$UCSORTHOVIEW
 70
     0
  9
$UCSORGTOP
 10
0.0
 20
0.0
 30
0.0
  9
$UCSORGBOTTOM
 10
0.0
 20
0.0
 30
0.0
  9
$UCSORGLEFT
 10
0.0
 20
0.0
 30
0.0
  9
$UCSORGRIGHT
 10
0.0
 20
0.0
 30
0.0
  9
$UCSORGFRONT
 10
0.0
 20
0.0
 30
0.0
  9
$UCSORGBACK
 10
0.0
 20
0.0
 30
0.0
  9
$PUCSBASE
  2

  9
$PUCSNAME
  2

  9
$PUCSORG
 10
0.0
 20
0.0
 30
0.0
  9
$PUCSXDIR
 10
1.0
 20
0.0
 30
0.0
  9
$PUCSYDIR
 10
0.0
 20
1.0
 30
0.0
  9
$PUCSORTHOREF
  2

  9
$PUCSORTHOVIEW
 70
     0
  9
$PUCSORGTOP
 10
0.0
 20
0.0
 30
0.0
  9
$PUCSORGBOTTOM
 10
0.0
 20
0.0
 30
0.0
  9
$PUCSORGLEFT
 10
0.0
 20
0.0
 30
0.0
  9
$PUCSORGRIGHT
 10
0.0
 20
0.0
 30
0.0
  9
$PUCSORGFRONT
 10
0.0
 20
0.0
 30
0.0
  9
$PUCSORGBACK
 10
0.0
 20
0.0
 30
0.0
  9
$USERI1
 70
     0
  9
$USERI2
 70
     0
  9
$USERI3
 70
     0
  9
$USERI4
 70
     0
  9
$USERI5
 70
     0
  9
$USERR1
 40
0.0
  9
$USERR2
 40
0.0
  9
$USERR3
 40
0.0
  9
$USERR4
 40
0.0
  9
$USERR5
 40
0.0
  9
$WORLDVIEW
 70
     1
  9
$SHADEDGE
 70
     3
  9
$SHADEDIF
 70
    70
  9
$TILEMODE
 70
     1
  9
$MAXACTVP
 70
    64
  9
$PINSBASE
 10
0.0
 20
0.0
 30
0.0
  9
$PLIMCHECK
 70
     0
  9
$PEXTMIN
 10
0.0
 20
0.0
 30
0.0
  9
$PEXTMAX
 10
0.0
 20
0.0
 30
0.0
  9
$PLIMMIN
 10
0.0
 20
0.0
  9
$PLIMMAX
 10
0.0
 20
0.0
  9
$UNITMODE
 70
     0
  9
$VISRETAIN
 70
     1
  9
$PLINEGEN
 70
     0
  9
$PSLTSCALE
 70
     1
  9
$TREEDEPTH
 70
  3020
  9
$CMLSTYLE
  2
Standard
  9
$CMLJUST
 70
     0
  9
$CMLSCALE
 40
1.0
  9
$PROXYGRAPHICS
 70
     1
  9
$MEASUREMENT
 70
     0
  9
$CELWEIGHT
370
    -1
  9
$ENDCAPS
280
     0
  9
$JOINSTYLE
280
     0
  9
$LWDISPLAY
290
     0
  9
$INSUNITS
 70
     1
  9
$HYPERLINKBASE
  1

  9
$STYLESHEET
  1

  9
$XEDIT
290
     1
  9
$CEPSNTYPE
380
     0
  9
$PSTYLEMODE
290
     1
  9
$FINGERPRINTGUID
  2
{FDEAD576-A652-11D2-9A35-0060089B3A3F}
  9
$VERSIONGUID
  2
{FBC2AE19-5C5C-49EC-81BC-71B1A3362A02}
  9
$EXTNAMES
290
     1
  9
$PSVPSCALE
 40
0.0
  9
$OLESTARTUP
290
     0
  9
$SORTENTS
280
   127
  9
$INDEXCTL
280
     0
  9
$HIDETEXT
280
     1
  9
$XCLIPFRAME
280
     0
  9
$HALOGAP
280
     0
  9
$OBSCOLOR
 70
   257
  9
$OBSLTYPE
280
     0
  9
$INTERSECTIONDISPLAY
280
     0
  9
$INTERSECTIONCOLOR
 70
   257
  9
$DIMASSOC
280
     2
  9
$PROJECTNAME
  1

  9
$CAMERADISPLAY
290
     0
  9
$LENSLENGTH
 40
50.0
  9
$CAMERAHEIGHT
 40
0.0
  9
$STEPSPERSEC
 40
2.0
  9
$STEPSIZE
 40
6.0
  9
$3DDWFPREC
 40
2.0
  9
$PSOLWIDTH
 40
0.25
  9
$PSOLHEIGHT
 40
4.0
  9
$LOFTANG1
 40
1.570796326794897
  9
$LOFTANG2
 40
1.570796326794897
  9
$LOFTMAG1
 40
0.0
  9
$LOFTMAG2
 40
0.0
  9
$LOFTPARAM
 70
     7
  9
$LOFTNORMALS
280
     1
  9
$LATITUDE
 40
37.795
  9
$LONGITUDE
 40
-122.394
  9
$NORTHDIRECTION
 40
0.0
  9
$TIMEZONE
 70
 -8000
  9
$LIGHTGLYPHDISPLAY
280
     1
  9
$TILEMODELIGHTSYNCH
280
     1
  9
$CMATERIAL
347
96
  9
$SOLIDHIST
280
     1
  9
$SHOWHIST
280
     1
  9
$DWFFRAME
280
     2
  9
$DGNFRAME
280
     0
  9
$REALWORLDSCALE
290
     1
  9
$INTERFERECOLOR
 62
     1
  9
$CSHADOW
280
     0
  9
$SHADOWPLANELOCATION
 40
0.0
  0
ENDSEC
  0
SECTION
  2
CLASSES
  0
CLASS
  1
ACDBDICTIONARYWDFLT
  2
AcDbDictionaryWithDefault
  3
ObjectDBX Classes
 90
        0
 91
        5
280
     0
281
     0
  0
CLASS
  1
ACDBPLACEHOLDER
  2
AcDbPlaceHolder
  3
ObjectDBX Classes
 90
        0
 91
        1
280
     0
281
     0
  0
CLASS
  1
LAYOUT
  2
AcDbLayout
  3
ObjectDBX Classes
 90
        0
 91
        1
280
     0
281
     0
  0
CLASS
  1
DICTIONARYVAR
  2
AcDbDictionaryVar
  3
ObjectDBX Classes
 90
        0
 91
        5
280
     0
281
     0
  0
CLASS
  1
TABLESTYLE
  2
AcDbTableStyle
  3
ObjectDBX Classes
 90
     4095
 91
        5
280
     0
281
     0
  0
CLASS
  1
MATERIAL
  2
AcDbMaterial
  3
ObjectDBX Classes
 90
     1153
 91
        5
280
     0
281
     0
  0
CLASS
  1
VISUALSTYLE
  2
AcDbVisualStyle
  3
ObjectDBX Classes
 90
     4095
 91
        5
280
     0
281
     0
  0
CLASS
  1
SCALE
  2
AcDbScale
  3
ObjectDBX Classes
 90
     1153
 91
        5
280
     0
281
     0
  0
CLASS
  1
CELLSTYLEMAP
  2
AcDbCellStyleMap
  3
ObjectDBX Classes
 90
     1152
 91
        4
280
     0
281
     0
  0
CLASS
  1
RASTERVARIABLES
  2
AcDbRasterVariables
  3
ISM
 90
        0
 91
        5
280
     0
281
     0
  0
CLASS
  1
SUN
  2
AcDbSun
  3
SCENEOE
 90
     1153
 91
        5
280
     0
281
     0
  0
CLASS
  1
MLEADERSTYLE
  2
AcDbMLeaderStyle
  3
ACDB_MLEADERSTYLE_CLASS
 90
     4095
 91
        5
280
     0
281
     0
  0
CLASS
  1
DIMASSOC
  2
AcDbDimAssoc
  3
"AcDbDimAssoc|Product Desc:     AcDim ARX App For Dimension|Company:          Autodesk, Inc.|WEB Address:      www.autodesk.com"
 90
        0
 91
        5
280
     0
281
     0
  0
ENDSEC
  0
SECTION
  2
TABLES
  0
TABLE
  2
VPORT
  5
8
330
0
100
AcDbSymbolTable
 70
     1
  0
VPORT
  5
94
330
8
100
AcDbSymbolTableRecord
100
AcDbViewportTableRecord
  2
*Active
 70
     0
 10
0.0
 20
0.0
 11
1.0
 21
1.0
 12
181.8325841058777
 22
122.0656065211706
 13
0.0
 23
0.0
 14
0.5
 24
0.5
 15
0.5
 25
0.5
 16
0.0
 26
0.0
 36
1.0
 17
-27.66959356597957
 27
-19.53870295786172
 37
0.0
 40
250.240970802094
 41
1.894289185905225
 42
50.0
 43
0.0
 44
0.0
 50
0.0
 51
0.0
 71
    16
 72
  1000
 73
     1
 74
     3
 75
     0
 76
     0
 77
     0
 78
     0
281
     0
 65
     1
110
0.0
120
0.0
130
0.0
111
1.0
121
0.0
131
0.0
112
0.0
122
1.0
132
0.0
 79
     0
146
0.0
348
9F
 60
     2
 61
     5
292
     1
282
     1
141
0.0
142
0.0
 63
   250
421
  3355443
361
ED
  0
ENDTAB
  0
TABLE
  2
LTYPE
  5
5
330
0
100
AcDbSymbolTable
 70
     1
  0
LTYPE
  5
14
330
5
100
AcDbSymbolTableRecord
100
AcDbLinetypeTableRecord
  2
ByBlock
 70
     0
  3

 72
    65
 73
     0
 40
0.0
  0
LTYPE
  5
15
330
5
100
AcDbSymbolTableRecord
100
AcDbLinetypeTableRecord
  2
ByLayer
 70
     0
  3

 72
    65
 73
     0
 40
0.0
  0
LTYPE
  5
16
330
5
100
AcDbSymbolTableRecord
100
AcDbLinetypeTableRecord
  2
Continuous
 70
     0
  3
Solid line
 72
    65
 73
     0
 40
0.0
  0
ENDTAB
  0
TABLE
  2
LAYER
  5
2
102
{ACAD_XDICTIONARY
360
163
102
}
330
0
100
AcDbSymbolTable
 70
     7
  0
LAYER
  5
10
330
2
100
AcDbSymbolTableRecord
100
AcDbLayerTableRecord
  2
0
 70
     0
 62
     7
  6
Continuous
370
    -3
390
F
347
98
348
0
  0
LAYER
  5
134
330
2
100
AcDbSymbolTableRecord
100
AcDbLayerTableRecord
  2
Defpoints
 70
     0
 62
     7
  6
Continuous
290
     0
370
    -3
390
F
347
98
348
0
  0
LAYER
  5
166
330
2
100
AcDbSymbolTableRecord
100
AcDbLayerTableRecord
  2
cutLayer
 70
     0
 62
     2
  6
Continuous
370
    -3
390
F
347
98
348
0
1001
AcAecLayerStandard
1000

1000

  0
LAYER
  5
174
330
2
100
AcDbSymbolTableRecord
100
AcDbLayerTableRecord
  2
display
 70
     0
 62
     6
  6
Continuous
370
    -3
390
F
347
98
348
0
1001
AcAecLayerStandard
1000

1000

  0
LAYER
  5
2AF
330
2
100
AcDbSymbolTableRecord
100
AcDbLayerTableRecord
  2
cut2
 70
     0
 62
     4
  6
Continuous
370
    -3
390
F
347
98
348
0
1001
AcAecLayerStandard
1000

1000

  0
LAYER
  5
2ED
330
2
100
AcDbSymbolTableRecord
100
AcDbLayerTableRecord
  2
cut3
 70
     0
 62
     1
  6
Continuous
370
    -3
390
F
347
98
348
0
1001
AcAecLayerStandard
1000

1000

  0
LAYER
  5
5A4
330
2
100
AcDbSymbolTableRecord
100
AcDbLayerTableRecord
  2
dims
 70
     0
 62
     3
  6
Continuous
290
     0
370
    -3
390
F
347
98
348
0
1001
AcAecLayerStandard
1000

1000

  0
ENDTAB
  0
TABLE
  2
STYLE
  5
3
330
0
100
AcDbSymbolTable
 70
     2
  0
STYLE
  5
11
330
3
100
AcDbSymbolTableRecord
100
AcDbTextStyleTableRecord
  2
Standard
 70
     0
 40
0.0
 41
1.0
 50
0.0
 71
     0
 42
0.2
  3
arial.ttf
  4

1001
ACAD
1000
Arial
1071
        0
  0
STYLE
  5
125
330
3
100
AcDbSymbolTableRecord
100
AcDbTextStyleTableRecord
  2
Annotative
 70
     0
 40
0.0
 41
1.0
 50
0.0
 71
     0
 42
0.2
  3
arial.ttf
  4

1001
ACAD
1000
Arial
1071
        0
1001
AcadAnnotative
1000
AnnotativeData
1002
{
1070
     1
1070
     1
1002
}
  0
ENDTAB
  0
TABLE
  2
VIEW
  5
6
330
0
100
AcDbSymbolTable
 70
     0
  0
ENDTAB
  0
TABLE
  2
UCS
  5
7
330
0
100
AcDbSymbolTable
 70
     0
  0
ENDTAB
  0
TABLE
  2
APPID
  5
9
330
0
100
AcDbSymbolTable
 70
     3
  0
APPID
  5
12
330
9
100
AcDbSymbolTableRecord
100
AcDbRegAppTableRecord
  2
ACAD
 70
     0
  0
APPID
  5
126
330
9
100
AcDbSymbolTableRecord
100
AcDbRegAppTableRecord
  2
AcadAnnotative
 70
     0
  0
APPID
  5
167
330
9
100
AcDbSymbolTableRecord
100
AcDbRegAppTableRecord
  2
AcAecLayerStandard
 70
     0
  0
ENDTAB
  0
TABLE
  2
DIMSTYLE
  5
A
330
0
100
AcDbSymbolTable
 70
     2
100
AcDbDimStyleTable
  0
DIMSTYLE
105
27
330
A
100
AcDbSymbolTableRecord
100
AcDbDimStyleTableRecord
  2
Standard
 70
     0
178
     0
340
11
  0
DIMSTYLE
105
127
330
A
100
AcDbSymbolTableRecord
100
AcDbDimStyleTableRecord
  2
Annotative
 70
     0
 40
0.0
178
     0
340
11
1001
AcadAnnotative
1000
AnnotativeData
1002
{
1070
     1
1070
     1
1002
}
  0
ENDTAB
  0
TABLE
  2
BLOCK_RECORD
  5
1
330
0
100
AcDbSymbolTable
 70
    21
  0
BLOCK_RECORD
  5
1F
330
1
100
AcDbSymbolTableRecord
100
AcDbBlockTableRecord
  2
*Model_Space
340
22
 70
     0
280
     1
281
     0
  0
BLOCK_RECORD
  5
58
330
1
100
AcDbSymbolTableRecord
100
AcDbBlockTableRecord
  2
*Paper_Space
340
59
 70
     0
280
     1
281
     0
  0
BLOCK_RECORD
  5
5D
330
1
100
AcDbSymbolTableRecord
100
AcDbBlockTableRecord
  2
*Paper_Space0
340
5E
 70
     0
280
     1
281
     0
  0
BLOCK_RECORD
  5
246
330
1
100
AcDbSymbolTableRecord
100
AcDbBlockTableRecord
  2
*D1
340
0
 70
     0
280
     1
281
     0
  0
BLOCK_RECORD
  5
28F
330
1
100
AcDbSymbolTableRecord
100
AcDbBlockTableRecord
  2
*D2
340
0
 70
     0
280
     1
281
     0
  0
BLOCK_RECORD
  5
309
330
1
100
AcDbSymbolTableRecord
100
AcDbBlockTableRecord
  2
*D4
340
0
 70
     0
280
     1
281
     0
  0
BLOCK_RECORD
  5
363
330
1
100
AcDbSymbolTableRecord
100
AcDbBlockTableRecord
  2
*D5
340
0
 70
     0
280
     1
281
     0
  0
BLOCK_RECORD
  5
373
330
1
100
AcDbSymbolTableRecord
100
AcDbBlockTableRecord
  2
*D6
340
0
 70
     0
280
     1
281
     0
  0
BLOCK_RECORD
  5
383
330
1
100
AcDbSymbolTableRecord
100
AcDbBlockTableRecord
  2
*D7
340
0
 70
     0
280
     1
281
     0
  0
BLOCK_RECORD
  5
393
330
1
100
AcDbSymbolTableRecord
100
AcDbBlockTableRecord
  2
*D8
340
0
 70
     0
280
     1
281
     0
  0
BLOCK_RECORD
  5
3C4
330
1
100
AcDbSymbolTableRecord
100
AcDbBlockTableRecord
  2
*D9
340
0
 70
     0
280
     1
281
     0
  0
BLOCK_RECORD
  5
426
330
1
100
AcDbSymbolTableRecord
100
AcDbBlockTableRecord
  2
*D10
340
0
 70
     0
280
     1
281
     0
  0
BLOCK_RECORD
  5
436
330
1
100
AcDbSymbolTableRecord
100
AcDbBlockTableRecord
  2
*D11
340
0
 70
     0
280
     1
281
     0
  0
BLOCK_RECORD
  5
446
330
1
100
AcDbSymbolTableRecord
100
AcDbBlockTableRecord
  2
*D12
340
0
 70
     0
280
     1
281
     0
  0
BLOCK_RECORD
  5
456
330
1
100
AcDbSymbolTableRecord
100
AcDbBlockTableRecord
  2
*D13
340
0
 70
     0
280
     1
281
     0
  0
BLOCK_RECORD
  5
466
330
1
100
AcDbSymbolTableRecord
100
AcDbBlockTableRecord
  2
*D14
340
0
 70
     0
280
     1
281
     0
  0
BLOCK_RECORD
  5
56B
330
1
100
AcDbSymbolTableRecord
100
AcDbBlockTableRecord
  2
*D15
340
0
 70
     0
280
     1
281
     0
  0
BLOCK_RECORD
  5
57B
330
1
100
AcDbSymbolTableRecord
100
AcDbBlockTableRecord
  2
*D16
340
0
 70
     0
280
     1
281
     0
  0
BLOCK_RECORD
  5
595
330
1
100
AcDbSymbolTableRecord
100
AcDbBlockTableRecord
  2
*D17
340
0
 70
     0
280
     1
281
     0
  0
BLOCK_RECORD
  5
5AA
330
1
100
AcDbSymbolTableRecord
100
AcDbBlockTableRecord
  2
*D18
340
0
 70
     0
280
     1
281
     0
  0
BLOCK_RECORD
  5
5BA
330
1
100
AcDbSymbolTableRecord
100
AcDbBlockTableRecord
  2
*D19
340
0
 70
     0
280
     1
281
     0
  0
BLOCK_RECORD
  5
5D1
330
1
100
AcDbSymbolTableRecord
100
AcDbBlockTableRecord
  2
*D20
340
0
 70
     0
280
     1
281
     0
  0
ENDTAB
  0
ENDSEC
  0
SECTION
  2
BLOCKS
  0
BLOCK
  5
20
330
1F
100
AcDbEntity
  8
0
100
AcDbBlockBegin
  2
*Model_Space
 70
     0
 10
0.0
 20
0.0
 30
0.0
  3
*Model_Space
  1
*Model_Space
  0
ENDBLK
  5
21
330
1F
100
AcDbEntity
  8
0
100
AcDbBlockEnd
  0
BLOCK
  5
5A
330
58
100
AcDbEntity
 67
     1
  8
0
100
AcDbBlockBegin
  2
*Paper_Space
 70
     0
 10
0.0
 20
0.0
 30
0.0
  3
*Paper_Space
  1
*Paper_Space
  0
ENDBLK
  5
5B
330
58
100
AcDbEntity
 67
     1
  8
0
100
AcDbBlockEnd
  0
BLOCK
  5
5F
330
5D
100
AcDbEntity
  8
0
100
AcDbBlockBegin
  2
*Paper_Space0
 70
     0
 10
0.0
 20
0.0
 30
0.0
  3
*Paper_Space0
  1
*Paper_Space0
  0
ENDBLK
  5
60
330
5D
100
AcDbEntity
  8
0
100
AcDbBlockEnd
  0
BLOCK
  5
247
330
246
100
AcDbEntity
  8
0
100
AcDbBlockBegin
  2
*D1
 70
     1
 10
0.0
 20
0.0
 30
0.0
  3
*D1
  1
*D5
  0
LINE
  5
249
330
246
100
AcDbEntity
  8
cutLayer
 62
     0
370
    -2
100
AcDbLine
 10
116.6102919166811
 20
140.616397028988
 30
0.0
 11
116.6102919166811
 21
147.9926652176058
 31
0.0
  0
LINE
  5
24A
330
246
100
AcDbEntity
  8
cutLayer
 62
     0
370
    -2
100
AcDbLine
 10
90.66529191668114
 20
140.616397028988
 30
0.0
 11
90.66529191668114
 21
147.9926652176058
 31
0.0
  0
LINE
  5
24B
330
246
100
AcDbEntity
  8
cutLayer
 62
     0
370
    -2
100
AcDbLine
 10
116.4302919166811
 20
147.8126652176058
 30
0.0
 11
104.2592204881097
 21
147.8126652176058
 31
0.0
  0
LINE
  5
24C
330
246
100
AcDbEntity
  8
cutLayer
 62
     0
370
    -2
100
AcDbLine
 10
90.84529191668115
 20
147.8126652176058
 30
0.0
 11
103.0163633452526
 21
147.8126652176058
 31
0.0
  0
SOLID
  5
24D
330
246
100
AcDbEntity
  8
cutLayer
 62
     0
100
AcDbTrace
 10
116.4302919166811
 20
147.7826652176058
 30
0.0
 11
116.4302919166811
 21
147.8426652176058
 31
0.0
 12
116.6102919166811
 22
147.8126652176058
 32
0.0
 13
116.6102919166811
 23
147.8126652176058
 33
0.0
  0
SOLID
  5
24E
330
246
100
AcDbEntity
  8
cutLayer
 62
     0
100
AcDbTrace
 10
90.84529191668115
 20
147.8426652176058
 30
0.0
 11
90.84529191668115
 21
147.7826652176058
 31
0.0
 12
90.66529191668114
 22
147.8126652176058
 32
0.0
 13
90.66529191668114
 23
147.8126652176058
 33
0.0
  0
MTEXT
  5
24F
330
246
100
AcDbEntity
  8
cutLayer
 62
     0
100
AcDbMText
 10
103.6377919166812
 20
147.8126652176058
 30
0.0
 40
0.18
 41
0.0
 46
0.0
 71
     5
 72
     1
  1
\A1;25.9450
 73
     1
 44
1.0
  0
POINT
  5
250
330
246
100
AcDbEntity
  8
Defpoints
 62
     0
100
AcDbPoint
 10
116.6102919166811
 20
140.553897028988
 30
0.0
  0
POINT
  5
251
330
246
100
AcDbEntity
  8
Defpoints
 62
     0
100
AcDbPoint
 10
90.66529191668114
 20
140.553897028988
 30
0.0
  0
POINT
  5
252
330
246
100
AcDbEntity
  8
Defpoints
 62
     0
100
AcDbPoint
 10
90.66529191668114
 20
147.8126652176058
 30
0.0
  0
ENDBLK
  5
248
330
246
100
AcDbEntity
  8
0
100
AcDbBlockEnd
  0
BLOCK
  5
290
330
28F
100
AcDbEntity
  8
0
100
AcDbBlockBegin
  2
*D2
 70
     1
 10
0.0
 20
0.0
 30
0.0
  3
*D2
  1
*D2
  0
LINE
  5
292
330
28F
100
AcDbEntity
  8
display
 62
     0
370
    -2
100
AcDbLine
 10
181.1377919166811
 20
162.133897028988
 30
0.0
 11
179.1223805324731
 21
162.133897028988
 31
0.0
  0
LINE
  5
293
330
28F
100
AcDbEntity
  8
display
 62
     0
370
    -2
100
AcDbLine
 10
181.1377919166811
 20
167.133897028988
 30
0.0
 11
179.1223805324731
 21
167.133897028988
 31
0.0
  0
LINE
  5
294
330
28F
100
AcDbEntity
  8
display
 62
     0
370
    -2
100
AcDbLine
 10
179.3023805324731
 20
162.313897028988
 30
0.0
 11
179.3023805324731
 21
164.453897028988
 31
0.0
  0
LINE
  5
295
330
28F
100
AcDbEntity
  8
display
 62
     0
370
    -2
100
AcDbLine
 10
179.3023805324731
 20
166.953897028988
 30
0.0
 11
179.3023805324731
 21
164.813897028988
 31
0.0
  0
SOLID
  5
296
330
28F
100
AcDbEntity
  8
display
 62
     0
100
AcDbTrace
 10
179.2723805324731
 20
162.313897028988
 30
0.0
 11
179.3323805324731
 21
162.313897028988
 31
0.0
 12
179.3023805324731
 22
162.133897028988
 32
0.0
 13
179.3023805324731
 23
162.133897028988
 33
0.0
  0
SOLID
  5
297
330
28F
100
AcDbEntity
  8
display
 62
     0
100
AcDbTrace
 10
179.3323805324731
 20
166.953897028988
 30
0.0
 11
179.2723805324731
 21
166.953897028988
 31
0.0
 12
179.3023805324731
 22
167.133897028988
 32
0.0
 13
179.3023805324731
 23
167.133897028988
 33
0.0
  0
MTEXT
  5
298
330
28F
100
AcDbEntity
  8
display
 62
     0
100
AcDbMText
 10
179.3023805324731
 20
164.633897028988
 30
0.0
 40
0.18
 41
0.0
 46
0.0
 71
     5
 72
     1
  1
\A1;5.0000
 73
     1
 44
1.0
  0
POINT
  5
299
330
28F
100
AcDbEntity
  8
Defpoints
 62
     0
100
AcDbPoint
 10
181.2002919166811
 20
162.133897028988
 30
0.0
  0
POINT
  5
29A
330
28F
100
AcDbEntity
  8
Defpoints
 62
     0
100
AcDbPoint
 10
181.2002919166811
 20
167.133897028988
 30
0.0
  0
POINT
  5
29B
330
28F
100
AcDbEntity
  8
Defpoints
 62
     0
100
AcDbPoint
 10
179.3023805324731
 20
167.133897028988
 30
0.0
  0
ENDBLK
  5
291
330
28F
100
AcDbEntity
  8
0
100
AcDbBlockEnd
  0
BLOCK
  5
30A
330
309
100
AcDbEntity
  8
0
100
AcDbBlockBegin
  2
*D4
 70
     1
 10
0.0
 20
0.0
 30
0.0
  3
*D4
  1
*D4
  0
LINE
  5
30C
330
309
100
AcDbEntity
  8
cut3
 62
     0
370
    -2
100
AcDbLine
 10
265.8802919166811
 20
167.071397028988
 30
0.0
 11
265.8802919166811
 21
132.3167003967732
 31
0.0
  0
LINE
  5
30D
330
309
100
AcDbEntity
  8
cut3
 62
     0
370
    -2
100
AcDbLine
 10
305.8802919166811
 20
167.071397028988
 30
0.0
 11
305.8802919166811
 21
132.3167003967732
 31
0.0
  0
LINE
  5
30E
330
309
100
AcDbEntity
  8
cut3
 62
     0
370
    -2
100
AcDbLine
 10
266.0602919166811
 20
132.4967003967732
 30
0.0
 11
285.2588633452525
 21
132.4967003967732
 31
0.0
  0
LINE
  5
30F
330
309
100
AcDbEntity
  8
cut3
 62
     0
370
    -2
100
AcDbLine
 10
305.7002919166811
 20
132.4967003967732
 30
0.0
 11
286.5017204881096
 21
132.4967003967732
 31
0.0
  0
SOLID
  5
310
330
309
100
AcDbEntity
  8
cut3
 62
     0
100
AcDbTrace
 10
266.0602919166811
 20
132.5267003967732
 30
0.0
 11
266.0602919166811
 21
132.4667003967732
 31
0.0
 12
265.8802919166811
 22
132.4967003967732
 32
0.0
 13
265.8802919166811
 23
132.4967003967732
 33
0.0
  0
SOLID
  5
311
330
309
100
AcDbEntity
  8
cut3
 62
     0
100
AcDbTrace
 10
305.7002919166811
 20
132.4667003967732
 30
0.0
 11
305.7002919166811
 21
132.5267003967732
 31
0.0
 12
305.8802919166811
 22
132.4967003967732
 32
0.0
 13
305.8802919166811
 23
132.4967003967732
 33
0.0
  0
MTEXT
  5
312
330
309
100
AcDbEntity
  8
cut3
 62
     0
100
AcDbMText
 10
285.8802919166811
 20
132.4967003967732
 30
0.0
 40
0.18
 41
0.0
 46
0.0
 71
     5
 72
     1
  1
\A1;40.0000
 73
     1
 44
1.0
  0
POINT
  5
313
330
309
100
AcDbEntity
  8
Defpoints
 62
     0
100
AcDbPoint
 10
265.8802919166811
 20
167.133897028988
 30
0.0
  0
POINT
  5
314
330
309
100
AcDbEntity
  8
Defpoints
 62
     0
100
AcDbPoint
 10
305.8802919166811
 20
167.133897028988
 30
0.0
  0
POINT
  5
315
330
309
100
AcDbEntity
  8
Defpoints
 62
     0
100
AcDbPoint
 10
305.8802919166811
 20
132.4967003967732
 30
0.0
  0
ENDBLK
  5
30B
330
309
100
AcDbEntity
  8
0
100
AcDbBlockEnd
  0
BLOCK
  5
364
330
363
100
AcDbEntity
  8
0
100
AcDbBlockBegin
  2
*D5
 70
     1
 10
0.0
 20
0.0
 30
0.0
  3
*D5
  1
*D5
  0
LINE
  5
366
330
363
100
AcDbEntity
  8
cut3
 62
     0
370
    -2
100
AcDbLine
 10
145.1102919166811
 20
134.766397028988
 30
0.0
 11
145.1102919166811
 21
172.5300097659857
 31
0.0
  0
LINE
  5
367
330
363
100
AcDbEntity
  8
cut3
 62
     0
370
    -2
100
AcDbLine
 10
84.72029191668113
 20
134.766397028988
 30
0.0
 11
84.72029191668113
 21
172.5300097659857
 31
0.0
  0
LINE
  5
368
330
363
100
AcDbEntity
  8
cut3
 62
     0
370
    -2
100
AcDbLine
 10
144.9302919166811
 20
172.3500097659857
 30
0.0
 11
115.5367204881097
 21
172.3500097659857
 31
0.0
  0
LINE
  5
369
330
363
100
AcDbEntity
  8
cut3
 62
     0
370
    -2
100
AcDbLine
 10
84.90029191668114
 20
172.3500097659857
 30
0.0
 11
114.2938633452525
 21
172.3500097659857
 31
0.0
  0
SOLID
  5
36A
330
363
100
AcDbEntity
  8
cut3
 62
     0
100
AcDbTrace
 10
144.9302919166811
 20
172.3200097659857
 30
0.0
 11
144.9302919166811
 21
172.3800097659857
 31
0.0
 12
145.1102919166811
 22
172.3500097659857
 32
0.0
 13
145.1102919166811
 23
172.3500097659857
 33
0.0
  0
SOLID
  5
36B
330
363
100
AcDbEntity
  8
cut3
 62
     0
100
AcDbTrace
 10
84.90029191668114
 20
172.3800097659857
 30
0.0
 11
84.90029191668114
 21
172.3200097659857
 31
0.0
 12
84.72029191668113
 22
172.3500097659857
 32
0.0
 13
84.72029191668113
 23
172.3500097659857
 33
0.0
  0
MTEXT
  5
36C
330
363
100
AcDbEntity
  8
cut3
 62
     0
100
AcDbMText
 10
114.9152919166811
 20
172.3500097659857
 30
0.0
 40
0.18
 41
0.0
 46
0.0
 71
     5
 72
     1
  1
\A1;60.3900
 73
     1
 44
1.0
  0
POINT
  5
36D
330
363
100
AcDbEntity
  8
Defpoints
 62
     0
100
AcDbPoint
 10
145.1102919166811
 20
134.703897028988
 30
0.0
  0
POINT
  5
36E
330
363
100
AcDbEntity
  8
Defpoints
 62
     0
100
AcDbPoint
 10
84.72029191668113
 20
134.703897028988
 30
0.0
  0
POINT
  5
36F
330
363
100
AcDbEntity
  8
Defpoints
 62
     0
100
AcDbPoint
 10
84.72029191668113
 20
172.3500097659857
 30
0.0
  0
ENDBLK
  5
365
330
363
100
AcDbEntity
  8
0
100
AcDbBlockEnd
  0
BLOCK
  5
374
330
373
100
AcDbEntity
  8
0
100
AcDbBlockBegin
  2
*D6
 70
     1
 10
0.0
 20
0.0
 30
0.0
  3
*D6
  1
*D6
  0
LINE
  5
376
330
373
100
AcDbEntity
  8
cut3
 62
     0
370
    -2
100
AcDbLine
 10
203.1102919166811
 20
134.766397028988
 30
0.0
 11
203.1102919166811
 21
183.7812628619085
 31
0.0
  0
LINE
  5
377
330
373
100
AcDbEntity
  8
cut3
 62
     0
370
    -2
100
AcDbLine
 10
277.6802919166811
 20
134.766397028988
 30
0.0
 11
277.6802919166811
 21
183.7812628619085
 31
0.0
  0
LINE
  5
378
330
373
100
AcDbEntity
  8
cut3
 62
     0
370
    -2
100
AcDbLine
 10
203.2902919166811
 20
183.6012628619085
 30
0.0
 11
239.7738633452525
 21
183.6012628619085
 31
0.0
  0
LINE
  5
379
330
373
100
AcDbEntity
  8
cut3
 62
     0
370
    -2
100
AcDbLine
 10
277.5002919166811
 20
183.6012628619085
 30
0.0
 11
241.0167204881097
 21
183.6012628619085
 31
0.0
  0
SOLID
  5
37A
330
373
100
AcDbEntity
  8
cut3
 62
     0
100
AcDbTrace
 10
203.2902919166811
 20
183.6312628619085
 30
0.0
 11
203.2902919166811
 21
183.5712628619085
 31
0.0
 12
203.1102919166811
 22
183.6012628619085
 32
0.0
 13
203.1102919166811
 23
183.6012628619085
 33
0.0
  0
SOLID
  5
37B
330
373
100
AcDbEntity
  8
cut3
 62
     0
100
AcDbTrace
 10
277.5002919166811
 20
183.5712628619085
 30
0.0
 11
277.5002919166811
 21
183.6312628619085
 31
0.0
 12
277.6802919166811
 22
183.6012628619085
 32
0.0
 13
277.6802919166811
 23
183.6012628619085
 33
0.0
  0
MTEXT
  5
37C
330
373
100
AcDbEntity
  8
cut3
 62
     0
100
AcDbMText
 10
240.3952919166811
 20
183.6012628619085
 30
0.0
 40
0.18
 41
0.0
 46
0.0
 71
     5
 72
     1
  1
\A1;74.5700
 73
     1
 44
1.0
  0
POINT
  5
37D
330
373
100
AcDbEntity
  8
Defpoints
 62
     0
100
AcDbPoint
 10
203.1102919166811
 20
134.703897028988
 30
0.0
  0
POINT
  5
37E
330
373
100
AcDbEntity
  8
Defpoints
 62
     0
100
AcDbPoint
 10
277.6802919166811
 20
134.703897028988
 30
0.0
  0
POINT
  5
37F
330
373
100
AcDbEntity
  8
Defpoints
 62
     0
100
AcDbPoint
 10
277.6802919166811
 20
183.6012628619085
 30
0.0
  0
ENDBLK
  5
375
330
373
100
AcDbEntity
  8
0
100
AcDbBlockEnd
  0
BLOCK
  5
384
330
383
100
AcDbEntity
  8
0
100
AcDbBlockBegin
  2
*D7
 70
     1
 10
0.0
 20
0.0
 30
0.0
  3
*D7
  1
*D7
  0
LINE
  5
386
330
383
100
AcDbEntity
  8
cut3
 62
     0
370
    -2
100
AcDbLine
 10
217.2902919166812
 20
134.766397028988
 30
0.0
 11
217.2902919166812
 21
176.2422932043422
 31
0.0
  0
LINE
  5
387
330
383
100
AcDbEntity
  8
cut3
 62
     0
370
    -2
100
AcDbLine
 10
265.7902919166811
 20
155.566397028988
 30
0.0
 11
265.7902919166811
 21
176.2422932043422
 31
0.0
  0
LINE
  5
388
330
383
100
AcDbEntity
  8
cut3
 62
     0
370
    -2
100
AcDbLine
 10
217.4702919166812
 20
176.0622932043422
 30
0.0
 11
240.9188633452526
 21
176.0622932043422
 31
0.0
  0
LINE
  5
389
330
383
100
AcDbEntity
  8
cut3
 62
     0
370
    -2
100
AcDbLine
 10
265.6102919166811
 20
176.0622932043422
 30
0.0
 11
242.1617204881097
 21
176.0622932043422
 31
0.0
  0
SOLID
  5
38A
330
383
100
AcDbEntity
  8
cut3
 62
     0
100
AcDbTrace
 10
217.4702919166812
 20
176.0922932043422
 30
0.0
 11
217.4702919166812
 21
176.0322932043422
 31
0.0
 12
217.2902919166812
 22
176.0622932043422
 32
0.0
 13
217.2902919166812
 23
176.0622932043422
 33
0.0
  0
SOLID
  5
38B
330
383
100
AcDbEntity
  8
cut3
 62
     0
100
AcDbTrace
 10
265.6102919166811
 20
176.0322932043422
 30
0.0
 11
265.6102919166811
 21
176.0922932043422
 31
0.0
 12
265.7902919166811
 22
176.0622932043422
 32
0.0
 13
265.7902919166811
 23
176.0622932043422
 33
0.0
  0
MTEXT
  5
38C
330
383
100
AcDbEntity
  8
cut3
 62
     0
100
AcDbMText
 10
241.5402919166811
 20
176.0622932043422
 30
0.0
 40
0.18
 41
0.0
 46
0.0
 71
     5
 72
     1
  1
\A1;48.5000
 73
     1
 44
1.0
  0
POINT
  5
38D
330
383
100
AcDbEntity
  8
Defpoints
 62
     0
100
AcDbPoint
 10
217.2902919166812
 20
134.703897028988
 30
0.0
  0
POINT
  5
38E
330
383
100
AcDbEntity
  8
Defpoints
 62
     0
100
AcDbPoint
 10
265.7902919166811
 20
155.503897028988
 30
0.0
  0
POINT
  5
38F
330
383
100
AcDbEntity
  8
Defpoints
 62
     0
100
AcDbPoint
 10
265.7902919166811
 20
176.0622932043422
 30
0.0
  0
ENDBLK
  5
385
330
383
100
AcDbEntity
  8
0
100
AcDbBlockEnd
  0
BLOCK
  5
394
330
393
100
AcDbEntity
  8
0
100
AcDbBlockBegin
  2
*D8
 70
     1
 10
0.0
 20
0.0
 30
0.0
  3
*D8
  1
*D8
  0
LINE
  5
396
330
393
100
AcDbEntity
  8
cut3
 62
     0
370
    -2
100
AcDbLine
 10
159.2902919166812
 20
134.766397028988
 30
0.0
 11
159.2902919166812
 21
180.0901179178227
 31
0.0
  0
LINE
  5
397
330
393
100
AcDbEntity
  8
cut3
 62
     0
370
    -2
100
AcDbLine
 10
99.59029191668117
 20
155.566397028988
 30
0.0
 11
99.59029191668117
 21
180.0901179178227
 31
0.0
  0
LINE
  5
398
330
393
100
AcDbEntity
  8
cut3
 62
     0
370
    -2
100
AcDbLine
 10
159.1102919166811
 20
179.9101179178227
 30
0.0
 11
130.0617204881097
 21
179.9101179178227
 31
0.0
  0
LINE
  5
399
330
393
100
AcDbEntity
  8
cut3
 62
     0
370
    -2
100
AcDbLine
 10
99.77029191668117
 20
179.9101179178227
 30
0.0
 11
128.8188633452526
 21
179.9101179178227
 31
0.0
  0
SOLID
  5
39A
330
393
100
AcDbEntity
  8
cut3
 62
     0
100
AcDbTrace
 10
159.1102919166811
 20
179.8801179178227
 30
0.0
 11
159.1102919166811
 21
179.9401179178227
 31
0.0
 12
159.2902919166812
 22
179.9101179178227
 32
0.0
 13
159.2902919166812
 23
179.9101179178227
 33
0.0
  0
SOLID
  5
39B
330
393
100
AcDbEntity
  8
cut3
 62
     0
100
AcDbTrace
 10
99.77029191668117
 20
179.9401179178227
 30
0.0
 11
99.77029191668117
 21
179.8801179178227
 31
0.0
 12
99.59029191668117
 22
179.9101179178227
 32
0.0
 13
99.59029191668117
 23
179.9101179178227
 33
0.0
  0
MTEXT
  5
39C
330
393
100
AcDbEntity
  8
cut3
 62
     0
100
AcDbMText
 10
129.4402919166812
 20
179.9101179178227
 30
0.0
 40
0.18
 41
0.0
 46
0.0
 71
     5
 72
     1
  1
\A1;59.7000
 73
     1
 44
1.0
  0
POINT
  5
39D
330
393
100
AcDbEntity
  8
Defpoints
 62
     0
100
AcDbPoint
 10
159.2902919166812
 20
134.703897028988
 30
0.0
  0
POINT
  5
39E
330
393
100
AcDbEntity
  8
Defpoints
 62
     0
100
AcDbPoint
 10
99.59029191668117
 20
155.503897028988
 30
0.0
  0
POINT
  5
39F
330
393
100
AcDbEntity
  8
Defpoints
 62
     0
100
AcDbPoint
 10
99.59029191668117
 20
179.9101179178227
 30
0.0
  0
ENDBLK
  5
395
330
393
100
AcDbEntity
  8
0
100
AcDbBlockEnd
  0
BLOCK
  5
3C5
330
3C4
100
AcDbEntity
  8
0
100
AcDbBlockBegin
  2
*D9
 70
     1
 10
0.0
 20
0.0
 30
0.0
  3
*D9
  1
*D9
  0
LINE
  5
3C7
330
3C4
100
AcDbEntity
  8
cutLayer
 62
     0
370
    -2
100
AcDbLine
 10
86.52029191668117
 20
98.34139702898804
 30
0.0
 11
86.52029191668117
 21
95.05712586934501
 31
0.0
  0
LINE
  5
3C8
330
3C4
100
AcDbEntity
  8
cutLayer
 62
     0
370
    -2
100
AcDbLine
 10
94.52029191668117
 20
98.34139702898804
 30
0.0
 11
94.52029191668117
 21
95.05712586934501
 31
0.0
  0
LINE
  5
3C9
330
3C4
100
AcDbEntity
  8
cutLayer
 62
     0
370
    -2
100
AcDbLine
 10
86.70029191668118
 20
95.23712586934502
 30
0.0
 11
89.98457763096688
 21
95.23712586934502
 31
0.0
  0
LINE
  5
3CA
330
3C4
100
AcDbEntity
  8
cutLayer
 62
     0
370
    -2
100
AcDbLine
 10
94.34029191668117
 20
95.23712586934502
 30
0.0
 11
91.05600620239547
 21
95.23712586934502
 31
0.0
  0
SOLID
  5
3CB
330
3C4
100
AcDbEntity
  8
cutLayer
 62
     0
100
AcDbTrace
 10
86.70029191668118
 20
95.26712586934502
 30
0.0
 11
86.70029191668118
 21
95.20712586934502
 31
0.0
 12
86.52029191668117
 22
95.23712586934502
 32
0.0
 13
86.52029191668117
 23
95.23712586934502
 33
0.0
  0
SOLID
  5
3CC
330
3C4
100
AcDbEntity
  8
cutLayer
 62
     0
100
AcDbTrace
 10
94.34029191668117
 20
95.20712586934502
 30
0.0
 11
94.34029191668117
 21
95.26712586934502
 31
0.0
 12
94.52029191668117
 22
95.23712586934502
 32
0.0
 13
94.52029191668117
 23
95.23712586934502
 33
0.0
  0
MTEXT
  5
3CD
330
3C4
100
AcDbEntity
  8
cutLayer
 62
     0
100
AcDbMText
 10
90.52029191668117
 20
95.23712586934502
 30
0.0
 40
0.18
 41
0.0
 46
0.0
 71
     5
 72
     1
  1
\A1;8.0000
 73
     1
 44
1.0
  0
POINT
  5
3CE
330
3C4
100
AcDbEntity
  8
Defpoints
 62
     0
100
AcDbPoint
 10
86.52029191668117
 20
98.40389702898804
 30
0.0
  0
POINT
  5
3CF
330
3C4
100
AcDbEntity
  8
Defpoints
 62
     0
100
AcDbPoint
 10
94.52029191668117
 20
98.40389702898804
 30
0.0
  0
POINT
  5
3D0
330
3C4
100
AcDbEntity
  8
Defpoints
 62
     0
100
AcDbPoint
 10
94.52029191668117
 20
95.23712586934502
 30
0.0
  0
ENDBLK
  5
3C6
330
3C4
100
AcDbEntity
  8
0
100
AcDbBlockEnd
  0
BLOCK
  5
427
330
426
100
AcDbEntity
  8
0
100
AcDbBlockBegin
  2
*D10
 70
     1
 10
0.0
 20
0.0
 30
0.0
  3
*D10
  1
*D10
  0
LINE
  5
429
330
426
100
AcDbEntity
  8
cutLayer
 62
     0
370
    -2
100
AcDbLine
 10
100.982791916681
 20
144.443897028988
 30
0.0
 11
108.2023237356724
 21
144.443897028988
 31
0.0
  0
LINE
  5
42A
330
426
100
AcDbEntity
  8
cutLayer
 62
     0
370
    -2
100
AcDbLine
 10
100.982791916681
 20
167.133897028988
 30
0.0
 11
108.2023237356724
 21
167.133897028988
 31
0.0
  0
LINE
  5
42B
330
426
100
AcDbEntity
  8
cutLayer
 62
     0
370
    -2
100
AcDbLine
 10
108.0223237356724
 20
144.623897028988
 30
0.0
 11
108.0223237356724
 21
155.608897028988
 31
0.0
  0
LINE
  5
42C
330
426
100
AcDbEntity
  8
cutLayer
 62
     0
370
    -2
100
AcDbLine
 10
108.0223237356724
 20
166.953897028988
 30
0.0
 11
108.0223237356724
 21
155.968897028988
 31
0.0
  0
SOLID
  5
42D
330
426
100
AcDbEntity
  8
cutLayer
 62
     0
100
AcDbTrace
 10
107.9923237356724
 20
144.623897028988
 30
0.0
 11
108.0523237356724
 21
144.623897028988
 31
0.0
 12
108.0223237356724
 22
144.443897028988
 32
0.0
 13
108.0223237356724
 23
144.443897028988
 33
0.0
  0
SOLID
  5
42E
330
426
100
AcDbEntity
  8
cutLayer
 62
     0
100
AcDbTrace
 10
108.0523237356724
 20
166.953897028988
 30
0.0
 11
107.9923237356724
 21
166.953897028988
 31
0.0
 12
108.0223237356724
 22
167.133897028988
 32
0.0
 13
108.0223237356724
 23
167.133897028988
 33
0.0
  0
MTEXT
  5
42F
330
426
100
AcDbEntity
  8
cutLayer
 62
     0
100
AcDbMText
 10
108.0223237356724
 20
155.788897028988
 30
0.0
 40
0.18
 41
0.0
 46
0.0
 71
     5
 72
     1
  1
\A1;22.6900
 73
     1
 44
1.0
  0
POINT
  5
430
330
426
100
AcDbEntity
  8
Defpoints
 62
     0
100
AcDbPoint
 10
100.920291916681
 20
144.443897028988
 30
0.0
  0
POINT
  5
431
330
426
100
AcDbEntity
  8
Defpoints
 62
     0
100
AcDbPoint
 10
100.920291916681
 20
167.133897028988
 30
0.0
  0
POINT
  5
432
330
426
100
AcDbEntity
  8
Defpoints
 62
     0
100
AcDbPoint
 10
108.0223237356724
 20
167.133897028988
 30
0.0
  0
ENDBLK
  5
428
330
426
100
AcDbEntity
  8
0
100
AcDbBlockEnd
  0
BLOCK
  5
437
330
436
100
AcDbEntity
  8
0
100
AcDbBlockBegin
  2
*D11
 70
     1
 10
0.0
 20
0.0
 30
0.0
  3
*D11
  1
*D11
  0
LINE
  5
439
330
436
100
AcDbEntity
  8
cutLayer
 62
     0
370
    -2
100
AcDbLine
 10
100.982791916681
 20
69.06389702898804
 30
0.0
 11
104.7453957824566
 21
69.06389702898804
 31
0.0
  0
LINE
  5
43A
330
436
100
AcDbEntity
  8
cutLayer
 62
     0
370
    -2
100
AcDbLine
 10
100.982791916681
 20
46.37389702898803
 30
0.0
 11
104.7453957824566
 21
46.37389702898803
 31
0.0
  0
LINE
  5
43B
330
436
100
AcDbEntity
  8
cutLayer
 62
     0
370
    -2
100
AcDbLine
 10
104.5653957824566
 20
68.88389702898803
 30
0.0
 11
104.5653957824566
 21
57.89889702898805
 31
0.0
  0
LINE
  5
43C
330
436
100
AcDbEntity
  8
cutLayer
 62
     0
370
    -2
100
AcDbLine
 10
104.5653957824566
 20
46.55389702898803
 30
0.0
 11
104.5653957824566
 21
57.53889702898803
 31
0.0
  0
SOLID
  5
43D
330
436
100
AcDbEntity
  8
cutLayer
 62
     0
100
AcDbTrace
 10
104.5953957824566
 20
68.88389702898803
 30
0.0
 11
104.5353957824566
 21
68.88389702898803
 31
0.0
 12
104.5653957824566
 22
69.06389702898804
 32
0.0
 13
104.5653957824566
 23
69.06389702898804
 33
0.0
  0
SOLID
  5
43E
330
436
100
AcDbEntity
  8
cutLayer
 62
     0
100
AcDbTrace
 10
104.5353957824566
 20
46.55389702898803
 30
0.0
 11
104.5953957824566
 21
46.55389702898803
 31
0.0
 12
104.5653957824566
 22
46.37389702898803
 32
0.0
 13
104.5653957824566
 23
46.37389702898803
 33
0.0
  0
MTEXT
  5
43F
330
436
100
AcDbEntity
  8
cutLayer
 62
     0
100
AcDbMText
 10
104.5653957824566
 20
57.71889702898804
 30
0.0
 40
0.18
 41
0.0
 46
0.0
 71
     5
 72
     1
  1
\A1;22.6900
 73
     1
 44
1.0
  0
POINT
  5
440
330
436
100
AcDbEntity
  8
Defpoints
 62
     0
100
AcDbPoint
 10
100.920291916681
 20
69.06389702898804
 30
0.0
  0
POINT
  5
441
330
436
100
AcDbEntity
  8
Defpoints
 62
     0
100
AcDbPoint
 10
100.920291916681
 20
46.37389702898803
 30
0.0
  0
POINT
  5
442
330
436
100
AcDbEntity
  8
Defpoints
 62
     0
100
AcDbPoint
 10
104.5653957824566
 20
46.37389702898803
 30
0.0
  0
ENDBLK
  5
438
330
436
100
AcDbEntity
  8
0
100
AcDbBlockEnd
  0
BLOCK
  5
447
330
446
100
AcDbEntity
  8
0
100
AcDbBlockBegin
  2
*D12
 70
     1
 10
0.0
 20
0.0
 30
0.0
  3
*D12
  1
*D12
  0
LINE
  5
449
330
446
100
AcDbEntity
  8
cutLayer
 62
     0
370
    -2
100
AcDbLine
 10
267.8802919166811
 20
105.466397028988
 30
0.0
 11
267.8802919166811
 21
106.4530311246956
 31
0.0
  0
LINE
  5
44A
330
446
100
AcDbEntity
  8
cutLayer
 62
     0
370
    -2
100
AcDbLine
 10
274.8802919166811
 20
105.466397028988
 30
0.0
 11
274.8802919166811
 21
106.4530311246956
 31
0.0
  0
LINE
  5
44B
330
446
100
AcDbEntity
  8
cutLayer
 62
     0
370
    -2
100
AcDbLine
 10
268.0602919166811
 20
106.2730311246956
 30
0.0
 11
270.8445776309668
 21
106.2730311246956
 31
0.0
  0
LINE
  5
44C
330
446
100
AcDbEntity
  8
cutLayer
 62
     0
370
    -2
100
AcDbLine
 10
274.7002919166811
 20
106.2730311246956
 30
0.0
 11
271.9160062023954
 21
106.2730311246956
 31
0.0
  0
SOLID
  5
44D
330
446
100
AcDbEntity
  8
cutLayer
 62
     0
100
AcDbTrace
 10
268.0602919166811
 20
106.3030311246956
 30
0.0
 11
268.0602919166811
 21
106.2430311246956
 31
0.0
 12
267.8802919166811
 22
106.2730311246956
 32
0.0
 13
267.8802919166811
 23
106.2730311246956
 33
0.0
  0
SOLID
  5
44E
330
446
100
AcDbEntity
  8
cutLayer
 62
     0
100
AcDbTrace
 10
274.7002919166811
 20
106.2430311246956
 30
0.0
 11
274.7002919166811
 21
106.3030311246956
 31
0.0
 12
274.8802919166811
 22
106.2730311246956
 32
0.0
 13
274.8802919166811
 23
106.2730311246956
 33
0.0
  0
MTEXT
  5
44F
330
446
100
AcDbEntity
  8
cutLayer
 62
     0
100
AcDbMText
 10
271.3802919166811
 20
106.2730311246956
 30
0.0
 40
0.18
 41
0.0
 46
0.0
 71
     5
 72
     1
  1
\A1;7.0000
 73
     1
 44
1.0
  0
POINT
  5
450
330
446
100
AcDbEntity
  8
Defpoints
 62
     0
100
AcDbPoint
 10
267.8802919166811
 20
105.403897028988
 30
0.0
  0
POINT
  5
451
330
446
100
AcDbEntity
  8
Defpoints
 62
     0
100
AcDbPoint
 10
274.8802919166811
 20
105.403897028988
 30
0.0
  0
POINT
  5
452
330
446
100
AcDbEntity
  8
Defpoints
 62
     0
100
AcDbPoint
 10
274.8802919166811
 20
106.2730311246956
 30
0.0
  0
ENDBLK
  5
448
330
446
100
AcDbEntity
  8
0
100
AcDbBlockEnd
  0
BLOCK
  5
457
330
456
100
AcDbEntity
  8
0
100
AcDbBlockBegin
  2
*D13
 70
     1
 10
0.0
 20
0.0
 30
0.0
  3
*D13
  1
*D13
  0
LINE
  5
459
330
456
100
AcDbEntity
  8
cutLayer
 62
     0
370
    -2
100
AcDbLine
 10
267.8802919166811
 20
105.528897028988
 30
0.0
 11
267.8802919166811
 21
105.9849873822898
 31
0.0
  0
LINE
  5
45A
330
456
100
AcDbEntity
  8
cutLayer
 62
     0
370
    -2
100
AcDbLine
 10
270.8802919166811
 20
105.466397028988
 30
0.0
 11
270.8802919166811
 21
105.9849873822898
 31
0.0
  0
LINE
  5
45B
330
456
100
AcDbEntity
  8
cutLayer
 62
     0
370
    -2
100
AcDbLine
 10
268.0602919166811
 20
105.8049873822898
 30
0.0
 11
268.8445776309668
 21
105.8049873822898
 31
0.0
  0
LINE
  5
45C
330
456
100
AcDbEntity
  8
cutLayer
 62
     0
370
    -2
100
AcDbLine
 10
270.7002919166811
 20
105.8049873822898
 30
0.0
 11
269.9160062023954
 21
105.8049873822898
 31
0.0
  0
SOLID
  5
45D
330
456
100
AcDbEntity
  8
cutLayer
 62
     0
100
AcDbTrace
 10
268.0602919166811
 20
105.8349873822898
 30
0.0
 11
268.0602919166811
 21
105.7749873822898
 31
0.0
 12
267.8802919166811
 22
105.8049873822898
 32
0.0
 13
267.8802919166811
 23
105.8049873822898
 33
0.0
  0
SOLID
  5
45E
330
456
100
AcDbEntity
  8
cutLayer
 62
     0
100
AcDbTrace
 10
270.7002919166811
 20
105.7749873822898
 30
0.0
 11
270.7002919166811
 21
105.8349873822898
 31
0.0
 12
270.8802919166811
 22
105.8049873822898
 32
0.0
 13
270.8802919166811
 23
105.8049873822898
 33
0.0
  0
MTEXT
  5
45F
330
456
100
AcDbEntity
  8
cutLayer
 62
     0
100
AcDbMText
 10
269.3802919166811
 20
105.8049873822898
 30
0.0
 40
0.18
 41
0.0
 46
0.0
 71
     5
 72
     1
  1
\A1;3.0000
 73
     1
 44
1.0
  0
POINT
  5
460
330
456
100
AcDbEntity
  8
Defpoints
 62
     0
100
AcDbPoint
 10
267.8802919166811
 20
105.466397028988
 30
0.0
  0
POINT
  5
461
330
456
100
AcDbEntity
  8
Defpoints
 62
     0
100
AcDbPoint
 10
270.8802919166811
 20
105.403897028988
 30
0.0
  0
POINT
  5
462
330
456
100
AcDbEntity
  8
Defpoints
 62
     0
100
AcDbPoint
 10
270.8802919166811
 20
105.8049873822898
 30
0.0
  0
ENDBLK
  5
458
330
456
100
AcDbEntity
  8
0
100
AcDbBlockEnd
  0
BLOCK
  5
467
330
466
100
AcDbEntity
  8
0
100
AcDbBlockBegin
  2
*D14
 70
     1
 10
0.0
 20
0.0
 30
0.0
  3
*D14
  1
*D14
  0
LINE
  5
469
330
466
100
AcDbEntity
  8
cutLayer
 62
     0
370
    -2
100
AcDbLine
 10
267.8802919166811
 20
108.041397028988
 30
0.0
 11
267.8802919166811
 21
107.2631404807102
 31
0.0
  0
LINE
  5
46A
330
466
100
AcDbEntity
  8
cutLayer
 62
     0
370
    -2
100
AcDbLine
 10
272.8802919166811
 20
108.041397028988
 30
0.0
 11
272.8802919166811
 21
107.2631404807102
 31
0.0
  0
LINE
  5
46B
330
466
100
AcDbEntity
  8
cutLayer
 62
     0
370
    -2
100
AcDbLine
 10
268.0602919166811
 20
107.4431404807102
 30
0.0
 11
269.8445776309668
 21
107.4431404807102
 31
0.0
  0
LINE
  5
46C
330
466
100
AcDbEntity
  8
cutLayer
 62
     0
370
    -2
100
AcDbLine
 10
272.7002919166811
 20
107.4431404807102
 30
0.0
 11
270.9160062023954
 21
107.4431404807102
 31
0.0
  0
SOLID
  5
46D
330
466
100
AcDbEntity
  8
cutLayer
 62
     0
100
AcDbTrace
 10
268.0602919166811
 20
107.4731404807102
 30
0.0
 11
268.0602919166811
 21
107.4131404807102
 31
0.0
 12
267.8802919166811
 22
107.4431404807102
 32
0.0
 13
267.8802919166811
 23
107.4431404807102
 33
0.0
  0
SOLID
  5
46E
330
466
100
AcDbEntity
  8
cutLayer
 62
     0
100
AcDbTrace
 10
272.7002919166811
 20
107.4131404807102
 30
0.0
 11
272.7002919166811
 21
107.4731404807102
 31
0.0
 12
272.8802919166811
 22
107.4431404807102
 32
0.0
 13
272.8802919166811
 23
107.4431404807102
 33
0.0
  0
MTEXT
  5
46F
330
466
100
AcDbEntity
  8
cutLayer
 62
     0
100
AcDbMText
 10
270.3802919166811
 20
107.4431404807102
 30
0.0
 40
0.18
 41
0.0
 46
0.0
 71
     5
 72
     1
  1
\A1;5.0000
 73
     1
 44
1.0
  0
POINT
  5
470
330
466
100
AcDbEntity
  8
Defpoints
 62
     0
100
AcDbPoint
 10
267.8802919166811
 20
108.103897028988
 30
0.0
  0
POINT
  5
471
330
466
100
AcDbEntity
  8
Defpoints
 62
     0
100
AcDbPoint
 10
272.8802919166811
 20
108.103897028988
 30
0.0
  0
POINT
  5
472
330
466
100
AcDbEntity
  8
Defpoints
 62
     0
100
AcDbPoint
 10
272.8802919166811
 20
107.4431404807102
 30
0.0
  0
ENDBLK
  5
468
330
466
100
AcDbEntity
  8
0
100
AcDbBlockEnd
  0
BLOCK
  5
56C
330
56B
100
AcDbEntity
  8
0
100
AcDbBlockBegin
  2
*D15
 70
     1
 10
0.0
 20
0.0
 30
0.0
  3
*D15
  1
*D15
  0
LINE
  5
56E
330
56B
100
AcDbEntity
  8
cut3
 62
     0
370
    -2
100
AcDbLine
 10
245.8527919166812
 20
140.553897028988
 30
0.0
 11
249.6824183961592
 21
140.553897028988
 31
0.0
  0
LINE
  5
56F
330
56B
100
AcDbEntity
  8
cut3
 62
     0
370
    -2
100
AcDbLine
 10
245.8527919166812
 20
162.133897028988
 30
0.0
 11
249.6824183961592
 21
162.133897028988
 31
0.0
  0
LINE
  5
570
330
56B
100
AcDbEntity
  8
cut3
 62
     0
370
    -2
100
AcDbLine
 10
249.5024183961592
 20
140.733897028988
 30
0.0
 11
249.5024183961592
 21
151.163897028988
 31
0.0
  0
LINE
  5
571
330
56B
100
AcDbEntity
  8
cut3
 62
     0
370
    -2
100
AcDbLine
 10
249.5024183961592
 20
161.953897028988
 30
0.0
 11
249.5024183961592
 21
151.523897028988
 31
0.0
  0
SOLID
  5
572
330
56B
100
AcDbEntity
  8
cut3
 62
     0
100
AcDbTrace
 10
249.4724183961592
 20
140.733897028988
 30
0.0
 11
249.5324183961592
 21
140.733897028988
 31
0.0
 12
249.5024183961592
 22
140.553897028988
 32
0.0
 13
249.5024183961592
 23
140.553897028988
 33
0.0
  0
SOLID
  5
573
330
56B
100
AcDbEntity
  8
cut3
 62
     0
100
AcDbTrace
 10
249.5324183961592
 20
161.953897028988
 30
0.0
 11
249.4724183961592
 21
161.953897028988
 31
0.0
 12
249.5024183961592
 22
162.133897028988
 32
0.0
 13
249.5024183961592
 23
162.133897028988
 33
0.0
  0
MTEXT
  5
574
330
56B
100
AcDbEntity
  8
cut3
 62
     0
100
AcDbMText
 10
249.5024183961592
 20
151.343897028988
 30
0.0
 40
0.18
 41
0.0
 46
0.0
 71
     5
 72
     1
  1
\A1;21.5800
 73
     1
 44
1.0
  0
POINT
  5
575
330
56B
100
AcDbEntity
  8
Defpoints
 62
     0
100
AcDbPoint
 10
245.7902919166812
 20
140.553897028988
 30
0.0
  0
POINT
  5
576
330
56B
100
AcDbEntity
  8
Defpoints
 62
     0
100
AcDbPoint
 10
245.7902919166812
 20
162.133897028988
 30
0.0
  0
POINT
  5
577
330
56B
100
AcDbEntity
  8
Defpoints
 62
     0
100
AcDbPoint
 10
249.5024183961592
 20
162.133897028988
 30
0.0
  0
ENDBLK
  5
56D
330
56B
100
AcDbEntity
  8
0
100
AcDbBlockEnd
  0
BLOCK
  5
57C
330
57B
100
AcDbEntity
  8
0
100
AcDbBlockBegin
  2
*D16
 70
     1
 10
0.0
 20
0.0
 30
0.0
  3
*D16
  1
*D16
  0
LINE
  5
57E
330
57B
100
AcDbEntity
  8
cut3
 62
     0
370
    -2
100
AcDbLine
 10
245.8527919166812
 20
74.90389702898804
 30
0.0
 11
253.7272437572601
 21
74.90389702898804
 31
0.0
  0
LINE
  5
57F
330
57B
100
AcDbEntity
  8
cut3
 62
     0
370
    -2
100
AcDbLine
 10
245.8527919166812
 20
51.37389702898803
 30
0.0
 11
253.7272437572601
 21
51.37389702898803
 31
0.0
  0
LINE
  5
580
330
57B
100
AcDbEntity
  8
cut3
 62
     0
370
    -2
100
AcDbLine
 10
253.54724375726
 20
74.72389702898803
 30
0.0
 11
253.54724375726
 21
63.31889702898805
 31
0.0
  0
LINE
  5
581
330
57B
100
AcDbEntity
  8
cut3
 62
     0
370
    -2
100
AcDbLine
 10
253.54724375726
 20
51.55389702898803
 30
0.0
 11
253.54724375726
 21
62.95889702898803
 31
0.0
  0
SOLID
  5
582
330
57B
100
AcDbEntity
  8
cut3
 62
     0
100
AcDbTrace
 10
253.57724375726
 20
74.72389702898803
 30
0.0
 11
253.51724375726
 21
74.72389702898803
 31
0.0
 12
253.54724375726
 22
74.90389702898804
 32
0.0
 13
253.54724375726
 23
74.90389702898804
 33
0.0
  0
SOLID
  5
583
330
57B
100
AcDbEntity
  8
cut3
 62
     0
100
AcDbTrace
 10
253.51724375726
 20
51.55389702898803
 30
0.0
 11
253.57724375726
 21
51.55389702898803
 31
0.0
 12
253.54724375726
 22
51.37389702898803
 32
0.0
 13
253.54724375726
 23
51.37389702898803
 33
0.0
  0
MTEXT
  5
584
330
57B
100
AcDbEntity
  8
cut3
 62
     0
100
AcDbMText
 10
253.54724375726
 20
63.13889702898804
 30
0.0
 40
0.18
 41
0.0
 46
0.0
 71
     5
 72
     1
  1
\A1;23.5300
 73
     1
 44
1.0
  0
POINT
  5
585
330
57B
100
AcDbEntity
  8
Defpoints
 62
     0
100
AcDbPoint
 10
245.7902919166812
 20
74.90389702898804
 30
0.0
  0
POINT
  5
586
330
57B
100
AcDbEntity
  8
Defpoints
 62
     0
100
AcDbPoint
 10
245.7902919166812
 20
51.37389702898803
 30
0.0
  0
POINT
  5
587
330
57B
100
AcDbEntity
  8
Defpoints
 62
     0
100
AcDbPoint
 10
253.54724375726
 20
51.37389702898803
 30
0.0
  0
ENDBLK
  5
57D
330
57B
100
AcDbEntity
  8
0
100
AcDbBlockEnd
  0
BLOCK
  5
596
330
595
100
AcDbEntity
  8
0
100
AcDbBlockBegin
  2
*D17
 70
     1
 10
0.0
 20
0.0
 30
0.0
  3
*D17
  1
*D17
  0
LINE
  5
598
330
595
100
AcDbEntity
  8
cut2
 62
     0
370
    -2
100
AcDbLine
 10
182.6277919166811
 20
158.818897028988
 30
0.0
 11
182.4286452278101
 21
158.818897028988
 31
0.0
  0
LINE
  5
599
330
595
100
AcDbEntity
  8
cut2
 62
     0
370
    -2
100
AcDbLine
 10
182.6277919166811
 20
162.133897028988
 30
0.0
 11
182.4286452278101
 21
162.133897028988
 31
0.0
  0
LINE
  5
59A
330
595
100
AcDbEntity
  8
cut2
 62
     0
370
    -2
100
AcDbLine
 10
182.6086452278101
 20
158.998897028988
 30
0.0
 11
182.6086452278101
 21
160.296397028988
 31
0.0
  0
LINE
  5
59B
330
595
100
AcDbEntity
  8
cut2
 62
     0
370
    -2
100
AcDbLine
 10
182.6086452278101
 20
161.953897028988
 30
0.0
 11
182.6086452278101
 21
160.656397028988
 31
0.0
  0
SOLID
  5
59C
330
595
100
AcDbEntity
  8
cut2
 62
     0
100
AcDbTrace
 10
182.5786452278101
 20
158.998897028988
 30
0.0
 11
182.6386452278101
 21
158.998897028988
 31
0.0
 12
182.6086452278101
 22
158.818897028988
 32
0.0
 13
182.6086452278101
 23
158.818897028988
 33
0.0
  0
SOLID
  5
59D
330
595
100
AcDbEntity
  8
cut2
 62
     0
100
AcDbTrace
 10
182.6386452278101
 20
161.953897028988
 30
0.0
 11
182.5786452278101
 21
161.953897028988
 31
0.0
 12
182.6086452278101
 22
162.133897028988
 32
0.0
 13
182.6086452278101
 23
162.133897028988
 33
0.0
  0
MTEXT
  5
59E
330
595
100
AcDbEntity
  8
cut2
 62
     0
100
AcDbMText
 10
182.6086452278101
 20
160.476397028988
 30
0.0
 40
0.18
 41
0.0
 46
0.0
 71
     5
 72
     1
  1
\A1;3.3150
 73
     1
 44
1.0
  0
POINT
  5
59F
330
595
100
AcDbEntity
  8
Defpoints
 62
     0
100
AcDbPoint
 10
182.6902919166811
 20
158.818897028988
 30
0.0
  0
POINT
  5
5A0
330
595
100
AcDbEntity
  8
Defpoints
 62
     0
100
AcDbPoint
 10
182.6902919166811
 20
162.133897028988
 30
0.0
  0
POINT
  5
5A1
330
595
100
AcDbEntity
  8
Defpoints
 62
     0
100
AcDbPoint
 10
182.6086452278101
 20
162.133897028988
 30
0.0
  0
ENDBLK
  5
597
330
595
100
AcDbEntity
  8
0
100
AcDbBlockEnd
  0
BLOCK
  5
5AB
330
5AA
100
AcDbEntity
  8
0
100
AcDbBlockBegin
  2
*D18
 70
     1
 10
0.0
 20
0.0
 30
0.0
  3
*D18
  1
*D18
  0
LINE
  5
5AD
330
5AA
100
AcDbEntity
  8
dims
 62
     0
370
    -2
100
AcDbLine
 10
181.2627919166811
 20
51.37389702898804
 30
0.0
 11
184.4459569798484
 21
51.37389702898804
 31
0.0
  0
LINE
  5
5AE
330
5AA
100
AcDbEntity
  8
dims
 62
     0
370
    -2
100
AcDbLine
 10
181.2627919166811
 20
54.90389702898808
 30
0.0
 11
184.4459569798484
 21
54.90389702898808
 31
0.0
  0
LINE
  5
5AF
330
5AA
100
AcDbEntity
  8
dims
 62
     0
370
    -2
100
AcDbLine
 10
184.2659569798484
 20
51.55389702898804
 30
0.0
 11
184.2659569798484
 21
52.95889702898805
 31
0.0
  0
LINE
  5
5B0
330
5AA
100
AcDbEntity
  8
dims
 62
     0
370
    -2
100
AcDbLine
 10
184.2659569798484
 20
54.72389702898808
 30
0.0
 11
184.2659569798484
 21
53.31889702898806
 31
0.0
  0
SOLID
  5
5B1
330
5AA
100
AcDbEntity
  8
dims
 62
     0
100
AcDbTrace
 10
184.2359569798484
 20
51.55389702898804
 30
0.0
 11
184.2959569798484
 21
51.55389702898804
 31
0.0
 12
184.2659569798484
 22
51.37389702898804
 32
0.0
 13
184.2659569798484
 23
51.37389702898804
 33
0.0
  0
SOLID
  5
5B2
330
5AA
100
AcDbEntity
  8
dims
 62
     0
100
AcDbTrace
 10
184.2959569798484
 20
54.72389702898808
 30
0.0
 11
184.2359569798484
 21
54.72389702898808
 31
0.0
 12
184.2659569798484
 22
54.90389702898808
 32
0.0
 13
184.2659569798484
 23
54.90389702898808
 33
0.0
  0
MTEXT
  5
5B3
330
5AA
100
AcDbEntity
  8
dims
 62
     0
100
AcDbMText
 10
184.2659569798484
 20
53.13889702898805
 30
0.0
 40
0.18
 41
0.0
 46
0.0
 71
     5
 72
     1
  1
\A1;3.5300
 73
     1
 44
1.0
  0
POINT
  5
5B4
330
5AA
100
AcDbEntity
  8
Defpoints
 62
     0
100
AcDbPoint
 10
181.2002919166811
 20
51.37389702898804
 30
0.0
  0
POINT
  5
5B5
330
5AA
100
AcDbEntity
  8
Defpoints
 62
     0
100
AcDbPoint
 10
181.2002919166811
 20
54.90389702898808
 30
0.0
  0
POINT
  5
5B6
330
5AA
100
AcDbEntity
  8
Defpoints
 62
     0
100
AcDbPoint
 10
184.2659569798484
 20
54.90389702898808
 30
0.0
  0
ENDBLK
  5
5AC
330
5AA
100
AcDbEntity
  8
0
100
AcDbBlockEnd
  0
BLOCK
  5
5BB
330
5BA
100
AcDbEntity
  8
0
100
AcDbBlockBegin
  2
*D19
 70
     1
 10
0.0
 20
0.0
 30
0.0
  3
*D19
  1
*D19
  0
LINE
  5
5BD
330
5BA
100
AcDbEntity
  8
dims
 62
     0
370
    -2
100
AcDbLine
 10
182.7527919166811
 20
155.503897028988
 30
0.0
 11
187.2059675461562
 21
155.503897028988
 31
0.0
  0
LINE
  5
5BE
330
5BA
100
AcDbEntity
  8
dims
 62
     0
370
    -2
100
AcDbLine
 10
182.7527919166811
 20
162.133897028988
 30
0.0
 11
187.2059675461562
 21
162.133897028988
 31
0.0
  0
LINE
  5
5BF
330
5BA
100
AcDbEntity
  8
dims
 62
     0
370
    -2
100
AcDbLine
 10
187.0259675461562
 20
155.683897028988
 30
0.0
 11
187.0259675461562
 21
158.638897028988
 31
0.0
  0
LINE
  5
5C0
330
5BA
100
AcDbEntity
  8
dims
 62
     0
370
    -2
100
AcDbLine
 10
187.0259675461562
 20
161.953897028988
 30
0.0
 11
187.0259675461562
 21
158.998897028988
 31
0.0
  0
SOLID
  5
5C1
330
5BA
100
AcDbEntity
  8
dims
 62
     0
100
AcDbTrace
 10
186.9959675461562
 20
155.683897028988
 30
0.0
 11
187.0559675461562
 21
155.683897028988
 31
0.0
 12
187.0259675461562
 22
155.503897028988
 32
0.0
 13
187.0259675461562
 23
155.503897028988
 33
0.0
  0
SOLID
  5
5C2
330
5BA
100
AcDbEntity
  8
dims
 62
     0
100
AcDbTrace
 10
187.0559675461562
 20
161.953897028988
 30
0.0
 11
186.9959675461562
 21
161.953897028988
 31
0.0
 12
187.0259675461562
 22
162.133897028988
 32
0.0
 13
187.0259675461562
 23
162.133897028988
 33
0.0
  0
MTEXT
  5
5C3
330
5BA
100
AcDbEntity
  8
dims
 62
     0
100
AcDbMText
 10
187.0259675461562
 20
158.818897028988
 30
0.0
 40
0.18
 41
0.0
 46
0.0
 71
     5
 72
     1
  1
\A1;6.6300
 73
     1
 44
1.0
  0
POINT
  5
5C4
330
5BA
100
AcDbEntity
  8
Defpoints
 62
     0
100
AcDbPoint
 10
182.6902919166811
 20
155.503897028988
 30
0.0
  0
POINT
  5
5C5
330
5BA
100
AcDbEntity
  8
Defpoints
 62
     0
100
AcDbPoint
 10
182.6902919166811
 20
162.133897028988
 30
0.0
  0
POINT
  5
5C6
330
5BA
100
AcDbEntity
  8
Defpoints
 62
     0
100
AcDbPoint
 10
187.0259675461562
 20
162.133897028988
 30
0.0
  0
ENDBLK
  5
5BC
330
5BA
100
AcDbEntity
  8
0
100
AcDbBlockEnd
  0
BLOCK
  5
5D2
330
5D1
100
AcDbEntity
  8
0
100
AcDbBlockBegin
  2
*D20
 70
     1
 10
0.0
 20
0.0
 30
0.0
  3
*D20
  1
*D20
  0
LINE
  5
5D4
330
5D1
100
AcDbEntity
  8
cut3
 62
     0
370
    -2
100
AcDbLine
 10
44.45779191668123
 20
76.40389702898804
 30
0.0
 11
36.78060784237321
 21
76.40389702898804
 31
0.0
  0
LINE
  5
5D5
330
5D1
100
AcDbEntity
  8
cut3
 62
     0
370
    -2
100
AcDbLine
 10
44.45779191668117
 20
72.95389702898802
 30
0.0
 11
36.78060784237321
 21
72.95389702898802
 31
0.0
  0
LINE
  5
5D6
330
5D1
100
AcDbEntity
  8
cut3
 62
     0
370
    -2
100
AcDbLine
 10
36.96060784237321
 20
76.22389702898803
 30
0.0
 11
36.96060784237321
 21
74.85889702898804
 31
0.0
  0
LINE
  5
5D7
330
5D1
100
AcDbEntity
  8
cut3
 62
     0
370
    -2
100
AcDbLine
 10
36.96060784237321
 20
73.13389702898803
 30
0.0
 11
36.96060784237321
 21
74.49889702898803
 31
0.0
  0
SOLID
  5
5D8
330
5D1
100
AcDbEntity
  8
cut3
 62
     0
100
AcDbTrace
 10
36.99060784237322
 20
76.22389702898803
 30
0.0
 11
36.93060784237321
 21
76.22389702898803
 31
0.0
 12
36.96060784237321
 22
76.40389702898804
 32
0.0
 13
36.96060784237321
 23
76.40389702898804
 33
0.0
  0
SOLID
  5
5D9
330
5D1
100
AcDbEntity
  8
cut3
 62
     0
100
AcDbTrace
 10
36.93060784237321
 20
73.13389702898803
 30
0.0
 11
36.99060784237322
 21
73.13389702898803
 31
0.0
 12
36.96060784237321
 22
72.95389702898802
 32
0.0
 13
36.96060784237321
 23
72.95389702898802
 33
0.0
  0
MTEXT
  5
5DA
330
5D1
100
AcDbEntity
  8
cut3
 62
     0
100
AcDbMText
 10
36.96060784237321
 20
74.67889702898803
 30
0.0
 40
0.18
 41
0.0
 46
0.0
 71
     5
 72
     1
  1
\A1;3.4500
 73
     1
 44
1.0
  0
POINT
  5
5DB
330
5D1
100
AcDbEntity
  8
Defpoints
 62
     0
100
AcDbPoint
 10
44.52029191668123
 20
76.40389702898804
 30
0.0
  0
POINT
  5
5DC
330
5D1
100
AcDbEntity
  8
Defpoints
 62
     0
100
AcDbPoint
 10
44.52029191668117
 20
72.95389702898802
 30
0.0
  0
POINT
  5
5DD
330
5D1
100
AcDbEntity
  8
Defpoints
 62
     0
100
AcDbPoint
 10
36.96060784237321
 20
72.95389702898802
 30
0.0
  0
ENDBLK
  5
5D3
330
5D1
100
AcDbEntity
  8
0
100
AcDbBlockEnd
  0
ENDSEC
  0
SECTION
  2
ENTITIES
  0
LWPOLYLINE
  5
129
102
{ACAD_REACTORS
102
}
330
1F
100
AcDbEntity
  8
display
100
AcDbPolyline
 90
        8
 70
     1
 43
0.0
 10
277.6802919166811
 20
154.133897028988
 10
277.6802919166811
 20
59.37389702898801
 42
-0.414213562373095
 10
269.6802919166811
 20
51.37389702898801
 10
92.72029191668116
 20
51.37389702898801
 42
-0.414213562373095
 10
84.72029191668116
 20
59.37389702898801
 10
84.72029191668116
 20
154.133897028988
 42
-0.414213562373095
 10
92.72029191668116
 20
162.133897028988
 10
269.6802919166811
 20
162.133897028988
 42
-0.414213562373095
  0
CIRCLE
  5
12E
330
1F
100
AcDbEntity
  8
cutLayer
100
AcDbCircle
 10
245.7902919166812
 20
72.95389702898802
 30
0.0
 40
1.35
  0
CIRCLE
  5
12F
330
1F
100
AcDbEntity
  8
cutLayer
100
AcDbCircle
 10
245.7902919166812
 20
138.603897028988
 30
0.0
 40
1.35
  0
CIRCLE
  5
130
330
1F
100
AcDbEntity
  8
cutLayer
100
AcDbCircle
 10
119.5902919166811
 20
138.603897028988
 30
0.0
 40
1.35
  0
CIRCLE
  5
131
330
1F
100
AcDbEntity
  8
cutLayer
100
AcDbCircle
 10
119.5902919166811
 20
72.95389702898802
 30
0.0
 40
1.35
  0
LWPOLYLINE
  5
132
102
{ACAD_REACTORS
102
}
330
1F
100
AcDbEntity
  8
display
100
AcDbPolyline
 90
        4
 70
     1
 43
0.0
 10
265.7902919166811
 20
158.6038970289879
 10
265.7902919166811
 20
58.00389702898801
 10
99.59029191668117
 20
58.00389702898801
 10
99.59029191668117
 20
158.6038970289879
  0
LWPOLYLINE
  5
159
102
{ACAD_REACTORS
102
}
330
1F
100
AcDbEntity
  8
cutLayer
100
AcDbPolyline
 90
        8
 70
     1
 43
0.0
 10
282.6802919166811
 20
159.133897028988
 10
282.6802919166811
 20
54.37389702898801
 42
-0.414213562373095
 10
274.6802919166811
 20
46.37389702898801
 10
87.72029191668116
 20
46.37389702898801
 42
-0.414213562373095
 10
79.72029191668116
 20
54.37389702898801
 10
79.72029191668116
 20
159.133897028988
 42
-0.414213562373095
 10
87.72029191668116
 20
167.133897028988
 10
274.6802919166811
 20
167.133897028988
 42
-0.414213562373095
  0
CIRCLE
  5
1AC
102
{ACAD_REACTORS
102
}
330
1F
100
AcDbEntity
  8
display
100
AcDbCircle
 10
245.7902919166812
 20
72.95389702898802
 30
0.0
 40
1.6
  0
CIRCLE
  5
1AD
102
{ACAD_REACTORS
102
}
330
1F
100
AcDbEntity
  8
display
100
AcDbCircle
 10
245.7902919166812
 20
138.603897028988
 30
0.0
 40
1.6
  0
CIRCLE
  5
1AE
330
1F
100
AcDbEntity
  8
display
100
AcDbCircle
 10
119.5902919166811
 20
138.603897028988
 30
0.0
 40
1.6
  0
CIRCLE
  5
1AF
330
1F
100
AcDbEntity
  8
display
100
AcDbCircle
 10
119.5902919166811
 20
72.95389702898802
 30
0.0
 40
1.6
  0
CIRCLE
  5
1B3
102
{ACAD_REACTORS
102
}
330
1F
100
AcDbEntity
  8
display
100
AcDbCircle
 10
217.2902919166812
 20
78.80389702898802
 30
0.0
 40
1.35
  0
CIRCLE
  5
1B4
330
1F
100
AcDbEntity
  8
display
100
AcDbCircle
 10
217.2902919166812
 20
127.803897028988
 30
0.0
 40
1.35
  0
CIRCLE
  5
1B5
330
1F
100
AcDbEntity
  8
display
100
AcDbCircle
 10
159.2902919166812
 20
127.803897028988
 30
0.0
 40
1.35
  0
CIRCLE
  5
1B6
102
{ACAD_REACTORS
102
}
330
1F
100
AcDbEntity
  8
display
100
AcDbCircle
 10
159.2902919166812
 20
78.80389702898802
 30
0.0
 40
1.35
  0
LWPOLYLINE
  5
1BA
330
1F
100
AcDbEntity
  8
cutLayer
100
AcDbPolyline
 90
        4
 70
     1
 43
0.0
 10
267.8802919166811
 20
84.06389702898801
 10
267.8802919166811
 20
69.06389702898801
 10
261.4802919166812
 20
69.06389702898801
 10
261.4802919166812
 20
84.06389702898801
  0
LWPOLYLINE
  5
23D
330
1F
100
AcDbEntity
  8
cutLayer
100
AcDbPolyline
 90
        4
 70
     1
 43
0.0
 10
267.8802919166812
 20
144.443897028988
 10
267.8802919166812
 20
129.443897028988
 10
261.4802919166812
 20
129.443897028988
 10
261.4802919166812
 20
144.443897028988
  0
LWPOLYLINE
  5
23E
330
1F
100
AcDbEntity
  8
cutLayer
100
AcDbPolyline
 90
        4
 70
     1
 43
0.0
 10
100.920291916681
 20
144.443897028988
 10
100.920291916681
 20
129.443897028988
 10
94.52029191668117
 20
129.443897028988
 10
94.52029191668117
 20
144.443897028988
  0
LWPOLYLINE
  5
23F
330
1F
100
AcDbEntity
  8
cutLayer
100
AcDbPolyline
 90
        4
 70
     1
 43
0.0
 10
100.920291916681
 20
84.06389702898801
 10
100.920291916681
 20
69.06389702898801
 10
94.52029191668117
 20
69.06389702898801
 10
94.52029191668117
 20
84.06389702898801
  0
CIRCLE
  5
265
330
1F
100
AcDbEntity
  8
cutLayer
100
AcDbCircle
 10
275.2802919166811
 20
135.8684388776242
 30
0.0
 40
1.6
  0
CIRCLE
  5
26E
330
1F
100
AcDbEntity
  8
cutLayer
100
AcDbCircle
 10
264.6802919166812
 20
106.753897028988
 30
0.0
 40
1.35
  0
LWPOLYLINE
  5
273
102
{ACAD_REACTORS
102
}
330
1F
100
AcDbEntity
  8
cutLayer
100
AcDbPolyline
 90
        4
 70
     1
 43
0.0
 10
235.7902919166812
 20
54.68889702898801
 10
235.7902919166812
 20
153.6038970289879
 10
129.5902919166811
 20
153.6038970289879
 10
129.5902919166811
 20
54.68889702898801
  0
LWPOLYLINE
  5
2DA
330
1F
100
AcDbEntity
  8
cut2
100
AcDbPolyline
 90
        8
 70
     1
 43
0.0
 10
282.6802919166811
 20
159.133897028988
 10
282.6802919166811
 20
54.37389702898801
 42
-0.414213562373095
 10
274.6802919166811
 20
46.37389702898801
 10
87.72029191668116
 20
46.37389702898801
 42
-0.414213562373095
 10
79.72029191668116
 20
54.37389702898801
 10
79.72029191668116
 20
159.133897028988
 42
-0.414213562373095
 10
87.72029191668116
 20
167.133897028988
 10
274.6802919166811
 20
167.133897028988
 42
-0.414213562373095
  0
LWPOLYLINE
  5
2DF
330
1F
100
AcDbEntity
  8
cut2
100
AcDbPolyline
 90
        8
 70
     1
 43
0.0
 10
278.6802919166811
 20
155.133897028988
 10
278.6802919166811
 20
58.37389702898804
 42
-0.414213562373095
 10
270.6802919166811
 20
50.37389702898804
 10
91.72029191668116
 20
50.37389702898801
 42
-0.414213562373095
 10
83.72029191668116
 20
58.37389702898801
 10
83.72029191668116
 20
155.133897028988
 42
-0.414213562373095
 10
91.72029191668116
 20
163.133897028988
 10
270.6802919166811
 20
163.133897028988
 42
-0.414213562373095
  0
CIRCLE
  5
2E1
330
1F
100
AcDbEntity
  8
cut2
100
AcDbCircle
 10
278.3371461661735
 20
50.71704277949567
 30
0.0
 40
1.0
  0
CIRCLE
  5
2E5
330
1F
100
AcDbEntity
  8
cut2
100
AcDbCircle
 10
84.0634376671888
 20
50.71704277949564
 30
0.0
 40
1.0
  0
CIRCLE
  5
2E6
330
1F
100
AcDbEntity
  8
cut2
100
AcDbCircle
 10
84.0634376671888
 20
162.7907512784803
 30
0.0
 40
1.0
  0
CIRCLE
  5
2E7
330
1F
100
AcDbEntity
  8
cut2
100
AcDbCircle
 10
278.3371461661735
 20
162.7907512784804
 30
0.0
 40
1.0
  0
LWPOLYLINE
  5
339
330
1F
100
AcDbEntity
  8
cut3
100
AcDbPolyline
 90
        4
 70
     1
 43
0.0
 10
64.52029191668117
 20
88.40389702898804
 10
64.52029191668117
 20
92.40389702898804
 10
59.52029191668117
 20
92.40389702898804
 10
59.52029191668117
 20
88.40389702898804
  0
LWPOLYLINE
  5
33A
330
1F
100
AcDbEntity
  8
cut3
100
AcDbPolyline
 90
        4
 70
     1
 43
0.0
 10
59.52029191668117
 20
92.40389702898804
 10
59.52029191668117
 20
88.40389702898804
 10
44.52029191668117
 20
88.40389702898804
 10
44.52029191668117
 20
92.40389702898804
  0
CIRCLE
  5
340
330
1F
100
AcDbEntity
  8
cutLayer
100
AcDbCircle
 10
275.2802919166811
 20
76.56389702898801
 30
0.0
 40
1.6
  0
CIRCLE
  5
341
330
1F
100
AcDbEntity
  8
cutLayer
100
AcDbCircle
 10
87.12029191668114
 20
76.56389702898801
 30
0.0
 40
1.6
  0
CIRCLE
  5
342
330
1F
100
AcDbEntity
  8
cutLayer
100
AcDbCircle
 10
87.12029191668114
 20
136.943897028988
 30
0.0
 40
1.6
  0
CIRCLE
  5
3E6
330
1F
100
AcDbEntity
  8
cutLayer
100
AcDbCircle
 10
97.7202919166811
 20
106.753897028988
 30
0.0
 40
1.35
  0
LWPOLYLINE
  5
473
330
1F
100
AcDbEntity
  8
cut3
100
AcDbPolyline
 90
       24
 70
     1
 43
0.0
 10
94.52029191668117
 20
167.133897028988
 10
44.52029191668117
 20
167.133897028988
 10
44.52029191668117
 20
55.19024606441128
 10
94.52029191668117
 20
46.37389702898803
 10
94.52029191668117
 20
69.06389702898804
 10
100.920291916681
 20
69.06389702898804
 10
100.920291916681
 20
84.06389702898804
 10
94.52029191668117
 20
84.06389702898804
 10
94.52029191668117
 20
105.403897028988
 10
92.02029191668117
 20
105.403897028988
 10
92.02029191668117
 20
104.153897028988
 10
90.02029191668117
 20
104.153897028988
 10
90.02029191668117
 20
105.403897028988
 10
88.02029191668117
 20
105.403897028988
 10
88.02029191668117
 20
108.103897028988
 10
90.02029191668117
 20
108.103897028988
 10
90.02029191668117
 20
109.353897028988
 10
92.02029191668117
 20
109.353897028988
 10
92.02029191668117
 20
108.103897028988
 10
94.52029191668117
 20
108.103897028988
 10
94.52029191668117
 20
129.443897028988
 10
100.920291916681
 20
129.443897028988
 10
100.920291916681
 20
144.443897028988
 10
94.52029191668117
 20
144.443897028988
  0
LWPOLYLINE
  5
4EE
330
1F
100
AcDbEntity
  8
cut3
100
AcDbPolyline
 90
       24
 70
     1
 43
0.0
 10
317.8802919166811
 20
55.19024606441128
 10
267.8802919166811
 20
46.37389702898803
 10
267.8802919166811
 20
69.06389702898804
 10
261.4802919166812
 20
69.06389702898804
 10
261.4802919166812
 20
84.06389702898804
 10
267.8802919166811
 20
84.06389702898804
 10
267.8802919166811
 20
105.403897028988
 10
270.3802919166811
 20
105.403897028988
 10
270.3802919166811
 20
104.153897028988
 10
272.3802919166811
 20
104.153897028988
 10
272.3802919166811
 20
105.403897028988
 10
274.3802919166811
 20
105.403897028988
 10
274.3802919166811
 20
108.103897028988
 10
272.3802919166811
 20
108.103897028988
 10
272.3802919166811
 20
109.353897028988
 10
270.3802919166811
 20
109.353897028988
 10
270.3802919166811
 20
108.103897028988
 10
267.8802919166811
 20
108.103897028988
 10
267.8802919166811
 20
129.443897028988
 10
261.4802919166812
 20
129.443897028988
 10
261.4802919166812
 20
144.443897028988
 10
267.8802919166811
 20
144.443897028988
 10
267.8802919166811
 20
167.133897028988
 10
317.8802919166811
 20
167.133897028988
  0
LWPOLYLINE
  5
5EA
330
1F
100
AcDbEntity
  8
cut3
100
AcDbPolyline
 90
       10
 70
     1
 43
0.0
 10
79.52029191668117
 20
105.853897028988
 10
79.52029191668117
 20
102.403897028988
 10
80.52029191668117
 20
102.403897028988
 42
-0.414213562373095
 10
84.52029191668117
 20
98.40389702898804
 10
84.52029191668117
 20
80.40389702898804
 42
-0.414213562373095
 10
80.52029191668117
 20
76.40389702898804
 10
79.52029191668117
 20
76.40389702898804
 10
79.52029191668117
 20
72.95389702898804
 10
44.52029191668117
 20
72.95389702898802
 10
44.52029191668117
 20
105.853897028988
  0
ENDSEC
  0
SECTION
  2
OBJECTS
  0
DICTIONARY
  5
C
330
0
100
AcDbDictionary
281
     1
  3
ACAD_COLOR
350
73
  3
ACAD_DETAILVIEWSTYLE
350
122
  3
ACAD_GROUP
350
D
  3
ACAD_IMAGE_VARS
350
DC
  3
ACAD_LAYOUT
350
1A
  3
ACAD_MATERIAL
350
72
  3
ACAD_MLEADERSTYLE
350
B5
  3
ACAD_MLINESTYLE
350
17
  3
ACAD_PLOTSETTINGS
350
19
  3
ACAD_PLOTSTYLENAME
350
E
  3
ACAD_SCALELIST
350
B6
  3
ACAD_SECTIONVIEWSTYLE
350
123
  3
ACAD_TABLESTYLE
350
86
  3
ACAD_VISUALSTYLE
350
99
  3
ACDB_RECOMPOSE_DATA
350
623
  3
AcDbVariableDictionary
350
66
  3
APPDATA
350
E1
  0
SUN
  5
ED
330
94
100
AcDbSun
 90
        1
290
     0
 63
     7
421
 16777215
 40
1.0
291
     1
 91
  2455826
 92
 54000000
292
     0
 70
     2
 71
   256
280
     1
  0
DICTIONARY
  5
163
330
2
100
AcDbDictionary
280
     1
281
     1
  3
ACAD_LAYERSTATES
360
164
  3
ACLYDICTIONARY
360
5A5
  0
DICTIONARY
  5
73
102
{ACAD_REACTORS
330
C
102
}
330
C
100
AcDbDictionary
281
     1
  0
DICTIONARY
  5
122
102
{ACAD_REACTORS
330
C
102
}
330
C
100
AcDbDictionary
281
     1
  0
DICTIONARY
  5
D
102
{ACAD_REACTORS
330
C
102
}
330
C
100
AcDbDictionary
281
     1
  0
RASTERVARIABLES
  5
DC
102
{ACAD_REACTORS
330
C
102
}
330
C
100
AcDbRasterVariables
 90
        0
 70
     1
 71
     1
 72
     5
  0
DICTIONARY
  5
1A
102
{ACAD_REACTORS
330
C
102
}
330
C
100
AcDbDictionary
281
     1
  3
Model
350
22
  3
Sheet1
350
59
  3
Sheet2
350
5E
  0
DICTIONARY
  5
72
102
{ACAD_REACTORS
330
C
102
}
330
C
100
AcDbDictionary
281
     1
  3
ByBlock
350
E2
  3
ByLayer
350
96
  3
Global
350
98
  0
DICTIONARY
  5
B5
102
{ACAD_REACTORS
330
C
102
}
330
C
100
AcDbDictionary
281
     1
  3
Standard
350
124
  0
DICTIONARY
  5
17
102
{ACAD_REACTORS
330
C
102
}
330
C
100
AcDbDictionary
281
     1
  3
Standard
350
18
  0
DICTIONARY
  5
19
102
{ACAD_REACTORS
330
C
102
}
330
C
100
AcDbDictionary
281
     1
  0
ACDBDICTIONARYWDFLT
  5
E
102
{ACAD_REACTORS
330
C
102
}
330
C
100
AcDbDictionary
281
     1
  3
Normal
350
F
100
AcDbDictionaryWithDefault
340
F
  0
DICTIONARY
  5
B6
102
{ACAD_REACTORS
330
C
102
}
330
C
100
AcDbDictionary
281
     1
  3
A0
350
B7
  3
A1
350
B8
  3
A2
350
B9
  3
A3
350
BA
  3
A4
350
BB
  3
A5
350
BC
  3
A6
350
BD
  3
A7
350
BE
  3
A8
350
BF
  3
A9
350
C0
  3
B0
350
C1
  3
B1
350
C2
  3
B2
350
C3
  3
B3
350
C4
  3
B4
350
C5
  3
B5
350
C6
  3
B6
350
C7
  3
B7
350
C8
  3
B8
350
C9
  3
B9
350
CA
  3
C0
350
CB
  3
C1
350
CC
  3
C2
350
CD
  3
C3
350
CE
  3
C4
350
CF
  3
C5
350
D0
  3
C6
350
D1
  3
C7
350
D2
  3
C8
350
D3
  3
C9
350
D4
  3
D0
350
D5
  3
D1
350
D6
  3
D2
350
D7
  0
DICTIONARY
  5
123
102
{ACAD_REACTORS
330
C
102
}
330
C
100
AcDbDictionary
281
     1
  0
DICTIONARY
  5
86
102
{ACAD_REACTORS
330
C
102
}
330
C
100
AcDbDictionary
281
     1
  3
Standard
350
87
  0
DICTIONARY
  5
99
102
{ACAD_REACTORS
330
C
102
}
330
C
100
AcDbDictionary
281
     1
  3
2dWireframe
350
9F
  3
3D Hidden
350
A1
  3
3dWireframe
350
A0
  3
Basic
350
9E
  3
Brighten
350
A5
  3
ColorChange
350
A9
  3
Conceptual
350
A2
  3
Dim
350
A4
  3
EdgeColorOff
350
E7
  3
Facepattern
350
A8
  3
Flat
350
9A
  3
FlatWithEdges
350
9B
  3
Gouraud
350
9C
  3
GouraudWithEdges
350
9D
  3
Hidden
350
E4
  3
JitterOff
350
E5
  3
Linepattern
350
A7
  3
OverhangOff
350
E6
  3
Realistic
350
A3
  3
Shaded
350
EC
  3
Shaded with edges
350
EB
  3
Shades of Gray
350
E8
  3
Sketchy
350
E9
  3
Thicken
350
A6
  3
Wireframe
350
E3
  3
X-Ray
350
EA
  0
XRECORD
  5
623
102
{ACAD_REACTORS
330
C
102
}
330
C
100
AcDbXrecord
280
     1
 90
        1
330
87
  0
DICTIONARY
  5
66
102
{ACAD_REACTORS
330
C
102
}
330
C
100
AcDbDictionary
281
     1
  3
CANNOSCALE
350
D8
  3
CMLEADERSTYLE
350
128
  3
CTABLESTYLE
350
89
  3
DIMASSOC
350
67
  3
HIDETEXT
350
6B
  3
LIGHTSINBLOCKS
350
DF
  3
XCLIPFRAME
350
E0
  0
DICTIONARY
  5
E1
102
{ACAD_REACTORS
330
C
102
}
330
C
100
AcDbDictionary
281
     1
  0
DICTIONARY
  5
164
102
{ACAD_REACTORS
330
163
102
}
330
163
100
AcDbDictionary
281
     1
  0
DICTIONARY
  5
5A5
102
{ACAD_REACTORS
330
163
102
}
330
163
100
AcDbDictionary
281
     1
1001
ACAD
1000
<All
  0
LAYOUT
  5
22
102
{ACAD_REACTORS
330
1A
102
}
330
1A
100
AcDbPlotSettings
  1

  2
none_device
  4
ANSI_A_(8.50_x_11.00_Inches)
  6

 40
6.35
 41
19.05
 42
6.35
 43
19.05
 44
215.9
 45
279.4
 46
11.11250000000003
 47
0.0000000000000142
 48
0.0
 49
0.0
140
0.0
141
0.0
142
1.0
143
1.263157894736842
 70
 11444
 72
     0
 73
     1
 74
     1
  7
monochrome.ctb
 75
     0
 76
     0
 77
     2
 78
   300
147
0.7916666666666665
148
-702.8076765758875
149
-496.2830551296954
100
AcDbLayout
  1
Model
 70
     1
 71
     0
 10
0.0
 20
0.0
 11
12.0
 21
9.0
 12
0.0
 22
0.0
 32
0.0
 14
44.52029191668117
 24
46.37389702898801
 34
0.0
 15
317.8802919166811
 25
167.133897028988
 35
0.0
146
0.0
 13
0.0
 23
0.0
 33
0.0
 16
1.0
 26
0.0
 36
0.0
 17
0.0
 27
1.0
 37
0.0
 76
     0
330
1F
331
94
  0
LAYOUT
  5
59
102
{ACAD_REACTORS
330
1A
102
}
330
1A
100
AcDbPlotSettings
  1

  2
None
  4

  6

 40
0.0
 41
0.0
 42
0.0
 43
0.0
 44
0.0
 45
0.0
 46
0.0
 47
0.0
 48
0.0
 49
0.0
140
0.0
141
0.0
142
1.0
143
1.0
 70
   688
 72
     0
 73
     0
 74
     5
  7

 75
    16
 76
     0
 77
     2
 78
   300
147
1.0
148
0.0
149
0.0
100
AcDbLayout
  1
Sheet1
 70
     1
 71
     1
 10
0.0
 20
0.0
 11
12.0
 21
9.0
 12
0.0
 22
0.0
 32
0.0
 14
0.0
 24
0.0
 34
0.0
 15
0.0
 25
0.0
 35
0.0
146
0.0
 13
0.0
 23
0.0
 33
0.0
 16
1.0
 26
0.0
 36
0.0
 17
0.0
 27
1.0
 37
0.0
 76
     0
330
58
  0
LAYOUT
  5
5E
102
{ACAD_REACTORS
330
1A
102
}
330
1A
100
AcDbPlotSettings
  1

  2
None
  4

  6

 40
0.0
 41
0.0
 42
0.0
 43
0.0
 44
0.0
 45
0.0
 46
0.0
 47
0.0
 48
0.0
 49
0.0
140
0.0
141
0.0
142
1.0
143
1.0
 70
   688
 72
     0
 73
     0
 74
     5
  7

 75
    16
 76
     0
 77
     2
 78
   300
147
1.0
148
0.0
149
0.0
100
AcDbLayout
  1
Sheet2
 70
     1
 71
     2
 10
0.0
 20
0.0
 11
12.0
 21
9.0
 12
0.0
 22
0.0
 32
0.0
 14
0.0
 24
0.0
 34
0.0
 15
0.0
 25
0.0
 35
0.0
146
0.0
 13
0.0
 23
0.0
 33
0.0
 16
1.0
 26
0.0
 36
0.0
 17
0.0
 27
1.0
 37
0.0
 76
     0
330
5D
  0
MATERIAL
  5
E2
102
{ACAD_REACTORS
330
72
102
}
330
72
100
AcDbMaterial
  1
ByBlock
 72
     1
 94
      127
  0
MATERIAL
  5
96
102
{ACAD_REACTORS
330
72
102
}
330
72
100
AcDbMaterial
  1
ByLayer
 72
     1
 94
       63
  0
MATERIAL
  5
98
102
{ACAD_REACTORS
330
72
102
}
330
72
100
AcDbMaterial
  1
Global
 72
     1
 94
       63
  0
MLEADERSTYLE
  5
124
102
{ACAD_REACTORS
330
B5
102
}
330
B5
100
AcDbMLeaderStyle
179
     2
170
     2
171
     1
172
     0
 90
        2
 40
0.0
 41
0.0
173
     1
 91
-1056964608
340
14
 92
       -2
290
     1
 42
0.09
291
     1
 43
0.36
  3
Standard
341
0
 44
0.18
300

342
11
174
     1
178
     6
175
     1
176
     0
 93
-1056964608
 45
0.18
292
     0
297
     0
 46
0.18
343
0
 94
-1056964608
 47
1.0
 49
1.0
140
1.0
293
     1
141
0.0
294
     1
177
     0
142
1.0
295
     0
296
     0
143
0.125
271
     0
272
     9
273
     9
298
     0
  0
MLINESTYLE
  5
18
102
{ACAD_REACTORS
330
17
102
}
330
17
100
AcDbMlineStyle
  2
STANDARD
 70
     0
  3

 62
   256
 51
90.0
 52
90.0
 71
     2
 49
0.5
 62
   256
  6
BYLAYER
 49
-0.5
 62
   256
  6
BYLAYER
  0
ACDBPLACEHOLDER
  5
F
102
{ACAD_REACTORS
330
E
102
}
330
E
  0
SCALE
  5
B7
102
{ACAD_REACTORS
330
B6
102
}
330
B6
100
AcDbScale
 70
     0
300
1:1
140
1.0
141
1.0
290
     1
  0
SCALE
  5
B8
102
{ACAD_REACTORS
330
B6
102
}
330
B6
100
AcDbScale
 70
     0
300
1:2
140
1.0
141
2.0
290
     0
  0
SCALE
  5
B9
102
{ACAD_REACTORS
330
B6
102
}
330
B6
100
AcDbScale
 70
     0
300
1:4
140
1.0
141
4.0
290
     0
  0
SCALE
  5
BA
102
{ACAD_REACTORS
330
B6
102
}
330
B6
100
AcDbScale
 70
     0
300
1:5
140
1.0
141
5.0
290
     0
  0
SCALE
  5
BB
102
{ACAD_REACTORS
330
B6
102
}
330
B6
100
AcDbScale
 70
     0
300
1:8
140
1.0
141
8.0
290
     0
  0
SCALE
  5
BC
102
{ACAD_REACTORS
330
B6
102
}
330
B6
100
AcDbScale
 70
     0
300
1:10
140
1.0
141
10.0
290
     0
  0
SCALE
  5
BD
102
{ACAD_REACTORS
330
B6
102
}
330
B6
100
AcDbScale
 70
     0
300
1:16
140
1.0
141
16.0
290
     0
  0
SCALE
  5
BE
102
{ACAD_REACTORS
330
B6
102
}
330
B6
100
AcDbScale
 70
     0
300
1:20
140
1.0
141
20.0
290
     0
  0
SCALE
  5
BF
102
{ACAD_REACTORS
330
B6
102
}
330
B6
100
AcDbScale
 70
     0
300
1:30
140
1.0
141
30.0
290
     0
  0
SCALE
  5
C0
102
{ACAD_REACTORS
330
B6
102
}
330
B6
100
AcDbScale
 70
     0
300
1:40
140
1.0
141
40.0
290
     0
  0
SCALE
  5
C1
102
{ACAD_REACTORS
330
B6
102
}
330
B6
100
AcDbScale
 70
     0
300
1:50
140
1.0
141
50.0
290
     0
  0
SCALE
  5
C2
102
{ACAD_REACTORS
330
B6
102
}
330
B6
100
AcDbScale
 70
     0
300
1:100
140
1.0
141
100.0
290
     0
  0
SCALE
  5
C3
102
{ACAD_REACTORS
330
B6
102
}
330
B6
100
AcDbScale
 70
     0
300
2:1
140
2.0
141
1.0
290
     0
  0
SCALE
  5
C4
102
{ACAD_REACTORS
330
B6
102
}
330
B6
100
AcDbScale
 70
     0
300
4:1
140
4.0
141
1.0
290
     0
  0
SCALE
  5
C5
102
{ACAD_REACTORS
330
B6
102
}
330
B6
100
AcDbScale
 70
     0
300
8:1
140
8.0
141
1.0
290
     0
  0
SCALE
  5
C6
102
{ACAD_REACTORS
330
B6
102
}
330
B6
100
AcDbScale
 70
     0
300
10:1
140
10.0
141
1.0
290
     0
  0
SCALE
  5
C7
102
{ACAD_REACTORS
330
B6
102
}
330
B6
100
AcDbScale
 70
     0
300
100:1
140
100.0
141
1.0
290
     0
  0
SCALE
  5
C8
102
{ACAD_REACTORS
330
B6
102
}
330
B6
100
AcDbScale
 70
     0
300
1/128" = 1'-0"
140
0.0078125
141
12.0
290
     0
  0
SCALE
  5
C9
102
{ACAD_REACTORS
330
B6
102
}
330
B6
100
AcDbScale
 70
     0
300
1/64" = 1'-0"
140
0.015625
141
12.0
290
     0
  0
SCALE
  5
CA
102
{ACAD_REACTORS
330
B6
102
}
330
B6
100
AcDbScale
 70
     0
300
1/32" = 1'-0"
140
0.03125
141
12.0
290
     0
  0
SCALE
  5
CB
102
{ACAD_REACTORS
330
B6
102
}
330
B6
100
AcDbScale
 70
     0
300
1/16" = 1'-0"
140
0.0625
141
12.0
290
     0
  0
SCALE
  5
CC
102
{ACAD_REACTORS
330
B6
102
}
330
B6
100
AcDbScale
 70
     0
300
3/32" = 1'-0"
140
0.09375
141
12.0
290
     0
  0
SCALE
  5
CD
102
{ACAD_REACTORS
330
B6
102
}
330
B6
100
AcDbScale
 70
     0
300
1/8" = 1'-0"
140
0.125
141
12.0
290
     0
  0
SCALE
  5
CE
102
{ACAD_REACTORS
330
B6
102
}
330
B6
100
AcDbScale
 70
     0
300
3/16" = 1'-0"
140
0.1875
141
12.0
290
     0
  0
SCALE
  5
CF
102
{ACAD_REACTORS
330
B6
102
}
330
B6
100
AcDbScale
 70
     0
300
1/4" = 1'-0"
140
0.25
141
12.0
290
     0
  0
SCALE
  5
D0
102
{ACAD_REACTORS
330
B6
102
}
330
B6
100
AcDbScale
 70
     0
300
3/8" = 1'-0"
140
0.375
141
12.0
290
     0
  0
SCALE
  5
D1
102
{ACAD_REACTORS
330
B6
102
}
330
B6
100
AcDbScale
 70
     0
300
1/2" = 1'-0"
140
0.5
141
12.0
290
     0
  0
SCALE
  5
D2
102
{ACAD_REACTORS
330
B6
102
}
330
B6
100
AcDbScale
 70
     0
300
3/4" = 1'-0"
140
0.75
141
12.0
290
     0
  0
SCALE
  5
D3
102
{ACAD_REACTORS
330
B6
102
}
330
B6
100
AcDbScale
 70
     0
300
1" = 1'-0"
140
1.0
141
12.0
290
     0
  0
SCALE
  5
D4
102
{ACAD_REACTORS
330
B6
102
}
330
B6
100
AcDbScale
 70
     0
300
1-1/2" = 1'-0"
140
1.5
141
12.0
290
     0
  0
SCALE
  5
D5
102
{ACAD_REACTORS
330
B6
102
}
330
B6
100
AcDbScale
 70
     0
300
3" = 1'-0"
140
3.0
141
12.0
290
     0
  0
SCALE
  5
D6
102
{ACAD_REACTORS
330
B6
102
}
330
B6
100
AcDbScale
 70
     0
300
6" = 1'-0"
140
6.0
141
12.0
290
     0
  0
SCALE
  5
D7
102
{ACAD_REACTORS
330
B6
102
}
330
B6
100
AcDbScale
 70
     0
300
1'-0" = 1'-0"
140
12.0
141
12.0
290
     0
  0
TABLESTYLE
  5
87
102
{ACAD_REACTORS
330
86
102
}
102
{ACAD_XDICTIONARY
360
621
102
}
330
86
100
AcDbTableStyle
  3
Standard
 70
     0
 71
     0
 40
0.06
 41
0.06
280
     0
281
     0
  7
Standard
140
0.18
170
     2
 62
     0
 63
   257
283
     0
 90
      512
 91
        0
  1

274
    -2
284
     1
 64
     0
275
    -2
285
     1
 65
     0
276
    -2
286
     1
 66
     0
277
    -2
287
     1
 67
     0
278
    -2
288
     1
 68
     0
279
    -2
289
     1
 69
     0
  7
Standard
140
0.25
170
     5
 62
     0
 63
   257
283
     0
 90
      512
 91
        0
  1

274
    -2
284
     1
 64
     0
275
    -2
285
     1
 65
     0
276
    -2
286
     1
 66
     0
277
    -2
287
     1
 67
     0
278
    -2
288
     1
 68
     0
279
    -2
289
     1
 69
     0
  7
Standard
140
0.18
170
     5
 62
     0
 63
   257
283
     0
 90
      512
 91
        0
  1

274
    -2
284
     1
 64
     0
275
    -2
285
     1
 65
     0
276
    -2
286
     1
 66
     0
277
    -2
287
     1
 67
     0
278
    -2
288
     1
 68
     0
279
    -2
289
     1
 69
     0
  0
VISUALSTYLE
  5
9F
102
{ACAD_REACTORS
330
99
102
}
330
99
100
AcDbVisualStyle
  2
2dWireframe
 70
     4
177
     3
291
     0
 70
    58
 90
        0
176
     1
 90
        2
176
     1
 90
        1
176
     1
 90
        0
176
     1
 40
-0.6
176
     1
 40
-30.0
176
     1
 62
     7
420
 16777215
176
     1
 90
        1
176
     1
 90
        4
176
     1
 62
     7
176
     1
 62
   257
176
     1
 90
        1
176
     1
 90
        1
176
     1
 40
1.0
176
     1
 90
        0
176
     1
 62
   257
176
     1
 40
1.0
176
     1
 90
        1
176
     1
 90
        6
176
     1
 90
        2
176
     1
 62
     7
176
     1
 90
        5
176
     1
 90
        0
176
     1
 90
        0
176
     1
290
     0
176
     1
 90
        1
176
     1
 40
0.0
176
     1
 90
        0
176
     1
290
     1
176
     1
290
     1
176
     1
290
     0
176
     1
290
     0
176
     1
290
     0
176
     1
290
     0
176
     1
290
     0
176
     1
290
     0
176
     1
290
     0
176
     1
 90
       50
176
     1
 40
0.0
176
     1
 40
1.0
176
     1
 90
        0
176
     1
 62
   178
420
        0
176
     1
 90
       50
176
     1
 90
        3
176
     1
 62
     5
420
      255
176
     1
290
     0
176
     1
 90
       50
176
     1
 90
       50
176
     1
 90
       50
176
     1
290
     0
176
     1
 90
       50
176
     1
 62
   256
176
     0
 40
1.0
176
     0
 90
        2
176
     1
  1
strokes_ogs.tif
176
     1
290
     0
176
     1
 40
1.0
176
     1
 40
1.0
176
     1
  0
VISUALSTYLE
  5
A1
102
{ACAD_REACTORS
330
99
102
}
330
99
100
AcDbVisualStyle
  2
3D Hidden
 70
     6
177
     3
291
     0
 70
    58
 90
        1
176
     1
 90
        2
176
     1
 90
        2
176
     1
 90
        0
176
     1
 40
-0.6
176
     1
 40
-30.0
176
     1
 62
     7
420
 16777215
176
     1
 90
        2
176
     1
 90
        2
176
     1
 62
     7
176
     1
 62
   257
176
     1
 90
        2
176
     1
 90
        1
176
     1
 40
40.0
176
     1
 90
        0
176
     1
 62
   257
176
     1
 40
1.0
176
     1
 90
        1
176
     1
 90
        6
176
     1
 90
        2
176
     1
 62
     7
176
     1
 90
        3
176
     1
 90
        0
176
     1
 90
        0
176
     1
290
     0
176
     1
 90
        1
176
     1
 40
0.0
176
     1
 90
        0
176
     1
290
     0
176
     1
290
     1
176
     1
290
     1
176
     1
290
     0
176
     1
290
     0
176
     1
290
     0
176
     1
290
     0
176
     1
290
     0
176
     1
290
     0
176
     1
 90
       50
176
     1
 40
0.0
176
     1
 40
1.0
176
     1
 90
        0
176
     1
 62
   178
420
        0
176
     1
 90
       50
176
     1
 90
        3
176
     1
 62
     5
420
      255
176
     1
290
     0
176
     1
 90
       50
176
     1
 90
       50
176
     1
 90
       50
176
     1
290
     0
176
     1
 90
       50
176
     1
 62
   256
176
     0
 40
1.0
176
     0
 90
        2
176
     1
  1
strokes_ogs.tif
176
     1
290
     0
176
     1
 40
1.0
176
     1
 40
1.0
176
     1
  0
VISUALSTYLE
  5
A0
102
{ACAD_REACTORS
330
99
102
}
330
99
100
AcDbVisualStyle
  2
3dWireframe
 70
     5
177
     3
291
     0
 70
    58
 90
        0
176
     1
 90
        2
176
     1
 90
        1
176
     1
 90
        0
176
     1
 40
-0.6
176
     1
 40
-30.0
176
     1
 62
     7
420
 16777215
176
     1
 90
        1
176
     1
 90
        4
176
     1
 62
     7
176
     1
 62
   257
176
     1
 90
        1
176
     1
 90
        1
176
     1
 40
1.0
176
     1
 90
        0
176
     1
 62
   257
176
     1
 40
1.0
176
     1
 90
        1
176
     1
 90
        6
176
     1
 90
        2
176
     1
 62
     7
176
     1
 90
        5
176
     1
 90
        0
176
     1
 90
        0
176
     1
290
     0
176
     1
 90
        1
176
     1
 40
0.0
176
     1
 90
        0
176
     1
290
     0
176
     1
290
     1
176
     1
290
     1
176
     1
290
     0
176
     1
290
     0
176
     1
290
     0
176
     1
290
     0
176
     1
290
     0
176
     1
290
     0
176
     1
 90
       50
176
     1
 40
0.0
176
     1
 40
1.0
176
     1
 90
        0
176
     1
 62
   178
420
        0
176
     1
 90
       50
176
     1
 90
        3
176
     1
 62
     5
420
      255
176
     1
290
     0
176
     1
 90
       50
176
     1
 90
       50
176
     1
 90
       50
176
     1
290
     0
176
     1
 90
       50
176
     1
 62
   256
176
     0
 40
1.0
176
     0
 90
        2
176
     1
  1
strokes_ogs.tif
176
     1
290
     0
176
     1
 40
1.0
176
     1
 40
1.0
176
     1
  0
VISUALSTYLE
  5
9E
102
{ACAD_REACTORS
330
99
102
}
330
99
100
AcDbVisualStyle
  2
Basic
 70
     7
177
     3
291
     1
 70
    58
 90
        1
176
     1
 90
        0
176
     1
 90
        1
176
     1
 90
        0
176
     1
 40
-0.6
176
     1
 40
-30.0
176
     1
 62
     7
420
 16777215
176
     1
 90
        0
176
     1
 90
        4
176
     1
 62
     7
176
     1
 62
   257
176
     1
 90
        1
176
     1
 90
        1
176
     1
 40
1.0
176
     1
 90
        8
176
     1
 62
     7
176
     1
 40
1.0
176
     1
 90
        1
176
     1
 90
        6
176
     1
 90
        2
176
     1
 62
     7
176
     1
 90
        5
176
     1
 90
        0
176
     1
 90
        0
176
     1
290
     0
176
     1
 90
        1
176
     1
 40
0.0
176
     1
 90
        0
176
     1
290
     0
176
     1
290
     1
176
     1
290
     1
176
     1
290
     0
176
     1
290
     0
176
     1
290
     0
176
     1
290
     0
176
     1
290
     0
176
     1
290
     0
176
     1
 90
       50
176
     1
 40
0.0
176
     1
 40
1.0
176
     1
 90
        0
176
     1
 62
   178
420
        0
176
     1
 90
       50
176
     1
 90
        3
176
     1
 62
     5
420
      255
176
     1
290
     0
176
     1
 90
       50
176
     1
 90
       50
176
     1
 90
       50
176
     1
290
     0
176
     1
 90
       50
176
     1
 62
   256
176
     0
 40
1.0
176
     0
 90
        2
176
     1
  1
strokes_ogs.tif
176
     1
290
     0
176
     1
 40
1.0
176
     1
 40
1.0
176
     1
  0
VISUALSTYLE
  5
A5
102
{ACAD_REACTORS
330
99
102
}
330
99
100
AcDbVisualStyle
  2
Brighten
 70
    12
177
     3
291
     1
 70
    58
 90
        2
176
     1
 90
        2
176
     1
 90
        1
176
     1
 90
        0
176
     1
 40
-0.6
176
     1
 40
-30.0
176
     1
 62
     7
420
 16777215
176
     1
 90
        1
176
     1
 90
        4
176
     1
 62
     7
176
     1
 62
   257
176
     1
 90
        1
176
     1
 90
        1
176
     1
 40
1.0
176
     1
 90
        8
176
     1
 62
     7
176
     1
 40
1.0
176
     1
 90
        1
176
     1
 90
        6
176
     1
 90
        2
176
     1
 62
     7
176
     1
 90
        5
176
     1
 90
        0
176
     1
 90
        0
176
     1
290
     0
176
     1
 90
        1
176
     1
 40
50.0
176
     1
 90
        0
176
     1
290
     0
176
     1
290
     1
176
     1
290
     1
176
     1
290
     0
176
     1
290
     0
176
     1
290
     0
176
     1
290
     0
176
     1
290
     0
176
     1
290
     0
176
     1
 90
       50
176
     1
 40
0.0
176
     1
 40
1.0
176
     1
 90
        0
176
     1
 62
   178
420
        0
176
     1
 90
       50
176
     1
 90
        3
176
     1
 62
     5
420
      255
176
     1
290
     0
176
     1
 90
       50
176
     1
 90
       50
176
     1
 90
       50
176
     1
290
     0
176
     1
 90
       50
176
     1
 62
   256
176
     0
 40
1.0
176
     0
 90
        2
176
     1
  1
strokes_ogs.tif
176
     1
290
     0
176
     1
 40
1.0
176
     1
 40
1.0
176
     1
  0
VISUALSTYLE
  5
A9
102
{ACAD_REACTORS
330
99
102
}
330
99
100
AcDbVisualStyle
  2
ColorChange
 70
    16
177
     3
291
     1
 70
    58
 90
        2
176
     1
 90
        2
176
     1
 90
        3
176
     1
 90
        0
176
     1
 40
-0.6
176
     1
 40
-30.0
176
     1
 62
     8
420
  8421504
176
     1
 90
        1
176
     1
 90
        4
176
     1
 62
     7
176
     1
 62
   257
176
     1
 90
        1
176
     1
 90
        1
176
     1
 40
1.0
176
     1
 90
        8
176
     1
 62
     8
420
  8421504
176
     1
 40
1.0
176
     1
 90
        1
176
     1
 90
        6
176
     1
 90
        2
176
     1
 62
     7
176
     1
 90
        5
176
     1
 90
        0
176
     1
 90
        0
176
     1
290
     0
176
     1
 90
        1
176
     1
 40
0.0
176
     1
 90
        0
176
     1
290
     0
176
     1
290
     1
176
     1
290
     1
176
     1
290
     0
176
     1
290
     0
176
     1
290
     0
176
     1
290
     0
176
     1
290
     0
176
     1
290
     0
176
     1
 90
       50
176
     1
 40
0.0
176
     1
 40
1.0
176
     1
 90
        0
176
     1
 62
   178
420
        0
176
     1
 90
       50
176
     1
 90
        3
176
     1
 62
     5
420
      255
176
     1
290
     0
176
     1
 90
       50
176
     1
 90
       50
176
     1
 90
       50
176
     1
290
     0
176
     1
 90
       50
176
     1
 62
   256
176
     0
 40
1.0
176
     0
 90
        2
176
     1
  1
strokes_ogs.tif
176
     1
290
     0
176
     1
 40
1.0
176
     1
 40
1.0
176
     1
  0
VISUALSTYLE
  5
A2
102
{ACAD_REACTORS
330
99
102
}
330
99
100
AcDbVisualStyle
  2
Conceptual
 70
     9
177
     3
291
     0
 70
    58
 90
        3
176
     1
 90
        2
176
     1
 90
        1
176
     1
 90
        0
176
     1
 40
-0.6
176
     1
 40
-30.0
176
     1
 62
     7
420
 16777215
176
     1
 90
        2
176
     1
 90
        2
176
     1
 62
     7
176
     1
 62
   257
176
     1
 90
        1
176
     1
 90
        1
176
     1
 40
40.0
176
     1
 90
        8
176
     1
 62
     7
176
     1
 40
1.0
176
     1
 90
        1
176
     1
 90
        6
176
     1
 90
        2
176
     1
 62
     7
176
     1
 90
        3
176
     1
 90
        0
176
     1
 90
        0
176
     1
290
     0
176
     1
 90
        1
176
     1
 40
0.0
176
     1
 90
        0
176
     1
290
     0
176
     1
290
     1
176
     1
290
     1
176
     1
290
     0
176
     1
290
     0
176
     1
290
     0
176
     1
290
     0
176
     1
290
     0
176
     1
290
     0
176
     1
 90
       50
176
     1
 40
0.0
176
     1
 40
1.0
176
     1
 90
        0
176
     1
 62
   178
420
        0
176
     1
 90
       50
176
     1
 90
        3
176
     1
 62
     5
420
      255
176
     1
290
     0
176
     1
 90
       50
176
     1
 90
       50
176
     1
 90
       50
176
     1
290
     0
176
     1
 90
       50
176
     1
 62
   256
176
     0
 40
1.0
176
     0
 90
        2
176
     1
  1
strokes_ogs.tif
176
     1
290
     0
176
     1
 40
1.0
176
     1
 40
1.0
176
     1
  0
VISUALSTYLE
  5
A4
102
{ACAD_REACTORS
330
99
102
}
330
99
100
AcDbVisualStyle
  2
Dim
 70
    11
177
     3
291
     1
 70
    58
 90
        2
176
     1
 90
        2
176
     1
 90
        1
176
     1
 90
        0
176
     1
 40
-0.6
176
     1
 40
-30.0
176
     1
 62
     7
420
 16777215
176
     1
 90
        1
176
     1
 90
        4
176
     1
 62
     7
176
     1
 62
   257
176
     1
 90
        1
176
     1
 90
        1
176
     1
 40
1.0
176
     1
 90
        8
176
     1
 62
     7
176
     1
 40
1.0
176
     1
 90
        1
176
     1
 90
        6
176
     1
 90
        2
176
     1
 62
     7
176
     1
 90
        5
176
     1
 90
        0
176
     1
 90
        0
176
     1
290
     0
176
     1
 90
        1
176
     1
 40
-50.0
176
     1
 90
        0
176
     1
290
     0
176
     1
290
     1
176
     1
290
     1
176
     1
290
     0
176
     1
290
     0
176
     1
290
     0
176
     1
290
     0
176
     1
290
     0
176
     1
290
     0
176
     1
 90
       50
176
     1
 40
0.0
176
     1
 40
1.0
176
     1
 90
        0
176
     1
 62
   178
420
        0
176
     1
 90
       50
176
     1
 90
        3
176
     1
 62
     5
420
      255
176
     1
290
     0
176
     1
 90
       50
176
     1
 90
       50
176
     1
 90
       50
176
     1
290
     0
176
     1
 90
       50
176
     1
 62
   256
176
     0
 40
1.0
176
     0
 90
        2
176
     1
  1
strokes_ogs.tif
176
     1
290
     0
176
     1
 40
1.0
176
     1
 40
1.0
176
     1
  0
VISUALSTYLE
  5
E7
102
{ACAD_REACTORS
330
99
102
}
330
99
100
AcDbVisualStyle
  2
EdgeColorOff
 70
    22
177
     3
291
     1
 70
    58
 90
        2
176
     0
 90
        2
176
     0
 90
        0
176
     0
 90
        0
176
     0
 40
0.6
176
     0
 40
30.0
176
     0
 62
     7
420
 16777215
176
     0
 90
        1
176
     0
 90
        4
176
     0
 62
     7
176
     0
 62
   257
176
     0
 90
        1
176
     0
 90
        1
176
     0
 40
1.0
176
     0
 90
        8
176
     2
 62
     7
176
     0
 40
1.0
176
     0
 90
        1
176
     0
 90
        6
176
     0
 90
        2
176
     0
 62
     7
176
     0
 90
        5
176
     0
 90
        0
176
     0
 90
        0
176
     0
290
     0
176
     0
 90
        1
176
     0
 40
0.0
176
     0
 90
        0
176
     0
290
     0
176
     0
290
     1
176
     0
290
     1
176
     0
290
     0
176
     0
290
     0
176
     0
290
     0
176
     0
290
     0
176
     0
290
     0
176
     0
290
     0
176
     0
 90
       50
176
     0
 40
0.0
176
     0
 40
1.0
176
     0
 90
        0
176
     0
 62
   178
420
        0
176
     0
 90
       50
176
     0
 90
        3
176
     0
 62
     5
420
      255
176
     0
290
     0
176
     0
 90
       50
176
     0
 90
       50
176
     0
 90
       50
176
     0
290
     0
176
     0
 90
       50
176
     0
 62
   256
176
     0
 40
1.0
176
     0
 90
        2
176
     0
  1
strokes_ogs.tif
176
     0
290
     0
176
     0
 40
1.0
176
     0
 40
1.0
176
     0
  0
VISUALSTYLE
  5
A8
102
{ACAD_REACTORS
330
99
102
}
330
99
100
AcDbVisualStyle
  2
Facepattern
 70
    15
177
     3
291
     1
 70
    58
 90
        2
176
     1
 90
        2
176
     1
 90
        1
176
     1
 90
        0
176
     1
 40
-0.6
176
     1
 40
-30.0
176
     1
 62
     7
420
 16777215
176
     1
 90
        1
176
     1
 90
        4
176
     1
 62
     7
176
     1
 62
   257
176
     1
 90
        1
176
     1
 90
        1
176
     1
 40
1.0
176
     1
 90
        8
176
     1
 62
     7
176
     1
 40
1.0
176
     1
 90
        1
176
     1
 90
        6
176
     1
 90
        2
176
     1
 62
     7
176
     1
 90
        5
176
     1
 90
        0
176
     1
 90
        0
176
     1
290
     0
176
     1
 90
        1
176
     1
 40
0.0
176
     1
 90
        0
176
     1
290
     0
176
     1
290
     1
176
     1
290
     1
176
     1
290
     0
176
     1
290
     0
176
     1
290
     0
176
     1
290
     0
176
     1
290
     0
176
     1
290
     0
176
     1
 90
       50
176
     1
 40
0.0
176
     1
 40
1.0
176
     1
 90
        0
176
     1
 62
   178
420
        0
176
     1
 90
       50
176
     1
 90
        3
176
     1
 62
     5
420
      255
176
     1
290
     0
176
     1
 90
       50
176
     1
 90
       50
176
     1
 90
       50
176
     1
290
     0
176
     1
 90
       50
176
     1
 62
   256
176
     0
 40
1.0
176
     0
 90
        2
176
     1
  1
strokes_ogs.tif
176
     1
290
     0
176
     1
 40
1.0
176
     1
 40
1.0
176
     1
  0
VISUALSTYLE
  5
9A
102
{ACAD_REACTORS
330
99
102
}
330
99
100
AcDbVisualStyle
  2
Flat
 70
     0
177
     3
291
     1
 70
    58
 90
        2
176
     1
 90
        1
176
     1
 90
        1
176
     1
 90
        2
176
     1
 40
-0.6
176
     1
 40
30.0
176
     1
 62
     7
420
 16777215
176
     1
 90
        0
176
     1
 90
        4
176
     1
 62
     7
176
     1
 62
   257
176
     1
 90
        1
176
     1
 90
        1
176
     1
 40
1.0
176
     1
 90
        8
176
     1
 62
     7
176
     1
 40
1.0
176
     1
 90
        1
176
     1
 90
        6
176
     1
 90
        2
176
     1
 62
     7
176
     1
 90
        5
176
     1
 90
        0
176
     1
 90
        0
176
     1
290
     0
176
     1
 90
        1
176
     1
 40
0.0
176
     1
 90
        0
176
     1
290
     0
176
     1
290
     1
176
     1
290
     1
176
     1
290
     0
176
     1
290
     0
176
     1
290
     0
176
     1
290
     0
176
     1
290
     0
176
     1
290
     0
176
     1
 90
       50
176
     1
 40
0.0
176
     1
 40
1.0
176
     1
 90
        0
176
     1
 62
   178
420
        0
176
     1
 90
       50
176
     1
 90
        3
176
     1
 62
     5
420
      255
176
     1
290
     0
176
     1
 90
       50
176
     1
 90
       50
176
     1
 90
       50
176
     1
290
     0
176
     1
 90
       50
176
     1
 62
   256
176
     0
 40
1.0
176
     0
 90
        2
176
     1
  1
strokes_ogs.tif
176
     1
290
     0
176
     1
 40
1.0
176
     1
 40
1.0
176
     1
  0
VISUALSTYLE
  5
9B
102
{ACAD_REACTORS
330
99
102
}
330
99
100
AcDbVisualStyle
  2
FlatWithEdges
 70
     1
177
     3
291
     1
 70
    58
 90
        2
176
     1
 90
        1
176
     1
 90
        1
176
     1
 90
        2
176
     1
 40
-0.6
176
     1
 40
30.0
176
     1
 62
     7
420
 16777215
176
     1
 90
        1
176
     1
 90
        4
176
     1
 62
     7
176
     1
 62
   257
176
     1
 90
        1
176
     1
 90
        1
176
     1
 40
1.0
176
     1
 90
        0
176
     1
 62
   257
176
     1
 40
1.0
176
     1
 90
        1
176
     1
 90
        6
176
     1
 90
        2
176
     1
 62
     7
176
     1
 90
        5
176
     1
 90
        0
176
     1
 90
        0
176
     1
290
     0
176
     1
 90
        1
176
     1
 40
0.0
176
     1
 90
        0
176
     1
290
     0
176
     1
290
     1
176
     1
290
     1
176
     1
290
     0
176
     1
290
     0
176
     1
290
     0
176
     1
290
     0
176
     1
290
     0
176
     1
290
     0
176
     1
 90
       50
176
     1
 40
0.0
176
     1
 40
1.0
176
     1
 90
        0
176
     1
 62
   178
420
        0
176
     1
 90
       50
176
     1
 90
        3
176
     1
 62
     5
420
      255
176
     1
290
     0
176
     1
 90
       50
176
     1
 90
       50
176
     1
 90
       50
176
     1
290
     0
176
     1
 90
       50
176
     1
 62
   256
176
     0
 40
1.0
176
     0
 90
        2
176
     1
  1
strokes_ogs.tif
176
     1
290
     0
176
     1
 40
1.0
176
     1
 40
1.0
176
     1
  0
VISUALSTYLE
  5
9C
102
{ACAD_REACTORS
330
99
102
}
330
99
100
AcDbVisualStyle
  2
Gouraud
 70
     2
177
     3
291
     1
 70
    58
 90
        2
176
     1
 90
        2
176
     1
 90
        1
176
     1
 90
        2
176
     1
 40
-0.6
176
     1
 40
30.0
176
     1
 62
     7
420
 16777215
176
     1
 90
        0
176
     1
 90
        4
176
     1
 62
     7
176
     1
 62
   257
176
     1
 90
        1
176
     1
 90
        1
176
     1
 40
1.0
176
     1
 90
        0
176
     1
 62
     7
176
     1
 40
1.0
176
     1
 90
        1
176
     1
 90
        6
176
     1
 90
        2
176
     1
 62
     7
176
     1
 90
        5
176
     1
 90
        0
176
     1
 90
        0
176
     1
290
     0
176
     1
 90
        1
176
     1
 40
0.0
176
     1
 90
        0
176
     1
290
     0
176
     1
290
     1
176
     1
290
     1
176
     1
290
     0
176
     1
290
     0
176
     1
290
     0
176
     1
290
     0
176
     1
290
     0
176
     1
290
     0
176
     1
 90
       50
176
     1
 40
0.0
176
     1
 40
1.0
176
     1
 90
        0
176
     1
 62
   178
420
        0
176
     1
 90
       50
176
     1
 90
        3
176
     1
 62
     5
420
      255
176
     1
290
     0
176
     1
 90
       50
176
     1
 90
       50
176
     1
 90
       50
176
     1
290
     0
176
     1
 90
       50
176
     1
 62
   256
176
     0
 40
1.0
176
     0
 90
        2
176
     1
  1
strokes_ogs.tif
176
     1
290
     0
176
     1
 40
1.0
176
     1
 40
1.0
176
     1
  0
VISUALSTYLE
  5
9D
102
{ACAD_REACTORS
330
99
102
}
330
99
100
AcDbVisualStyle
  2
GouraudWithEdges
 70
     3
177
     3
291
     1
 70
    58
 90
        2
176
     1
 90
        2
176
     1
 90
        1
176
     1
 90
        2
176
     1
 40
-0.6
176
     1
 40
30.0
176
     1
 62
     7
420
 16777215
176
     1
 90
        1
176
     1
 90
        4
176
     1
 62
     7
176
     1
 62
   257
176
     1
 90
        1
176
     1
 90
        1
176
     1
 40
1.0
176
     1
 90
        0
176
     1
 62
   257
176
     1
 40
1.0
176
     1
 90
        1
176
     1
 90
        6
176
     1
 90
        2
176
     1
 62
     7
176
     1
 90
        5
176
     1
 90
        0
176
     1
 90
        0
176
     1
290
     0
176
     1
 90
        1
176
     1
 40
0.0
176
     1
 90
        0
176
     1
290
     0
176
     1
290
     1
176
     1
290
     1
176
     1
290
     0
176
     1
290
     0
176
     1
290
     0
176
     1
290
     0
176
     1
290
     0
176
     1
290
     0
176
     1
 90
       50
176
     1
 40
0.0
176
     1
 40
1.0
176
     1
 90
        0
176
     1
 62
   178
420
        0
176
     1
 90
       50
176
     1
 90
        3
176
     1
 62
     5
420
      255
176
     1
290
     0
176
     1
 90
       50
176
     1
 90
       50
176
     1
 90
       50
176
     1
290
     0
176
     1
 90
       50
176
     1
 62
   256
176
     0
 40
1.0
176
     0
 90
        2
176
     1
  1
strokes_ogs.tif
176
     1
290
     0
176
     1
 40
1.0
176
     1
 40
1.0
176
     1
  0
VISUALSTYLE
  5
E4
102
{ACAD_REACTORS
330
99
102
}
330
99
100
AcDbVisualStyle
  2
Hidden
 70
     6
177
     3
291
     0
 70
    58
 90
        1
176
     1
 90
        2
176
     1
 90
        2
176
     1
 90
        0
176
     1
 40
0.6
176
     1
 40
30.0
176
     1
 62
     7
420
 16777215
176
     1
 90
        2
176
     1
 90
        2
176
     1
 62
     7
176
     1
 62
   257
176
     1
 90
        2
176
     1
 90
        1
176
     1
 40
40.0
176
     1
 90
        0
176
     1
 62
   257
176
     1
 40
1.0
176
     1
 90
        1
176
     1
 90
        6
176
     1
 90
        2
176
     1
 62
     7
176
     1
 90
        3
176
     1
 90
        0
176
     1
 90
        0
176
     1
290
     0
176
     1
 90
        1
176
     1
 40
0.0
176
     1
 90
        0
176
     1
290
     0
176
     1
290
     1
176
     1
290
     1
176
     1
290
     0
176
     1
290
     0
176
     1
290
     0
176
     1
290
     0
176
     1
290
     0
176
     1
290
     0
176
     1
 90
       50
176
     1
 40
0.0
176
     1
 40
1.0
176
     1
 90
        0
176
     1
 62
   178
420
        0
176
     1
 90
       50
176
     1
 90
        3
176
     1
 62
     5
420
      255
176
     1
290
     0
176
     1
 90
       50
176
     1
 90
       50
176
     1
 90
       50
176
     1
290
     0
176
     1
 90
       50
176
     1
 62
   256
176
     0
 40
1.0
176
     0
 90
        2
176
     1
  1
strokes_ogs.tif
176
     1
290
     0
176
     1
 40
1.0
176
     1
 40
1.0
176
     1
  0
VISUALSTYLE
  5
E5
102
{ACAD_REACTORS
330
99
102
}
330
99
100
AcDbVisualStyle
  2
JitterOff
 70
    20
177
     3
291
     1
 70
    58
 90
        2
176
     0
 90
        2
176
     0
 90
        0
176
     0
 90
        0
176
     0
 40
0.6
176
     0
 40
30.0
176
     0
 62
     7
420
 16777215
176
     0
 90
        1
176
     0
 90
        4
176
     0
 62
     7
176
     0
 62
   257
176
     0
 90
        1
176
     0
 90
        1
176
     0
 40
1.0
176
     0
 90
       10
176
     2
 62
     7
176
     0
 40
1.0
176
     0
 90
        1
176
     0
 90
        6
176
     0
 90
        2
176
     0
 62
     7
176
     0
 90
        5
176
     0
 90
        0
176
     0
 90
        0
176
     0
290
     0
176
     0
 90
        1
176
     0
 40
0.0
176
     0
 90
        0
176
     0
290
     0
176
     0
290
     1
176
     0
290
     1
176
     0
290
     0
176
     0
290
     0
176
     0
290
     0
176
     0
290
     0
176
     0
290
     0
176
     0
290
     0
176
     0
 90
       50
176
     0
 40
0.0
176
     0
 40
1.0
176
     0
 90
        0
176
     0
 62
   178
420
        0
176
     0
 90
       50
176
     0
 90
        3
176
     0
 62
     5
420
      255
176
     0
290
     0
176
     0
 90
       50
176
     0
 90
       50
176
     0
 90
       50
176
     0
290
     0
176
     0
 90
       50
176
     0
 62
   256
176
     0
 40
1.0
176
     0
 90
        2
176
     0
  1
strokes_ogs.tif
176
     0
290
     0
176
     0
 40
1.0
176
     0
 40
1.0
176
     0
  0
VISUALSTYLE
  5
A7
102
{ACAD_REACTORS
330
99
102
}
330
99
100
AcDbVisualStyle
  2
Linepattern
 70
    14
177
     3
291
     1
 70
    58
 90
        2
176
     1
 90
        2
176
     1
 90
        1
176
     1
 90
        0
176
     1
 40
-0.6
176
     1
 40
-30.0
176
     1
 62
     7
420
 16777215
176
     1
 90
        1
176
     1
 90
        4
176
     1
 62
     7
176
     1
 62
   257
176
     1
 90
        7
176
     1
 90
        7
176
     1
 40
1.0
176
     1
 90
        8
176
     1
 62
     7
176
     1
 40
1.0
176
     1
 90
        1
176
     1
 90
        6
176
     1
 90
        2
176
     1
 62
     7
176
     1
 90
        5
176
     1
 90
        0
176
     1
 90
        0
176
     1
290
     0
176
     1
 90
        1
176
     1
 40
0.0
176
     1
 90
        0
176
     1
290
     0
176
     1
290
     1
176
     1
290
     1
176
     1
290
     0
176
     1
290
     0
176
     1
290
     0
176
     1
290
     0
176
     1
290
     0
176
     1
290
     0
176
     1
 90
       50
176
     1
 40
0.0
176
     1
 40
1.0
176
     1
 90
        0
176
     1
 62
   178
420
        0
176
     1
 90
       50
176
     1
 90
        3
176
     1
 62
     5
420
      255
176
     1
290
     0
176
     1
 90
       50
176
     1
 90
       50
176
     1
 90
       50
176
     1
290
     0
176
     1
 90
       50
176
     1
 62
   256
176
     0
 40
1.0
176
     0
 90
        2
176
     1
  1
strokes_ogs.tif
176
     1
290
     0
176
     1
 40
1.0
176
     1
 40
1.0
176
     1
  0
VISUALSTYLE
  5
E6
102
{ACAD_REACTORS
330
99
102
}
330
99
100
AcDbVisualStyle
  2
OverhangOff
 70
    21
177
     3
291
     1
 70
    58
 90
        2
176
     0
 90
        2
176
     0
 90
        0
176
     0
 90
        0
176
     0
 40
0.6
176
     0
 40
30.0
176
     0
 62
     7
420
 16777215
176
     0
 90
        1
176
     0
 90
        4
176
     0
 62
     7
176
     0
 62
   257
176
     0
 90
        1
176
     0
 90
        1
176
     0
 40
1.0
176
     0
 90
        9
176
     2
 62
     7
176
     0
 40
1.0
176
     0
 90
        1
176
     0
 90
        6
176
     0
 90
        2
176
     0
 62
     7
176
     0
 90
        5
176
     0
 90
        0
176
     0
 90
        0
176
     0
290
     0
176
     0
 90
        1
176
     0
 40
0.0
176
     0
 90
        0
176
     0
290
     0
176
     0
290
     1
176
     0
290
     1
176
     0
290
     0
176
     0
290
     0
176
     0
290
     0
176
     0
290
     0
176
     0
290
     0
176
     0
290
     0
176
     0
 90
       50
176
     0
 40
0.0
176
     0
 40
1.0
176
     0
 90
        0
176
     0
 62
   178
420
        0
176
     0
 90
       50
176
     0
 90
        3
176
     0
 62
     5
420
      255
176
     0
290
     0
176
     0
 90
       50
176
     0
 90
       50
176
     0
 90
       50
176
     0
290
     0
176
     0
 90
       50
176
     0
 62
   256
176
     0
 40
1.0
176
     0
 90
        2
176
     0
  1
strokes_ogs.tif
176
     0
290
     0
176
     0
 40
1.0
176
     0
 40
1.0
176
     0
  0
VISUALSTYLE
  5
A3
102
{ACAD_REACTORS
330
99
102
}
330
99
100
AcDbVisualStyle
  2
Realistic
 70
     8
177
     3
291
     0
 70
    58
 90
        2
176
     1
 90
        2
176
     1
 90
        1
176
     1
 90
        0
176
     1
 40
-0.6
176
     1
 40
-30.0
176
     1
 62
     7
420
 16777215
176
     1
 90
        1
176
     1
 90
        0
176
     1
 62
     7
176
     1
 62
   257
176
     1
 90
        1
176
     1
 90
        1
176
     1
 40
1.0
176
     1
 90
        8
176
     1
 62
     8
420
  7895160
176
     1
 40
1.0
176
     1
 90
        1
176
     1
 90
        6
176
     1
 90
        2
176
     1
 62
     7
176
     1
 90
        5
176
     1
 90
        0
176
     1
 90
        0
176
     1
290
     0
176
     1
 90
       13
176
     1
 40
0.0
176
     1
 90
        0
176
     1
290
     0
176
     1
290
     1
176
     1
290
     1
176
     1
290
     0
176
     1
290
     0
176
     1
290
     0
176
     1
290
     0
176
     1
290
     0
176
     1
290
     0
176
     1
 90
       50
176
     1
 40
0.0
176
     1
 40
1.0
176
     1
 90
        0
176
     1
 62
   178
420
        0
176
     1
 90
       50
176
     1
 90
        3
176
     1
 62
     5
420
      255
176
     1
290
     0
176
     1
 90
       50
176
     1
 90
       50
176
     1
 90
       50
176
     1
290
     0
176
     1
 90
       50
176
     1
 62
   256
176
     0
 40
1.0
176
     0
 90
        2
176
     1
  1
strokes_ogs.tif
176
     1
290
     0
176
     1
 40
1.0
176
     1
 40
1.0
176
     1
  0
VISUALSTYLE
  5
EC
102
{ACAD_REACTORS
330
99
102
}
330
99
100
AcDbVisualStyle
  2
Shaded
 70
    27
177
     3
291
     0
 70
    58
 90
        2
176
     1
 90
        2
176
     1
 90
        1
176
     1
 90
        2
176
     1
 40
0.6
176
     1
 40
30.0
176
     1
 62
     7
420
 16777215
176
     1
 90
        0
176
     1
 90
        4
176
     1
 62
     7
176
     1
 62
   257
176
     1
 90
        1
176
     1
 90
        1
176
     1
 40
1.0
176
     1
 90
        8
176
     1
 62
   257
176
     1
 40
1.0
176
     1
 90
        1
176
     1
 90
        6
176
     1
 90
        2
176
     1
 62
     8
420
  7895160
176
     1
 90
        3
176
     1
 90
        0
176
     1
 90
        0
176
     1
290
     0
176
     1
 90
        5
176
     1
 40
0.0
176
     1
 90
        0
176
     1
290
     0
176
     1
290
     1
176
     1
290
     1
176
     1
290
     0
176
     1
290
     0
176
     1
290
     0
176
     1
290
     0
176
     1
290
     0
176
     1
290
     0
176
     1
 90
       50
176
     1
 40
0.0
176
     1
 40
1.0
176
     1
 90
        0
176
     1
 62
   178
420
        0
176
     1
 90
       50
176
     1
 90
        3
176
     1
 62
     5
420
      255
176
     1
290
     0
176
     1
 90
       50
176
     1
 90
       50
176
     1
 90
       50
176
     1
290
     0
176
     1
 90
       50
176
     1
 62
   256
176
     0
 40
1.0
176
     0
 90
        2
176
     1
  1
strokes_ogs.tif
176
     1
290
     0
176
     1
 40
1.0
176
     1
 40
1.0
176
     1
  0
VISUALSTYLE
  5
EB
102
{ACAD_REACTORS
330
99
102
}
330
99
100
AcDbVisualStyle
  2
Shaded with edges
 70
    26
177
     3
291
     0
 70
    58
 90
        2
176
     1
 90
        2
176
     1
 90
        1
176
     1
 90
        2
176
     1
 40
0.6
176
     1
 40
30.0
176
     1
 62
     7
420
 16777215
176
     1
 90
        1
176
     1
 90
       10
176
     1
 62
     7
176
     1
 62
   257
176
     1
 90
        2
176
     1
 90
        1
176
     1
 40
1.0
176
     1
 90
        8
176
     1
 62
   257
176
     1
 40
1.0
176
     1
 90
        1
176
     1
 90
        6
176
     1
 90
        2
176
     1
 62
     7
176
     1
 90
        3
176
     1
 90
        0
176
     1
 90
        0
176
     1
290
     0
176
     1
 90
        5
176
     1
 40
0.0
176
     1
 90
        0
176
     1
290
     0
176
     1
290
     1
176
     1
290
     1
176
     1
290
     0
176
     1
290
     0
176
     1
290
     0
176
     1
290
     0
176
     1
290
     0
176
     1
290
     0
176
     1
 90
       50
176
     1
 40
0.0
176
     1
 40
1.0
176
     1
 90
        0
176
     1
 62
   178
420
        0
176
     1
 90
       50
176
     1
 90
        3
176
     1
 62
     5
420
      255
176
     1
290
     0
176
     1
 90
       50
176
     1
 90
       50
176
     1
 90
       50
176
     1
290
     0
176
     1
 90
       50
176
     1
 62
   256
176
     0
 40
1.0
176
     0
 90
        2
176
     1
  1
strokes_ogs.tif
176
     1
290
     0
176
     1
 40
1.0
176
     1
 40
1.0
176
     1
  0
VISUALSTYLE
  5
E8
102
{ACAD_REACTORS
330
99
102
}
330
99
100
AcDbVisualStyle
  2
Shades of Gray
 70
    23
177
     3
291
     0
 70
    58
 90
        2
176
     1
 90
        2
176
     1
 90
        3
176
     1
 90
        0
176
     1
 40
0.6
176
     1
 40
30.0
176
     1
 62
     7
420
 16777215
176
     1
 90
        2
176
     1
 90
        2
176
     1
 62
     7
176
     1
 62
     7
176
     1
 90
        1
176
     1
 90
        1
176
     1
 40
40.0
176
     1
 90
        8
176
     1
 62
     7
176
     1
 40
1.0
176
     1
 90
        1
176
     1
 90
        6
176
     1
 90
        2
176
     1
 62
     7
176
     1
 90
        3
176
     1
 90
        0
176
     1
 90
        0
176
     1
290
     0
176
     1
 90
        1
176
     1
 40
0.0
176
     1
 90
        0
176
     1
290
     0
176
     1
290
     1
176
     1
290
     1
176
     1
290
     0
176
     1
290
     0
176
     1
290
     0
176
     1
290
     0
176
     1
290
     0
176
     1
290
     0
176
     1
 90
       50
176
     1
 40
0.0
176
     1
 40
1.0
176
     1
 90
        0
176
     1
 62
   178
420
        0
176
     1
 90
       50
176
     1
 90
        3
176
     1
 62
     5
420
      255
176
     1
290
     0
176
     1
 90
       50
176
     1
 90
       50
176
     1
 90
       50
176
     1
290
     0
176
     1
 90
       50
176
     1
 62
   256
176
     0
 40
1.0
176
     0
 90
        2
176
     1
  1
strokes_ogs.tif
176
     1
290
     0
176
     1
 40
1.0
176
     1
 40
1.0
176
     1
  0
VISUALSTYLE
  5
E9
102
{ACAD_REACTORS
330
99
102
}
330
99
100
AcDbVisualStyle
  2
Sketchy
 70
    24
177
     3
291
     0
 70
    58
 90
        1
176
     1
 90
        2
176
     1
 90
        2
176
     1
 90
        0
176
     1
 40
0.6
176
     1
 40
30.0
176
     1
 62
     7
420
 16777215
176
     1
 90
        2
176
     1
 90
        2
176
     1
 62
     7
176
     1
 62
     7
176
     1
 90
        1
176
     1
 90
        1
176
     1
 40
40.0
176
     1
 90
       11
176
     1
 62
     7
176
     1
 40
1.0
176
     1
 90
        1
176
     1
 90
        6
176
     1
 90
        2
176
     1
 62
     7
176
     1
 90
        6
176
     1
 90
        0
176
     1
 90
        0
176
     1
290
     0
176
     1
 90
        1
176
     1
 40
0.0
176
     1
 90
        0
176
     1
290
     0
176
     1
290
     1
176
     1
290
     1
176
     1
290
     0
176
     1
290
     0
176
     1
290
     0
176
     1
290
     0
176
     1
290
     0
176
     1
290
     0
176
     1
 90
       50
176
     1
 40
0.0
176
     1
 40
1.0
176
     1
 90
        0
176
     1
 62
   178
420
        0
176
     1
 90
       50
176
     1
 90
        3
176
     1
 62
     5
420
      255
176
     1
290
     0
176
     1
 90
       50
176
     1
 90
       50
176
     1
 90
       50
176
     1
290
     0
176
     1
 90
       50
176
     1
 62
   256
176
     0
 40
1.0
176
     0
 90
        2
176
     1
  1
strokes_ogs.tif
176
     1
290
     0
176
     1
 40
1.0
176
     1
 40
1.0
176
     1
  0
VISUALSTYLE
  5
A6
102
{ACAD_REACTORS
330
99
102
}
330
99
100
AcDbVisualStyle
  2
Thicken
 70
    13
177
     3
291
     1
 70
    58
 90
        2
176
     1
 90
        2
176
     1
 90
        1
176
     1
 90
        0
176
     1
 40
-0.6
176
     1
 40
-30.0
176
     1
 62
     7
420
 16777215
176
     1
 90
        1
176
     1
 90
        4
176
     1
 62
     7
176
     1
 62
   257
176
     1
 90
        1
176
     1
 90
        1
176
     1
 40
1.0
176
     1
 90
       12
176
     1
 62
     7
176
     1
 40
1.0
176
     1
 90
        1
176
     1
 90
        6
176
     1
 90
        2
176
     1
 62
     7
176
     1
 90
        5
176
     1
 90
        0
176
     1
 90
        0
176
     1
290
     0
176
     1
 90
        1
176
     1
 40
0.0
176
     1
 90
        0
176
     1
290
     0
176
     1
290
     1
176
     1
290
     1
176
     1
290
     0
176
     1
290
     0
176
     1
290
     0
176
     1
290
     0
176
     1
290
     0
176
     1
290
     0
176
     1
 90
       50
176
     1
 40
0.0
176
     1
 40
1.0
176
     1
 90
        0
176
     1
 62
   178
420
        0
176
     1
 90
       50
176
     1
 90
        3
176
     1
 62
     5
420
      255
176
     1
290
     0
176
     1
 90
       50
176
     1
 90
       50
176
     1
 90
       50
176
     1
290
     0
176
     1
 90
       50
176
     1
 62
   256
176
     0
 40
1.0
176
     0
 90
        2
176
     1
  1
strokes_ogs.tif
176
     1
290
     0
176
     1
 40
1.0
176
     1
 40
1.0
176
     1
  0
VISUALSTYLE
  5
E3
102
{ACAD_REACTORS
330
99
102
}
330
99
100
AcDbVisualStyle
  2
Wireframe
 70
     5
177
     3
291
     0
 70
    58
 90
        0
176
     1
 90
        2
176
     1
 90
        0
176
     1
 90
        0
176
     1
 40
0.6
176
     1
 40
30.0
176
     1
 62
     7
420
 16777215
176
     1
 90
        1
176
     1
 90
        4
176
     1
 62
     7
176
     1
 62
   257
176
     1
 90
        1
176
     1
 90
        1
176
     1
 40
1.0
176
     1
 90
        0
176
     1
 62
   257
176
     1
 40
1.0
176
     1
 90
        1
176
     1
 90
        6
176
     1
 90
        2
176
     1
 62
     7
176
     1
 90
        3
176
     1
 90
        0
176
     1
 90
        0
176
     1
290
     0
176
     1
 90
        1
176
     1
 40
0.0
176
     1
 90
        0
176
     1
290
     0
176
     1
290
     1
176
     1
290
     1
176
     1
290
     0
176
     1
290
     0
176
     1
290
     0
176
     1
290
     0
176
     1
290
     0
176
     1
290
     0
176
     1
 90
       50
176
     1
 40
0.0
176
     1
 40
1.0
176
     1
 90
        0
176
     1
 62
   178
420
        0
176
     1
 90
       50
176
     1
 90
        3
176
     1
 62
     5
420
      255
176
     1
290
     0
176
     1
 90
       50
176
     1
 90
       50
176
     1
 90
       50
176
     1
290
     0
176
     1
 90
       50
176
     1
 62
   256
176
     0
 40
1.0
176
     0
 90
        2
176
     1
  1
strokes_ogs.tif
176
     1
290
     0
176
     1
 40
1.0
176
     1
 40
1.0
176
     1
  0
VISUALSTYLE
  5
EA
102
{ACAD_REACTORS
330
99
102
}
330
99
100
AcDbVisualStyle
  2
X-Ray
 70
    25
177
     3
291
     0
 70
    58
 90
        2
176
     1
 90
        2
176
     1
 90
        1
176
     1
 90
        1
176
     1
 40
0.5
176
     1
 40
30.0
176
     1
 62
     7
420
 16777215
176
     1
 90
        1
176
     1
 90
        0
176
     1
 62
     7
176
     1
 62
   257
176
     1
 90
        1
176
     1
 90
        1
176
     1
 40
1.0
176
     1
 90
        8
176
     1
 62
     7
176
     1
 40
1.0
176
     1
 90
        1
176
     1
 90
        6
176
     1
 90
        2
176
     1
 62
     7
176
     1
 90
        3
176
     1
 90
        0
176
     1
 90
        0
176
     1
290
     0
176
     1
 90
       13
176
     1
 40
0.0
176
     1
 90
        0
176
     1
290
     0
176
     1
290
     1
176
     1
290
     1
176
     1
290
     0
176
     1
290
     0
176
     1
290
     0
176
     1
290
     0
176
     1
290
     0
176
     1
290
     0
176
     1
 90
       50
176
     1
 40
0.0
176
     1
 40
1.0
176
     1
 90
        0
176
     1
 62
   178
420
        0
176
     1
 90
       50
176
     1
 90
        3
176
     1
 62
     5
420
      255
176
     1
290
     0
176
     1
 90
       50
176
     1
 90
       50
176
     1
 90
       50
176
     1
290
     0
176
     1
 90
       50
176
     1
 62
   256
176
     0
 40
1.0
176
     0
 90
        2
176
     1
  1
strokes_ogs.tif
176
     1
290
     0
176
     1
 40
1.0
176
     1
 40
1.0
176
     1
  0
DICTIONARYVAR
  5
D8
102
{ACAD_REACTORS
330
66
102
}
330
66
100
DictionaryVariables
280
     0
  1
1:1
  0
DICTIONARYVAR
  5
128
102
{ACAD_REACTORS
330
66
102
}
330
66
100
DictionaryVariables
280
     0
  1
Standard
  0
DICTIONARYVAR
  5
89
102
{ACAD_REACTORS
330
66
102
}
330
66
100
DictionaryVariables
280
     0
  1
Standard
  0
DICTIONARYVAR
  5
67
102
{ACAD_REACTORS
330
66
102
}
330
66
100
DictionaryVariables
280
     0
  1
2
  0
DICTIONARYVAR
  5
6B
102
{ACAD_REACTORS
330
66
102
}
330
66
100
DictionaryVariables
280
     0
  1
1
  0
DICTIONARYVAR
  5
DF
102
{ACAD_REACTORS
330
66
102
}
330
66
100
DictionaryVariables
280
     0
  1
0
  0
DICTIONARYVAR
  5
E0
102
{ACAD_REACTORS
330
66
102
}
330
66
100
DictionaryVariables
280
     0
  1
0
  0
DICTIONARY
  5
621
330
87
100
AcDbDictionary
280
     1
281
     1
  3
ACAD_ROUNDTRIP_2008_TABLESTYLE_CELLSTYLEMAP
360
622
  0
CELLSTYLEMAP
  5
622
102
{ACAD_REACTORS
330
621
102
}
330
621
100
AcDbCellStyleMap
 90
        3
300
CELLSTYLE
  1
TABLEFORMAT_BEGIN
 90
        5
170
     1
 91
        0
 92
    32768
 62
   257
 93
        1
300
CONTENTFORMAT
  1
CONTENTFORMAT_BEGIN
 90
        0
 91
        0
 92
      512
 93
        0
300

 40
0.0
140
1.0
 94
        5
 62
     0
340
11
144
0.25
309
CONTENTFORMAT_END
171
     0
 94
        6
 95
        1
302
GRIDFORMAT
  1
GRIDFORMAT_BEGIN
 90
        0
 91
        1
 62
     0
 92
       -2
340
0
 93
        0
 40
0.045
309
GRIDFORMAT_END
 95
        2
302
GRIDFORMAT
  1
GRIDFORMAT_BEGIN
 90
        0
 91
        1
 62
     0
 92
       -2
340
0
 93
        0
 40
0.045
309
GRIDFORMAT_END
 95
        4
302
GRIDFORMAT
  1
GRIDFORMAT_BEGIN
 90
        0
 91
        1
 62
     0
 92
       -2
340
0
 93
        0
 40
0.045
309
GRIDFORMAT_END
 95
        8
302
GRIDFORMAT
  1
GRIDFORMAT_BEGIN
 90
        0
 91
        1
 62
     0
 92
       -2
340
0
 93
        0
 40
0.045
309
GRIDFORMAT_END
 95
       16
302
GRIDFORMAT
  1
GRIDFORMAT_BEGIN
 90
        0
 91
        1
 62
     0
 92
       -2
340
0
 93
        0
 40
0.045
309
GRIDFORMAT_END
 95
       32
302
GRIDFORMAT
  1
GRIDFORMAT_BEGIN
 90
        0
 91
        1
 62
     0
 92
       -2
340
0
 93
        0
 40
0.045
309
GRIDFORMAT_END
309
TABLEFORMAT_END
  1
CELLSTYLE_BEGIN
 90
        1
 91
        1
300
_TITLE
309
CELLSTYLE_END
300
CELLSTYLE
  1
TABLEFORMAT_BEGIN
 90
        5
170
     1
 91
        0
 92
        0
 62
   257
 93
        1
300
CONTENTFORMAT
  1
CONTENTFORMAT_BEGIN
 90
        0
 91
        0
 92
      512
 93
        0
300

 40
0.0
140
1.0
 94
        5
 62
     0
340
11
144
0.18
309
CONTENTFORMAT_END
171
     0
 94
        6
 95
        1
302
GRIDFORMAT
  1
GRIDFORMAT_BEGIN
 90
        0
 91
        1
 62
     0
 92
       -2
340
0
 93
        0
 40
0.045
309
GRIDFORMAT_END
 95
        2
302
GRIDFORMAT
  1
GRIDFORMAT_BEGIN
 90
        0
 91
        1
 62
     0
 92
       -2
340
0
 93
        0
 40
0.045
309
GRIDFORMAT_END
 95
        4
302
GRIDFORMAT
  1
GRIDFORMAT_BEGIN
 90
        0
 91
        1
 62
     0
 92
       -2
340
0
 93
        0
 40
0.045
309
GRIDFORMAT_END
 95
        8
302
GRIDFORMAT
  1
GRIDFORMAT_BEGIN
 90
        0
 91
        1
 62
     0
 92
       -2
340
0
 93
        0
 40
0.045
309
GRIDFORMAT_END
 95
       16
302
GRIDFORMAT
  1
GRIDFORMAT_BEGIN
 90
        0
 91
        1
 62
     0
 92
       -2
340
0
 93
        0
 40
0.045
309
GRIDFORMAT_END
 95
       32
302
GRIDFORMAT
  1
GRIDFORMAT_BEGIN
 90
        0
 91
        1
 62
     0
 92
       -2
340
0
 93
        0
 40
0.045
309
GRIDFORMAT_END
309
TABLEFORMAT_END
  1
CELLSTYLE_BEGIN
 90
        2
 91
        1
300
_HEADER
309
CELLSTYLE_END
300
CELLSTYLE
  1
TABLEFORMAT_BEGIN
 90
        5
170
     1
 91
        0
 92
        0
 62
   257
 93
        1
300
CONTENTFORMAT
  1
CONTENTFORMAT_BEGIN
 90
        0
 91
        0
 92
      512
 93
        0
300

 40
0.0
140
1.0
 94
        2
 62
     0
340
11
144
0.18
309
CONTENTFORMAT_END
171
     0
 94
        6
 95
        1
302
GRIDFORMAT
  1
GRIDFORMAT_BEGIN
 90
        0
 91
        1
 62
     0
 92
       -2
340
0
 93
        0
 40
0.045
309
GRIDFORMAT_END
 95
        2
302
GRIDFORMAT
  1
GRIDFORMAT_BEGIN
 90
        0
 91
        1
 62
     0
 92
       -2
340
0
 93
        0
 40
0.045
309
GRIDFORMAT_END
 95
        4
302
GRIDFORMAT
  1
GRIDFORMAT_BEGIN
 90
        0
 91
        1
 62
     0
 92
       -2
340
0
 93
        0
 40
0.045
309
GRIDFORMAT_END
 95
        8
302
GRIDFORMAT
  1
GRIDFORMAT_BEGIN
 90
        0
 91
        1
 62
     0
 92
       -2
340
0
 93
        0
 40
0.045
309
GRIDFORMAT_END
 95
       16
302
GRIDFORMAT
  1
GRIDFORMAT_BEGIN
 90
        0
 91
        1
 62
     0
 92
       -2
340
0
 93
        0
 40
0.045
309
GRIDFORMAT_END
 95
       32
302
GRIDFORMAT
  1
GRIDFORMAT_BEGIN
 90
        0
 91
        1
 62
     0
 92
       -2
340
0
 93
        0
 40
0.045
309
GRIDFORMAT_END
309
TABLEFORMAT_END
  1
CELLSTYLE_BEGIN
 90
        3
 91
        2
300
_DATA
309
CELLSTYLE_END
  0
ENDSEC
  0
EOF
