  0
SECTION
  2
HEADER
  9
$ACADVER
  1
AC1027
  9
$ACADMAINTVER
 70
     8
  9
$DWGCODEPAGE
  3
ANSI_1252
  9
$REQUIREDVERSIONS
160
                 0
  9
$INSBASE
 10
0.0
 20
0.0
 30
0.0
  9
$EXTMIN
 10
0.0
 20
0.0
 30
0.0
  9
$EXTMAX
 10
596.9827961166461
 20
299.9999999999999
 30
0.0
  9
$LIMMIN
 10
0.0
 20
0.0
  9
$LIMMAX
 10
12.0
 20
9.0
  9
$ORTHOMODE
 70
     0
  9
$REGENMODE
 70
     1
  9
$FILLMODE
 70
     1
  9
$QTEXTMODE
 70
     0
  9
$MIRRTEXT
 70
     0
  9
$LTSCALE
 40
1.0
  9
$ATTMODE
 70
     1
  9
$TEXTSIZE
 40
0.2
  9
$TRACEWID
 40
0.05
  9
$TEXTSTYLE
  7
Standard
  9
$CLAYER
  8
cuts
  9
$CELTYPE
  6
ByLayer
  9
$CECOLOR
 62
   256
  9
$CELTSCALE
 40
1.0
  9
$DISPSILH
 70
     0
  9
$DIMSCALE
 40
1.0
  9
$DIMASZ
 40
0.18
  9
$DIMEXO
 40
0.0625
  9
$DIMDLI
 40
0.38
  9
$DIMRND
 40
0.0
  9
$DIMDLE
 40
0.0
  9
$DIMEXE
 40
0.18
  9
$DIMTP
 40
0.0
  9
$DIMTM
 40
0.0
  9
$DIMTXT
 40
0.18
  9
$DIMCEN
 40
0.09
  9
$DIMTSZ
 40
0.0
  9
$DIMTOL
 70
     0
  9
$DIMLIM
 70
     0
  9
$DIMTIH
 70
     1
  9
$DIMTOH
 70
     1
  9
$DIMSE1
 70
     0
  9
$DIMSE2
 70
     0
  9
$DIMTAD
 70
     0
  9
$DIMZIN
 70
     0
  9
$DIMBLK
  1

  9
$DIMASO
 70
     1
  9
$DIMSHO
 70
     1
  9
$DIMPOST
  1

  9
$DIMAPOST
  1

  9
$DIMALT
 70
     0
  9
$DIMALTD
 70
     2
  9
$DIMALTF
 40
25.4
  9
$DIMLFAC
 40
1.0
  9
$DIMTOFL
 70
     0
  9
$DIMTVP
 40
0.0
  9
$DIMTIX
 70
     0
  9
$DIMSOXD
 70
     0
  9
$DIMSAH
 70
     0
  9
$DIMBLK1
  1

  9
$DIMBLK2
  1

  9
$DIMSTYLE
  2
Standard
  9
$DIMCLRD
 70
     0
  9
$DIMCLRE
 70
     0
  9
$DIMCLRT
 70
     0
  9
$DIMTFAC
 40
1.0
  9
$DIMGAP
 40
0.09
  9
$DIMJUST
 70
     0
  9
$DIMSD1
 70
     0
  9
$DIMSD2
 70
     0
  9
$DIMTOLJ
 70
     1
  9
$DIMTZIN
 70
     0
  9
$DIMALTZ
 70
     0
  9
$DIMALTTZ
 70
     0
  9
$DIMUPT
 70
     0
  9
$DIMDEC
 70
     4
  9
$DIMTDEC
 70
     4
  9
$DIMALTU
 70
     2
  9
$DIMALTTD
 70
     2
  9
$DIMTXSTY
  7
Standard
  9
$DIMAUNIT
 70
     0
  9
$DIMADEC
 70
     0
  9
$DIMALTRND
 40
0.0
  9
$DIMAZIN
 70
     0
  9
$DIMDSEP
 70
    46
  9
$DIMATFIT
 70
     3
  9
$DIMFRAC
 70
     0
  9
$DIMLDRBLK
  1

  9
$DIMLUNIT
 70
     2
  9
$DIMLWD
 70
    -2
  9
$DIMLWE
 70
    -2
  9
$DIMTMOVE
 70
     0
  9
$DIMFXL
 40
1.0
  9
$DIMFXLON
 70
     0
  9
$DIMJOGANG
 40
0.7853981633974483
  9
$DIMTFILL
 70
     0
  9
$DIMTFILLCLR
 70
     0
  9
$DIMARCSYM
 70
     0
  9
$DIMLTYPE
  6

  9
$DIMLTEX1
  6

  9
$DIMLTEX2
  6

  9
$DIMTXTDIRECTION
 70
     0
  9
$LUNITS
 70
     2
  9
$LUPREC
 70
     4
  9
$SKETCHINC
 40
0.1
  9
$FILLETRAD
 40
5.0
  9
$AUNITS
 70
     0
  9
$AUPREC
 70
     0
  9
$MENU
  1
.
  9
$ELEVATION
 40
0.0
  9
$PELEVATION
 40
0.0
  9
$THICKNESS
 40
0.0
  9
$LIMCHECK
 70
     0
  9
$CHAMFERA
 40
0.0
  9
$CHAMFERB
 40
0.0
  9
$CHAMFERC
 40
0.0
  9
$CHAMFERD
 40
0.0
  9
$SKPOLY
 70
     0
  9
$TDCREATE
 40
2452643.063384271
  9
$TDUCREATE
 40
2452643.063384271
  9
$TDUPDATE
 40
2457492.593761574
  9
$TDUUPDATE
 40
2457492.593761574
  9
$TDINDWG
 40
0.0
  9
$TDUSRTIMER
 40
2457492.547407407
  9
$USRTIMER
 70
     1
  9
$ANGBASE
 50
0.0
  9
$ANGDIR
 70
     0
  9
$PDMODE
 70
     0
  9
$PDSIZE
 40
0.0
  9
$PLINEWID
 40
0.0
  9
$SPLFRAME
 70
     0
  9
$SPLINETYPE
 70
     6
  9
$SPLINESEGS
 70
     8
  9
$HANDSEED
  5
7C0
  9
$SURFTAB1
 70
     6
  9
$SURFTAB2
 70
     6
  9
$SURFTYPE
 70
     6
  9
$SURFU
 70
     6
  9
$SURFV
 70
     6
  9
$UCSBASE
  2

  9
$UCSNAME
  2

  9
$UCSORG
 10
0.0
 20
0.0
 30
0.0
  9
$UCSXDIR
 10
1.0
 20
0.0
 30
0.0
  9
$UCSYDIR
 10
0.0
 20
1.0
 30
0.0
  9
$UCSORTHOREF
  2

  9
$UCSORTHOVIEW
 70
     0
  9
$UCSORGTOP
 10
0.0
 20
0.0
 30
0.0
  9
$UCSORGBOTTOM
 10
0.0
 20
0.0
 30
0.0
  9
$UCSORGLEFT
 10
0.0
 20
0.0
 30
0.0
  9
$UCSORGRIGHT
 10
0.0
 20
0.0
 30
0.0
  9
$UCSORGFRONT
 10
0.0
 20
0.0
 30
0.0
  9
$UCSORGBACK
 10
0.0
 20
0.0
 30
0.0
  9
$PUCSBASE
  2

  9
$PUCSNAME
  2

  9
$PUCSORG
 10
0.0
 20
0.0
 30
0.0
  9
$PUCSXDIR
 10
1.0
 20
0.0
 30
0.0
  9
$PUCSYDIR
 10
0.0
 20
1.0
 30
0.0
  9
$PUCSORTHOREF
  2

  9
$PUCSORTHOVIEW
 70
     0
  9
$PUCSORGTOP
 10
0.0
 20
0.0
 30
0.0
  9
$PUCSORGBOTTOM
 10
0.0
 20
0.0
 30
0.0
  9
$PUCSORGLEFT
 10
0.0
 20
0.0
 30
0.0
  9
$PUCSORGRIGHT
 10
0.0
 20
0.0
 30
0.0
  9
$PUCSORGFRONT
 10
0.0
 20
0.0
 30
0.0
  9
$PUCSORGBACK
 10
0.0
 20
0.0
 30
0.0
  9
$USERI1
 70
     0
  9
$USERI2
 70
     0
  9
$USERI3
 70
     0
  9
$USERI4
 70
     0
  9
$USERI5
 70
     0
  9
$USERR1
 40
0.0
  9
$USERR2
 40
0.0
  9
$USERR3
 40
0.0
  9
$USERR4
 40
0.0
  9
$USERR5
 40
0.0
  9
$WORLDVIEW
 70
     1
  9
$SHADEDGE
 70
     3
  9
$SHADEDIF
 70
    70
  9
$TILEMODE
 70
     1
  9
$MAXACTVP
 70
    64
  9
$PINSBASE
 10
0.0
 20
0.0
 30
0.0
  9
$PLIMCHECK
 70
     0
  9
$PEXTMIN
 10
0.0
 20
0.0
 30
0.0
  9
$PEXTMAX
 10
0.0
 20
0.0
 30
0.0
  9
$PLIMMIN
 10
0.0
 20
0.0
  9
$PLIMMAX
 10
0.0
 20
0.0
  9
$UNITMODE
 70
     0
  9
$VISRETAIN
 70
     1
  9
$PLINEGEN
 70
     0
  9
$PSLTSCALE
 70
     1
  9
$TREEDEPTH
 70
  3020
  9
$CMLSTYLE
  2
Standard
  9
$CMLJUST
 70
     0
  9
$CMLSCALE
 40
1.0
  9
$PROXYGRAPHICS
 70
     1
  9
$MEASUREMENT
 70
     0
  9
$CELWEIGHT
370
    -1
  9
$ENDCAPS
280
     0
  9
$JOINSTYLE
280
     0
  9
$LWDISPLAY
290
     0
  9
$INSUNITS
 70
     1
  9
$HYPERLINKBASE
  1

  9
$STYLESHEET
  1

  9
$XEDIT
290
     1
  9
$CEPSNTYPE
380
     0
  9
$PSTYLEMODE
290
     1
  9
$FINGERPRINTGUID
  2
{FDEAD576-A652-11D2-9A35-0060089B3A3F}
  9
$VERSIONGUID
  2
{FBC2AE19-5C5C-49EC-81BC-71B1A3362A02}
  9
$EXTNAMES
290
     1
  9
$PSVPSCALE
 40
0.0
  9
$OLESTARTUP
290
     0
  9
$SORTENTS
280
   127
  9
$INDEXCTL
280
     0
  9
$HIDETEXT
280
     1
  9
$XCLIPFRAME
280
     0
  9
$HALOGAP
280
     0
  9
$OBSCOLOR
 70
   257
  9
$OBSLTYPE
280
     0
  9
$INTERSECTIONDISPLAY
280
     0
  9
$INTERSECTIONCOLOR
 70
   257
  9
$DIMASSOC
280
     2
  9
$PROJECTNAME
  1

  9
$CAMERADISPLAY
290
     0
  9
$LENSLENGTH
 40
50.0
  9
$CAMERAHEIGHT
 40
0.0
  9
$STEPSPERSEC
 40
2.0
  9
$STEPSIZE
 40
6.0
  9
$3DDWFPREC
 40
2.0
  9
$PSOLWIDTH
 40
0.25
  9
$PSOLHEIGHT
 40
4.0
  9
$LOFTANG1
 40
1.570796326794897
  9
$LOFTANG2
 40
1.570796326794897
  9
$LOFTMAG1
 40
0.0
  9
$LOFTMAG2
 40
0.0
  9
$LOFTPARAM
 70
     7
  9
$LOFTNORMALS
280
     1
  9
$LATITUDE
 40
37.795
  9
$LONGITUDE
 40
-122.394
  9
$NORTHDIRECTION
 40
0.0
  9
$TIMEZONE
 70
 -8000
  9
$LIGHTGLYPHDISPLAY
280
     1
  9
$TILEMODELIGHTSYNCH
280
     1
  9
$CMATERIAL
347
96
  9
$SOLIDHIST
280
     1
  9
$SHOWHIST
280
     1
  9
$DWFFRAME
280
     2
  9
$DGNFRAME
280
     0
  9
$REALWORLDSCALE
290
     1
  9
$INTERFERECOLOR
 62
     1
  9
$CSHADOW
280
     0
  9
$SHADOWPLANELOCATION
 40
0.0
  0
ENDSEC
  0
SECTION
  2
CLASSES
  0
CLASS
  1
ACDBDICTIONARYWDFLT
  2
AcDbDictionaryWithDefault
  3
ObjectDBX Classes
 90
        0
 91
        4
280
     0
281
     0
  0
CLASS
  1
ACDBPLACEHOLDER
  2
AcDbPlaceHolder
  3
ObjectDBX Classes
 90
        0
 91
        1
280
     0
281
     0
  0
CLASS
  1
LAYOUT
  2
AcDbLayout
  3
ObjectDBX Classes
 90
        0
 91
        1
280
     0
281
     0
  0
CLASS
  1
DICTIONARYVAR
  2
AcDbDictionaryVar
  3
ObjectDBX Classes
 90
        0
 91
        4
280
     0
281
     0
  0
CLASS
  1
TABLESTYLE
  2
AcDbTableStyle
  3
ObjectDBX Classes
 90
     4095
 91
        4
280
     0
281
     0
  0
CLASS
  1
MATERIAL
  2
AcDbMaterial
  3
ObjectDBX Classes
 90
     1153
 91
        4
280
     0
281
     0
  0
CLASS
  1
VISUALSTYLE
  2
AcDbVisualStyle
  3
ObjectDBX Classes
 90
     4095
 91
        4
280
     0
281
     0
  0
CLASS
  1
SCALE
  2
AcDbScale
  3
ObjectDBX Classes
 90
     1153
 91
        4
280
     0
281
     0
  0
CLASS
  1
CELLSTYLEMAP
  2
AcDbCellStyleMap
  3
ObjectDBX Classes
 90
     1152
 91
        4
280
     0
281
     0
  0
CLASS
  1
RASTERVARIABLES
  2
AcDbRasterVariables
  3
ISM
 90
        0
 91
        4
280
     0
281
     0
  0
CLASS
  1
SUN
  2
AcDbSun
  3
SCENEOE
 90
     1153
 91
        4
280
     0
281
     0
  0
CLASS
  1
MLEADERSTYLE
  2
AcDbMLeaderStyle
  3
ACDB_MLEADERSTYLE_CLASS
 90
     4095
 91
        4
280
     0
281
     0
  0
CLASS
  1
DIMASSOC
  2
AcDbDimAssoc
  3
"AcDbDimAssoc|Product Desc:     AcDim ARX App For Dimension|Company:          Autodesk, Inc.|WEB Address:      www.autodesk.com"
 90
        0
 91
        4
280
     0
281
     0
  0
ENDSEC
  0
SECTION
  2
TABLES
  0
TABLE
  2
VPORT
  5
8
330
0
100
AcDbSymbolTable
 70
     1
  0
VPORT
  5
94
330
8
100
AcDbSymbolTableRecord
100
AcDbViewportTableRecord
  2
*Active
 70
     0
 10
0.0
 20
0.0
 11
1.0
 21
1.0
 12
417.585574109742
 22
109.1875781083015
 13
0.0
 23
0.0
 14
0.5
 24
0.5
 15
0.5
 25
0.5
 16
0.0
 26
0.0
 36
1.0
 17
-27.66959356597988
 27
-19.53870295786132
 37
0.0
 40
467.4513813566803
 41
1.894289185905225
 42
50.0
 43
0.0
 44
0.0
 50
0.0
 51
0.0
 71
    16
 72
  1000
 73
     1
 74
     3
 75
     0
 76
     0
 77
     0
 78
     0
281
     0
 65
     1
110
0.0
120
0.0
130
0.0
111
1.0
121
0.0
131
0.0
112
0.0
122
1.0
132
0.0
 79
     0
146
0.0
348
9F
 60
     2
 61
     5
292
     1
282
     1
141
0.0
142
0.0
 63
   250
421
  3355443
361
ED
  0
ENDTAB
  0
TABLE
  2
LTYPE
  5
5
330
0
100
AcDbSymbolTable
 70
     1
  0
LTYPE
  5
14
330
5
100
AcDbSymbolTableRecord
100
AcDbLinetypeTableRecord
  2
ByBlock
 70
     0
  3

 72
    65
 73
     0
 40
0.0
  0
LTYPE
  5
15
330
5
100
AcDbSymbolTableRecord
100
AcDbLinetypeTableRecord
  2
ByLayer
 70
     0
  3

 72
    65
 73
     0
 40
0.0
  0
LTYPE
  5
16
330
5
100
AcDbSymbolTableRecord
100
AcDbLinetypeTableRecord
  2
Continuous
 70
     0
  3
Solid line
 72
    65
 73
     0
 40
0.0
  0
ENDTAB
  0
TABLE
  2
LAYER
  5
2
102
{ACAD_XDICTIONARY
360
129
102
}
330
0
100
AcDbSymbolTable
 70
    12
  0
LAYER
  5
10
330
2
100
AcDbSymbolTableRecord
100
AcDbLayerTableRecord
  2
0
 70
     0
 62
     7
  6
Continuous
370
    -3
390
F
347
98
348
0
  0
LAYER
  5
12C
330
2
100
AcDbSymbolTableRecord
100
AcDbLayerTableRecord
  2
DRV8711EVM
 70
     0
 62
     7
  6
Continuous
370
    -3
390
F
347
98
348
0
1001
AcAecLayerStandard
1000

1000

  0
LAYER
  5
2C0
330
2
100
AcDbSymbolTableRecord
100
AcDbLayerTableRecord
  2
max31855
 70
     0
 62
     7
  6
Continuous
370
    -3
390
F
347
98
348
0
1001
AcAecLayerStandard
1000

1000

  0
LAYER
  5
2C3
330
2
100
AcDbSymbolTableRecord
100
AcDbLayerTableRecord
  2
smoothie
 70
     0
 62
     7
  6
Continuous
370
    -3
390
F
347
98
348
0
1001
AcAecLayerStandard
1000

1000

  0
LAYER
  5
396
330
2
100
AcDbSymbolTableRecord
100
AcDbLayerTableRecord
  2
poeInjector
 70
     0
 62
     7
  6
Continuous
370
    -3
390
F
347
98
348
0
1001
AcAecLayerStandard
1000

1000

  0
LAYER
  5
3A3
330
2
100
AcDbSymbolTableRecord
100
AcDbLayerTableRecord
  2
Defpoints
 70
     0
 62
     7
  6
Continuous
290
     0
370
    -3
390
F
347
98
348
0
  0
LAYER
  5
3CF
330
2
100
AcDbSymbolTableRecord
100
AcDbLayerTableRecord
  2
24vSupply
 70
     0
 62
     7
  6
Continuous
370
    -3
390
F
347
98
348
0
1001
AcAecLayerStandard
1000

1000

  0
LAYER
  5
3F6
330
2
100
AcDbSymbolTableRecord
100
AcDbLayerTableRecord
  2
plugSwitch
 70
     0
 62
     7
  6
Continuous
370
    -3
390
F
347
98
348
0
1001
AcAecLayerStandard
1000

1000

  0
LAYER
  5
435
330
2
100
AcDbSymbolTableRecord
100
AcDbLayerTableRecord
  2
DC_SSR
 70
     0
 62
     7
  6
Continuous
370
    -3
390
F
347
98
348
0
1001
AcAecLayerStandard
1000

1000

  0
LAYER
  5
43A
330
2
100
AcDbSymbolTableRecord
100
AcDbLayerTableRecord
  2
AC_SSR
 70
     0
 62
     7
  6
Continuous
370
    -3
390
F
347
98
348
0
1001
AcAecLayerStandard
1000

1000

  0
LAYER
  5
489
330
2
100
AcDbSymbolTableRecord
100
AcDbLayerTableRecord
  2
cuts
 70
     0
 62
     3
  6
Continuous
370
    -3
390
F
347
98
348
0
1001
AcAecLayerStandard
1000

1000

  0
LAYER
  5
511
330
2
100
AcDbSymbolTableRecord
100
AcDbLayerTableRecord
  2
switchCap
 70
     0
 62
     3
  6
Continuous
370
    -3
390
F
347
98
348
0
1001
AcAecLayerStandard
1000

1000

  0
ENDTAB
  0
TABLE
  2
STYLE
  5
3
330
0
100
AcDbSymbolTable
 70
     2
  0
STYLE
  5
11
330
3
100
AcDbSymbolTableRecord
100
AcDbTextStyleTableRecord
  2
Standard
 70
     0
 40
0.0
 41
1.0
 50
0.0
 71
     0
 42
0.2
  3
arial.ttf
  4

1001
ACAD
1000
Arial
1071
        0
  0
STYLE
  5
125
330
3
100
AcDbSymbolTableRecord
100
AcDbTextStyleTableRecord
  2
Annotative
 70
     0
 40
0.0
 41
1.0
 50
0.0
 71
     0
 42
0.2
  3
arial.ttf
  4

1001
ACAD
1000
Arial
1071
        0
1001
AcadAnnotative
1000
AnnotativeData
1002
{
1070
     1
1070
     1
1002
}
  0
ENDTAB
  0
TABLE
  2
VIEW
  5
6
330
0
100
AcDbSymbolTable
 70
     0
  0
ENDTAB
  0
TABLE
  2
UCS
  5
7
330
0
100
AcDbSymbolTable
 70
     0
  0
ENDTAB
  0
TABLE
  2
APPID
  5
9
330
0
100
AcDbSymbolTable
 70
     3
  0
APPID
  5
12
330
9
100
AcDbSymbolTableRecord
100
AcDbRegAppTableRecord
  2
ACAD
 70
     0
  0
APPID
  5
126
330
9
100
AcDbSymbolTableRecord
100
AcDbRegAppTableRecord
  2
AcadAnnotative
 70
     0
  0
APPID
  5
12D
330
9
100
AcDbSymbolTableRecord
100
AcDbRegAppTableRecord
  2
AcAecLayerStandard
 70
     0
  0
ENDTAB
  0
TABLE
  2
DIMSTYLE
  5
A
330
0
100
AcDbSymbolTable
 70
     3
100
AcDbDimStyleTable
  0
DIMSTYLE
105
27
330
A
100
AcDbSymbolTableRecord
100
AcDbDimStyleTableRecord
  2
Standard
 70
     0
178
     0
340
11
  0
DIMSTYLE
105
127
330
A
100
AcDbSymbolTableRecord
100
AcDbDimStyleTableRecord
  2
Annotative
 70
     0
 40
0.0
178
     0
340
11
1001
AcadAnnotative
1000
AnnotativeData
1002
{
1070
     1
1070
     1
1002
}
  0
DIMSTYLE
105
139
330
A
100
AcDbSymbolTableRecord
100
AcDbDimStyleTableRecord
  2
ISO-25
 70
     0
 41
2.5
 42
0.625
 43
3.75
 44
1.25
 73
     0
 74
     0
 77
     1
 78
     8
140
2.5
141
2.5
143
0.03937007874016
147
0.625
171
     3
172
     1
178
     0
271
     2
272
     2
274
     3
283
     0
284
     8
340
11
  0
ENDTAB
  0
TABLE
  2
BLOCK_RECORD
  5
1
330
0
100
AcDbSymbolTable
 70
    24
  0
BLOCK_RECORD
  5
1F
330
1
100
AcDbSymbolTableRecord
100
AcDbBlockTableRecord
  2
*Model_Space
340
22
 70
     0
280
     1
281
     0
  0
BLOCK_RECORD
  5
58
330
1
100
AcDbSymbolTableRecord
100
AcDbBlockTableRecord
  2
*Paper_Space
340
59
 70
     0
280
     1
281
     0
  0
BLOCK_RECORD
  5
5D
330
1
100
AcDbSymbolTableRecord
100
AcDbBlockTableRecord
  2
*Paper_Space0
340
5E
 70
     0
280
     1
281
     0
  0
BLOCK_RECORD
  5
3A7
330
1
100
AcDbSymbolTableRecord
100
AcDbBlockTableRecord
  2
*D1
340
0
 70
     0
280
     1
281
     0
  0
BLOCK_RECORD
  5
3B7
330
1
100
AcDbSymbolTableRecord
100
AcDbBlockTableRecord
  2
*D2
340
0
 70
     0
280
     1
281
     0
  0
BLOCK_RECORD
  5
3DB
330
1
100
AcDbSymbolTableRecord
100
AcDbBlockTableRecord
  2
*D3
340
0
 70
     0
280
     1
281
     0
  0
BLOCK_RECORD
  5
40B
330
1
100
AcDbSymbolTableRecord
100
AcDbBlockTableRecord
  2
*D4
340
0
 70
     0
280
     1
281
     0
  0
BLOCK_RECORD
  5
451
330
1
100
AcDbSymbolTableRecord
100
AcDbBlockTableRecord
  2
*D5
340
0
 70
     0
280
     1
281
     0
  0
BLOCK_RECORD
  5
461
330
1
100
AcDbSymbolTableRecord
100
AcDbBlockTableRecord
  2
*D6
340
0
 70
     0
280
     1
281
     0
  0
BLOCK_RECORD
  5
595
330
1
100
AcDbSymbolTableRecord
100
AcDbBlockTableRecord
  2
*D7
340
0
 70
     0
280
     1
281
     0
  0
BLOCK_RECORD
  5
664
330
1
100
AcDbSymbolTableRecord
100
AcDbBlockTableRecord
  2
*D12
340
0
 70
     0
280
     1
281
     0
  0
BLOCK_RECORD
  5
6AA
330
1
100
AcDbSymbolTableRecord
100
AcDbBlockTableRecord
  2
*D14
340
0
 70
     0
280
     1
281
     0
  0
BLOCK_RECORD
  5
6BA
330
1
100
AcDbSymbolTableRecord
100
AcDbBlockTableRecord
  2
*D15
340
0
 70
     0
280
     1
281
     0
  0
BLOCK_RECORD
  5
6CE
330
1
100
AcDbSymbolTableRecord
100
AcDbBlockTableRecord
  2
*D16
340
0
 70
     0
280
     1
281
     0
  0
BLOCK_RECORD
  5
6DE
330
1
100
AcDbSymbolTableRecord
100
AcDbBlockTableRecord
  2
*D17
340
0
 70
     0
280
     1
281
     0
  0
BLOCK_RECORD
  5
71F
330
1
100
AcDbSymbolTableRecord
100
AcDbBlockTableRecord
  2
*D19
340
0
 70
     0
280
     1
281
     0
  0
BLOCK_RECORD
  5
72F
330
1
100
AcDbSymbolTableRecord
100
AcDbBlockTableRecord
  2
*D20
340
0
 70
     0
280
     1
281
     0
  0
BLOCK_RECORD
  5
7AD
330
1
100
AcDbSymbolTableRecord
100
AcDbBlockTableRecord
  2
*D23
340
0
 70
     0
280
     1
281
     0
  0
ENDTAB
  0
ENDSEC
  0
SECTION
  2
BLOCKS
  0
BLOCK
  5
20
330
1F
100
AcDbEntity
  8
0
100
AcDbBlockBegin
  2
*Model_Space
 70
     0
 10
0.0
 20
0.0
 30
0.0
  3
*Model_Space
  1
*Model_Space
  0
ENDBLK
  5
21
330
1F
100
AcDbEntity
  8
0
100
AcDbBlockEnd
  0
BLOCK
  5
5A
330
58
100
AcDbEntity
 67
     1
  8
0
100
AcDbBlockBegin
  2
*Paper_Space
 70
     0
 10
0.0
 20
0.0
 30
0.0
  3
*Paper_Space
  1
*Paper_Space
  0
ENDBLK
  5
5B
330
58
100
AcDbEntity
 67
     1
  8
0
100
AcDbBlockEnd
  0
BLOCK
  5
5F
330
5D
100
AcDbEntity
  8
0
100
AcDbBlockBegin
  2
*Paper_Space0
 70
     0
 10
0.0
 20
0.0
 30
0.0
  3
*Paper_Space0
  1
*Paper_Space0
  0
ENDBLK
  5
60
330
5D
100
AcDbEntity
  8
0
100
AcDbBlockEnd
  0
BLOCK
  5
3A8
330
3A7
100
AcDbEntity
  8
0
100
AcDbBlockBegin
  2
*D1
 70
     1
 10
0.0
 20
0.0
 30
0.0
  3
*D1
  1
*D6
  0
LINE
  5
3AA
330
3A7
100
AcDbEntity
  8
DRV8711EVM
 62
     0
370
    -2
100
AcDbLine
 10
88.16537996470771
 20
230.1165310157394
 30
0.0
 11
88.16537996470771
 21
246.8428543903367
 31
0.0
  0
LINE
  5
3AB
330
3A7
100
AcDbEntity
  8
DRV8711EVM
 62
     0
370
    -2
100
AcDbLine
 10
240.1653799647077
 20
186.3665310157394
 30
0.0
 11
240.1653799647077
 21
246.8428543903367
 31
0.0
  0
LINE
  5
3AC
330
3A7
100
AcDbEntity
  8
DRV8711EVM
 62
     0
370
    -2
100
AcDbLine
 10
88.34537996470772
 20
246.6628543903367
 30
0.0
 11
163.4753799647077
 21
246.6628543903367
 31
0.0
  0
LINE
  5
3AD
330
3A7
100
AcDbEntity
  8
DRV8711EVM
 62
     0
370
    -2
100
AcDbLine
 10
239.9853799647077
 20
246.6628543903367
 30
0.0
 11
164.8553799647077
 21
246.6628543903367
 31
0.0
  0
SOLID
  5
3AE
330
3A7
100
AcDbEntity
  8
DRV8711EVM
 62
     0
100
AcDbTrace
 10
88.34537996470772
 20
246.6928543903367
 30
0.0
 11
88.34537996470772
 21
246.6328543903367
 31
0.0
 12
88.16537996470771
 22
246.6628543903367
 32
0.0
 13
88.16537996470771
 23
246.6628543903367
 33
0.0
  0
SOLID
  5
3AF
330
3A7
100
AcDbEntity
  8
DRV8711EVM
 62
     0
100
AcDbTrace
 10
239.9853799647077
 20
246.6328543903367
 30
0.0
 11
239.9853799647077
 21
246.6928543903367
 31
0.0
 12
240.1653799647077
 22
246.6628543903367
 32
0.0
 13
240.1653799647077
 23
246.6628543903367
 33
0.0
  0
MTEXT
  5
3B0
330
3A7
100
AcDbEntity
  8
DRV8711EVM
 62
     0
100
AcDbMText
 10
164.1653799647077
 20
246.6628543903367
 30
0.0
 40
0.18
 41
0.0
 46
0.0
 71
     5
 72
     1
  1
\A1;152.0000
 73
     1
 44
1.0
  0
POINT
  5
3B1
330
3A7
100
AcDbEntity
  8
Defpoints
 62
     0
100
AcDbPoint
 10
88.16537996470771
 20
230.0540310157394
 30
0.0
  0
POINT
  5
3B2
330
3A7
100
AcDbEntity
  8
Defpoints
 62
     0
100
AcDbPoint
 10
240.1653799647077
 20
186.3040310157394
 30
0.0
  0
POINT
  5
3B3
330
3A7
100
AcDbEntity
  8
Defpoints
 62
     0
100
AcDbPoint
 10
240.1653799647077
 20
246.6628543903367
 30
0.0
  0
ENDBLK
  5
3A9
330
3A7
100
AcDbEntity
  8
0
100
AcDbBlockEnd
  0
BLOCK
  5
3B8
330
3B7
100
AcDbEntity
  8
0
100
AcDbBlockBegin
  2
*D2
 70
     1
 10
0.0
 20
0.0
 30
0.0
  3
*D2
  1
*D7
  0
LINE
  5
3BA
330
3B7
100
AcDbEntity
  8
DRV8711EVM
 62
     0
370
    -2
100
AcDbLine
 10
235.7278799647077
 20
184.5540310157394
 30
0.0
 11
267.3959335603991
 21
184.5540310157394
 31
0.0
  0
LINE
  5
3BB
330
3B7
100
AcDbEntity
  8
DRV8711EVM
 62
     0
370
    -2
100
AcDbLine
 10
89.97787996470771
 20
225.5540310157394
 30
0.0
 11
267.3959335603991
 21
225.5540310157394
 31
0.0
  0
LINE
  5
3BC
330
3B7
100
AcDbEntity
  8
DRV8711EVM
 62
     0
370
    -2
100
AcDbLine
 10
267.2159335603991
 20
184.7340310157394
 30
0.0
 11
267.2159335603991
 21
204.8740310157394
 31
0.0
  0
LINE
  5
3BD
330
3B7
100
AcDbEntity
  8
DRV8711EVM
 62
     0
370
    -2
100
AcDbLine
 10
267.2159335603991
 20
225.3740310157394
 30
0.0
 11
267.2159335603991
 21
205.2340310157394
 31
0.0
  0
SOLID
  5
3BE
330
3B7
100
AcDbEntity
  8
DRV8711EVM
 62
     0
100
AcDbTrace
 10
267.1859335603991
 20
184.7340310157394
 30
0.0
 11
267.2459335603991
 21
184.7340310157394
 31
0.0
 12
267.2159335603991
 22
184.5540310157394
 32
0.0
 13
267.2159335603991
 23
184.5540310157394
 33
0.0
  0
SOLID
  5
3BF
330
3B7
100
AcDbEntity
  8
DRV8711EVM
 62
     0
100
AcDbTrace
 10
267.2459335603991
 20
225.3740310157394
 30
0.0
 11
267.1859335603991
 21
225.3740310157394
 31
0.0
 12
267.2159335603991
 22
225.5540310157394
 32
0.0
 13
267.2159335603991
 23
225.5540310157394
 33
0.0
  0
MTEXT
  5
3C0
330
3B7
100
AcDbEntity
  8
DRV8711EVM
 62
     0
100
AcDbMText
 10
267.2159335603991
 20
205.0540310157394
 30
0.0
 40
0.18
 41
0.0
 46
0.0
 71
     5
 72
     1
  1
\A1;41.0000
 73
     1
 44
1.0
  0
POINT
  5
3C1
330
3B7
100
AcDbEntity
  8
Defpoints
 62
     0
100
AcDbPoint
 10
235.6653799647077
 20
184.5540310157394
 30
0.0
  0
POINT
  5
3C2
330
3B7
100
AcDbEntity
  8
Defpoints
 62
     0
100
AcDbPoint
 10
89.91537996470771
 20
225.5540310157394
 30
0.0
  0
POINT
  5
3C3
330
3B7
100
AcDbEntity
  8
Defpoints
 62
     0
100
AcDbPoint
 10
267.2159335603991
 20
225.5540310157394
 30
0.0
  0
ENDBLK
  5
3B9
330
3B7
100
AcDbEntity
  8
0
100
AcDbBlockEnd
  0
BLOCK
  5
3DC
330
3DB
100
AcDbEntity
  8
0
100
AcDbBlockBegin
  2
*D3
 70
     1
 10
0.0
 20
0.0
 30
0.0
  3
*D3
  1
*D8
  0
LINE
  5
3DE
330
3DB
100
AcDbEntity
  8
24vSupply
 62
     0
370
    -2
100
AcDbLine
 10
84.91312400612932
 20
384.7908960273966
 30
0.0
 11
84.91312400612932
 21
390.9208329520203
 31
0.0
  0
LINE
  5
3DF
330
3DB
100
AcDbEntity
  8
24vSupply
 62
     0
370
    -2
100
AcDbLine
 10
100.9472192103074
 20
384.7908960273966
 30
0.0
 11
100.9472192103074
 21
390.9208329520203
 31
0.0
  0
LINE
  5
3E0
330
3DB
100
AcDbEntity
  8
24vSupply
 62
     0
370
    -2
100
AcDbLine
 10
85.09312400612933
 20
390.7408329520203
 30
0.0
 11
92.36432339393264
 21
390.7408329520203
 31
0.0
  0
LINE
  5
3E1
330
3DB
100
AcDbEntity
  8
24vSupply
 62
     0
370
    -2
100
AcDbLine
 10
100.7672192103074
 20
390.7408329520203
 30
0.0
 11
93.49601982250408
 21
390.7408329520203
 31
0.0
  0
SOLID
  5
3E2
330
3DB
100
AcDbEntity
  8
24vSupply
 62
     0
100
AcDbTrace
 10
85.09312400612933
 20
390.7708329520203
 30
0.0
 11
85.09312400612933
 21
390.7108329520203
 31
0.0
 12
84.91312400612932
 22
390.7408329520203
 32
0.0
 13
84.91312400612932
 23
390.7408329520203
 33
0.0
  0
SOLID
  5
3E3
330
3DB
100
AcDbEntity
  8
24vSupply
 62
     0
100
AcDbTrace
 10
100.7672192103074
 20
390.7108329520203
 30
0.0
 11
100.7672192103074
 21
390.7708329520203
 31
0.0
 12
100.9472192103074
 22
390.7408329520203
 32
0.0
 13
100.9472192103074
 23
390.7408329520203
 33
0.0
  0
MTEXT
  5
3E4
330
3DB
100
AcDbEntity
  8
24vSupply
 62
     0
100
AcDbMText
 10
92.93017160821836
 20
390.7408329520203
 30
0.0
 40
0.18
 41
0.0
 46
0.0
 71
     5
 72
     1
  1
\A1;16.0341
 73
     1
 44
1.0
  0
POINT
  5
3E5
330
3DB
100
AcDbEntity
  8
Defpoints
 62
     0
100
AcDbPoint
 10
84.91312400612932
 20
384.7283960273966
 30
0.0
  0
POINT
  5
3E6
330
3DB
100
AcDbEntity
  8
Defpoints
 62
     0
100
AcDbPoint
 10
100.9472192103074
 20
384.7283960273966
 30
0.0
  0
POINT
  5
3E7
330
3DB
100
AcDbEntity
  8
Defpoints
 62
     0
100
AcDbPoint
 10
100.9472192103074
 20
390.7408329520203
 30
0.0
  0
ENDBLK
  5
3DD
330
3DB
100
AcDbEntity
  8
0
100
AcDbBlockEnd
  0
BLOCK
  5
40C
330
40B
100
AcDbEntity
  8
0
100
AcDbBlockBegin
  2
*D4
 70
     1
 10
0.0
 20
0.0
 30
0.0
  3
*D4
  1
*D9
  0
LINE
  5
40E
330
40B
100
AcDbEntity
  8
24vSupply
 62
     0
370
    -2
100
AcDbLine
 10
194.9883217860886
 20
389.4207383027214
 30
0.0
 11
189.2945781293462
 21
389.4207383027214
 31
0.0
  0
LINE
  5
40F
330
40B
100
AcDbEntity
  8
24vSupply
 62
     0
370
    -2
100
AcDbLine
 10
194.9883217860886
 20
364.0207383027214
 30
0.0
 11
189.2945781293462
 21
364.0207383027214
 31
0.0
  0
LINE
  5
410
330
40B
100
AcDbEntity
  8
24vSupply
 62
     0
370
    -2
100
AcDbLine
 10
189.4745781293462
 20
389.2407383027214
 30
0.0
 11
189.4745781293462
 21
376.9007383027214
 31
0.0
  0
LINE
  5
411
330
40B
100
AcDbEntity
  8
24vSupply
 62
     0
370
    -2
100
AcDbLine
 10
189.4745781293462
 20
364.2007383027214
 30
0.0
 11
189.4745781293462
 21
376.5407383027215
 31
0.0
  0
SOLID
  5
412
330
40B
100
AcDbEntity
  8
24vSupply
 62
     0
100
AcDbTrace
 10
189.5045781293462
 20
389.2407383027214
 30
0.0
 11
189.4445781293462
 21
389.2407383027214
 31
0.0
 12
189.4745781293462
 22
389.4207383027214
 32
0.0
 13
189.4745781293462
 23
389.4207383027214
 33
0.0
  0
SOLID
  5
413
330
40B
100
AcDbEntity
  8
24vSupply
 62
     0
100
AcDbTrace
 10
189.4445781293462
 20
364.2007383027214
 30
0.0
 11
189.5045781293462
 21
364.2007383027214
 31
0.0
 12
189.4745781293462
 22
364.0207383027214
 32
0.0
 13
189.4745781293462
 23
364.0207383027214
 33
0.0
  0
MTEXT
  5
414
330
40B
100
AcDbEntity
  8
24vSupply
 62
     0
100
AcDbMText
 10
189.4745781293462
 20
376.7207383027214
 30
0.0
 40
0.18
 41
0.0
 46
0.0
 71
     5
 72
     1
  1
\A1;25.4000
 73
     1
 44
1.0
  0
POINT
  5
415
330
40B
100
AcDbEntity
  8
Defpoints
 62
     0
100
AcDbPoint
 10
195.0508217860886
 20
389.4207383027214
 30
0.0
  0
POINT
  5
416
330
40B
100
AcDbEntity
  8
Defpoints
 62
     0
100
AcDbPoint
 10
195.0508217860886
 20
364.0207383027214
 30
0.0
  0
POINT
  5
417
330
40B
100
AcDbEntity
  8
Defpoints
 62
     0
100
AcDbPoint
 10
189.4745781293462
 20
364.0207383027214
 30
0.0
  0
ENDBLK
  5
40D
330
40B
100
AcDbEntity
  8
0
100
AcDbBlockEnd
  0
BLOCK
  5
452
330
451
100
AcDbEntity
  8
0
100
AcDbBlockBegin
  2
*D5
 70
     1
 10
0.0
 20
0.0
 30
0.0
  3
*D5
  1
*D10
  0
LINE
  5
454
330
451
100
AcDbEntity
  8
AC_SSR
 62
     0
370
    -2
100
AcDbLine
 10
-43.97740374948968
 20
332.6240889590625
 30
0.0
 11
-43.97740374948968
 21
344.5337669812212
 31
0.0
  0
LINE
  5
455
330
451
100
AcDbEntity
  8
AC_SSR
 62
     0
370
    -2
100
AcDbLine
 10
-16.07740374948968
 20
332.6240889590625
 30
0.0
 11
-16.07740374948968
 21
344.5337669812212
 31
0.0
  0
LINE
  5
456
330
451
100
AcDbEntity
  8
AC_SSR
 62
     0
370
    -2
100
AcDbLine
 10
-43.79740374948968
 20
344.3537669812212
 30
0.0
 11
-30.64883232091825
 21
344.3537669812212
 31
0.0
  0
LINE
  5
457
330
451
100
AcDbEntity
  8
AC_SSR
 62
     0
370
    -2
100
AcDbLine
 10
-16.25740374948968
 20
344.3537669812212
 30
0.0
 11
-29.40597517806111
 21
344.3537669812212
 31
0.0
  0
SOLID
  5
458
330
451
100
AcDbEntity
  8
AC_SSR
 62
     0
100
AcDbTrace
 10
-43.79740374948968
 20
344.3837669812212
 30
0.0
 11
-43.79740374948968
 21
344.3237669812212
 31
0.0
 12
-43.97740374948968
 22
344.3537669812212
 32
0.0
 13
-43.97740374948968
 23
344.3537669812212
 33
0.0
  0
SOLID
  5
459
330
451
100
AcDbEntity
  8
AC_SSR
 62
     0
100
AcDbTrace
 10
-16.25740374948968
 20
344.3237669812212
 30
0.0
 11
-16.25740374948968
 21
344.3837669812212
 31
0.0
 12
-16.07740374948968
 22
344.3537669812212
 32
0.0
 13
-16.07740374948968
 23
344.3537669812212
 33
0.0
  0
MTEXT
  5
45A
330
451
100
AcDbEntity
  8
AC_SSR
 62
     0
100
AcDbMText
 10
-30.02740374948968
 20
344.3537669812212
 30
0.0
 40
0.18
 41
0.0
 46
0.0
 71
     5
 72
     1
  1
\A1;27.9000
 73
     1
 44
1.0
  0
POINT
  5
45B
330
451
100
AcDbEntity
  8
Defpoints
 62
     0
100
AcDbPoint
 10
-43.97740374948968
 20
332.5615889590625
 30
0.0
  0
POINT
  5
45C
330
451
100
AcDbEntity
  8
Defpoints
 62
     0
100
AcDbPoint
 10
-16.07740374948968
 20
332.5615889590625
 30
0.0
  0
POINT
  5
45D
330
451
100
AcDbEntity
  8
Defpoints
 62
     0
100
AcDbPoint
 10
-16.07740374948968
 20
344.3537669812212
 30
0.0
  0
ENDBLK
  5
453
330
451
100
AcDbEntity
  8
0
100
AcDbBlockEnd
  0
BLOCK
  5
462
330
461
100
AcDbEntity
  8
0
100
AcDbBlockBegin
  2
*D6
 70
     1
 10
0.0
 20
0.0
 30
0.0
  3
*D6
  1
*D11
  0
LINE
  5
464
330
461
100
AcDbEntity
  8
AC_SSR
 62
     0
370
    -2
100
AcDbLine
 10
-17.32740374948968
 20
289.6740889590624
 30
0.0
 11
-17.32740374948968
 21
295.3027764098072
 31
0.0
  0
LINE
  5
465
330
461
100
AcDbEntity
  8
AC_SSR
 62
     0
370
    -2
100
AcDbLine
 10
-42.72740374948968
 20
289.6740889590624
 30
0.0
 11
-42.72740374948968
 21
295.3027764098072
 31
0.0
  0
LINE
  5
466
330
461
100
AcDbEntity
  8
AC_SSR
 62
     0
370
    -2
100
AcDbLine
 10
-17.50740374948968
 20
295.1227764098072
 30
0.0
 11
-29.40597517806111
 21
295.1227764098072
 31
0.0
  0
LINE
  5
467
330
461
100
AcDbEntity
  8
AC_SSR
 62
     0
370
    -2
100
AcDbLine
 10
-42.54740374948968
 20
295.1227764098072
 30
0.0
 11
-30.64883232091825
 21
295.1227764098072
 31
0.0
  0
SOLID
  5
468
330
461
100
AcDbEntity
  8
AC_SSR
 62
     0
100
AcDbTrace
 10
-17.50740374948968
 20
295.0927764098072
 30
0.0
 11
-17.50740374948968
 21
295.1527764098072
 31
0.0
 12
-17.32740374948968
 22
295.1227764098072
 32
0.0
 13
-17.32740374948968
 23
295.1227764098072
 33
0.0
  0
SOLID
  5
469
330
461
100
AcDbEntity
  8
AC_SSR
 62
     0
100
AcDbTrace
 10
-42.54740374948968
 20
295.1527764098072
 30
0.0
 11
-42.54740374948968
 21
295.0927764098072
 31
0.0
 12
-42.72740374948968
 22
295.1227764098072
 32
0.0
 13
-42.72740374948968
 23
295.1227764098072
 33
0.0
  0
MTEXT
  5
46A
330
461
100
AcDbEntity
  8
AC_SSR
 62
     0
100
AcDbMText
 10
-30.02740374948968
 20
295.1227764098072
 30
0.0
 40
0.18
 41
0.0
 46
0.0
 71
     5
 72
     1
  1
\A1;25.4000
 73
     1
 44
1.0
  0
POINT
  5
46B
330
461
100
AcDbEntity
  8
Defpoints
 62
     0
100
AcDbPoint
 10
-17.32740374948968
 20
289.6115889590624
 30
0.0
  0
POINT
  5
46C
330
461
100
AcDbEntity
  8
Defpoints
 62
     0
100
AcDbPoint
 10
-42.72740374948968
 20
289.6115889590624
 30
0.0
  0
POINT
  5
46D
330
461
100
AcDbEntity
  8
Defpoints
 62
     0
100
AcDbPoint
 10
-42.72740374948968
 20
295.1227764098072
 30
0.0
  0
ENDBLK
  5
463
330
461
100
AcDbEntity
  8
0
100
AcDbBlockEnd
  0
BLOCK
  5
596
330
595
100
AcDbEntity
  8
0
100
AcDbBlockBegin
  2
*D7
 70
     1
 10
0.0
 20
0.0
 30
0.0
  3
*D7
  1
*D7
  0
LINE
  5
598
330
595
100
AcDbEntity
  8
cuts
 62
     0
370
    -2
100
AcDbLine
 10
59.09506381876054
 20
181.7988928374904
 30
0.0
 11
59.09506381876054
 21
174.7922234676742
 31
0.0
  0
LINE
  5
599
330
595
100
AcDbEntity
  8
cuts
 62
     0
370
    -2
100
AcDbLine
 10
71.92243296096142
 20
180.0127075065876
 30
0.0
 11
71.92243296096142
 21
174.7922234676742
 31
0.0
  0
LINE
  5
59A
330
595
100
AcDbEntity
  8
cuts
 62
     0
370
    -2
100
AcDbLine
 10
59.27506381876054
 20
174.9722234676742
 30
0.0
 11
64.89977517557527
 21
174.9722234676742
 31
0.0
  0
LINE
  5
59B
330
595
100
AcDbEntity
  8
cuts
 62
     0
370
    -2
100
AcDbLine
 10
71.74243296096141
 20
174.9722234676742
 30
0.0
 11
66.1177216041467
 21
174.9722234676742
 31
0.0
  0
SOLID
  5
59C
330
595
100
AcDbEntity
  8
cuts
 62
     0
100
AcDbTrace
 10
59.27506381876054
 20
175.0022234676742
 30
0.0
 11
59.27506381876054
 21
174.9422234676742
 31
0.0
 12
59.09506381876054
 22
174.9722234676742
 32
0.0
 13
59.09506381876054
 23
174.9722234676742
 33
0.0
  0
SOLID
  5
59D
330
595
100
AcDbEntity
  8
cuts
 62
     0
100
AcDbTrace
 10
71.74243296096141
 20
174.9422234676742
 30
0.0
 11
71.74243296096141
 21
175.0022234676742
 31
0.0
 12
71.92243296096142
 22
174.9722234676742
 32
0.0
 13
71.92243296096142
 23
174.9722234676742
 33
0.0
  0
MTEXT
  5
59E
330
595
100
AcDbEntity
  8
cuts
 62
     0
100
AcDbMText
 10
65.50874838986098
 20
174.9722234676742
 30
0.0
 40
0.18
 41
0.0
 46
0.0
 71
     5
 72
     1
  1
\A1;12.8274
 73
     1
 44
1.0
  0
POINT
  5
59F
330
595
100
AcDbEntity
  8
Defpoints
 62
     0
100
AcDbPoint
 10
59.09506381876054
 20
181.8613928374904
 30
0.0
  0
POINT
  5
5A0
330
595
100
AcDbEntity
  8
Defpoints
 62
     0
100
AcDbPoint
 10
71.92243296096142
 20
180.0752075065876
 30
0.0
  0
POINT
  5
5A1
330
595
100
AcDbEntity
  8
Defpoints
 62
     0
100
AcDbPoint
 10
71.92243296096142
 20
174.9722234676742
 30
0.0
  0
ENDBLK
  5
597
330
595
100
AcDbEntity
  8
0
100
AcDbBlockEnd
  0
BLOCK
  5
665
330
664
100
AcDbEntity
  8
0
100
AcDbBlockBegin
  2
*D12
 70
     1
 10
0.0
 20
0.0
 30
0.0
  3
*D12
  1
*D12
  0
LINE
  5
667
330
664
100
AcDbEntity
  8
cuts
 62
     0
370
    -2
100
AcDbLine
 10
31.4375
 20
133.4736106319974
 30
0.0
 11
31.32
 21
133.4736106319974
 31
0.0
  0
LINE
  5
668
330
664
100
AcDbEntity
  8
cuts
 62
     0
370
    -2
100
AcDbLine
 10
31.4375
 20
138.4736106319974
 30
0.0
 11
31.32
 21
138.4736106319974
 31
0.0
  0
LINE
  5
669
330
664
100
AcDbEntity
  8
cuts
 62
     0
370
    -2
100
AcDbLine
 10
31.5
 20
133.6536106319974
 30
0.0
 11
31.5
 21
135.7936106319974
 31
0.0
  0
LINE
  5
66A
330
664
100
AcDbEntity
  8
cuts
 62
     0
370
    -2
100
AcDbLine
 10
31.5
 20
138.2936106319974
 30
0.0
 11
31.5
 21
136.1536106319974
 31
0.0
  0
SOLID
  5
66B
330
664
100
AcDbEntity
  8
cuts
 62
     0
100
AcDbTrace
 10
31.47
 20
133.6536106319974
 30
0.0
 11
31.53
 21
133.6536106319974
 31
0.0
 12
31.5
 22
133.4736106319974
 32
0.0
 13
31.5
 23
133.4736106319974
 33
0.0
  0
SOLID
  5
66C
330
664
100
AcDbEntity
  8
cuts
 62
     0
100
AcDbTrace
 10
31.53
 20
138.2936106319974
 30
0.0
 11
31.47
 21
138.2936106319974
 31
0.0
 12
31.5
 22
138.4736106319974
 32
0.0
 13
31.5
 23
138.4736106319974
 33
0.0
  0
MTEXT
  5
66D
330
664
100
AcDbEntity
  8
cuts
 62
     0
100
AcDbMText
 10
31.5
 20
135.9736106319974
 30
0.0
 40
0.18
 41
0.0
 46
0.0
 71
     5
 72
     1
  1
\A1;5.0000
 73
     1
 44
1.0
  0
POINT
  5
66E
330
664
100
AcDbEntity
  8
Defpoints
 62
     0
100
AcDbPoint
 10
31.5
 20
133.4736106319974
 30
0.0
  0
POINT
  5
66F
330
664
100
AcDbEntity
  8
Defpoints
 62
     0
100
AcDbPoint
 10
31.5
 20
138.4736106319974
 30
0.0
  0
POINT
  5
670
330
664
100
AcDbEntity
  8
Defpoints
 62
     0
100
AcDbPoint
 10
31.5
 20
138.4736106319974
 30
0.0
  0
ENDBLK
  5
666
330
664
100
AcDbEntity
  8
0
100
AcDbBlockEnd
  0
BLOCK
  5
6AB
330
6AA
100
AcDbEntity
  8
0
100
AcDbBlockBegin
  2
*D14
 70
     1
 10
0.0
 20
0.0
 30
0.0
  3
*D14
  1
*D14
  0
LINE
  5
6AD
330
6AA
100
AcDbEntity
  8
cuts
 62
     0
370
    -2
100
AcDbLine
 10
48.0625
 20
120.2468879696261
 30
0.0
 11
50.47439695186329
 21
120.2468879696261
 31
0.0
  0
LINE
  5
6AE
330
6AA
100
AcDbEntity
  8
cuts
 62
     0
370
    -2
100
AcDbLine
 10
48.06250000000001
 20
130.4736106319974
 30
0.0
 11
50.47439695186329
 21
130.4736106319974
 31
0.0
  0
LINE
  5
6AF
330
6AA
100
AcDbEntity
  8
cuts
 62
     0
370
    -2
100
AcDbLine
 10
50.29439695186329
 20
120.4268879696261
 30
0.0
 11
50.29439695186329
 21
125.1802493008117
 31
0.0
  0
LINE
  5
6B0
330
6AA
100
AcDbEntity
  8
cuts
 62
     0
370
    -2
100
AcDbLine
 10
50.29439695186329
 20
130.2936106319974
 30
0.0
 11
50.29439695186329
 21
125.5402493008117
 31
0.0
  0
SOLID
  5
6B1
330
6AA
100
AcDbEntity
  8
cuts
 62
     0
100
AcDbTrace
 10
50.26439695186329
 20
120.4268879696261
 30
0.0
 11
50.32439695186329
 21
120.4268879696261
 31
0.0
 12
50.29439695186329
 22
120.2468879696261
 32
0.0
 13
50.29439695186329
 23
120.2468879696261
 33
0.0
  0
SOLID
  5
6B2
330
6AA
100
AcDbEntity
  8
cuts
 62
     0
100
AcDbTrace
 10
50.32439695186329
 20
130.2936106319974
 30
0.0
 11
50.26439695186329
 21
130.2936106319974
 31
0.0
 12
50.29439695186329
 22
130.4736106319974
 32
0.0
 13
50.29439695186329
 23
130.4736106319974
 33
0.0
  0
MTEXT
  5
6B3
330
6AA
100
AcDbEntity
  8
cuts
 62
     0
100
AcDbMText
 10
50.29439695186329
 20
125.3602493008117
 30
0.0
 40
0.18
 41
0.0
 46
0.0
 71
     5
 72
     1
  1
\A1;10.2267
 73
     1
 44
1.0
  0
POINT
  5
6B4
330
6AA
100
AcDbEntity
  8
Defpoints
 62
     0
100
AcDbPoint
 10
48.0
 20
120.2468879696261
 30
0.0
  0
POINT
  5
6B5
330
6AA
100
AcDbEntity
  8
Defpoints
 62
     0
100
AcDbPoint
 10
48.00000000000001
 20
130.4736106319974
 30
0.0
  0
POINT
  5
6B6
330
6AA
100
AcDbEntity
  8
Defpoints
 62
     0
100
AcDbPoint
 10
50.29439695186329
 20
130.4736106319974
 30
0.0
  0
ENDBLK
  5
6AC
330
6AA
100
AcDbEntity
  8
0
100
AcDbBlockEnd
  0
BLOCK
  5
6BB
330
6BA
100
AcDbEntity
  8
0
100
AcDbBlockBegin
  2
*D15
 70
     1
 10
0.0
 20
0.0
 30
0.0
  3
*D15
  1
*D15
  0
LINE
  5
6BD
330
6BA
100
AcDbEntity
  8
cuts
 62
     0
370
    -2
100
AcDbLine
 10
48.0625
 20
108.246887969626
 30
0.0
 11
49.87812870124215
 21
108.246887969626
 31
0.0
  0
LINE
  5
6BE
330
6BA
100
AcDbEntity
  8
cuts
 62
     0
370
    -2
100
AcDbLine
 10
48.06249999999999
 20
90.92705595674002
 30
0.0
 11
49.87812870124215
 21
90.92705595674002
 31
0.0
  0
LINE
  5
6BF
330
6BA
100
AcDbEntity
  8
cuts
 62
     0
370
    -2
100
AcDbLine
 10
49.69812870124215
 20
108.066887969626
 30
0.0
 11
49.69812870124215
 21
99.76697196318304
 31
0.0
  0
LINE
  5
6C0
330
6BA
100
AcDbEntity
  8
cuts
 62
     0
370
    -2
100
AcDbLine
 10
49.69812870124215
 20
91.10705595674003
 30
0.0
 11
49.69812870124215
 21
99.40697196318303
 31
0.0
  0
SOLID
  5
6C1
330
6BA
100
AcDbEntity
  8
cuts
 62
     0
100
AcDbTrace
 10
49.72812870124216
 20
108.066887969626
 30
0.0
 11
49.66812870124215
 21
108.066887969626
 31
0.0
 12
49.69812870124215
 22
108.246887969626
 32
0.0
 13
49.69812870124215
 23
108.246887969626
 33
0.0
  0
SOLID
  5
6C2
330
6BA
100
AcDbEntity
  8
cuts
 62
     0
100
AcDbTrace
 10
49.66812870124215
 20
91.10705595674003
 30
0.0
 11
49.72812870124216
 21
91.10705595674003
 31
0.0
 12
49.69812870124215
 22
90.92705595674002
 32
0.0
 13
49.69812870124215
 23
90.92705595674002
 33
0.0
  0
MTEXT
  5
6C3
330
6BA
100
AcDbEntity
  8
cuts
 62
     0
100
AcDbMText
 10
49.69812870124215
 20
99.58697196318303
 30
0.0
 40
0.18
 41
0.0
 46
0.0
 71
     5
 72
     1
  1
\A1;17.3198
 73
     1
 44
1.0
  0
POINT
  5
6C4
330
6BA
100
AcDbEntity
  8
Defpoints
 62
     0
100
AcDbPoint
 10
48.0
 20
108.246887969626
 30
0.0
  0
POINT
  5
6C5
330
6BA
100
AcDbEntity
  8
Defpoints
 62
     0
100
AcDbPoint
 10
47.99999999999999
 20
90.92705595674002
 30
0.0
  0
POINT
  5
6C6
330
6BA
100
AcDbEntity
  8
Defpoints
 62
     0
100
AcDbPoint
 10
49.69812870124215
 20
90.92705595674002
 30
0.0
  0
ENDBLK
  5
6BC
330
6BA
100
AcDbEntity
  8
0
100
AcDbBlockEnd
  0
BLOCK
  5
6CF
330
6CE
100
AcDbEntity
  8
0
100
AcDbBlockBegin
  2
*D16
 70
     1
 10
0.0
 20
0.0
 30
0.0
  3
*D16
  1
*D16
  0
LINE
  5
6D1
330
6CE
100
AcDbEntity
  8
cuts
 62
     0
370
    -2
100
AcDbLine
 10
48.02066024899185
 20
90.98604243071155
 30
0.0
 11
48.43307784896428
 21
92.16352388486804
 31
0.0
  0
LINE
  5
6D2
330
6CE
100
AcDbEntity
  8
cuts
 62
     0
370
    -2
100
AcDbLine
 10
69.90327384431865
 20
83.32156928911657
 30
0.0
 11
70.31569144429108
 21
84.49905074327306
 31
0.0
  0
LINE
  5
6D3
330
6CE
100
AcDbEntity
  8
cuts
 62
     0
370
    -2
100
AcDbLine
 10
48.54345737690572
 20
91.93414132273347
 30
0.0
 11
58.80097038244576
 21
88.34140626903255
 31
0.0
  0
LINE
  5
6D4
330
6CE
100
AcDbEntity
  8
cuts
 62
     0
370
    -2
100
AcDbLine
 10
70.0863088821565
 20
84.38867121533161
 30
0.0
 11
59.82879587661646
 21
87.98140626903253
 31
0.0
  0
SOLID
  5
6D5
330
6CE
100
AcDbEntity
  8
cuts
 62
     0
100
AcDbTrace
 10
48.55337429642181
 20
91.9624548302398
 30
0.0
 11
48.53354045738963
 21
91.90582781522713
 31
0.0
 12
48.37357633186771
 22
91.99364283983003
 32
0.0
 13
48.37357633186771
 23
91.99364283983003
 33
0.0
  0
SOLID
  5
6D6
330
6CE
100
AcDbEntity
  8
cuts
 62
     0
100
AcDbTrace
 10
70.0763919626404
 20
84.36035770782527
 30
0.0
 11
70.0962258016726
 21
84.41698472283795
 31
0.0
 12
70.25618992719451
 22
84.32916969823505
 32
0.0
 13
70.25618992719451
 23
84.32916969823505
 33
0.0
  0
MTEXT
  5
6D7
330
6CE
100
AcDbEntity
  8
cuts
 62
     0
100
AcDbMText
 10
59.31488312953111
 20
88.16140626903254
 30
0.0
 40
0.18
 41
0.0
 46
0.0
 71
     5
 72
     1
  1
\A1;23.1861
 73
     1
 44
1.0
  0
POINT
  5
6D8
330
6CE
100
AcDbEntity
  8
Defpoints
 62
     0
100
AcDbPoint
 10
47.99999999999999
 20
90.92705595674002
 30
0.0
  0
POINT
  5
6D9
330
6CE
100
AcDbEntity
  8
Defpoints
 62
     0
100
AcDbPoint
 10
69.88261359532679
 20
83.26258281514504
 30
0.0
  0
POINT
  5
6DA
330
6CE
100
AcDbEntity
  8
Defpoints
 62
     0
100
AcDbPoint
 10
70.25618992719451
 20
84.32916969823505
 30
0.0
  0
ENDBLK
  5
6D0
330
6CE
100
AcDbEntity
  8
0
100
AcDbBlockEnd
  0
BLOCK
  5
6DF
330
6DE
100
AcDbEntity
  8
0
100
AcDbBlockBegin
  2
*D17
 70
     1
 10
0.0
 20
0.0
 30
0.0
  3
*D17
  1
*D17
  0
LINE
  5
6E1
330
6DE
100
AcDbEntity
  8
cuts
 62
     0
370
    -2
100
AcDbLine
 10
81.22867684685278
 20
79.3548014826787
 30
0.0
 11
81.86171527292483
 21
81.1621710190857
 31
0.0
  0
LINE
  5
6E2
330
6DE
100
AcDbEntity
  8
cuts
 62
     0
370
    -2
100
AcDbLine
 10
96.06975020022695
 20
74.15665604114564
 30
0.0
 11
96.702788626299
 21
75.96402557755265
 31
0.0
  0
LINE
  5
6E3
330
6DE
100
AcDbEntity
  8
cuts
 62
     0
370
    -2
100
AcDbLine
 10
81.97209480086627
 20
80.93278845695113
 30
0.0
 11
88.70883768543
 21
78.57321725328117
 31
0.0
  0
LINE
  5
6E4
330
6DE
100
AcDbEntity
  8
cuts
 62
     0
370
    -2
100
AcDbLine
 10
96.47340606416442
 20
75.8536460496112
 30
0.0
 11
89.7366631796007
 21
78.21321725328116
 31
0.0
  0
SOLID
  5
6E5
330
6DE
100
AcDbEntity
  8
cuts
 62
     0
100
AcDbTrace
 10
81.98201172038237
 20
80.96110196445747
 30
0.0
 11
81.96217788135017
 21
80.90447494944479
 31
0.0
 12
81.80221375582826
 22
80.9922899740477
 32
0.0
 13
81.80221375582826
 23
80.9922899740477
 33
0.0
  0
SOLID
  5
6E6
330
6DE
100
AcDbEntity
  8
cuts
 62
     0
100
AcDbTrace
 10
96.46348914464832
 20
75.82533254210486
 30
0.0
 11
96.48332298368052
 21
75.88195955711754
 31
0.0
 12
96.64328710920243
 22
75.79414453251464
 32
0.0
 13
96.64328710920243
 23
75.79414453251464
 33
0.0
  0
MTEXT
  5
6E7
330
6DE
100
AcDbEntity
  8
cuts
 62
     0
100
AcDbMText
 10
89.22275043251534
 20
78.39321725328116
 30
0.0
 40
0.18
 41
0.0
 46
0.0
 71
     5
 72
     1
  1
\A1;15.7251
 73
     1
 44
1.0
  0
POINT
  5
6E8
330
6DE
100
AcDbEntity
  8
Defpoints
 62
     0
100
AcDbPoint
 10
81.20801659786092
 20
79.29581500870717
 30
0.0
  0
POINT
  5
6E9
330
6DE
100
AcDbEntity
  8
Defpoints
 62
     0
100
AcDbPoint
 10
96.04908995123509
 20
74.09766956717411
 30
0.0
  0
POINT
  5
6EA
330
6DE
100
AcDbEntity
  8
Defpoints
 62
     0
100
AcDbPoint
 10
96.64328710920243
 20
75.79414453251464
 30
0.0
  0
ENDBLK
  5
6E0
330
6DE
100
AcDbEntity
  8
0
100
AcDbBlockEnd
  0
BLOCK
  5
720
330
71F
100
AcDbEntity
  8
0
100
AcDbBlockBegin
  2
*D19
 70
     1
 10
0.0
 20
0.0
 30
0.0
  3
*D19
  1
*D19
  0
LINE
  5
722
330
71F
100
AcDbEntity
  8
cuts
 62
     0
370
    -2
100
AcDbLine
 10
78.09670750207451
 20
18.0625
 30
0.0
 11
78.09670750207451
 21
19.50791136152202
 31
0.0
  0
LINE
  5
723
330
71F
100
AcDbEntity
  8
cuts
 62
     0
370
    -2
100
AcDbLine
 10
70.14432505291401
 20
18.0625
 30
0.0
 11
70.14432505291401
 21
19.50791136152202
 31
0.0
  0
LINE
  5
724
330
71F
100
AcDbEntity
  8
cuts
 62
     0
370
    -2
100
AcDbLine
 10
77.9167075020745
 20
19.32791136152202
 30
0.0
 11
74.66091806320856
 21
19.32791136152202
 31
0.0
  0
LINE
  5
725
330
71F
100
AcDbEntity
  8
cuts
 62
     0
370
    -2
100
AcDbLine
 10
70.32432505291402
 20
19.32791136152202
 30
0.0
 11
73.58011449177997
 21
19.32791136152202
 31
0.0
  0
SOLID
  5
726
330
71F
100
AcDbEntity
  8
cuts
 62
     0
100
AcDbTrace
 10
77.9167075020745
 20
19.29791136152202
 30
0.0
 11
77.9167075020745
 21
19.35791136152202
 31
0.0
 12
78.09670750207451
 22
19.32791136152202
 32
0.0
 13
78.09670750207451
 23
19.32791136152202
 33
0.0
  0
SOLID
  5
727
330
71F
100
AcDbEntity
  8
cuts
 62
     0
100
AcDbTrace
 10
70.32432505291402
 20
19.35791136152202
 30
0.0
 11
70.32432505291402
 21
19.29791136152202
 31
0.0
 12
70.14432505291401
 22
19.32791136152202
 32
0.0
 13
70.14432505291401
 23
19.32791136152202
 33
0.0
  0
MTEXT
  5
728
330
71F
100
AcDbEntity
  8
cuts
 62
     0
100
AcDbMText
 10
74.12051627749426
 20
19.32791136152202
 30
0.0
 40
0.18
 41
0.0
 46
0.0
 71
     5
 72
     1
  1
\A1;7.9524
 73
     1
 44
1.0
  0
POINT
  5
729
330
71F
100
AcDbEntity
  8
Defpoints
 62
     0
100
AcDbPoint
 10
78.09670750207451
 20
18.0
 30
0.0
  0
POINT
  5
72A
330
71F
100
AcDbEntity
  8
Defpoints
 62
     0
100
AcDbPoint
 10
70.14432505291401
 20
18.0
 30
0.0
  0
POINT
  5
72B
330
71F
100
AcDbEntity
  8
Defpoints
 62
     0
100
AcDbPoint
 10
70.14432505291401
 20
19.32791136152202
 30
0.0
  0
ENDBLK
  5
721
330
71F
100
AcDbEntity
  8
0
100
AcDbBlockEnd
  0
BLOCK
  5
730
330
72F
100
AcDbEntity
  8
0
100
AcDbBlockBegin
  2
*D20
 70
     1
 10
0.0
 20
0.0
 30
0.0
  3
*D20
  1
*D20
  0
LINE
  5
732
330
72F
100
AcDbEntity
  8
cuts
 62
     0
370
    -2
100
AcDbLine
 10
90.09670750207454
 20
18.0625
 30
0.0
 11
90.09670750207454
 21
19.18417195416979
 31
0.0
  0
LINE
  5
733
330
72F
100
AcDbEntity
  8
cuts
 62
     0
370
    -2
100
AcDbLine
 10
96.04908995123503
 20
18.06249999999999
 30
0.0
 11
96.04908995123503
 21
19.18417195416979
 31
0.0
  0
LINE
  5
734
330
72F
100
AcDbEntity
  8
cuts
 62
     0
370
    -2
100
AcDbLine
 10
90.27670750207454
 20
19.00417195416979
 30
0.0
 11
92.53249694094049
 21
19.00417195416979
 31
0.0
  0
LINE
  5
735
330
72F
100
AcDbEntity
  8
cuts
 62
     0
370
    -2
100
AcDbLine
 10
95.86908995123503
 20
19.00417195416979
 30
0.0
 11
93.61330051236908
 21
19.00417195416979
 31
0.0
  0
SOLID
  5
736
330
72F
100
AcDbEntity
  8
cuts
 62
     0
100
AcDbTrace
 10
90.27670750207454
 20
19.03417195416979
 30
0.0
 11
90.27670750207454
 21
18.97417195416979
 31
0.0
 12
90.09670750207454
 22
19.00417195416979
 32
0.0
 13
90.09670750207454
 23
19.00417195416979
 33
0.0
  0
SOLID
  5
737
330
72F
100
AcDbEntity
  8
cuts
 62
     0
100
AcDbTrace
 10
95.86908995123503
 20
18.97417195416979
 30
0.0
 11
95.86908995123503
 21
19.03417195416979
 31
0.0
 12
96.04908995123503
 22
19.00417195416979
 32
0.0
 13
96.04908995123503
 23
19.00417195416979
 33
0.0
  0
MTEXT
  5
738
330
72F
100
AcDbEntity
  8
cuts
 62
     0
100
AcDbMText
 10
93.07289872665478
 20
19.00417195416979
 30
0.0
 40
0.18
 41
0.0
 46
0.0
 71
     5
 72
     1
  1
\A1;5.9524
 73
     1
 44
1.0
  0
POINT
  5
739
330
72F
100
AcDbEntity
  8
Defpoints
 62
     0
100
AcDbPoint
 10
90.09670750207454
 20
18.0
 30
0.0
  0
POINT
  5
73A
330
72F
100
AcDbEntity
  8
Defpoints
 62
     0
100
AcDbPoint
 10
96.04908995123503
 20
17.99999999999999
 30
0.0
  0
POINT
  5
73B
330
72F
100
AcDbEntity
  8
Defpoints
 62
     0
100
AcDbPoint
 10
96.04908995123503
 20
19.00417195416979
 30
0.0
  0
ENDBLK
  5
731
330
72F
100
AcDbEntity
  8
0
100
AcDbBlockEnd
  0
BLOCK
  5
7AE
330
7AD
100
AcDbEntity
  8
0
100
AcDbBlockBegin
  2
*D23
 70
     1
 10
0.0
 20
0.0
 30
0.0
  3
*D23
  1
*D23
  0
LINE
  5
7B0
330
7AD
100
AcDbEntity
  8
cuts
 62
     0
370
    -2
100
AcDbLine
 10
708.5542631067708
 20
289.1072709120335
 30
0.0
 11
708.5542631067708
 21
292.1426776979333
 31
0.0
  0
LINE
  5
7B1
330
7AD
100
AcDbEntity
  8
cuts
 62
     0
370
    -2
100
AcDbLine
 10
788.7757813610651
 20
209.7749567279996
 30
0.0
 11
788.7757813610651
 21
292.1426776979333
 31
0.0
  0
LINE
  5
7B2
330
7AD
100
AcDbEntity
  8
cuts
 62
     0
370
    -2
100
AcDbLine
 10
708.7342631067708
 20
291.9626776979333
 30
0.0
 11
748.0607365196322
 21
291.9626776979333
 31
0.0
  0
LINE
  5
7B3
330
7AD
100
AcDbEntity
  8
cuts
 62
     0
370
    -2
100
AcDbLine
 10
788.5957813610652
 20
291.9626776979333
 30
0.0
 11
749.2693079482037
 21
291.9626776979333
 31
0.0
  0
SOLID
  5
7B4
330
7AD
100
AcDbEntity
  8
cuts
 62
     0
100
AcDbTrace
 10
708.7342631067708
 20
291.9926776979332
 30
0.0
 11
708.7342631067708
 21
291.9326776979333
 31
0.0
 12
708.5542631067708
 22
291.9626776979333
 32
0.0
 13
708.5542631067708
 23
291.9626776979333
 33
0.0
  0
SOLID
  5
7B5
330
7AD
100
AcDbEntity
  8
cuts
 62
     0
100
AcDbTrace
 10
788.5957813610652
 20
291.9326776979333
 30
0.0
 11
788.5957813610652
 21
291.9926776979332
 31
0.0
 12
788.7757813610651
 22
291.9626776979333
 32
0.0
 13
788.7757813610651
 23
291.9626776979333
 33
0.0
  0
MTEXT
  5
7B6
330
7AD
100
AcDbEntity
  8
cuts
 62
     0
100
AcDbMText
 10
748.665022233918
 20
291.9626776979333
 30
0.0
 40
0.18
 41
0.0
 46
0.0
 71
     5
 72
     1
  1
\A1;80.2215
 73
     1
 44
1.0
  0
POINT
  5
7B7
330
7AD
100
AcDbEntity
  8
Defpoints
 62
     0
100
AcDbPoint
 10
708.5542631067708
 20
289.0447709120335
 30
0.0
  0
POINT
  5
7B8
330
7AD
100
AcDbEntity
  8
Defpoints
 62
     0
100
AcDbPoint
 10
788.7757813610651
 20
209.7124567279996
 30
0.0
  0
POINT
  5
7B9
330
7AD
100
AcDbEntity
  8
Defpoints
 62
     0
100
AcDbPoint
 10
788.7757813610651
 20
291.9626776979333
 30
0.0
  0
ENDBLK
  5
7AF
330
7AD
100
AcDbEntity
  8
0
100
AcDbBlockEnd
  0
ENDSEC
  0
SECTION
  2
ENTITIES
  0
LWPOLYLINE
  5
130
330
1F
100
AcDbEntity
  8
DRV8711EVM
100
AcDbPolyline
 90
        4
 70
     1
 43
0.0
 10
172.6862334055568
 20
141.0821821323622
 10
299.6862334055568
 20
141.0821821323621
 10
299.6862334055568
 20
217.282182132362
 10
172.6862334055569
 20
217.2821821323621
  0
CIRCLE
  5
132
330
1F
100
AcDbEntity
  8
DRV8711EVM
100
AcDbCircle
 10
177.7662334055568
 20
146.1621821323621
 30
0.0
 40
1.5
  0
CIRCLE
  5
133
330
1F
100
AcDbEntity
  8
DRV8711EVM
100
AcDbCircle
 10
294.6062334055567
 20
146.162182132362
 30
0.0
 40
1.5
  0
CIRCLE
  5
134
330
1F
100
AcDbEntity
  8
DRV8711EVM
100
AcDbCircle
 10
294.6062334055568
 20
212.202182132362
 30
0.0
 40
1.5
  0
CIRCLE
  5
135
330
1F
100
AcDbEntity
  8
DRV8711EVM
100
AcDbCircle
 10
177.7662334055568
 20
212.2021821323622
 30
0.0
 40
1.5
  0
LWPOLYLINE
  5
285
330
1F
100
AcDbEntity
  8
DRV8711EVM
100
AcDbPolyline
 90
        4
 70
     1
 43
0.0
 10
175.8159311090497
 20
151.292981505426
 10
184.8233472763673
 20
151.292981505426
 10
184.8233472763673
 20
161.275173940791
 10
175.8159311090497
 20
161.275173940791
  0
LWPOLYLINE
  5
286
330
1F
100
AcDbEntity
  8
DRV8711EVM
100
AcDbPolyline
 90
        4
 70
     1
 43
0.0
 10
184.8233472763673
 20
176.0579612482915
 10
175.8159311090497
 20
176.0579612482915
 10
175.8159311090497
 20
196.327176070008
 10
184.8233472763673
 20
196.327176070008
  0
CIRCLE
  5
2BA
330
1F
100
AcDbEntity
  8
max31855
  6
ByBlock
100
AcDbCircle
 10
116.1571609382353
 20
143.6171821323622
 30
0.0
 40
1.65
  0
LWPOLYLINE
  5
2BB
330
1F
100
AcDbEntity
  8
max31855
  6
ByBlock
100
AcDbPolyline
 90
        8
 70
     1
 43
0.0
 10
98.3897609382353
 20
141.0821821323622
 10
116.1699609382353
 20
141.0821821323622
 42
0.414213562373095
 10
118.7099609382353
 20
143.6221821323622
 10
118.7099609382353
 20
158.8675821323622
 42
0.414213562373095
 10
116.1699609382353
 20
161.4075821323623
 10
98.3897609382353
 20
161.4075821323623
 42
0.414213562373095
 10
95.84976093823528
 20
158.8675821323622
 10
95.84976093823528
 20
143.6221821323622
 42
0.414213562373095
  0
LWPOLYLINE
  5
2BC
330
1F
100
AcDbEntity
  8
max31855
  6
ByBlock
100
AcDbPolyline
 90
        4
 70
     1
 43
0.0
 10
111.2871609382353
 20
147.8371821323622
 10
118.2871609382353
 20
147.8371821323622
 10
118.2871609382353
 20
154.8371821323622
 10
111.2871609382353
 20
154.8371821323622
  0
CIRCLE
  5
2BD
330
1F
100
AcDbEntity
  8
max31855
  6
ByBlock
100
AcDbCircle
 10
116.1571609382353
 20
158.8571821323622
 30
0.0
 40
1.65
  0
LWPOLYLINE
  5
347
330
1F
100
AcDbEntity
  8
smoothie
  6
ByBlock
100
AcDbPolyline
 90
        8
 70
     1
 43
0.0
 10
158.0174115014265
 20
182.7706777304763
 10
158.0174115014266
 20
285.6174828882596
 42
0.4142135623730951
 10
156.7474121872263
 20
286.8874822024601
 10
29.28741081562707
 20
286.8874822024601
 42
0.4142135623730951
 10
28.01741150142657
 20
285.6174828882596
 10
28.01741150142652
 20
182.7706777304763
 42
0.4142135623730951
 10
29.28741081562701
 20
181.5006784162758
 10
156.7474121872262
 20
181.5006784162758
 42
0.4142135623730951
  0
LWPOLYLINE
  5
348
330
1F
100
AcDbEntity
  8
smoothie
  6
ByBlock
100
AcDbPolyline
 90
        4
 70
     1
 43
0.0
 10
38.49049554368304
 20
275.8896837225272
 10
38.49049554368304
 20
281.0508714851887
 10
49.03423666524607
 20
281.0508714851887
 10
49.03423666524607
 20
275.8896837225272
  0
LWPOLYLINE
  5
349
330
1F
100
AcDbEntity
  8
smoothie
  6
ByBlock
100
AcDbPolyline
 90
        4
 70
     1
 43
0.0
 10
64.29916796703952
 20
276.1495044293285
 10
64.29916796703952
 20
281.3106921919895
 10
74.84290908860277
 20
281.3106921919895
 10
74.84290908860277
 20
276.1495044293285
  0
LWPOLYLINE
  5
34A
330
1F
100
AcDbEntity
  8
smoothie
  6
ByBlock
100
AcDbPolyline
 90
        4
 70
     1
 43
0.0
 10
89.91459752218708
 20
276.3144752902583
 10
89.91459752218708
 20
281.4756630529193
 10
100.4583386437503
 20
281.4756630529193
 10
100.4583386437503
 20
276.3144752902583
  0
LWPOLYLINE
  5
34B
330
1F
100
AcDbEntity
  8
smoothie
  6
ByBlock
100
AcDbPolyline
 90
        4
 70
     1
 43
0.0
 10
115.2111270791088
 20
276.5268710741236
 10
115.2111270791088
 20
281.6880588367846
 10
125.7548682006721
 20
281.6880588367846
 10
125.7548682006721
 20
276.5268710741236
  0
LWPOLYLINE
  5
34C
330
1F
100
AcDbEntity
  8
smoothie
  6
ByBlock
100
AcDbPolyline
 90
        4
 70
     1
 43
0.0
 10
138.9764341063713
 20
276.2719966981346
 10
138.9764341063713
 20
281.4331844607961
 10
149.5201752279343
 20
281.4331844607961
 10
149.5201752279343
 20
276.2719966981346
  0
CIRCLE
  5
34D
330
1F
100
AcDbEntity
  8
smoothie
  6
ByBlock
100
AcDbCircle
 10
30.70819005402682
 20
283.5764628454673
 30
0.0
 40
1.802363050040127
  0
CIRCLE
  5
34E
330
1F
100
AcDbEntity
  8
smoothie
  6
ByBlock
100
AcDbCircle
 10
129.9787005122828
 20
185.3234355035899
 30
0.0
 40
1.802364461664227
  0
CIRCLE
  5
34F
330
1F
100
AcDbEntity
  8
smoothie
  6
ByBlock
100
AcDbCircle
 10
37.20878110103331
 20
190.4230037572758
 30
0.0
 40
1.802364461664227
  0
LWPOLYLINE
  5
350
330
1F
100
AcDbEntity
  8
smoothie
  6
ByBlock
100
AcDbPolyline
 90
        4
 70
     1
 43
0.0
 10
136.5192045246288
 20
246.6496668692559
 10
136.5192045246288
 20
225.9367961336067
 10
144.7098395747814
 20
225.9367961336067
 10
144.7098395747815
 20
246.6496668692559
  0
LWPOLYLINE
  5
351
330
1F
100
AcDbEntity
  8
smoothie
  6
ByBlock
100
AcDbPolyline
 90
        4
 70
     1
 43
0.0
 10
151.0540085563487
 20
210.7471799177117
 10
151.0540085563487
 20
202.4216193666722
 10
158.3613134797265
 20
202.4216193666722
 10
158.3613134797265
 20
210.7471799177117
  0
LWPOLYLINE
  5
352
330
1F
100
AcDbEntity
  8
smoothie
  6
ByBlock
100
AcDbPolyline
 90
        4
 70
     1
 43
0.0
 10
143.1205894136444
 20
191.7249386563
 10
143.1205894136444
 20
181.8618713780572
 10
154.3580509612757
 20
181.8618713780572
 10
154.3580509612757
 20
191.7249386563
  0
LWPOLYLINE
  5
353
330
1F
100
AcDbEntity
  8
smoothie
  6
ByBlock
100
AcDbPolyline
 90
        4
 70
     1
 43
0.0
 10
133.8613951584682
 20
189.0814833897013
 10
133.8613951584682
 20
181.7741784663232
 10
142.1869557095079
 20
181.7741784663232
 10
142.1869557095079
 20
189.0814833897013
  0
LWPOLYLINE
  5
354
330
1F
100
AcDbEntity
  8
smoothie
  6
ByBlock
100
AcDbPolyline
 90
        4
 70
     1
 43
0.0
 10
119.0478712437209
 20
189.0814833897013
 10
119.0478712437209
 20
181.7741784663232
 10
127.3734317947608
 20
181.7741784663232
 10
127.3734317947608
 20
189.0814833897013
  0
LWPOLYLINE
  5
355
330
1F
100
AcDbEntity
  8
smoothie
  6
ByBlock
100
AcDbPolyline
 90
        4
 70
     1
 43
0.0
 10
110.1014212470186
 20
189.0929231913285
 10
110.1014212470186
 20
181.7856182679508
 10
118.4269817980585
 20
181.7856182679508
 10
118.4269817980585
 20
189.0929231913285
  0
LWPOLYLINE
  5
356
330
1F
100
AcDbEntity
  8
smoothie
  6
ByBlock
100
AcDbPolyline
 90
        4
 70
     1
 43
0.0
 10
97.73338255448925
 20
191.7141566714992
 10
97.73338255448925
 20
181.8510893932559
 10
108.9708441021205
 20
181.8510893932559
 10
108.9708441021205
 20
191.7141566714992
  0
LWPOLYLINE
  5
357
330
1F
100
AcDbEntity
  8
smoothie
  6
ByBlock
100
AcDbPolyline
 90
        4
 70
     1
 43
0.0
 10
85.9092352129021
 20
191.7249386563
 10
85.9092352129021
 20
181.8618713780572
 10
97.14669676053336
 20
181.8618713780572
 10
97.14669676053336
 20
191.7249386563
  0
LWPOLYLINE
  5
358
330
1F
100
AcDbEntity
  8
smoothie
  6
ByBlock
100
AcDbPolyline
 90
        4
 70
     1
 43
0.0
 10
74.09506381876055
 20
191.7249386563
 10
74.09506381876055
 20
181.8613928374904
 10
85.33252536639179
 20
181.8613928374904
 10
85.33252536639179
 20
191.7249386563
  0
LWPOLYLINE
  5
359
330
1F
100
AcDbEntity
  8
smoothie
  6
ByBlock
100
AcDbPolyline
 90
        4
 70
     1
 43
0.0
 10
60.43821303765594
 20
187.6235820269127
 10
60.43821303765594
 20
181.912038733694
 10
68.15202299739349
 20
181.912038733694
 10
68.15202299739349
 20
187.6235820269127
  0
LWPOLYLINE
  5
35A
330
1F
100
AcDbEntity
  8
smoothie
  6
ByBlock
100
AcDbPolyline
 90
        4
 70
     1
 43
0.0
 10
52.50937179187622
 20
187.6203635239869
 10
52.50937179187622
 20
181.9088202307682
 10
60.22318175161399
 20
181.9088202307682
 10
60.22318175161399
 20
187.6203635239869
  0
LWPOLYLINE
  5
35B
330
1F
100
AcDbEntity
  8
smoothie
  6
ByBlock
100
AcDbPolyline
 90
        4
 70
     1
 43
0.0
 10
44.6346324509791
 20
187.6258462719535
 10
44.6346324509791
 20
181.9143029787348
 10
52.34844241071687
 20
181.9143029787348
 10
52.34844241071687
 20
187.6258462719535
  0
LWPOLYLINE
  5
35C
330
1F
100
AcDbEntity
  8
smoothie
  6
ByBlock
100
AcDbPolyline
 90
        4
 70
     1
 43
0.0
 10
36.7401557820524
 20
187.6317948558696
 10
36.7401557820524
 20
181.9202515626513
 10
44.45396574179017
 20
181.9202515626513
 10
44.45396574179017
 20
187.6317948558696
  0
LWPOLYLINE
  5
35D
330
1F
100
AcDbEntity
  8
smoothie
  6
ByBlock
100
AcDbPolyline
 90
        4
 70
     1
 43
0.0
 10
28.84653738057249
 20
187.6376418028514
 10
28.84653738057249
 20
181.9260985096327
 10
36.56034734031027
 20
181.9260985096327
 10
36.56034734031027
 20
187.6376418028514
  0
LWPOLYLINE
  5
35E
330
1F
100
AcDbEntity
  8
smoothie
  6
ByBlock
100
AcDbPolyline
 90
        4
 70
     1
 43
0.0
 10
28.48095956146084
 20
195.7059222175469
 10
28.48095956146084
 20
187.9921122578091
 10
34.19250285467955
 20
187.9921122578091
 10
34.19250285467955
 20
195.7059222175469
  0
LWPOLYLINE
  5
35F
330
1F
100
AcDbEntity
  8
smoothie
  6
ByBlock
100
AcDbPolyline
 90
        4
 70
     1
 43
0.0
 10
43.46667514726551
 20
210.149840596747
 10
43.46667514726551
 20
198.141978496654
 10
27.45755009424532
 20
198.141978496654
 10
27.45755009424532
 20
210.149840596747
  0
LWPOLYLINE
  5
360
330
1F
100
AcDbEntity
  8
smoothie
  6
ByBlock
100
AcDbPolyline
 90
        4
 70
     1
 43
0.0
 10
49.10867654420872
 20
212.3949648362806
 10
49.10867654420872
 20
228.4226848605356
 10
27.51484509281998
 20
228.4226848605356
 10
27.51484509281998
 20
212.3949648362806
  0
LWPOLYLINE
  5
361
330
1F
100
AcDbEntity
  8
smoothie
  6
ByBlock
100
AcDbPolyline
 90
        4
 70
     1
 43
0.0
 10
44.06209465946773
 20
244.6849557558459
 10
44.06209465946773
 20
230.6317382225972
 10
28.83537143401878
 20
230.6317382225972
 10
28.83537143401878
 20
244.6849557558459
  0
CIRCLE
  5
362
330
1F
100
AcDbEntity
  8
smoothie
  6
ByBlock
100
AcDbCircle
 10
130.1021498622222
 20
283.5844201704637
 30
0.0
 40
1.802367284912392
  0
LWPOLYLINE
  5
369
330
1F
100
AcDbEntity
  8
poeInjector
100
AcDbPolyline
 90
        4
 70
     1
 43
0.0
 10
184.5940451883458
 20
285.1448347548684
 10
324.5940451883457
 20
285.1448347548683
 10
324.5940451883457
 20
220.1448347548681
 10
184.5940451883457
 20
220.1448347548682
  0
LWPOLYLINE
  5
36A
330
1F
100
AcDbEntity
  8
poeInjector
100
AcDbPolyline
 90
        4
 70
     1
 43
0.0
 10
183.0940451883458
 20
274.8948347548683
 10
183.0940451883458
 20
271.3948347548683
 10
174.0940451883458
 20
271.3948347548684
 10
174.0940451883458
 20
274.8948347548684
  0
LWPOLYLINE
  5
393
330
1F
100
AcDbEntity
  8
poeInjector
100
AcDbPolyline
 90
        4
 70
     1
 43
0.0
 10
328.8440451883459
 20
236.6448347548681
 10
332.3440451883457
 20
236.6448347548681
 10
332.3440451883457
 20
227.6448347548681
 10
328.8440451883459
 20
227.6448347548681
  0
LWPOLYLINE
  5
3C7
330
1F
100
AcDbEntity
  8
poeInjector
100
AcDbPolyline
 90
        4
 70
     1
 43
0.0
 10
174.0940451883458
 20
264.364076519539
 10
174.0940451883458
 20
240.9255929901977
 10
184.5940451883458
 20
240.9255929901977
 10
184.5940451883458
 20
264.3640765195389
  0
LWPOLYLINE
  5
3CB
330
1F
100
AcDbEntity
  8
poeInjector
100
AcDbPolyline
 90
        4
 70
     1
 43
0.0
 10
324.5940451883457
 20
240.8948347548681
 10
336.5940451883457
 20
240.8948347548681
 10
336.5940451883457
 20
223.3948347548681
 10
324.5940451883457
 20
223.3948347548681
  0
LWPOLYLINE
  5
3CC
330
1F
100
AcDbEntity
  8
poeInjector
100
AcDbPolyline
 90
        4
 70
     1
 43
0.0
 10
184.5940451883458
 20
276.3948347548684
 10
184.5940451883458
 20
269.8948347548683
 10
172.5940451883458
 20
269.8948347548684
 10
172.5940451883458
 20
276.3948347548684
  0
LWPOLYLINE
  5
3D2
330
1F
100
AcDbEntity
  8
24vSupply
100
AcDbPolyline
 90
        4
 70
     1
 43
0.0
 10
98.04908995123503
 20
10.00000000000006
 10
98.04908995123509
 20
136.9999999999999
 10
347.049089951235
 20
136.9999999999999
 10
347.049089951235
 20
10.0
  0
LWPOLYLINE
  5
3E8
330
1F
100
AcDbEntity
  8
24vSupply
100
AcDbPolyline
 90
        4
 70
     1
 43
0.0
 10
98.04908995123509
 20
114.7698952682094
 10
98.04908995123509
 20
130.7698952682094
 10
114.0490899512351
 20
130.7698952682094
 10
114.0490899512351
 20
114.7698952682094
  0
LWPOLYLINE
  5
3E9
330
1F
100
AcDbEntity
  8
24vSupply
100
AcDbPolyline
 90
        4
 70
     1
 43
0.0
 10
98.04908995123509
 20
92.4580411737951
 10
98.04908995123509
 20
108.4580411737951
 10
114.0490899512351
 20
108.4580411737951
 10
114.0490899512351
 20
92.4580411737951
  0
LWPOLYLINE
  5
3EA
330
1F
100
AcDbEntity
  8
24vSupply
100
AcDbPolyline
 90
        4
 70
     1
 43
0.0
 10
98.04908995123503
 20
26.75849735846919
 10
98.04908995123509
 20
57.83805407116978
 10
108.0331815816911
 20
57.83805407116978
 10
108.033181581691
 20
26.75849735846919
  0
CIRCLE
  5
3EC
330
1F
100
AcDbEntity
  8
24vSupply
100
AcDbCircle
 10
112.0490899512351
 20
74.00000000000011
 30
0.0
 40
2.4
  0
CIRCLE
  5
3EF
330
1F
100
AcDbEntity
  8
24vSupply
100
AcDbCircle
 10
310.049089951235
 20
110.4999999999999
 30
0.0
 40
2.4
  0
CIRCLE
  5
3F0
330
1F
100
AcDbEntity
  8
24vSupply
100
AcDbCircle
 10
310.049089951235
 20
36.49999999999994
 30
0.0
 40
2.4
  0
LWPOLYLINE
  5
3F1
330
1F
100
AcDbEntity
  8
24vSupply
100
AcDbPolyline
 90
        4
 70
     1
 43
0.0
 10
0.0
 20
0.0
 10
0.0
 20
299.9999999999999
 10
400.0
 20
299.9999999999999
 10
400.0
 20
0.0
  0
LWPOLYLINE
  5
3F2
330
1F
100
AcDbEntity
  8
plugSwitch
100
AcDbPolyline
 90
        4
 70
     1
 43
0.0
 10
5.899999999999976
 20
57.22361063199736
 10
5.899999999999976
 20
131.7236106319974
 10
10.0
 20
131.7236106319974
 10
10.0
 20
57.22361063199736
  0
LWPOLYLINE
  5
3F3
330
1F
100
AcDbEntity
  8
plugSwitch
100
AcDbPolyline
 90
        4
 70
     1
 43
0.0
 10
10.0
 20
58.47361063199747
 10
10.0
 20
130.4736106319974
 10
47.89999999999999
 20
130.4736106319974
 10
47.89999999999999
 20
58.47361063199736
  0
LWPOLYLINE
  5
3F8
330
1F
100
AcDbEntity
  8
AC_SSR
100
AcDbPolyline
 90
        8
 70
     1
 43
0.0
 10
65.29432505291399
 20
29.80000000000001
 42
-0.9999999999999999
 10
65.294325052914
 20
34.69999999999999
 10
70.14432505291401
 20
34.69999999999999
 10
70.14432505291403
 20
54.5
 10
12.84432505291402
 20
54.50000000000002
 10
12.844325052914
 20
10.00000000000002
 10
70.14432505291401
 20
10.0
 10
70.14432505291401
 20
29.80000000000001
  0
LWPOLYLINE
  5
3F9
330
1F
100
AcDbEntity
  8
DC_SSR
100
AcDbPolyline
 90
        8
 70
     1
 43
0.0
 10
66.4724329609614
 20
154.9752075065877
 42
-0.9999999999999999
 10
66.4724329609614
 20
159.4752075065877
 10
71.92243296096139
 20
159.4752075065877
 10
71.92243296096142
 20
180.0752075065876
 10
13.52243296096144
 20
180.0752075065877
 10
13.52243296096138
 20
134.3752075065877
 10
71.92243296096142
 20
134.3752075065876
 10
71.92243296096139
 20
154.9752075065877
  0
CIRCLE
  5
400
330
1F
100
AcDbEntity
  8
DC_SSR
100
AcDbCircle
 10
18.97243296096143
 20
157.2252075065877
 30
0.0
 40
2.25
  0
CIRCLE
  5
418
330
1F
100
AcDbEntity
  8
DC_SSR
100
AcDbCircle
 10
64.32243296096136
 20
169.9252075065876
 30
0.0
 40
2.4
  0
CIRCLE
  5
419
330
1F
100
AcDbEntity
  8
DC_SSR
100
AcDbCircle
 10
64.32243296096134
 20
144.5252075065877
 30
0.0
 40
2.4
  0
CIRCLE
  5
41B
330
1F
100
AcDbEntity
  8
DC_SSR
100
AcDbCircle
 10
21.1224329609614
 20
143.2752075065877
 30
0.0
 40
2.4
  0
CIRCLE
  5
41C
330
1F
100
AcDbEntity
  8
DC_SSR
100
AcDbCircle
 10
21.12243296096146
 20
171.1752075065877
 30
0.0
 40
2.4
  0
CIRCLE
  5
43F
330
1F
100
AcDbEntity
  8
AC_SSR
100
AcDbCircle
 10
17.69432505291397
 20
32.25000000000001
 30
0.0
 40
2.45
  0
CIRCLE
  5
44A
330
1F
100
AcDbEntity
  8
AC_SSR
100
AcDbCircle
 10
19.89432505291397
 20
46.2
 30
0.0
 40
2.0
  0
CIRCLE
  5
44B
330
1F
100
AcDbEntity
  8
AC_SSR
100
AcDbCircle
 10
19.89432505291396
 20
18.30000000000003
 30
0.0
 40
2.0
  0
CIRCLE
  5
46E
330
1F
100
AcDbEntity
  8
AC_SSR
100
AcDbCircle
 10
63.09432505291402
 20
44.95
 30
0.0
 40
2.0
  0
CIRCLE
  5
46F
330
1F
100
AcDbEntity
  8
AC_SSR
100
AcDbCircle
 10
63.09432505291401
 20
19.55000000000001
 30
0.0
 40
2.0
  0
LWPOLYLINE
  5
486
330
1F
100
AcDbEntity
  8
24vSupply
100
AcDbPolyline
 90
        4
 70
     1
 43
0.0
 10
10.0
 20
10.0
 10
10.0
 20
289.9999999999999
 10
390.0000000000001
 20
289.9999999999999
 10
390.0
 20
10.0
  0
CIRCLE
  5
48C
330
1F
100
AcDbEntity
  8
cuts
100
AcDbCircle
 10
66.4724329609614
 20
157.2252075065877
 30
0.0
 40
2.25
  0
CIRCLE
  5
48D
330
1F
100
AcDbEntity
  8
cuts
100
AcDbCircle
 10
18.97243296096143
 20
157.2252075065877
 30
0.0
 40
2.25
  0
CIRCLE
  5
48E
330
1F
100
AcDbEntity
  8
cuts
100
AcDbCircle
 10
17.69432505291397
 20
32.25000000000001
 30
0.0
 40
2.450000000000003
  0
CIRCLE
  5
48F
330
1F
100
AcDbEntity
  8
cuts
100
AcDbCircle
 10
65.294325052914
 20
32.25
 30
0.0
 40
2.449999999999989
  0
CIRCLE
  5
490
330
1F
100
AcDbEntity
  8
cuts
100
AcDbCircle
 10
112.0490899512351
 20
74.00000000000011
 30
0.0
 40
2.400000000000006
  0
CIRCLE
  5
491
330
1F
100
AcDbEntity
  8
cuts
100
AcDbCircle
 10
310.049089951235
 20
36.49999999999994
 30
0.0
 40
2.399999999999999
  0
CIRCLE
  5
492
330
1F
100
AcDbEntity
  8
cuts
100
AcDbCircle
 10
310.049089951235
 20
110.4999999999999
 30
0.0
 40
2.400000000000006
  0
CIRCLE
  5
493
330
1F
100
AcDbEntity
  8
cuts
100
AcDbCircle
 10
294.6062334055567
 20
146.162182132362
 30
0.0
 40
1.5
  0
CIRCLE
  5
494
330
1F
100
AcDbEntity
  8
cuts
100
AcDbCircle
 10
177.7662334055568
 20
146.1621821323621
 30
0.0
 40
1.5
  0
CIRCLE
  5
495
330
1F
100
AcDbEntity
  8
cuts
100
AcDbCircle
 10
177.7662334055568
 20
212.2021821323622
 30
0.0
 40
1.5
  0
CIRCLE
  5
496
330
1F
100
AcDbEntity
  8
cuts
100
AcDbCircle
 10
294.6062334055568
 20
212.202182132362
 30
0.0
 40
1.5
  0
CIRCLE
  5
497
330
1F
100
AcDbEntity
  8
cuts
100
AcDbCircle
 10
330.5940451883458
 20
232.1448347548681
 30
0.0
 40
1.749999999999886
  0
CIRCLE
  5
498
330
1F
100
AcDbEntity
  8
cuts
100
AcDbCircle
 10
178.5940451883458
 20
273.1448347548684
 30
0.0
 40
1.750000000000057
  0
CIRCLE
  5
499
330
1F
100
AcDbEntity
  8
cuts
100
AcDbCircle
 10
116.1571609382353
 20
158.8571821323622
 30
0.0
 40
1.650000000000006
  0
CIRCLE
  5
49A
330
1F
100
AcDbEntity
  8
cuts
100
AcDbCircle
 10
116.1571609382353
 20
143.6171821323622
 30
0.0
 40
1.650000000000006
  0
CIRCLE
  5
49B
330
1F
100
AcDbEntity
  8
cuts
100
AcDbCircle
 10
129.9787005122828
 20
185.3234355035899
 30
0.0
 40
1.80236446166424
  0
CIRCLE
  5
49C
330
1F
100
AcDbEntity
  8
cuts
100
AcDbCircle
 10
37.20878110103331
 20
190.4230037572758
 30
0.0
 40
1.80236446166424
  0
CIRCLE
  5
49D
330
1F
100
AcDbEntity
  8
cuts
100
AcDbCircle
 10
30.70819005402682
 20
283.5764628454673
 30
0.0
 40
1.802363050040128
  0
CIRCLE
  5
49E
330
1F
100
AcDbEntity
  8
cuts
100
AcDbCircle
 10
130.1021498622222
 20
283.5844201704637
 30
0.0
 40
1.802367284912407
  0
LWPOLYLINE
  5
49F
330
1F
100
AcDbEntity
  8
cuts
100
AcDbPolyline
 90
        4
 70
     1
 43
0.0
 10
10.0
 20
289.9999999999999
 10
10.0
 20
10.00000000000011
 10
347.049089951235
 20
10.00000000000011
 10
347.049089951235
 20
289.9999999999999
  0
LWPOLYLINE
  5
577
330
1F
100
AcDbEntity
  8
switchCap
100
AcDbPolyline
 90
       12
 70
     1
 43
0.0
 10
481.0610846654595
 20
90.62543281798618
 10
493.0610846654595
 20
90.62543281798618
 10
493.0610846654595
 20
87.62543281798618
 10
508.5610846654594
 20
87.62543281798618
 10
508.5610846654594
 20
53.22543281798617
 10
493.0610846654595
 20
53.22543281798617
 10
493.0610846654595
 20
50.22543281798617
 10
481.0610846654595
 20
50.22543281798617
 10
481.0610846654595
 20
53.22543281798617
 10
465.5610846654595
 20
53.22543281798617
 10
465.5610846654595
 20
87.62543281798618
 10
481.0610846654595
 20
87.62543281798618
  0
LWPOLYLINE
  5
578
330
1F
100
AcDbEntity
  8
switchCap
100
AcDbPolyline
 90
       12
 70
     1
 43
0.0
 10
481.0610846654595
 20
44.31361546360979
 10
493.0610846654595
 20
44.31361546360979
 10
493.0610846654595
 20
41.31361546360979
 10
508.5610846654594
 20
41.31361546360979
 10
508.5610846654594
 20
6.913615463609773
 10
493.0610846654595
 20
6.913615463609773
 10
493.0610846654595
 20
3.913615463609773
 10
481.0610846654595
 20
3.913615463609773
 10
481.0610846654595
 20
6.913615463609773
 10
465.5610846654595
 20
6.913615463609773
 10
465.5610846654595
 20
41.31361546360979
 10
481.0610846654595
 20
41.31361546360979
  0
LWPOLYLINE
  5
57E
330
1F
100
AcDbEntity
  8
cuts
100
AcDbPolyline
 90
        4
 70
     1
 43
0.0
 10
13.0
 20
58.47361063199737
 10
13.0
 20
61.97361063199737
 10
16.5
 20
61.97361063199737
 10
16.5
 20
58.47361063199737
  0
LWPOLYLINE
  5
57F
330
1F
100
AcDbEntity
  8
cuts
100
AcDbPolyline
 90
        4
 70
     1
 43
0.0
 10
13.0
 20
126.9736106319974
 10
13.0
 20
130.4736106319974
 10
16.5
 20
130.4736106319974
 10
16.5
 20
126.9736106319974
  0
LWPOLYLINE
  5
580
330
1F
100
AcDbEntity
  8
cuts
100
AcDbPolyline
 90
        4
 70
     1
 43
0.0
 10
25.5
 20
55.47361063199737
 10
25.5
 20
58.47361063199737
 10
37.5
 20
58.47361063199737
 10
37.5
 20
55.47361063199737
  0
LWPOLYLINE
  5
581
330
1F
100
AcDbEntity
  8
cuts
100
AcDbPolyline
 90
        4
 70
     1
 43
0.0
 10
25.5
 20
130.4736106319974
 10
25.5
 20
133.4736106319974
 10
37.5
 20
133.4736106319974
 10
37.5
 20
130.4736106319974
  0
CIRCLE
  5
582
330
1F
100
AcDbEntity
  8
cuts
100
AcDbCircle
 10
20.0
 20
91.47361063199737
 30
0.0
 40
2.400000000000006
  0
LWPOLYLINE
  5
5D6
330
1F
100
AcDbEntity
  8
switchCap
100
AcDbPolyline
 90
        4
 70
     1
 43
0.0
 10
13.0
 20
58.47361063199736
 10
13.0
 20
61.97361063199736
 10
16.5
 20
61.97361063199736
 10
16.5
 20
58.47361063199736
  0
LWPOLYLINE
  5
5D7
330
1F
100
AcDbEntity
  8
switchCap
100
AcDbPolyline
 90
        4
 70
     1
 43
0.0
 10
13.0
 20
126.9736106319974
 10
13.0
 20
130.4736106319974
 10
16.5
 20
130.4736106319974
 10
16.5
 20
126.9736106319974
  0
LWPOLYLINE
  5
5D8
330
1F
100
AcDbEntity
  8
switchCap
100
AcDbPolyline
 90
        4
 70
     1
 43
0.0
 10
25.5
 20
55.47361063199736
 10
25.5
 20
58.47361063199735
 10
37.5
 20
58.47361063199735
 10
37.5
 20
55.47361063199736
  0
LWPOLYLINE
  5
5D9
102
{ACAD_REACTORS
102
}
330
1F
100
AcDbEntity
  8
switchCap
100
AcDbPolyline
 90
        4
 70
     1
 43
0.0
 10
25.5
 20
130.4736106319974
 10
25.5
 20
133.4736106319974
 10
37.5
 20
133.4736106319974
 10
37.5
 20
130.4736106319974
  0
CIRCLE
  5
5DB
330
1F
100
AcDbEntity
  8
switchCap
100
AcDbCircle
 10
20.0
 20
91.47361063199736
 30
0.0
 40
2.400000000000006
  0
LWPOLYLINE
  5
60A
102
{ACAD_REACTORS
330
71E
102
}
330
1F
100
AcDbEntity
  8
switchCap
100
AcDbPolyline
 90
        4
 70
     1
 43
0.0
 10
78.09670750207451
 20
15.0
 10
78.09670750207451
 20
18.0
 10
90.09670750207454
 20
18.0
 10
90.09670750207454
 20
15.0
  0
LWPOLYLINE
  5
635
102
{ACAD_REACTORS
330
6A9
330
6B9
102
}
330
1F
100
AcDbEntity
  8
switchCap
100
AcDbPolyline
 90
        4
 70
     1
 43
0.0
 10
48.0
 20
108.246887969626
 10
45.0
 20
108.246887969626
 10
45.0
 20
120.2468879696261
 10
48.0
 20
120.2468879696261
  0
LWPOLYLINE
  5
65F
102
{ACAD_REACTORS
330
6CD
102
}
330
1F
100
AcDbEntity
  8
switchCap
100
AcDbPolyline
 90
        4
 70
     1
 43
0.0
 10
81.20801659786092
 20
79.29581500870717
 10
80.21632464625144
 20
76.46446425807365
 10
68.89092164371733
 20
80.4312320645115
 10
69.88261359532679
 20
83.26258281514504
  0
LWPOLYLINE
  5
6A1
330
1F
100
AcDbEntity
  8
switchCap
100
AcDbPolyline
 90
       12
 70
     1
 43
0.0
 10
540.9037160663413
 20
90.2630066123001
 10
552.9037160663413
 20
90.2630066123001
 10
552.9037160663413
 20
87.2630066123001
 10
562.9037160663413
 20
87.2630066123001
 10
562.9037160663413
 20
52.86300661230007
 10
552.9037160663413
 20
52.86300661230007
 10
552.9037160663413
 20
49.86300661230007
 10
540.9037160663413
 20
49.86300661230007
 10
540.9037160663413
 20
52.86300661230007
 10
523.9037160663413
 20
52.86300661230007
 10
523.9037160663413
 20
87.2630066123001
 10
540.9037160663413
 20
87.2630066123001
  0
LWPOLYLINE
  5
6A4
330
1F
100
AcDbEntity
  8
24vSupply
100
AcDbPolyline
 90
        4
 70
     1
 43
0.0
 10
96.04908995123503
 20
8.000000000000057
 10
96.04908995123509
 20
138.9999999999999
 10
349.049089951235
 20
138.9999999999999
 10
349.049089951235
 20
8.0
  0
LWPOLYLINE
  5
716
330
1F
100
AcDbEntity
  8
switchCap
100
AcDbPolyline
 90
       12
 70
     1
 43
0.0
 10
544.7184911208291
 20
44.46072302469048
 10
556.7184911208291
 20
44.46072302469048
 10
556.7184911208291
 20
41.46072302469048
 10
572.7184911208291
 20
41.46072302469048
 10
572.7184911208291
 20
7.060723024690446
 10
556.7184911208291
 20
7.060723024690446
 10
556.7184911208291
 20
4.060723024690446
 10
544.7184911208291
 20
4.060723024690446
 10
544.7184911208291
 20
7.060723024690446
 10
521.7184911208291
 20
7.060723024690446
 10
521.7184911208291
 20
41.46072302469048
 10
544.7184911208291
 20
41.46072302469048
  0
LWPOLYLINE
  5
769
330
1F
100
AcDbEntity
  8
switchCap
100
AcDbPolyline
 90
       12
 70
     1
 43
0.0
 10
578.9827961166461
 20
89.71774133149523
 10
590.9827961166461
 20
89.71774133149523
 10
590.9827961166461
 20
86.71774133149523
 10
596.9827961166461
 20
86.71774133149523
 10
596.9827961166461
 20
52.31774133149514
 10
590.9827961166461
 20
52.31774133149514
 10
590.9827961166461
 20
49.31774133149514
 10
578.9827961166461
 20
49.31774133149514
 10
578.9827961166461
 20
52.31774133149514
 10
571.9827961166461
 20
52.31774133149514
 10
571.9827961166461
 20
86.71774133149523
 10
578.9827961166461
 20
86.71774133149523
  0
LWPOLYLINE
  5
7A2
330
1F
100
AcDbEntity
  8
switchCap
100
AcDbPolyline
 90
        4
 70
     1
 43
0.0
 10
527.3306151732473
 20
172.4051463508673
 10
526.3389232216379
 20
169.5737956002338
 10
515.0135202191037
 20
173.5405634066717
 10
516.0052121707132
 20
176.3719141573052
  0
LWPOLYLINE
  5
7A3
330
1F
100
AcDbEntity
  8
switchCap
100
AcDbPolyline
 90
        4
 70
     1
 43
0.0
 10
471.6225985753864
 20
148.5829419741575
 10
471.6225985753864
 20
151.5829419741575
 10
483.6225985753864
 20
151.5829419741575
 10
483.6225985753864
 20
148.5829419741575
  0
LWPOLYLINE
  5
7A4
330
1F
100
AcDbEntity
  8
switchCap
100
AcDbPolyline
 90
        4
 70
     1
 43
0.0
 10
459.1225985753864
 20
151.5829419741575
 10
459.1225985753864
 20
155.0829419741575
 10
462.6225985753864
 20
155.0829419741575
 10
462.6225985753864
 20
151.5829419741575
  0
CIRCLE
  5
7A5
330
1F
100
AcDbEntity
  8
switchCap
100
AcDbCircle
 10
466.1225985753864
 20
184.5829419741575
 30
0.0
 40
2.400000000000006
  0
LWPOLYLINE
  5
7A6
330
1F
100
AcDbEntity
  8
switchCap
100
AcDbPolyline
 90
        4
 70
     1
 43
0.0
 10
494.1225985753864
 20
201.3562193117862
 10
491.1225985753864
 20
201.3562193117862
 10
491.1225985753864
 20
213.3562193117862
 10
494.1225985753864
 20
213.3562193117862
  0
LWPOLYLINE
  5
7A7
330
1F
100
AcDbEntity
  8
switchCap
100
AcDbPolyline
 90
        4
 70
     1
 43
0.0
 10
471.6225985753864
 20
223.5829419741575
 10
471.6225985753864
 20
226.5829419741575
 10
483.6225985753864
 20
226.5829419741575
 10
483.6225985753864
 20
223.5829419741575
  0
LWPOLYLINE
  5
7A8
330
1F
100
AcDbEntity
  8
switchCap
100
AcDbPolyline
 90
        4
 70
     1
 43
0.0
 10
459.1225985753864
 20
220.0829419741575
 10
459.1225985753864
 20
223.5829419741575
 10
462.6225985753864
 20
223.5829419741575
 10
462.6225985753864
 20
220.0829419741575
  0
LWPOLYLINE
  5
7A9
330
1F
100
AcDbEntity
  8
switchCap
100
AcDbPolyline
 90
        4
 70
     1
 43
0.0
 10
524.2193060774609
 20
108.1093313421602
 10
524.2193060774609
 20
111.1093313421602
 10
536.2193060774609
 20
111.1093313421602
 10
536.2193060774609
 20
108.1093313421602
  0
LWPOLYLINE
  5
7BC
330
1F
100
AcDbEntity
  8
switchCap
100
AcDbPolyline
 90
       16
 70
     0
 43
0.0
 10
499.1225985753864
 20
147.6093313421602
 10
499.1225985753864
 20
143.5829419741575
 10
456.1225985753864
 20
143.5829419741575
 10
456.1225985753864
 20
231.5829419741575
 10
499.1225985753864
 20
231.5829419741575
 10
499.1225985753864
 20
191.1294966494148
 42
0.3186455332025518
 10
502.4697786560373
 20
186.4105787316923
 10
555.7754184947355
 20
167.7400646699493
 42
-0.3186455332025523
 10
559.1225985753864
 20
163.0211467522267
 10
559.1225985753864
 20
108.1093313421602
 42
-0.4142135623731049
 10
554.1225985753864
 20
103.1093313421602
 10
521.2669236283004
 20
103.1093313421602
 42
-0.4142135623730953
 10
516.2669236283004
 20
108.1093313421602
 10
516.2669236283004
 20
142.6093313421602
 42
0.4142135623730952
 10
511.2669236283004
 20
147.6093313421602
 10
499.1225985753864
 20
147.6093313421602
  0
ENDSEC
  0
SECTION
  2
OBJECTS
  0
DICTIONARY
  5
C
330
0
100
AcDbDictionary
281
     1
  3
ACAD_COLOR
350
73
  3
ACAD_DETAILVIEWSTYLE
350
122
  3
ACAD_GROUP
350
D
  3
ACAD_IMAGE_VARS
350
DC
  3
ACAD_LAYOUT
350
1A
  3
ACAD_MATERIAL
350
72
  3
ACAD_MLEADERSTYLE
350
B5
  3
ACAD_MLINESTYLE
350
17
  3
ACAD_PLOTSETTINGS
350
19
  3
ACAD_PLOTSTYLENAME
350
E
  3
ACAD_SCALELIST
350
B6
  3
ACAD_SECTIONVIEWSTYLE
350
123
  3
ACAD_TABLESTYLE
350
86
  3
ACAD_VISUALSTYLE
350
99
  3
ACDB_RECOMPOSE_DATA
350
7BF
  3
AcDbVariableDictionary
350
66
  3
APPDATA
350
E1
  0
SUN
  5
ED
330
94
100
AcDbSun
 90
        1
290
     0
 63
     7
421
 16777215
 40
1.0
291
     1
 91
  2455826
 92
 54000000
292
     0
 70
     2
 71
   256
280
     1
  0
DICTIONARY
  5
129
330
2
100
AcDbDictionary
280
     1
281
     1
  3
ACAD_LAYERSTATES
360
12A
  3
ACLYDICTIONARY
360
518
  0
DICTIONARY
  5
73
102
{ACAD_REACTORS
330
C
102
}
330
C
100
AcDbDictionary
281
     1
  0
DICTIONARY
  5
122
102
{ACAD_REACTORS
330
C
102
}
330
C
100
AcDbDictionary
281
     1
  0
DICTIONARY
  5
D
102
{ACAD_REACTORS
330
C
102
}
330
C
100
AcDbDictionary
281
     1
  0
RASTERVARIABLES
  5
DC
102
{ACAD_REACTORS
330
C
102
}
330
C
100
AcDbRasterVariables
 90
        0
 70
     1
 71
     1
 72
     5
  0
DICTIONARY
  5
1A
102
{ACAD_REACTORS
330
C
102
}
330
C
100
AcDbDictionary
281
     1
  3
Model
350
22
  3
Sheet1
350
59
  3
Sheet2
350
5E
  0
DICTIONARY
  5
72
102
{ACAD_REACTORS
330
C
102
}
330
C
100
AcDbDictionary
281
     1
  3
ByBlock
350
E2
  3
ByLayer
350
96
  3
Global
350
98
  0
DICTIONARY
  5
B5
102
{ACAD_REACTORS
330
C
102
}
330
C
100
AcDbDictionary
281
     1
  3
Standard
350
124
  0
DICTIONARY
  5
17
102
{ACAD_REACTORS
330
C
102
}
330
C
100
AcDbDictionary
281
     1
  3
Standard
350
18
  0
DICTIONARY
  5
19
102
{ACAD_REACTORS
330
C
102
}
330
C
100
AcDbDictionary
281
     1
  0
ACDBDICTIONARYWDFLT
  5
E
102
{ACAD_REACTORS
330
C
102
}
330
C
100
AcDbDictionary
281
     1
  3
Normal
350
F
100
AcDbDictionaryWithDefault
340
F
  0
DICTIONARY
  5
B6
102
{ACAD_REACTORS
330
C
102
}
330
C
100
AcDbDictionary
281
     1
  3
*A1
350
5B4
  3
A0
350
B7
  3
A1
350
B8
  3
A2
350
B9
  3
A3
350
BA
  3
A4
350
BB
  3
A5
350
BC
  3
A6
350
BD
  3
A7
350
BE
  3
A8
350
BF
  3
A9
350
C0
  3
B0
350
C1
  3
B1
350
C2
  3
B2
350
C3
  3
B3
350
C4
  3
B4
350
C5
  3
B5
350
C6
  3
B6
350
C7
  3
B7
350
C8
  3
B8
350
C9
  3
B9
350
CA
  3
C0
350
CB
  3
C1
350
CC
  3
C2
350
CD
  3
C3
350
CE
  3
C4
350
CF
  3
C5
350
D0
  3
C6
350
D1
  3
C7
350
D2
  3
C8
350
D3
  3
C9
350
D4
  3
D0
350
D5
  3
D1
350
D6
  3
D2
350
D7
  0
DICTIONARY
  5
123
102
{ACAD_REACTORS
330
C
102
}
330
C
100
AcDbDictionary
281
     1
  0
DICTIONARY
  5
86
102
{ACAD_REACTORS
330
C
102
}
330
C
100
AcDbDictionary
281
     1
  3
Standard
350
87
  0
DICTIONARY
  5
99
102
{ACAD_REACTORS
330
C
102
}
330
C
100
AcDbDictionary
281
     1
  3
2dWireframe
350
9F
  3
3D Hidden
350
A1
  3
3dWireframe
350
A0
  3
Basic
350
9E
  3
Brighten
350
A5
  3
ColorChange
350
A9
  3
Conceptual
350
A2
  3
Dim
350
A4
  3
EdgeColorOff
350
E7
  3
Facepattern
350
A8
  3
Flat
350
9A
  3
FlatWithEdges
350
9B
  3
Gouraud
350
9C
  3
GouraudWithEdges
350
9D
  3
Hidden
350
E4
  3
JitterOff
350
E5
  3
Linepattern
350
A7
  3
OverhangOff
350
E6
  3
Realistic
350
A3
  3
Shaded
350
EC
  3
Shaded with edges
350
EB
  3
Shades of Gray
350
E8
  3
Sketchy
350
E9
  3
Thicken
350
A6
  3
Wireframe
350
E3
  3
X-Ray
350
EA
  0
XRECORD
  5
7BF
102
{ACAD_REACTORS
330
C
102
}
330
C
100
AcDbXrecord
280
     1
 90
        1
330
87
  0
DICTIONARY
  5
66
102
{ACAD_REACTORS
330
C
102
}
330
C
100
AcDbDictionary
281
     1
  3
CANNOSCALE
350
D8
  3
CMLEADERSTYLE
350
128
  3
CTABLESTYLE
350
89
  3
DIMASSOC
350
67
  3
HIDETEXT
350
6B
  3
LIGHTSINBLOCKS
350
DF
  3
XCLIPFRAME
350
E0
  0
DICTIONARY
  5
E1
102
{ACAD_REACTORS
330
C
102
}
330
C
100
AcDbDictionary
281
     1
  0
DICTIONARY
  5
12A
102
{ACAD_REACTORS
330
129
102
}
330
129
100
AcDbDictionary
281
     1
  0
DICTIONARY
  5
518
102
{ACAD_REACTORS
330
129
102
}
330
129
100
AcDbDictionary
281
     1
1001
ACAD
1000
<All
  0
LAYOUT
  5
22
102
{ACAD_REACTORS
330
1A
102
}
330
1A
100
AcDbPlotSettings
  1

  2
none_device
  4
ANSI_A_(8.50_x_11.00_Inches)
  6

 40
6.35
 41
19.05
 42
6.35
 43
19.05
 44
215.9
 45
279.4
 46
11.11250000000003
 47
0.0000000000000142
 48
0.0
 49
0.0
140
0.0
141
0.0
142
1.0
143
1.263157894736842
 70
 11444
 72
     0
 73
     1
 74
     1
  7
monochrome.ctb
 75
     0
 76
     0
 77
     2
 78
   300
147
0.7916666666666665
148
-702.8076765758875
149
-496.2830551296954
100
AcDbLayout
  1
Model
 70
     1
 71
     0
 10
0.0
 20
0.0
 11
12.0
 21
9.0
 12
0.0
 22
0.0
 32
0.0
 14
0.0
 24
0.0
 34
0.0
 15
596.9827961166461
 25
299.9999999999999
 35
0.0
146
0.0
 13
0.0
 23
0.0
 33
0.0
 16
1.0
 26
0.0
 36
0.0
 17
0.0
 27
1.0
 37
0.0
 76
     0
330
1F
331
94
  0
LAYOUT
  5
59
102
{ACAD_REACTORS
330
1A
102
}
330
1A
100
AcDbPlotSettings
  1

  2
None
  4

  6

 40
0.0
 41
0.0
 42
0.0
 43
0.0
 44
0.0
 45
0.0
 46
0.0
 47
0.0
 48
0.0
 49
0.0
140
0.0
141
0.0
142
1.0
143
1.0
 70
   688
 72
     0
 73
     0
 74
     5
  7

 75
    16
 76
     0
 77
     2
 78
   300
147
1.0
148
0.0
149
0.0
100
AcDbLayout
  1
Sheet1
 70
     1
 71
     1
 10
0.0
 20
0.0
 11
12.0
 21
9.0
 12
0.0
 22
0.0
 32
0.0
 14
0.0
 24
0.0
 34
0.0
 15
0.0
 25
0.0
 35
0.0
146
0.0
 13
0.0
 23
0.0
 33
0.0
 16
1.0
 26
0.0
 36
0.0
 17
0.0
 27
1.0
 37
0.0
 76
     0
330
58
  0
LAYOUT
  5
5E
102
{ACAD_REACTORS
330
1A
102
}
330
1A
100
AcDbPlotSettings
  1

  2
None
  4

  6

 40
0.0
 41
0.0
 42
0.0
 43
0.0
 44
0.0
 45
0.0
 46
0.0
 47
0.0
 48
0.0
 49
0.0
140
0.0
141
0.0
142
1.0
143
1.0
 70
   688
 72
     0
 73
     0
 74
     5
  7

 75
    16
 76
     0
 77
     2
 78
   300
147
1.0
148
0.0
149
0.0
100
AcDbLayout
  1
Sheet2
 70
     1
 71
     2
 10
0.0
 20
0.0
 11
12.0
 21
9.0
 12
0.0
 22
0.0
 32
0.0
 14
0.0
 24
0.0
 34
0.0
 15
0.0
 25
0.0
 35
0.0
146
0.0
 13
0.0
 23
0.0
 33
0.0
 16
1.0
 26
0.0
 36
0.0
 17
0.0
 27
1.0
 37
0.0
 76
     0
330
5D
  0
MATERIAL
  5
E2
102
{ACAD_REACTORS
330
72
102
}
330
72
100
AcDbMaterial
  1
ByBlock
 72
     1
 94
      127
  0
MATERIAL
  5
96
102
{ACAD_REACTORS
330
72
102
}
330
72
100
AcDbMaterial
  1
ByLayer
 72
     1
 94
       63
  0
MATERIAL
  5
98
102
{ACAD_REACTORS
330
72
102
}
330
72
100
AcDbMaterial
  1
Global
 72
     1
 94
       63
  0
MLEADERSTYLE
  5
124
102
{ACAD_REACTORS
330
B5
102
}
330
B5
100
AcDbMLeaderStyle
179
     2
170
     2
171
     1
172
     0
 90
        2
 40
0.0
 41
0.0
173
     1
 91
-1056964608
340
14
 92
       -2
290
     1
 42
0.09
291
     1
 43
0.36
  3
Standard
341
0
 44
0.18
300

342
11
174
     1
178
     6
175
     1
176
     0
 93
-1056964608
 45
0.18
292
     0
297
     0
 46
0.18
343
0
 94
-1056964608
 47
1.0
 49
1.0
140
1.0
293
     1
141
0.0
294
     1
177
     0
142
1.0
295
     0
296
     0
143
0.125
271
     0
272
     9
273
     9
298
     0
  0
MLINESTYLE
  5
18
102
{ACAD_REACTORS
330
17
102
}
330
17
100
AcDbMlineStyle
  2
STANDARD
 70
     0
  3

 62
   256
 51
90.0
 52
90.0
 71
     2
 49
0.5
 62
   256
  6
BYLAYER
 49
-0.5
 62
   256
  6
BYLAYER
  0
ACDBPLACEHOLDER
  5
F
102
{ACAD_REACTORS
330
E
102
}
330
E
  0
SCALE
  5
5B4
102
{ACAD_REACTORS
330
B6
102
}
330
B6
100
AcDbScale
 70
     0
300
1:1_XREF_XREF
140
1.0
141
1.0
290
     1
  0
SCALE
  5
B7
102
{ACAD_REACTORS
330
B6
102
}
330
B6
100
AcDbScale
 70
     0
300
1:1
140
1.0
141
1.0
290
     1
  0
SCALE
  5
B8
102
{ACAD_REACTORS
330
B6
102
}
330
B6
100
AcDbScale
 70
     0
300
1:2
140
1.0
141
2.0
290
     0
  0
SCALE
  5
B9
102
{ACAD_REACTORS
330
B6
102
}
330
B6
100
AcDbScale
 70
     0
300
1:4
140
1.0
141
4.0
290
     0
  0
SCALE
  5
BA
102
{ACAD_REACTORS
330
B6
102
}
330
B6
100
AcDbScale
 70
     0
300
1:5
140
1.0
141
5.0
290
     0
  0
SCALE
  5
BB
102
{ACAD_REACTORS
330
B6
102
}
330
B6
100
AcDbScale
 70
     0
300
1:8
140
1.0
141
8.0
290
     0
  0
SCALE
  5
BC
102
{ACAD_REACTORS
330
B6
102
}
330
B6
100
AcDbScale
 70
     0
300
1:10
140
1.0
141
10.0
290
     0
  0
SCALE
  5
BD
102
{ACAD_REACTORS
330
B6
102
}
330
B6
100
AcDbScale
 70
     0
300
1:16
140
1.0
141
16.0
290
     0
  0
SCALE
  5
BE
102
{ACAD_REACTORS
330
B6
102
}
330
B6
100
AcDbScale
 70
     0
300
1:20
140
1.0
141
20.0
290
     0
  0
SCALE
  5
BF
102
{ACAD_REACTORS
330
B6
102
}
330
B6
100
AcDbScale
 70
     0
300
1:30
140
1.0
141
30.0
290
     0
  0
SCALE
  5
C0
102
{ACAD_REACTORS
330
B6
102
}
330
B6
100
AcDbScale
 70
     0
300
1:40
140
1.0
141
40.0
290
     0
  0
SCALE
  5
C1
102
{ACAD_REACTORS
330
B6
102
}
330
B6
100
AcDbScale
 70
     0
300
1:50
140
1.0
141
50.0
290
     0
  0
SCALE
  5
C2
102
{ACAD_REACTORS
330
B6
102
}
330
B6
100
AcDbScale
 70
     0
300
1:100
140
1.0
141
100.0
290
     0
  0
SCALE
  5
C3
102
{ACAD_REACTORS
330
B6
102
}
330
B6
100
AcDbScale
 70
     0
300
2:1
140
2.0
141
1.0
290
     0
  0
SCALE
  5
C4
102
{ACAD_REACTORS
330
B6
102
}
330
B6
100
AcDbScale
 70
     0
300
4:1
140
4.0
141
1.0
290
     0
  0
SCALE
  5
C5
102
{ACAD_REACTORS
330
B6
102
}
330
B6
100
AcDbScale
 70
     0
300
8:1
140
8.0
141
1.0
290
     0
  0
SCALE
  5
C6
102
{ACAD_REACTORS
330
B6
102
}
330
B6
100
AcDbScale
 70
     0
300
10:1
140
10.0
141
1.0
290
     0
  0
SCALE
  5
C7
102
{ACAD_REACTORS
330
B6
102
}
330
B6
100
AcDbScale
 70
     0
300
100:1
140
100.0
141
1.0
290
     0
  0
SCALE
  5
C8
102
{ACAD_REACTORS
330
B6
102
}
330
B6
100
AcDbScale
 70
     0
300
1/128" = 1'-0"
140
0.0078125
141
12.0
290
     0
  0
SCALE
  5
C9
102
{ACAD_REACTORS
330
B6
102
}
330
B6
100
AcDbScale
 70
     0
300
1/64" = 1'-0"
140
0.015625
141
12.0
290
     0
  0
SCALE
  5
CA
102
{ACAD_REACTORS
330
B6
102
}
330
B6
100
AcDbScale
 70
     0
300
1/32" = 1'-0"
140
0.03125
141
12.0
290
     0
  0
SCALE
  5
CB
102
{ACAD_REACTORS
330
B6
102
}
330
B6
100
AcDbScale
 70
     0
300
1/16" = 1'-0"
140
0.0625
141
12.0
290
     0
  0
SCALE
  5
CC
102
{ACAD_REACTORS
330
B6
102
}
330
B6
100
AcDbScale
 70
     0
300
3/32" = 1'-0"
140
0.09375
141
12.0
290
     0
  0
SCALE
  5
CD
102
{ACAD_REACTORS
330
B6
102
}
330
B6
100
AcDbScale
 70
     0
300
1/8" = 1'-0"
140
0.125
141
12.0
290
     0
  0
SCALE
  5
CE
102
{ACAD_REACTORS
330
B6
102
}
330
B6
100
AcDbScale
 70
     0
300
3/16" = 1'-0"
140
0.1875
141
12.0
290
     0
  0
SCALE
  5
CF
102
{ACAD_REACTORS
330
B6
102
}
330
B6
100
AcDbScale
 70
     0
300
1/4" = 1'-0"
140
0.25
141
12.0
290
     0
  0
SCALE
  5
D0
102
{ACAD_REACTORS
330
B6
102
}
330
B6
100
AcDbScale
 70
     0
300
3/8" = 1'-0"
140
0.375
141
12.0
290
     0
  0
SCALE
  5
D1
102
{ACAD_REACTORS
330
B6
102
}
330
B6
100
AcDbScale
 70
     0
300
1/2" = 1'-0"
140
0.5
141
12.0
290
     0
  0
SCALE
  5
D2
102
{ACAD_REACTORS
330
B6
102
}
330
B6
100
AcDbScale
 70
     0
300
3/4" = 1'-0"
140
0.75
141
12.0
290
     0
  0
SCALE
  5
D3
102
{ACAD_REACTORS
330
B6
102
}
330
B6
100
AcDbScale
 70
     0
300
1" = 1'-0"
140
1.0
141
12.0
290
     0
  0
SCALE
  5
D4
102
{ACAD_REACTORS
330
B6
102
}
330
B6
100
AcDbScale
 70
     0
300
1-1/2" = 1'-0"
140
1.5
141
12.0
290
     0
  0
SCALE
  5
D5
102
{ACAD_REACTORS
330
B6
102
}
330
B6
100
AcDbScale
 70
     0
300
3" = 1'-0"
140
3.0
141
12.0
290
     0
  0
SCALE
  5
D6
102
{ACAD_REACTORS
330
B6
102
}
330
B6
100
AcDbScale
 70
     0
300
6" = 1'-0"
140
6.0
141
12.0
290
     0
  0
SCALE
  5
D7
102
{ACAD_REACTORS
330
B6
102
}
330
B6
100
AcDbScale
 70
     0
300
1'-0" = 1'-0"
140
12.0
141
12.0
290
     0
  0
TABLESTYLE
  5
87
102
{ACAD_REACTORS
330
86
102
}
102
{ACAD_XDICTIONARY
360
7BD
102
}
330
86
100
AcDbTableStyle
  3
Standard
 70
     0
 71
     0
 40
0.06
 41
0.06
280
     0
281
     0
  7
Standard
140
0.18
170
     2
 62
     0
 63
   257
283
     0
 90
      512
 91
        0
  1

274
    -2
284
     1
 64
     0
275
    -2
285
     1
 65
     0
276
    -2
286
     1
 66
     0
277
    -2
287
     1
 67
     0
278
    -2
288
     1
 68
     0
279
    -2
289
     1
 69
     0
  7
Standard
140
0.25
170
     5
 62
     0
 63
   257
283
     0
 90
      512
 91
        0
  1

274
    -2
284
     1
 64
     0
275
    -2
285
     1
 65
     0
276
    -2
286
     1
 66
     0
277
    -2
287
     1
 67
     0
278
    -2
288
     1
 68
     0
279
    -2
289
     1
 69
     0
  7
Standard
140
0.18
170
     5
 62
     0
 63
   257
283
     0
 90
      512
 91
        0
  1

274
    -2
284
     1
 64
     0
275
    -2
285
     1
 65
     0
276
    -2
286
     1
 66
     0
277
    -2
287
     1
 67
     0
278
    -2
288
     1
 68
     0
279
    -2
289
     1
 69
     0
  0
VISUALSTYLE
  5
9F
102
{ACAD_REACTORS
330
99
102
}
330
99
100
AcDbVisualStyle
  2
2dWireframe
 70
     4
177
     3
291
     0
 70
    58
 90
        0
176
     1
 90
        2
176
     1
 90
        1
176
     1
 90
        0
176
     1
 40
-0.6
176
     1
 40
-30.0
176
     1
 62
     7
420
 16777215
176
     1
 90
        1
176
     1
 90
        4
176
     1
 62
     7
176
     1
 62
   257
176
     1
 90
        1
176
     1
 90
        1
176
     1
 40
1.0
176
     1
 90
        0
176
     1
 62
   257
176
     1
 40
1.0
176
     1
 90
        1
176
     1
 90
        6
176
     1
 90
        2
176
     1
 62
     7
176
     1
 90
        5
176
     1
 90
        0
176
     1
 90
        0
176
     1
290
     0
176
     1
 90
        1
176
     1
 40
0.0
176
     1
 90
        0
176
     1
290
     1
176
     1
290
     1
176
     1
290
     0
176
     1
290
     0
176
     1
290
     0
176
     1
290
     0
176
     1
290
     0
176
     1
290
     0
176
     1
290
     0
176
     1
 90
       50
176
     1
 40
0.0
176
     1
 40
1.0
176
     1
 90
        0
176
     1
 62
   178
420
        0
176
     1
 90
       50
176
     1
 90
        3
176
     1
 62
     5
420
      255
176
     1
290
     0
176
     1
 90
       50
176
     1
 90
       50
176
     1
 90
       50
176
     1
290
     0
176
     1
 90
       50
176
     1
 62
   256
176
     0
 40
1.0
176
     0
 90
        2
176
     1
  1
strokes_ogs.tif
176
     1
290
     0
176
     1
 40
1.0
176
     1
 40
1.0
176
     1
  0
VISUALSTYLE
  5
A1
102
{ACAD_REACTORS
330
99
102
}
330
99
100
AcDbVisualStyle
  2
3D Hidden
 70
     6
177
     3
291
     0
 70
    58
 90
        1
176
     1
 90
        2
176
     1
 90
        2
176
     1
 90
        0
176
     1
 40
-0.6
176
     1
 40
-30.0
176
     1
 62
     7
420
 16777215
176
     1
 90
        2
176
     1
 90
        2
176
     1
 62
     7
176
     1
 62
   257
176
     1
 90
        2
176
     1
 90
        1
176
     1
 40
40.0
176
     1
 90
        0
176
     1
 62
   257
176
     1
 40
1.0
176
     1
 90
        1
176
     1
 90
        6
176
     1
 90
        2
176
     1
 62
     7
176
     1
 90
        3
176
     1
 90
        0
176
     1
 90
        0
176
     1
290
     0
176
     1
 90
        1
176
     1
 40
0.0
176
     1
 90
        0
176
     1
290
     0
176
     1
290
     1
176
     1
290
     1
176
     1
290
     0
176
     1
290
     0
176
     1
290
     0
176
     1
290
     0
176
     1
290
     0
176
     1
290
     0
176
     1
 90
       50
176
     1
 40
0.0
176
     1
 40
1.0
176
     1
 90
        0
176
     1
 62
   178
420
        0
176
     1
 90
       50
176
     1
 90
        3
176
     1
 62
     5
420
      255
176
     1
290
     0
176
     1
 90
       50
176
     1
 90
       50
176
     1
 90
       50
176
     1
290
     0
176
     1
 90
       50
176
     1
 62
   256
176
     0
 40
1.0
176
     0
 90
        2
176
     1
  1
strokes_ogs.tif
176
     1
290
     0
176
     1
 40
1.0
176
     1
 40
1.0
176
     1
  0
VISUALSTYLE
  5
A0
102
{ACAD_REACTORS
330
99
102
}
330
99
100
AcDbVisualStyle
  2
3dWireframe
 70
     5
177
     3
291
     0
 70
    58
 90
        0
176
     1
 90
        2
176
     1
 90
        1
176
     1
 90
        0
176
     1
 40
-0.6
176
     1
 40
-30.0
176
     1
 62
     7
420
 16777215
176
     1
 90
        1
176
     1
 90
        4
176
     1
 62
     7
176
     1
 62
   257
176
     1
 90
        1
176
     1
 90
        1
176
     1
 40
1.0
176
     1
 90
        0
176
     1
 62
   257
176
     1
 40
1.0
176
     1
 90
        1
176
     1
 90
        6
176
     1
 90
        2
176
     1
 62
     7
176
     1
 90
        5
176
     1
 90
        0
176
     1
 90
        0
176
     1
290
     0
176
     1
 90
        1
176
     1
 40
0.0
176
     1
 90
        0
176
     1
290
     0
176
     1
290
     1
176
     1
290
     1
176
     1
290
     0
176
     1
290
     0
176
     1
290
     0
176
     1
290
     0
176
     1
290
     0
176
     1
290
     0
176
     1
 90
       50
176
     1
 40
0.0
176
     1
 40
1.0
176
     1
 90
        0
176
     1
 62
   178
420
        0
176
     1
 90
       50
176
     1
 90
        3
176
     1
 62
     5
420
      255
176
     1
290
     0
176
     1
 90
       50
176
     1
 90
       50
176
     1
 90
       50
176
     1
290
     0
176
     1
 90
       50
176
     1
 62
   256
176
     0
 40
1.0
176
     0
 90
        2
176
     1
  1
strokes_ogs.tif
176
     1
290
     0
176
     1
 40
1.0
176
     1
 40
1.0
176
     1
  0
VISUALSTYLE
  5
9E
102
{ACAD_REACTORS
330
99
102
}
330
99
100
AcDbVisualStyle
  2
Basic
 70
     7
177
     3
291
     1
 70
    58
 90
        1
176
     1
 90
        0
176
     1
 90
        1
176
     1
 90
        0
176
     1
 40
-0.6
176
     1
 40
-30.0
176
     1
 62
     7
420
 16777215
176
     1
 90
        0
176
     1
 90
        4
176
     1
 62
     7
176
     1
 62
   257
176
     1
 90
        1
176
     1
 90
        1
176
     1
 40
1.0
176
     1
 90
        8
176
     1
 62
     7
176
     1
 40
1.0
176
     1
 90
        1
176
     1
 90
        6
176
     1
 90
        2
176
     1
 62
     7
176
     1
 90
        5
176
     1
 90
        0
176
     1
 90
        0
176
     1
290
     0
176
     1
 90
        1
176
     1
 40
0.0
176
     1
 90
        0
176
     1
290
     0
176
     1
290
     1
176
     1
290
     1
176
     1
290
     0
176
     1
290
     0
176
     1
290
     0
176
     1
290
     0
176
     1
290
     0
176
     1
290
     0
176
     1
 90
       50
176
     1
 40
0.0
176
     1
 40
1.0
176
     1
 90
        0
176
     1
 62
   178
420
        0
176
     1
 90
       50
176
     1
 90
        3
176
     1
 62
     5
420
      255
176
     1
290
     0
176
     1
 90
       50
176
     1
 90
       50
176
     1
 90
       50
176
     1
290
     0
176
     1
 90
       50
176
     1
 62
   256
176
     0
 40
1.0
176
     0
 90
        2
176
     1
  1
strokes_ogs.tif
176
     1
290
     0
176
     1
 40
1.0
176
     1
 40
1.0
176
     1
  0
VISUALSTYLE
  5
A5
102
{ACAD_REACTORS
330
99
102
}
330
99
100
AcDbVisualStyle
  2
Brighten
 70
    12
177
     3
291
     1
 70
    58
 90
        2
176
     1
 90
        2
176
     1
 90
        1
176
     1
 90
        0
176
     1
 40
-0.6
176
     1
 40
-30.0
176
     1
 62
     7
420
 16777215
176
     1
 90
        1
176
     1
 90
        4
176
     1
 62
     7
176
     1
 62
   257
176
     1
 90
        1
176
     1
 90
        1
176
     1
 40
1.0
176
     1
 90
        8
176
     1
 62
     7
176
     1
 40
1.0
176
     1
 90
        1
176
     1
 90
        6
176
     1
 90
        2
176
     1
 62
     7
176
     1
 90
        5
176
     1
 90
        0
176
     1
 90
        0
176
     1
290
     0
176
     1
 90
        1
176
     1
 40
50.0
176
     1
 90
        0
176
     1
290
     0
176
     1
290
     1
176
     1
290
     1
176
     1
290
     0
176
     1
290
     0
176
     1
290
     0
176
     1
290
     0
176
     1
290
     0
176
     1
290
     0
176
     1
 90
       50
176
     1
 40
0.0
176
     1
 40
1.0
176
     1
 90
        0
176
     1
 62
   178
420
        0
176
     1
 90
       50
176
     1
 90
        3
176
     1
 62
     5
420
      255
176
     1
290
     0
176
     1
 90
       50
176
     1
 90
       50
176
     1
 90
       50
176
     1
290
     0
176
     1
 90
       50
176
     1
 62
   256
176
     0
 40
1.0
176
     0
 90
        2
176
     1
  1
strokes_ogs.tif
176
     1
290
     0
176
     1
 40
1.0
176
     1
 40
1.0
176
     1
  0
VISUALSTYLE
  5
A9
102
{ACAD_REACTORS
330
99
102
}
330
99
100
AcDbVisualStyle
  2
ColorChange
 70
    16
177
     3
291
     1
 70
    58
 90
        2
176
     1
 90
        2
176
     1
 90
        3
176
     1
 90
        0
176
     1
 40
-0.6
176
     1
 40
-30.0
176
     1
 62
     8
420
  8421504
176
     1
 90
        1
176
     1
 90
        4
176
     1
 62
     7
176
     1
 62
   257
176
     1
 90
        1
176
     1
 90
        1
176
     1
 40
1.0
176
     1
 90
        8
176
     1
 62
     8
420
  8421504
176
     1
 40
1.0
176
     1
 90
        1
176
     1
 90
        6
176
     1
 90
        2
176
     1
 62
     7
176
     1
 90
        5
176
     1
 90
        0
176
     1
 90
        0
176
     1
290
     0
176
     1
 90
        1
176
     1
 40
0.0
176
     1
 90
        0
176
     1
290
     0
176
     1
290
     1
176
     1
290
     1
176
     1
290
     0
176
     1
290
     0
176
     1
290
     0
176
     1
290
     0
176
     1
290
     0
176
     1
290
     0
176
     1
 90
       50
176
     1
 40
0.0
176
     1
 40
1.0
176
     1
 90
        0
176
     1
 62
   178
420
        0
176
     1
 90
       50
176
     1
 90
        3
176
     1
 62
     5
420
      255
176
     1
290
     0
176
     1
 90
       50
176
     1
 90
       50
176
     1
 90
       50
176
     1
290
     0
176
     1
 90
       50
176
     1
 62
   256
176
     0
 40
1.0
176
     0
 90
        2
176
     1
  1
strokes_ogs.tif
176
     1
290
     0
176
     1
 40
1.0
176
     1
 40
1.0
176
     1
  0
VISUALSTYLE
  5
A2
102
{ACAD_REACTORS
330
99
102
}
330
99
100
AcDbVisualStyle
  2
Conceptual
 70
     9
177
     3
291
     0
 70
    58
 90
        3
176
     1
 90
        2
176
     1
 90
        1
176
     1
 90
        0
176
     1
 40
-0.6
176
     1
 40
-30.0
176
     1
 62
     7
420
 16777215
176
     1
 90
        2
176
     1
 90
        2
176
     1
 62
     7
176
     1
 62
   257
176
     1
 90
        1
176
     1
 90
        1
176
     1
 40
40.0
176
     1
 90
        8
176
     1
 62
     7
176
     1
 40
1.0
176
     1
 90
        1
176
     1
 90
        6
176
     1
 90
        2
176
     1
 62
     7
176
     1
 90
        3
176
     1
 90
        0
176
     1
 90
        0
176
     1
290
     0
176
     1
 90
        1
176
     1
 40
0.0
176
     1
 90
        0
176
     1
290
     0
176
     1
290
     1
176
     1
290
     1
176
     1
290
     0
176
     1
290
     0
176
     1
290
     0
176
     1
290
     0
176
     1
290
     0
176
     1
290
     0
176
     1
 90
       50
176
     1
 40
0.0
176
     1
 40
1.0
176
     1
 90
        0
176
     1
 62
   178
420
        0
176
     1
 90
       50
176
     1
 90
        3
176
     1
 62
     5
420
      255
176
     1
290
     0
176
     1
 90
       50
176
     1
 90
       50
176
     1
 90
       50
176
     1
290
     0
176
     1
 90
       50
176
     1
 62
   256
176
     0
 40
1.0
176
     0
 90
        2
176
     1
  1
strokes_ogs.tif
176
     1
290
     0
176
     1
 40
1.0
176
     1
 40
1.0
176
     1
  0
VISUALSTYLE
  5
A4
102
{ACAD_REACTORS
330
99
102
}
330
99
100
AcDbVisualStyle
  2
Dim
 70
    11
177
     3
291
     1
 70
    58
 90
        2
176
     1
 90
        2
176
     1
 90
        1
176
     1
 90
        0
176
     1
 40
-0.6
176
     1
 40
-30.0
176
     1
 62
     7
420
 16777215
176
     1
 90
        1
176
     1
 90
        4
176
     1
 62
     7
176
     1
 62
   257
176
     1
 90
        1
176
     1
 90
        1
176
     1
 40
1.0
176
     1
 90
        8
176
     1
 62
     7
176
     1
 40
1.0
176
     1
 90
        1
176
     1
 90
        6
176
     1
 90
        2
176
     1
 62
     7
176
     1
 90
        5
176
     1
 90
        0
176
     1
 90
        0
176
     1
290
     0
176
     1
 90
        1
176
     1
 40
-50.0
176
     1
 90
        0
176
     1
290
     0
176
     1
290
     1
176
     1
290
     1
176
     1
290
     0
176
     1
290
     0
176
     1
290
     0
176
     1
290
     0
176
     1
290
     0
176
     1
290
     0
176
     1
 90
       50
176
     1
 40
0.0
176
     1
 40
1.0
176
     1
 90
        0
176
     1
 62
   178
420
        0
176
     1
 90
       50
176
     1
 90
        3
176
     1
 62
     5
420
      255
176
     1
290
     0
176
     1
 90
       50
176
     1
 90
       50
176
     1
 90
       50
176
     1
290
     0
176
     1
 90
       50
176
     1
 62
   256
176
     0
 40
1.0
176
     0
 90
        2
176
     1
  1
strokes_ogs.tif
176
     1
290
     0
176
     1
 40
1.0
176
     1
 40
1.0
176
     1
  0
VISUALSTYLE
  5
E7
102
{ACAD_REACTORS
330
99
102
}
330
99
100
AcDbVisualStyle
  2
EdgeColorOff
 70
    22
177
     3
291
     1
 70
    58
 90
        2
176
     0
 90
        2
176
     0
 90
        0
176
     0
 90
        0
176
     0
 40
0.6
176
     0
 40
30.0
176
     0
 62
     7
420
 16777215
176
     0
 90
        1
176
     0
 90
        4
176
     0
 62
     7
176
     0
 62
   257
176
     0
 90
        1
176
     0
 90
        1
176
     0
 40
1.0
176
     0
 90
        8
176
     2
 62
     7
176
     0
 40
1.0
176
     0
 90
        1
176
     0
 90
        6
176
     0
 90
        2
176
     0
 62
     7
176
     0
 90
        5
176
     0
 90
        0
176
     0
 90
        0
176
     0
290
     0
176
     0
 90
        1
176
     0
 40
0.0
176
     0
 90
        0
176
     0
290
     0
176
     0
290
     1
176
     0
290
     1
176
     0
290
     0
176
     0
290
     0
176
     0
290
     0
176
     0
290
     0
176
     0
290
     0
176
     0
290
     0
176
     0
 90
       50
176
     0
 40
0.0
176
     0
 40
1.0
176
     0
 90
        0
176
     0
 62
   178
420
        0
176
     0
 90
       50
176
     0
 90
        3
176
     0
 62
     5
420
      255
176
     0
290
     0
176
     0
 90
       50
176
     0
 90
       50
176
     0
 90
       50
176
     0
290
     0
176
     0
 90
       50
176
     0
 62
   256
176
     0
 40
1.0
176
     0
 90
        2
176
     0
  1
strokes_ogs.tif
176
     0
290
     0
176
     0
 40
1.0
176
     0
 40
1.0
176
     0
  0
VISUALSTYLE
  5
A8
102
{ACAD_REACTORS
330
99
102
}
330
99
100
AcDbVisualStyle
  2
Facepattern
 70
    15
177
     3
291
     1
 70
    58
 90
        2
176
     1
 90
        2
176
     1
 90
        1
176
     1
 90
        0
176
     1
 40
-0.6
176
     1
 40
-30.0
176
     1
 62
     7
420
 16777215
176
     1
 90
        1
176
     1
 90
        4
176
     1
 62
     7
176
     1
 62
   257
176
     1
 90
        1
176
     1
 90
        1
176
     1
 40
1.0
176
     1
 90
        8
176
     1
 62
     7
176
     1
 40
1.0
176
     1
 90
        1
176
     1
 90
        6
176
     1
 90
        2
176
     1
 62
     7
176
     1
 90
        5
176
     1
 90
        0
176
     1
 90
        0
176
     1
290
     0
176
     1
 90
        1
176
     1
 40
0.0
176
     1
 90
        0
176
     1
290
     0
176
     1
290
     1
176
     1
290
     1
176
     1
290
     0
176
     1
290
     0
176
     1
290
     0
176
     1
290
     0
176
     1
290
     0
176
     1
290
     0
176
     1
 90
       50
176
     1
 40
0.0
176
     1
 40
1.0
176
     1
 90
        0
176
     1
 62
   178
420
        0
176
     1
 90
       50
176
     1
 90
        3
176
     1
 62
     5
420
      255
176
     1
290
     0
176
     1
 90
       50
176
     1
 90
       50
176
     1
 90
       50
176
     1
290
     0
176
     1
 90
       50
176
     1
 62
   256
176
     0
 40
1.0
176
     0
 90
        2
176
     1
  1
strokes_ogs.tif
176
     1
290
     0
176
     1
 40
1.0
176
     1
 40
1.0
176
     1
  0
VISUALSTYLE
  5
9A
102
{ACAD_REACTORS
330
99
102
}
330
99
100
AcDbVisualStyle
  2
Flat
 70
     0
177
     3
291
     1
 70
    58
 90
        2
176
     1
 90
        1
176
     1
 90
        1
176
     1
 90
        2
176
     1
 40
-0.6
176
     1
 40
30.0
176
     1
 62
     7
420
 16777215
176
     1
 90
        0
176
     1
 90
        4
176
     1
 62
     7
176
     1
 62
   257
176
     1
 90
        1
176
     1
 90
        1
176
     1
 40
1.0
176
     1
 90
        8
176
     1
 62
     7
176
     1
 40
1.0
176
     1
 90
        1
176
     1
 90
        6
176
     1
 90
        2
176
     1
 62
     7
176
     1
 90
        5
176
     1
 90
        0
176
     1
 90
        0
176
     1
290
     0
176
     1
 90
        1
176
     1
 40
0.0
176
     1
 90
        0
176
     1
290
     0
176
     1
290
     1
176
     1
290
     1
176
     1
290
     0
176
     1
290
     0
176
     1
290
     0
176
     1
290
     0
176
     1
290
     0
176
     1
290
     0
176
     1
 90
       50
176
     1
 40
0.0
176
     1
 40
1.0
176
     1
 90
        0
176
     1
 62
   178
420
        0
176
     1
 90
       50
176
     1
 90
        3
176
     1
 62
     5
420
      255
176
     1
290
     0
176
     1
 90
       50
176
     1
 90
       50
176
     1
 90
       50
176
     1
290
     0
176
     1
 90
       50
176
     1
 62
   256
176
     0
 40
1.0
176
     0
 90
        2
176
     1
  1
strokes_ogs.tif
176
     1
290
     0
176
     1
 40
1.0
176
     1
 40
1.0
176
     1
  0
VISUALSTYLE
  5
9B
102
{ACAD_REACTORS
330
99
102
}
330
99
100
AcDbVisualStyle
  2
FlatWithEdges
 70
     1
177
     3
291
     1
 70
    58
 90
        2
176
     1
 90
        1
176
     1
 90
        1
176
     1
 90
        2
176
     1
 40
-0.6
176
     1
 40
30.0
176
     1
 62
     7
420
 16777215
176
     1
 90
        1
176
     1
 90
        4
176
     1
 62
     7
176
     1
 62
   257
176
     1
 90
        1
176
     1
 90
        1
176
     1
 40
1.0
176
     1
 90
        0
176
     1
 62
   257
176
     1
 40
1.0
176
     1
 90
        1
176
     1
 90
        6
176
     1
 90
        2
176
     1
 62
     7
176
     1
 90
        5
176
     1
 90
        0
176
     1
 90
        0
176
     1
290
     0
176
     1
 90
        1
176
     1
 40
0.0
176
     1
 90
        0
176
     1
290
     0
176
     1
290
     1
176
     1
290
     1
176
     1
290
     0
176
     1
290
     0
176
     1
290
     0
176
     1
290
     0
176
     1
290
     0
176
     1
290
     0
176
     1
 90
       50
176
     1
 40
0.0
176
     1
 40
1.0
176
     1
 90
        0
176
     1
 62
   178
420
        0
176
     1
 90
       50
176
     1
 90
        3
176
     1
 62
     5
420
      255
176
     1
290
     0
176
     1
 90
       50
176
     1
 90
       50
176
     1
 90
       50
176
     1
290
     0
176
     1
 90
       50
176
     1
 62
   256
176
     0
 40
1.0
176
     0
 90
        2
176
     1
  1
strokes_ogs.tif
176
     1
290
     0
176
     1
 40
1.0
176
     1
 40
1.0
176
     1
  0
VISUALSTYLE
  5
9C
102
{ACAD_REACTORS
330
99
102
}
330
99
100
AcDbVisualStyle
  2
Gouraud
 70
     2
177
     3
291
     1
 70
    58
 90
        2
176
     1
 90
        2
176
     1
 90
        1
176
     1
 90
        2
176
     1
 40
-0.6
176
     1
 40
30.0
176
     1
 62
     7
420
 16777215
176
     1
 90
        0
176
     1
 90
        4
176
     1
 62
     7
176
     1
 62
   257
176
     1
 90
        1
176
     1
 90
        1
176
     1
 40
1.0
176
     1
 90
        0
176
     1
 62
     7
176
     1
 40
1.0
176
     1
 90
        1
176
     1
 90
        6
176
     1
 90
        2
176
     1
 62
     7
176
     1
 90
        5
176
     1
 90
        0
176
     1
 90
        0
176
     1
290
     0
176
     1
 90
        1
176
     1
 40
0.0
176
     1
 90
        0
176
     1
290
     0
176
     1
290
     1
176
     1
290
     1
176
     1
290
     0
176
     1
290
     0
176
     1
290
     0
176
     1
290
     0
176
     1
290
     0
176
     1
290
     0
176
     1
 90
       50
176
     1
 40
0.0
176
     1
 40
1.0
176
     1
 90
        0
176
     1
 62
   178
420
        0
176
     1
 90
       50
176
     1
 90
        3
176
     1
 62
     5
420
      255
176
     1
290
     0
176
     1
 90
       50
176
     1
 90
       50
176
     1
 90
       50
176
     1
290
     0
176
     1
 90
       50
176
     1
 62
   256
176
     0
 40
1.0
176
     0
 90
        2
176
     1
  1
strokes_ogs.tif
176
     1
290
     0
176
     1
 40
1.0
176
     1
 40
1.0
176
     1
  0
VISUALSTYLE
  5
9D
102
{ACAD_REACTORS
330
99
102
}
330
99
100
AcDbVisualStyle
  2
GouraudWithEdges
 70
     3
177
     3
291
     1
 70
    58
 90
        2
176
     1
 90
        2
176
     1
 90
        1
176
     1
 90
        2
176
     1
 40
-0.6
176
     1
 40
30.0
176
     1
 62
     7
420
 16777215
176
     1
 90
        1
176
     1
 90
        4
176
     1
 62
     7
176
     1
 62
   257
176
     1
 90
        1
176
     1
 90
        1
176
     1
 40
1.0
176
     1
 90
        0
176
     1
 62
   257
176
     1
 40
1.0
176
     1
 90
        1
176
     1
 90
        6
176
     1
 90
        2
176
     1
 62
     7
176
     1
 90
        5
176
     1
 90
        0
176
     1
 90
        0
176
     1
290
     0
176
     1
 90
        1
176
     1
 40
0.0
176
     1
 90
        0
176
     1
290
     0
176
     1
290
     1
176
     1
290
     1
176
     1
290
     0
176
     1
290
     0
176
     1
290
     0
176
     1
290
     0
176
     1
290
     0
176
     1
290
     0
176
     1
 90
       50
176
     1
 40
0.0
176
     1
 40
1.0
176
     1
 90
        0
176
     1
 62
   178
420
        0
176
     1
 90
       50
176
     1
 90
        3
176
     1
 62
     5
420
      255
176
     1
290
     0
176
     1
 90
       50
176
     1
 90
       50
176
     1
 90
       50
176
     1
290
     0
176
     1
 90
       50
176
     1
 62
   256
176
     0
 40
1.0
176
     0
 90
        2
176
     1
  1
strokes_ogs.tif
176
     1
290
     0
176
     1
 40
1.0
176
     1
 40
1.0
176
     1
  0
VISUALSTYLE
  5
E4
102
{ACAD_REACTORS
330
99
102
}
330
99
100
AcDbVisualStyle
  2
Hidden
 70
     6
177
     3
291
     0
 70
    58
 90
        1
176
     1
 90
        2
176
     1
 90
        2
176
     1
 90
        0
176
     1
 40
0.6
176
     1
 40
30.0
176
     1
 62
     7
420
 16777215
176
     1
 90
        2
176
     1
 90
        2
176
     1
 62
     7
176
     1
 62
   257
176
     1
 90
        2
176
     1
 90
        1
176
     1
 40
40.0
176
     1
 90
        0
176
     1
 62
   257
176
     1
 40
1.0
176
     1
 90
        1
176
     1
 90
        6
176
     1
 90
        2
176
     1
 62
     7
176
     1
 90
        3
176
     1
 90
        0
176
     1
 90
        0
176
     1
290
     0
176
     1
 90
        1
176
     1
 40
0.0
176
     1
 90
        0
176
     1
290
     0
176
     1
290
     1
176
     1
290
     1
176
     1
290
     0
176
     1
290
     0
176
     1
290
     0
176
     1
290
     0
176
     1
290
     0
176
     1
290
     0
176
     1
 90
       50
176
     1
 40
0.0
176
     1
 40
1.0
176
     1
 90
        0
176
     1
 62
   178
420
        0
176
     1
 90
       50
176
     1
 90
        3
176
     1
 62
     5
420
      255
176
     1
290
     0
176
     1
 90
       50
176
     1
 90
       50
176
     1
 90
       50
176
     1
290
     0
176
     1
 90
       50
176
     1
 62
   256
176
     0
 40
1.0
176
     0
 90
        2
176
     1
  1
strokes_ogs.tif
176
     1
290
     0
176
     1
 40
1.0
176
     1
 40
1.0
176
     1
  0
VISUALSTYLE
  5
E5
102
{ACAD_REACTORS
330
99
102
}
330
99
100
AcDbVisualStyle
  2
JitterOff
 70
    20
177
     3
291
     1
 70
    58
 90
        2
176
     0
 90
        2
176
     0
 90
        0
176
     0
 90
        0
176
     0
 40
0.6
176
     0
 40
30.0
176
     0
 62
     7
420
 16777215
176
     0
 90
        1
176
     0
 90
        4
176
     0
 62
     7
176
     0
 62
   257
176
     0
 90
        1
176
     0
 90
        1
176
     0
 40
1.0
176
     0
 90
       10
176
     2
 62
     7
176
     0
 40
1.0
176
     0
 90
        1
176
     0
 90
        6
176
     0
 90
        2
176
     0
 62
     7
176
     0
 90
        5
176
     0
 90
        0
176
     0
 90
        0
176
     0
290
     0
176
     0
 90
        1
176
     0
 40
0.0
176
     0
 90
        0
176
     0
290
     0
176
     0
290
     1
176
     0
290
     1
176
     0
290
     0
176
     0
290
     0
176
     0
290
     0
176
     0
290
     0
176
     0
290
     0
176
     0
290
     0
176
     0
 90
       50
176
     0
 40
0.0
176
     0
 40
1.0
176
     0
 90
        0
176
     0
 62
   178
420
        0
176
     0
 90
       50
176
     0
 90
        3
176
     0
 62
     5
420
      255
176
     0
290
     0
176
     0
 90
       50
176
     0
 90
       50
176
     0
 90
       50
176
     0
290
     0
176
     0
 90
       50
176
     0
 62
   256
176
     0
 40
1.0
176
     0
 90
        2
176
     0
  1
strokes_ogs.tif
176
     0
290
     0
176
     0
 40
1.0
176
     0
 40
1.0
176
     0
  0
VISUALSTYLE
  5
A7
102
{ACAD_REACTORS
330
99
102
}
330
99
100
AcDbVisualStyle
  2
Linepattern
 70
    14
177
     3
291
     1
 70
    58
 90
        2
176
     1
 90
        2
176
     1
 90
        1
176
     1
 90
        0
176
     1
 40
-0.6
176
     1
 40
-30.0
176
     1
 62
     7
420
 16777215
176
     1
 90
        1
176
     1
 90
        4
176
     1
 62
     7
176
     1
 62
   257
176
     1
 90
        7
176
     1
 90
        7
176
     1
 40
1.0
176
     1
 90
        8
176
     1
 62
     7
176
     1
 40
1.0
176
     1
 90
        1
176
     1
 90
        6
176
     1
 90
        2
176
     1
 62
     7
176
     1
 90
        5
176
     1
 90
        0
176
     1
 90
        0
176
     1
290
     0
176
     1
 90
        1
176
     1
 40
0.0
176
     1
 90
        0
176
     1
290
     0
176
     1
290
     1
176
     1
290
     1
176
     1
290
     0
176
     1
290
     0
176
     1
290
     0
176
     1
290
     0
176
     1
290
     0
176
     1
290
     0
176
     1
 90
       50
176
     1
 40
0.0
176
     1
 40
1.0
176
     1
 90
        0
176
     1
 62
   178
420
        0
176
     1
 90
       50
176
     1
 90
        3
176
     1
 62
     5
420
      255
176
     1
290
     0
176
     1
 90
       50
176
     1
 90
       50
176
     1
 90
       50
176
     1
290
     0
176
     1
 90
       50
176
     1
 62
   256
176
     0
 40
1.0
176
     0
 90
        2
176
     1
  1
strokes_ogs.tif
176
     1
290
     0
176
     1
 40
1.0
176
     1
 40
1.0
176
     1
  0
VISUALSTYLE
  5
E6
102
{ACAD_REACTORS
330
99
102
}
330
99
100
AcDbVisualStyle
  2
OverhangOff
 70
    21
177
     3
291
     1
 70
    58
 90
        2
176
     0
 90
        2
176
     0
 90
        0
176
     0
 90
        0
176
     0
 40
0.6
176
     0
 40
30.0
176
     0
 62
     7
420
 16777215
176
     0
 90
        1
176
     0
 90
        4
176
     0
 62
     7
176
     0
 62
   257
176
     0
 90
        1
176
     0
 90
        1
176
     0
 40
1.0
176
     0
 90
        9
176
     2
 62
     7
176
     0
 40
1.0
176
     0
 90
        1
176
     0
 90
        6
176
     0
 90
        2
176
     0
 62
     7
176
     0
 90
        5
176
     0
 90
        0
176
     0
 90
        0
176
     0
290
     0
176
     0
 90
        1
176
     0
 40
0.0
176
     0
 90
        0
176
     0
290
     0
176
     0
290
     1
176
     0
290
     1
176
     0
290
     0
176
     0
290
     0
176
     0
290
     0
176
     0
290
     0
176
     0
290
     0
176
     0
290
     0
176
     0
 90
       50
176
     0
 40
0.0
176
     0
 40
1.0
176
     0
 90
        0
176
     0
 62
   178
420
        0
176
     0
 90
       50
176
     0
 90
        3
176
     0
 62
     5
420
      255
176
     0
290
     0
176
     0
 90
       50
176
     0
 90
       50
176
     0
 90
       50
176
     0
290
     0
176
     0
 90
       50
176
     0
 62
   256
176
     0
 40
1.0
176
     0
 90
        2
176
     0
  1
strokes_ogs.tif
176
     0
290
     0
176
     0
 40
1.0
176
     0
 40
1.0
176
     0
  0
VISUALSTYLE
  5
A3
102
{ACAD_REACTORS
330
99
102
}
330
99
100
AcDbVisualStyle
  2
Realistic
 70
     8
177
     3
291
     0
 70
    58
 90
        2
176
     1
 90
        2
176
     1
 90
        1
176
     1
 90
        0
176
     1
 40
-0.6
176
     1
 40
-30.0
176
     1
 62
     7
420
 16777215
176
     1
 90
        1
176
     1
 90
        0
176
     1
 62
     7
176
     1
 62
   257
176
     1
 90
        1
176
     1
 90
        1
176
     1
 40
1.0
176
     1
 90
        8
176
     1
 62
     8
420
  7895160
176
     1
 40
1.0
176
     1
 90
        1
176
     1
 90
        6
176
     1
 90
        2
176
     1
 62
     7
176
     1
 90
        5
176
     1
 90
        0
176
     1
 90
        0
176
     1
290
     0
176
     1
 90
       13
176
     1
 40
0.0
176
     1
 90
        0
176
     1
290
     0
176
     1
290
     1
176
     1
290
     1
176
     1
290
     0
176
     1
290
     0
176
     1
290
     0
176
     1
290
     0
176
     1
290
     0
176
     1
290
     0
176
     1
 90
       50
176
     1
 40
0.0
176
     1
 40
1.0
176
     1
 90
        0
176
     1
 62
   178
420
        0
176
     1
 90
       50
176
     1
 90
        3
176
     1
 62
     5
420
      255
176
     1
290
     0
176
     1
 90
       50
176
     1
 90
       50
176
     1
 90
       50
176
     1
290
     0
176
     1
 90
       50
176
     1
 62
   256
176
     0
 40
1.0
176
     0
 90
        2
176
     1
  1
strokes_ogs.tif
176
     1
290
     0
176
     1
 40
1.0
176
     1
 40
1.0
176
     1
  0
VISUALSTYLE
  5
EC
102
{ACAD_REACTORS
330
99
102
}
330
99
100
AcDbVisualStyle
  2
Shaded
 70
    27
177
     3
291
     0
 70
    58
 90
        2
176
     1
 90
        2
176
     1
 90
        1
176
     1
 90
        2
176
     1
 40
0.6
176
     1
 40
30.0
176
     1
 62
     7
420
 16777215
176
     1
 90
        0
176
     1
 90
        4
176
     1
 62
     7
176
     1
 62
   257
176
     1
 90
        1
176
     1
 90
        1
176
     1
 40
1.0
176
     1
 90
        8
176
     1
 62
   257
176
     1
 40
1.0
176
     1
 90
        1
176
     1
 90
        6
176
     1
 90
        2
176
     1
 62
     8
420
  7895160
176
     1
 90
        3
176
     1
 90
        0
176
     1
 90
        0
176
     1
290
     0
176
     1
 90
        5
176
     1
 40
0.0
176
     1
 90
        0
176
     1
290
     0
176
     1
290
     1
176
     1
290
     1
176
     1
290
     0
176
     1
290
     0
176
     1
290
     0
176
     1
290
     0
176
     1
290
     0
176
     1
290
     0
176
     1
 90
       50
176
     1
 40
0.0
176
     1
 40
1.0
176
     1
 90
        0
176
     1
 62
   178
420
        0
176
     1
 90
       50
176
     1
 90
        3
176
     1
 62
     5
420
      255
176
     1
290
     0
176
     1
 90
       50
176
     1
 90
       50
176
     1
 90
       50
176
     1
290
     0
176
     1
 90
       50
176
     1
 62
   256
176
     0
 40
1.0
176
     0
 90
        2
176
     1
  1
strokes_ogs.tif
176
     1
290
     0
176
     1
 40
1.0
176
     1
 40
1.0
176
     1
  0
VISUALSTYLE
  5
EB
102
{ACAD_REACTORS
330
99
102
}
330
99
100
AcDbVisualStyle
  2
Shaded with edges
 70
    26
177
     3
291
     0
 70
    58
 90
        2
176
     1
 90
        2
176
     1
 90
        1
176
     1
 90
        2
176
     1
 40
0.6
176
     1
 40
30.0
176
     1
 62
     7
420
 16777215
176
     1
 90
        1
176
     1
 90
       10
176
     1
 62
     7
176
     1
 62
   257
176
     1
 90
        2
176
     1
 90
        1
176
     1
 40
1.0
176
     1
 90
        8
176
     1
 62
   257
176
     1
 40
1.0
176
     1
 90
        1
176
     1
 90
        6
176
     1
 90
        2
176
     1
 62
     7
176
     1
 90
        3
176
     1
 90
        0
176
     1
 90
        0
176
     1
290
     0
176
     1
 90
        5
176
     1
 40
0.0
176
     1
 90
        0
176
     1
290
     0
176
     1
290
     1
176
     1
290
     1
176
     1
290
     0
176
     1
290
     0
176
     1
290
     0
176
     1
290
     0
176
     1
290
     0
176
     1
290
     0
176
     1
 90
       50
176
     1
 40
0.0
176
     1
 40
1.0
176
     1
 90
        0
176
     1
 62
   178
420
        0
176
     1
 90
       50
176
     1
 90
        3
176
     1
 62
     5
420
      255
176
     1
290
     0
176
     1
 90
       50
176
     1
 90
       50
176
     1
 90
       50
176
     1
290
     0
176
     1
 90
       50
176
     1
 62
   256
176
     0
 40
1.0
176
     0
 90
        2
176
     1
  1
strokes_ogs.tif
176
     1
290
     0
176
     1
 40
1.0
176
     1
 40
1.0
176
     1
  0
VISUALSTYLE
  5
E8
102
{ACAD_REACTORS
330
99
102
}
330
99
100
AcDbVisualStyle
  2
Shades of Gray
 70
    23
177
     3
291
     0
 70
    58
 90
        2
176
     1
 90
        2
176
     1
 90
        3
176
     1
 90
        0
176
     1
 40
0.6
176
     1
 40
30.0
176
     1
 62
     7
420
 16777215
176
     1
 90
        2
176
     1
 90
        2
176
     1
 62
     7
176
     1
 62
     7
176
     1
 90
        1
176
     1
 90
        1
176
     1
 40
40.0
176
     1
 90
        8
176
     1
 62
     7
176
     1
 40
1.0
176
     1
 90
        1
176
     1
 90
        6
176
     1
 90
        2
176
     1
 62
     7
176
     1
 90
        3
176
     1
 90
        0
176
     1
 90
        0
176
     1
290
     0
176
     1
 90
        1
176
     1
 40
0.0
176
     1
 90
        0
176
     1
290
     0
176
     1
290
     1
176
     1
290
     1
176
     1
290
     0
176
     1
290
     0
176
     1
290
     0
176
     1
290
     0
176
     1
290
     0
176
     1
290
     0
176
     1
 90
       50
176
     1
 40
0.0
176
     1
 40
1.0
176
     1
 90
        0
176
     1
 62
   178
420
        0
176
     1
 90
       50
176
     1
 90
        3
176
     1
 62
     5
420
      255
176
     1
290
     0
176
     1
 90
       50
176
     1
 90
       50
176
     1
 90
       50
176
     1
290
     0
176
     1
 90
       50
176
     1
 62
   256
176
     0
 40
1.0
176
     0
 90
        2
176
     1
  1
strokes_ogs.tif
176
     1
290
     0
176
     1
 40
1.0
176
     1
 40
1.0
176
     1
  0
VISUALSTYLE
  5
E9
102
{ACAD_REACTORS
330
99
102
}
330
99
100
AcDbVisualStyle
  2
Sketchy
 70
    24
177
     3
291
     0
 70
    58
 90
        1
176
     1
 90
        2
176
     1
 90
        2
176
     1
 90
        0
176
     1
 40
0.6
176
     1
 40
30.0
176
     1
 62
     7
420
 16777215
176
     1
 90
        2
176
     1
 90
        2
176
     1
 62
     7
176
     1
 62
     7
176
     1
 90
        1
176
     1
 90
        1
176
     1
 40
40.0
176
     1
 90
       11
176
     1
 62
     7
176
     1
 40
1.0
176
     1
 90
        1
176
     1
 90
        6
176
     1
 90
        2
176
     1
 62
     7
176
     1
 90
        6
176
     1
 90
        0
176
     1
 90
        0
176
     1
290
     0
176
     1
 90
        1
176
     1
 40
0.0
176
     1
 90
        0
176
     1
290
     0
176
     1
290
     1
176
     1
290
     1
176
     1
290
     0
176
     1
290
     0
176
     1
290
     0
176
     1
290
     0
176
     1
290
     0
176
     1
290
     0
176
     1
 90
       50
176
     1
 40
0.0
176
     1
 40
1.0
176
     1
 90
        0
176
     1
 62
   178
420
        0
176
     1
 90
       50
176
     1
 90
        3
176
     1
 62
     5
420
      255
176
     1
290
     0
176
     1
 90
       50
176
     1
 90
       50
176
     1
 90
       50
176
     1
290
     0
176
     1
 90
       50
176
     1
 62
   256
176
     0
 40
1.0
176
     0
 90
        2
176
     1
  1
strokes_ogs.tif
176
     1
290
     0
176
     1
 40
1.0
176
     1
 40
1.0
176
     1
  0
VISUALSTYLE
  5
A6
102
{ACAD_REACTORS
330
99
102
}
330
99
100
AcDbVisualStyle
  2
Thicken
 70
    13
177
     3
291
     1
 70
    58
 90
        2
176
     1
 90
        2
176
     1
 90
        1
176
     1
 90
        0
176
     1
 40
-0.6
176
     1
 40
-30.0
176
     1
 62
     7
420
 16777215
176
     1
 90
        1
176
     1
 90
        4
176
     1
 62
     7
176
     1
 62
   257
176
     1
 90
        1
176
     1
 90
        1
176
     1
 40
1.0
176
     1
 90
       12
176
     1
 62
     7
176
     1
 40
1.0
176
     1
 90
        1
176
     1
 90
        6
176
     1
 90
        2
176
     1
 62
     7
176
     1
 90
        5
176
     1
 90
        0
176
     1
 90
        0
176
     1
290
     0
176
     1
 90
        1
176
     1
 40
0.0
176
     1
 90
        0
176
     1
290
     0
176
     1
290
     1
176
     1
290
     1
176
     1
290
     0
176
     1
290
     0
176
     1
290
     0
176
     1
290
     0
176
     1
290
     0
176
     1
290
     0
176
     1
 90
       50
176
     1
 40
0.0
176
     1
 40
1.0
176
     1
 90
        0
176
     1
 62
   178
420
        0
176
     1
 90
       50
176
     1
 90
        3
176
     1
 62
     5
420
      255
176
     1
290
     0
176
     1
 90
       50
176
     1
 90
       50
176
     1
 90
       50
176
     1
290
     0
176
     1
 90
       50
176
     1
 62
   256
176
     0
 40
1.0
176
     0
 90
        2
176
     1
  1
strokes_ogs.tif
176
     1
290
     0
176
     1
 40
1.0
176
     1
 40
1.0
176
     1
  0
VISUALSTYLE
  5
E3
102
{ACAD_REACTORS
330
99
102
}
330
99
100
AcDbVisualStyle
  2
Wireframe
 70
     5
177
     3
291
     0
 70
    58
 90
        0
176
     1
 90
        2
176
     1
 90
        0
176
     1
 90
        0
176
     1
 40
0.6
176
     1
 40
30.0
176
     1
 62
     7
420
 16777215
176
     1
 90
        1
176
     1
 90
        4
176
     1
 62
     7
176
     1
 62
   257
176
     1
 90
        1
176
     1
 90
        1
176
     1
 40
1.0
176
     1
 90
        0
176
     1
 62
   257
176
     1
 40
1.0
176
     1
 90
        1
176
     1
 90
        6
176
     1
 90
        2
176
     1
 62
     7
176
     1
 90
        3
176
     1
 90
        0
176
     1
 90
        0
176
     1
290
     0
176
     1
 90
        1
176
     1
 40
0.0
176
     1
 90
        0
176
     1
290
     0
176
     1
290
     1
176
     1
290
     1
176
     1
290
     0
176
     1
290
     0
176
     1
290
     0
176
     1
290
     0
176
     1
290
     0
176
     1
290
     0
176
     1
 90
       50
176
     1
 40
0.0
176
     1
 40
1.0
176
     1
 90
        0
176
     1
 62
   178
420
        0
176
     1
 90
       50
176
     1
 90
        3
176
     1
 62
     5
420
      255
176
     1
290
     0
176
     1
 90
       50
176
     1
 90
       50
176
     1
 90
       50
176
     1
290
     0
176
     1
 90
       50
176
     1
 62
   256
176
     0
 40
1.0
176
     0
 90
        2
176
     1
  1
strokes_ogs.tif
176
     1
290
     0
176
     1
 40
1.0
176
     1
 40
1.0
176
     1
  0
VISUALSTYLE
  5
EA
102
{ACAD_REACTORS
330
99
102
}
330
99
100
AcDbVisualStyle
  2
X-Ray
 70
    25
177
     3
291
     0
 70
    58
 90
        2
176
     1
 90
        2
176
     1
 90
        1
176
     1
 90
        1
176
     1
 40
0.5
176
     1
 40
30.0
176
     1
 62
     7
420
 16777215
176
     1
 90
        1
176
     1
 90
        0
176
     1
 62
     7
176
     1
 62
   257
176
     1
 90
        1
176
     1
 90
        1
176
     1
 40
1.0
176
     1
 90
        8
176
     1
 62
     7
176
     1
 40
1.0
176
     1
 90
        1
176
     1
 90
        6
176
     1
 90
        2
176
     1
 62
     7
176
     1
 90
        3
176
     1
 90
        0
176
     1
 90
        0
176
     1
290
     0
176
     1
 90
       13
176
     1
 40
0.0
176
     1
 90
        0
176
     1
290
     0
176
     1
290
     1
176
     1
290
     1
176
     1
290
     0
176
     1
290
     0
176
     1
290
     0
176
     1
290
     0
176
     1
290
     0
176
     1
290
     0
176
     1
 90
       50
176
     1
 40
0.0
176
     1
 40
1.0
176
     1
 90
        0
176
     1
 62
   178
420
        0
176
     1
 90
       50
176
     1
 90
        3
176
     1
 62
     5
420
      255
176
     1
290
     0
176
     1
 90
       50
176
     1
 90
       50
176
     1
 90
       50
176
     1
290
     0
176
     1
 90
       50
176
     1
 62
   256
176
     0
 40
1.0
176
     0
 90
        2
176
     1
  1
strokes_ogs.tif
176
     1
290
     0
176
     1
 40
1.0
176
     1
 40
1.0
176
     1
  0
DICTIONARYVAR
  5
D8
102
{ACAD_REACTORS
330
66
102
}
330
66
100
DictionaryVariables
280
     0
  1
1:1
  0
DICTIONARYVAR
  5
128
102
{ACAD_REACTORS
330
66
102
}
330
66
100
DictionaryVariables
280
     0
  1
Standard
  0
DICTIONARYVAR
  5
89
102
{ACAD_REACTORS
330
66
102
}
330
66
100
DictionaryVariables
280
     0
  1
Standard
  0
DICTIONARYVAR
  5
67
102
{ACAD_REACTORS
330
66
102
}
330
66
100
DictionaryVariables
280
     0
  1
2
  0
DICTIONARYVAR
  5
6B
102
{ACAD_REACTORS
330
66
102
}
330
66
100
DictionaryVariables
280
     0
  1
1
  0
DICTIONARYVAR
  5
DF
102
{ACAD_REACTORS
330
66
102
}
330
66
100
DictionaryVariables
280
     0
  1
0
  0
DICTIONARYVAR
  5
E0
102
{ACAD_REACTORS
330
66
102
}
330
66
100
DictionaryVariables
280
     0
  1
0
  0
DICTIONARY
  5
7BD
330
87
100
AcDbDictionary
280
     1
281
     1
  3
ACAD_ROUNDTRIP_2008_TABLESTYLE_CELLSTYLEMAP
360
7BE
  0
CELLSTYLEMAP
  5
7BE
102
{ACAD_REACTORS
330
7BD
102
}
330
7BD
100
AcDbCellStyleMap
 90
        3
300
CELLSTYLE
  1
TABLEFORMAT_BEGIN
 90
        5
170
     1
 91
        0
 92
    32768
 62
   257
 93
        1
300
CONTENTFORMAT
  1
CONTENTFORMAT_BEGIN
 90
        0
 91
        0
 92
      512
 93
        0
300

 40
0.0
140
1.0
 94
        5
 62
     0
340
11
144
0.25
309
CONTENTFORMAT_END
171
     0
 94
        6
 95
        1
302
GRIDFORMAT
  1
GRIDFORMAT_BEGIN
 90
        0
 91
        1
 62
     0
 92
       -2
340
0
 93
        0
 40
0.045
309
GRIDFORMAT_END
 95
        2
302
GRIDFORMAT
  1
GRIDFORMAT_BEGIN
 90
        0
 91
        1
 62
     0
 92
       -2
340
0
 93
        0
 40
0.045
309
GRIDFORMAT_END
 95
        4
302
GRIDFORMAT
  1
GRIDFORMAT_BEGIN
 90
        0
 91
        1
 62
     0
 92
       -2
340
0
 93
        0
 40
0.045
309
GRIDFORMAT_END
 95
        8
302
GRIDFORMAT
  1
GRIDFORMAT_BEGIN
 90
        0
 91
        1
 62
     0
 92
       -2
340
0
 93
        0
 40
0.045
309
GRIDFORMAT_END
 95
       16
302
GRIDFORMAT
  1
GRIDFORMAT_BEGIN
 90
        0
 91
        1
 62
     0
 92
       -2
340
0
 93
        0
 40
0.045
309
GRIDFORMAT_END
 95
       32
302
GRIDFORMAT
  1
GRIDFORMAT_BEGIN
 90
        0
 91
        1
 62
     0
 92
       -2
340
0
 93
        0
 40
0.045
309
GRIDFORMAT_END
309
TABLEFORMAT_END
  1
CELLSTYLE_BEGIN
 90
        1
 91
        1
300
_TITLE
309
CELLSTYLE_END
300
CELLSTYLE
  1
TABLEFORMAT_BEGIN
 90
        5
170
     1
 91
        0
 92
        0
 62
   257
 93
        1
300
CONTENTFORMAT
  1
CONTENTFORMAT_BEGIN
 90
        0
 91
        0
 92
      512
 93
        0
300

 40
0.0
140
1.0
 94
        5
 62
     0
340
11
144
0.18
309
CONTENTFORMAT_END
171
     0
 94
        6
 95
        1
302
GRIDFORMAT
  1
GRIDFORMAT_BEGIN
 90
        0
 91
        1
 62
     0
 92
       -2
340
0
 93
        0
 40
0.045
309
GRIDFORMAT_END
 95
        2
302
GRIDFORMAT
  1
GRIDFORMAT_BEGIN
 90
        0
 91
        1
 62
     0
 92
       -2
340
0
 93
        0
 40
0.045
309
GRIDFORMAT_END
 95
        4
302
GRIDFORMAT
  1
GRIDFORMAT_BEGIN
 90
        0
 91
        1
 62
     0
 92
       -2
340
0
 93
        0
 40
0.045
309
GRIDFORMAT_END
 95
        8
302
GRIDFORMAT
  1
GRIDFORMAT_BEGIN
 90
        0
 91
        1
 62
     0
 92
       -2
340
0
 93
        0
 40
0.045
309
GRIDFORMAT_END
 95
       16
302
GRIDFORMAT
  1
GRIDFORMAT_BEGIN
 90
        0
 91
        1
 62
     0
 92
       -2
340
0
 93
        0
 40
0.045
309
GRIDFORMAT_END
 95
       32
302
GRIDFORMAT
  1
GRIDFORMAT_BEGIN
 90
        0
 91
        1
 62
     0
 92
       -2
340
0
 93
        0
 40
0.045
309
GRIDFORMAT_END
309
TABLEFORMAT_END
  1
CELLSTYLE_BEGIN
 90
        2
 91
        1
300
_HEADER
309
CELLSTYLE_END
300
CELLSTYLE
  1
TABLEFORMAT_BEGIN
 90
        5
170
     1
 91
        0
 92
        0
 62
   257
 93
        1
300
CONTENTFORMAT
  1
CONTENTFORMAT_BEGIN
 90
        0
 91
        0
 92
      512
 93
        0
300

 40
0.0
140
1.0
 94
        2
 62
     0
340
11
144
0.18
309
CONTENTFORMAT_END
171
     0
 94
        6
 95
        1
302
GRIDFORMAT
  1
GRIDFORMAT_BEGIN
 90
        0
 91
        1
 62
     0
 92
       -2
340
0
 93
        0
 40
0.045
309
GRIDFORMAT_END
 95
        2
302
GRIDFORMAT
  1
GRIDFORMAT_BEGIN
 90
        0
 91
        1
 62
     0
 92
       -2
340
0
 93
        0
 40
0.045
309
GRIDFORMAT_END
 95
        4
302
GRIDFORMAT
  1
GRIDFORMAT_BEGIN
 90
        0
 91
        1
 62
     0
 92
       -2
340
0
 93
        0
 40
0.045
309
GRIDFORMAT_END
 95
        8
302
GRIDFORMAT
  1
GRIDFORMAT_BEGIN
 90
        0
 91
        1
 62
     0
 92
       -2
340
0
 93
        0
 40
0.045
309
GRIDFORMAT_END
 95
       16
302
GRIDFORMAT
  1
GRIDFORMAT_BEGIN
 90
        0
 91
        1
 62
     0
 92
       -2
340
0
 93
        0
 40
0.045
309
GRIDFORMAT_END
 95
       32
302
GRIDFORMAT
  1
GRIDFORMAT_BEGIN
 90
        0
 91
        1
 62
     0
 92
       -2
340
0
 93
        0
 40
0.045
309
GRIDFORMAT_END
309
TABLEFORMAT_END
  1
CELLSTYLE_BEGIN
 90
        3
 91
        2
300
_DATA
309
CELLSTYLE_END
  0
ENDSEC
  0
EOF
