solid OpenSCAD_Model
  facet normal 0 0 -1
    outer loop
      vertex -95.5547 -11.223 0
      vertex -70.3327 -11.223 0
      vertex -70.3327 -19 0
    endloop
  endfacet
  facet normal 0 0 -1
    outer loop
      vertex -48.7608 12.134 0
      vertex -52.6499 19.912 0
      vertex -37.0948 12.134 0
    endloop
  endfacet
  facet normal 0 -0 -1
    outer loop
      vertex -95.5547 -11.223 0
      vertex -70.3327 -19 0
      vertex -103.333 -19 0
    endloop
  endfacet
  facet normal 0 0 -1
    outer loop
      vertex -95.5547 -11.223 0
      vertex -103.333 19.912 0
      vertex -95.5547 19.912 0
    endloop
  endfacet
  facet normal -0 0 -1
    outer loop
      vertex -95.5547 -11.223 0
      vertex -103.333 -19 0
      vertex -103.333 19.912 0
    endloop
  endfacet
  facet normal 0 0 -1
    outer loop
      vertex -64.2608 8.183 0
      vertex -48.7608 12.134 0
      vertex -56.4828 4.28699 0
    endloop
  endfacet
  facet normal 0 0 -1
    outer loop
      vertex -56.4828 -7.38599 0
      vertex -64.2608 8.183 0
      vertex -56.4828 0.391998 0
    endloop
  endfacet
  facet normal 0 0 -1
    outer loop
      vertex -37.0948 -7.38599 0
      vertex -56.4828 0.391998 0
      vertex -37.0948 0.391998 0
    endloop
  endfacet
  facet normal 0 0 -1
    outer loop
      vertex -29.3719 -19 0
      vertex -37.0948 -19 0
      vertex -37.0948 -7.38599 0
    endloop
  endfacet
  facet normal 0 -0 -1
    outer loop
      vertex -29.3719 19.912 0
      vertex -29.3719 -19 0
      vertex -37.0948 0.391998 0
    endloop
  endfacet
  facet normal 0 0 -1
    outer loop
      vertex -37.0948 -7.38599 0
      vertex -37.0948 0.391998 0
      vertex -29.3719 -19 0
    endloop
  endfacet
  facet normal 0 0 -1
    outer loop
      vertex -56.4828 -19 0
      vertex -64.2608 -19 0
      vertex -56.4828 -7.38599 0
    endloop
  endfacet
  facet normal -0 0 -1
    outer loop
      vertex -56.4828 -7.38599 0
      vertex -64.2608 -19 0
      vertex -64.2608 8.183 0
    endloop
  endfacet
  facet normal 0 0 -1
    outer loop
      vertex -56.4828 -7.38599 0
      vertex -56.4828 0.391998 0
      vertex -37.0948 -7.38599 0
    endloop
  endfacet
  facet normal 0 0 -1
    outer loop
      vertex -64.2608 8.183 0
      vertex -52.6499 19.912 0
      vertex -48.7608 12.134 0
    endloop
  endfacet
  facet normal 0 0 -1
    outer loop
      vertex -64.2608 8.183 0
      vertex -56.4828 4.28699 0
      vertex -56.4828 0.391998 0
    endloop
  endfacet
  facet normal 0 0 -1
    outer loop
      vertex -52.6499 19.912 0
      vertex -29.3719 19.912 0
      vertex -37.0948 12.134 0
    endloop
  endfacet
  facet normal 0 0 -1
    outer loop
      vertex -37.0948 12.134 0
      vertex -29.3719 19.912 0
      vertex -37.0948 0.391998 0
    endloop
  endfacet
  facet normal 0 0 -1
    outer loop
      vertex 6.31064 -19 0
      vertex -13.0783 6.95999 0
      vertex 6.31064 -5.993 0
    endloop
  endfacet
  facet normal 0 0 -1
    outer loop
      vertex 22.5904 19.912 0
      vertex 45.8684 19.912 0
      vertex 30.3684 12.134 0
    endloop
  endfacet
  facet normal 0 0 -1
    outer loop
      vertex 6.31064 -5.993 0
      vertex 6.31064 19.912 0
      vertex 14.0326 19.912 0
    endloop
  endfacet
  facet normal 0 0 -1
    outer loop
      vertex 14.0326 -19 0
      vertex 6.31064 -19 0
      vertex 6.31064 -5.993 0
    endloop
  endfacet
  facet normal 0 0 -1
    outer loop
      vertex 14.0326 -19 0
      vertex 6.31064 -5.993 0
      vertex 14.0326 19.912 0
    endloop
  endfacet
  facet normal -0 -0 -1
    outer loop
      vertex -13.0783 19.912 0
      vertex -13.0783 6.95999 0
      vertex -20.8563 19.912 0
    endloop
  endfacet
  facet normal 0 0 -1
    outer loop
      vertex -13.0783 6.95999 0
      vertex -13.0783 19.912 0
      vertex 6.31064 -5.993 0
    endloop
  endfacet
  facet normal 0 0 -1
    outer loop
      vertex -13.0783 -19 0
      vertex -20.8563 -19 0
      vertex -13.0783 6.95999 0
    endloop
  endfacet
  facet normal 0 0 -1
    outer loop
      vertex 65.4399 -7.37599 0
      vertex 73.2179 -11.223 0
      vertex 65.4399 -15.167 0
    endloop
  endfacet
  facet normal -0 0 -1
    outer loop
      vertex -13.0783 6.95999 0
      vertex -20.8563 -19 0
      vertex -20.8563 19.912 0
    endloop
  endfacet
  facet normal 0 0 -1
    outer loop
      vertex 57.4794 -15.167 0
      vertex 49.7574 -11.223 0
      vertex 57.4794 8.241 0
    endloop
  endfacet
  facet normal 0 -0 -1
    outer loop
      vertex 96.4959 4.35999 0
      vertex 100.329 0.470993 0
      vertex 92.6069 -3.474 0
    endloop
  endfacet
  facet normal 0 0 -1
    outer loop
      vertex 22.5904 -19 0
      vertex 30.3684 12.134 0
      vertex 30.3684 -11.223 0
    endloop
  endfacet
  facet normal 0 0 -1
    outer loop
      vertex 53.6464 -19 0
      vertex 30.3684 -11.223 0
      vertex 49.7574 -11.223 0
    endloop
  endfacet
  facet normal 0 0 -1
    outer loop
      vertex 53.6464 -19 0
      vertex 49.7574 -11.223 0
      vertex 57.4794 -15.167 0
    endloop
  endfacet
  facet normal 0 0 -1
    outer loop
      vertex 30.3684 12.134 0
      vertex 45.8684 19.912 0
      vertex 41.9794 12.134 0
    endloop
  endfacet
  facet normal 0 0 -1
    outer loop
      vertex 22.5904 -19 0
      vertex 30.3684 -11.223 0
      vertex 53.6464 -19 0
    endloop
  endfacet
  facet normal 0 0 -1
    outer loop
      vertex 41.9794 12.134 0
      vertex 57.4794 8.241 0
      vertex 49.7574 4.34799 0
    endloop
  endfacet
  facet normal 0 0 -1
    outer loop
      vertex 22.5904 19.912 0
      vertex 30.3684 12.134 0
      vertex 22.5904 -19 0
    endloop
  endfacet
  facet normal 0 0 -1
    outer loop
      vertex 41.9794 12.134 0
      vertex 45.8684 19.912 0
      vertex 57.4794 8.241 0
    endloop
  endfacet
  facet normal 0 0 -1
    outer loop
      vertex 49.7574 4.34799 0
      vertex 57.4794 8.241 0
      vertex 49.7574 -11.223 0
    endloop
  endfacet
  facet normal 0 0 -1
    outer loop
      vertex 92.6069 -3.474 0
      vertex 100.329 0.470993 0
      vertex 100.329 -15.167 0
    endloop
  endfacet
  facet normal 0 -0 -1
    outer loop
      vertex 73.2179 4.35999 0
      vertex 92.6069 -3.474 0
      vertex 69.2739 -3.474 0
    endloop
  endfacet
  facet normal 0 0 -1
    outer loop
      vertex 73.2179 4.35999 0
      vertex 65.4399 15.967 0
      vertex 73.2179 12.134 0
    endloop
  endfacet
  facet normal 0 0 -1
    outer loop
      vertex 65.4399 -0.695999 0
      vertex 73.2179 4.35999 0
      vertex 69.2739 -3.474 0
    endloop
  endfacet
  facet normal 0 0 -1
    outer loop
      vertex 92.6069 12.134 0
      vertex 96.4959 19.912 0
      vertex 100.329 15.967 0
    endloop
  endfacet
  facet normal 0 0 -1
    outer loop
      vertex 73.2179 -11.223 0
      vertex 92.6069 -11.223 0
      vertex 96.4959 -19 0
    endloop
  endfacet
  facet normal 0 0 -1
    outer loop
      vertex 92.6069 12.134 0
      vertex 73.2179 12.134 0
      vertex 96.4959 19.912 0
    endloop
  endfacet
  facet normal 0 0 -1
    outer loop
      vertex 100.329 8.245 0
      vertex 92.6069 8.245 0
      vertex 92.6069 12.134 0
    endloop
  endfacet
  facet normal 0 -0 -1
    outer loop
      vertex 100.329 15.967 0
      vertex 100.329 8.245 0
      vertex 92.6069 12.134 0
    endloop
  endfacet
  facet normal -0 0 -1
    outer loop
      vertex 96.4959 19.912 0
      vertex 73.2179 12.134 0
      vertex 69.2739 19.912 0
    endloop
  endfacet
  facet normal 0 0 -1
    outer loop
      vertex 73.2179 12.134 0
      vertex 65.4399 15.967 0
      vertex 69.2739 19.912 0
    endloop
  endfacet
  facet normal 0 0 -1
    outer loop
      vertex 73.2179 4.35999 0
      vertex 96.4959 4.35999 0
      vertex 92.6069 -3.474 0
    endloop
  endfacet
  facet normal -0 0 -1
    outer loop
      vertex 73.2179 4.35999 0
      vertex 65.4399 -0.695999 0
      vertex 65.4399 15.967 0
    endloop
  endfacet
  facet normal 0 0 -1
    outer loop
      vertex 92.6069 -3.474 0
      vertex 100.329 -15.167 0
      vertex 92.6069 -11.223 0
    endloop
  endfacet
  facet normal 0 0 -1
    outer loop
      vertex 92.6069 -11.223 0
      vertex 100.329 -15.167 0
      vertex 96.4959 -19 0
    endloop
  endfacet
  facet normal -0 -0 -1
    outer loop
      vertex 73.2179 -7.37599 0
      vertex 73.2179 -11.223 0
      vertex 65.4399 -7.37599 0
    endloop
  endfacet
  facet normal 0 0 -1
    outer loop
      vertex 65.4399 -15.167 0
      vertex 73.2179 -11.223 0
      vertex 69.2739 -19 0
    endloop
  endfacet
  facet normal 0 0 -1
    outer loop
      vertex 69.2739 -19 0
      vertex 73.2179 -11.223 0
      vertex 96.4959 -19 0
    endloop
  endfacet
  facet normal 0 -0 1
    outer loop
      vertex -70.3327 -19 12
      vertex -70.3327 -11.223 12
      vertex -95.5547 -11.223 12
    endloop
  endfacet
  facet normal 0 0 1
    outer loop
      vertex -37.0948 12.134 12
      vertex -52.6499 19.912 12
      vertex -48.7608 12.134 12
    endloop
  endfacet
  facet normal 0 0 1
    outer loop
      vertex -103.333 -19 12
      vertex -70.3327 -19 12
      vertex -95.5547 -11.223 12
    endloop
  endfacet
  facet normal 0 0 1
    outer loop
      vertex -95.5547 19.912 12
      vertex -103.333 19.912 12
      vertex -95.5547 -11.223 12
    endloop
  endfacet
  facet normal 0 0 1
    outer loop
      vertex -103.333 19.912 12
      vertex -103.333 -19 12
      vertex -95.5547 -11.223 12
    endloop
  endfacet
  facet normal 0 -0 1
    outer loop
      vertex -56.4828 4.28699 12
      vertex -48.7608 12.134 12
      vertex -64.2608 8.183 12
    endloop
  endfacet
  facet normal 0 0 1
    outer loop
      vertex -56.4828 0.391998 12
      vertex -64.2608 8.183 12
      vertex -56.4828 -7.38599 12
    endloop
  endfacet
  facet normal 0 0 1
    outer loop
      vertex -37.0948 0.391998 12
      vertex -56.4828 0.391998 12
      vertex -37.0948 -7.38599 12
    endloop
  endfacet
  facet normal 0 0 1
    outer loop
      vertex -37.0948 -7.38599 12
      vertex -37.0948 -19 12
      vertex -29.3719 -19 12
    endloop
  endfacet
  facet normal -0 0 1
    outer loop
      vertex -37.0948 0.391998 12
      vertex -29.3719 -19 12
      vertex -29.3719 19.912 12
    endloop
  endfacet
  facet normal 0 0 1
    outer loop
      vertex -29.3719 -19 12
      vertex -37.0948 0.391998 12
      vertex -37.0948 -7.38599 12
    endloop
  endfacet
  facet normal 0 0 1
    outer loop
      vertex -56.4828 -7.38599 12
      vertex -64.2608 -19 12
      vertex -56.4828 -19 12
    endloop
  endfacet
  facet normal 0 0 1
    outer loop
      vertex -64.2608 8.183 12
      vertex -64.2608 -19 12
      vertex -56.4828 -7.38599 12
    endloop
  endfacet
  facet normal 0 0 1
    outer loop
      vertex -37.0948 -7.38599 12
      vertex -56.4828 0.391998 12
      vertex -56.4828 -7.38599 12
    endloop
  endfacet
  facet normal 0 0 1
    outer loop
      vertex -48.7608 12.134 12
      vertex -52.6499 19.912 12
      vertex -64.2608 8.183 12
    endloop
  endfacet
  facet normal 0 -0 1
    outer loop
      vertex -56.4828 0.391998 12
      vertex -56.4828 4.28699 12
      vertex -64.2608 8.183 12
    endloop
  endfacet
  facet normal 0 -0 1
    outer loop
      vertex -37.0948 12.134 12
      vertex -29.3719 19.912 12
      vertex -52.6499 19.912 12
    endloop
  endfacet
  facet normal 0 0 1
    outer loop
      vertex -37.0948 0.391998 12
      vertex -29.3719 19.912 12
      vertex -37.0948 12.134 12
    endloop
  endfacet
  facet normal 0 0 1
    outer loop
      vertex 6.31064 -5.993 12
      vertex -13.0783 6.95999 12
      vertex 6.31064 -19 12
    endloop
  endfacet
  facet normal 0 -0 1
    outer loop
      vertex 30.3684 12.134 12
      vertex 45.8684 19.912 12
      vertex 22.5904 19.912 12
    endloop
  endfacet
  facet normal 0 0 1
    outer loop
      vertex 14.0326 19.912 12
      vertex 6.31064 19.912 12
      vertex 6.31064 -5.993 12
    endloop
  endfacet
  facet normal 0 0 1
    outer loop
      vertex 6.31064 -5.993 12
      vertex 6.31064 -19 12
      vertex 14.0326 -19 12
    endloop
  endfacet
  facet normal 0 0 1
    outer loop
      vertex 14.0326 19.912 12
      vertex 6.31064 -5.993 12
      vertex 14.0326 -19 12
    endloop
  endfacet
  facet normal -0 0 1
    outer loop
      vertex -20.8563 19.912 12
      vertex -13.0783 6.95999 12
      vertex -13.0783 19.912 12
    endloop
  endfacet
  facet normal 0 0 1
    outer loop
      vertex 6.31064 -5.993 12
      vertex -13.0783 19.912 12
      vertex -13.0783 6.95999 12
    endloop
  endfacet
  facet normal 0 0 1
    outer loop
      vertex -13.0783 6.95999 12
      vertex -20.8563 -19 12
      vertex -13.0783 -19 12
    endloop
  endfacet
  facet normal 0 0 1
    outer loop
      vertex 65.4399 -15.167 12
      vertex 73.2179 -11.223 12
      vertex 65.4399 -7.37599 12
    endloop
  endfacet
  facet normal 0 0 1
    outer loop
      vertex -20.8563 19.912 12
      vertex -20.8563 -19 12
      vertex -13.0783 6.95999 12
    endloop
  endfacet
  facet normal 0 0 1
    outer loop
      vertex 57.4794 8.241 12
      vertex 49.7574 -11.223 12
      vertex 57.4794 -15.167 12
    endloop
  endfacet
  facet normal 0 0 1
    outer loop
      vertex 92.6069 -3.474 12
      vertex 100.329 0.470993 12
      vertex 96.4959 4.35999 12
    endloop
  endfacet
  facet normal 0 -0 1
    outer loop
      vertex 30.3684 -11.223 12
      vertex 30.3684 12.134 12
      vertex 22.5904 -19 12
    endloop
  endfacet
  facet normal 0 0 1
    outer loop
      vertex 49.7574 -11.223 12
      vertex 30.3684 -11.223 12
      vertex 53.6464 -19 12
    endloop
  endfacet
  facet normal 0 0 1
    outer loop
      vertex 57.4794 -15.167 12
      vertex 49.7574 -11.223 12
      vertex 53.6464 -19 12
    endloop
  endfacet
  facet normal 0 -0 1
    outer loop
      vertex 41.9794 12.134 12
      vertex 45.8684 19.912 12
      vertex 30.3684 12.134 12
    endloop
  endfacet
  facet normal 0 0 1
    outer loop
      vertex 53.6464 -19 12
      vertex 30.3684 -11.223 12
      vertex 22.5904 -19 12
    endloop
  endfacet
  facet normal 0 -0 1
    outer loop
      vertex 49.7574 4.34799 12
      vertex 57.4794 8.241 12
      vertex 41.9794 12.134 12
    endloop
  endfacet
  facet normal 0 0 1
    outer loop
      vertex 22.5904 -19 12
      vertex 30.3684 12.134 12
      vertex 22.5904 19.912 12
    endloop
  endfacet
  facet normal 0 0 1
    outer loop
      vertex 57.4794 8.241 12
      vertex 45.8684 19.912 12
      vertex 41.9794 12.134 12
    endloop
  endfacet
  facet normal 0 0 1
    outer loop
      vertex 49.7574 -11.223 12
      vertex 57.4794 8.241 12
      vertex 49.7574 4.34799 12
    endloop
  endfacet
  facet normal 0 -0 1
    outer loop
      vertex 100.329 -15.167 12
      vertex 100.329 0.470993 12
      vertex 92.6069 -3.474 12
    endloop
  endfacet
  facet normal 0 0 1
    outer loop
      vertex 69.2739 -3.474 12
      vertex 92.6069 -3.474 12
      vertex 73.2179 4.35999 12
    endloop
  endfacet
  facet normal 0 0 1
    outer loop
      vertex 73.2179 12.134 12
      vertex 65.4399 15.967 12
      vertex 73.2179 4.35999 12
    endloop
  endfacet
  facet normal 0 -0 1
    outer loop
      vertex 69.2739 -3.474 12
      vertex 73.2179 4.35999 12
      vertex 65.4399 -0.695999 12
    endloop
  endfacet
  facet normal 0 0 1
    outer loop
      vertex 100.329 15.967 12
      vertex 96.4959 19.912 12
      vertex 92.6069 12.134 12
    endloop
  endfacet
  facet normal 0 0 1
    outer loop
      vertex 96.4959 -19 12
      vertex 92.6069 -11.223 12
      vertex 73.2179 -11.223 12
    endloop
  endfacet
  facet normal 0 0 1
    outer loop
      vertex 96.4959 19.912 12
      vertex 73.2179 12.134 12
      vertex 92.6069 12.134 12
    endloop
  endfacet
  facet normal 0 0 1
    outer loop
      vertex 92.6069 12.134 12
      vertex 92.6069 8.245 12
      vertex 100.329 8.245 12
    endloop
  endfacet
  facet normal -0 0 1
    outer loop
      vertex 92.6069 12.134 12
      vertex 100.329 8.245 12
      vertex 100.329 15.967 12
    endloop
  endfacet
  facet normal -0 0 1
    outer loop
      vertex 69.2739 19.912 12
      vertex 73.2179 12.134 12
      vertex 96.4959 19.912 12
    endloop
  endfacet
  facet normal 0 0 1
    outer loop
      vertex 69.2739 19.912 12
      vertex 65.4399 15.967 12
      vertex 73.2179 12.134 12
    endloop
  endfacet
  facet normal 0 -0 1
    outer loop
      vertex 92.6069 -3.474 12
      vertex 96.4959 4.35999 12
      vertex 73.2179 4.35999 12
    endloop
  endfacet
  facet normal 0 0 1
    outer loop
      vertex 65.4399 15.967 12
      vertex 65.4399 -0.695999 12
      vertex 73.2179 4.35999 12
    endloop
  endfacet
  facet normal -0 0 1
    outer loop
      vertex 92.6069 -11.223 12
      vertex 100.329 -15.167 12
      vertex 92.6069 -3.474 12
    endloop
  endfacet
  facet normal 0 -0 1
    outer loop
      vertex 96.4959 -19 12
      vertex 100.329 -15.167 12
      vertex 92.6069 -11.223 12
    endloop
  endfacet
  facet normal -0 0 1
    outer loop
      vertex 65.4399 -7.37599 12
      vertex 73.2179 -11.223 12
      vertex 73.2179 -7.37599 12
    endloop
  endfacet
  facet normal 0 -0 1
    outer loop
      vertex 69.2739 -19 12
      vertex 73.2179 -11.223 12
      vertex 65.4399 -15.167 12
    endloop
  endfacet
  facet normal 0 0 1
    outer loop
      vertex 96.4959 -19 12
      vertex 73.2179 -11.223 12
      vertex 69.2739 -19 12
    endloop
  endfacet
  facet normal 0 1 0
    outer loop
      vertex -95.5547 -11.223 0
      vertex -70.3327 -11.223 12
      vertex -70.3327 -11.223 0
    endloop
  endfacet
  facet normal 0 1 0
    outer loop
      vertex -95.5547 -11.223 0
      vertex -95.5547 -11.223 12
      vertex -70.3327 -11.223 12
    endloop
  endfacet
  facet normal 1 0 0
    outer loop
      vertex -95.5547 19.912 0
      vertex -95.5547 -11.223 12
      vertex -95.5547 -11.223 0
    endloop
  endfacet
  facet normal 1 0 -0
    outer loop
      vertex -95.5547 19.912 0
      vertex -95.5547 19.912 12
      vertex -95.5547 -11.223 12
    endloop
  endfacet
  facet normal 0 1 0
    outer loop
      vertex -103.333 19.912 0
      vertex -95.5547 19.912 12
      vertex -95.5547 19.912 0
    endloop
  endfacet
  facet normal 0 1 0
    outer loop
      vertex -103.333 19.912 0
      vertex -103.333 19.912 12
      vertex -95.5547 19.912 12
    endloop
  endfacet
  facet normal -1 0 0
    outer loop
      vertex -103.333 -19 0
      vertex -103.333 19.912 12
      vertex -103.333 19.912 0
    endloop
  endfacet
  facet normal -1 0 0
    outer loop
      vertex -103.333 -19 0
      vertex -103.333 -19 12
      vertex -103.333 19.912 12
    endloop
  endfacet
  facet normal 0 -1 0
    outer loop
      vertex -70.3327 -19 0
      vertex -103.333 -19 12
      vertex -103.333 -19 0
    endloop
  endfacet
  facet normal 0 -1 0
    outer loop
      vertex -70.3327 -19 0
      vertex -70.3327 -19 12
      vertex -103.333 -19 12
    endloop
  endfacet
  facet normal 1 0 0
    outer loop
      vertex -70.3327 -11.223 0
      vertex -70.3327 -19 12
      vertex -70.3327 -19 0
    endloop
  endfacet
  facet normal 1 0 -0
    outer loop
      vertex -70.3327 -11.223 0
      vertex -70.3327 -11.223 12
      vertex -70.3327 -19 12
    endloop
  endfacet
  facet normal 0 -1 0
    outer loop
      vertex -37.0948 -7.38599 0
      vertex -56.4828 -7.38599 12
      vertex -56.4828 -7.38599 0
    endloop
  endfacet
  facet normal 0 -1 0
    outer loop
      vertex -37.0948 -7.38599 0
      vertex -37.0948 -7.38599 12
      vertex -56.4828 -7.38599 12
    endloop
  endfacet
  facet normal -1 0 0
    outer loop
      vertex -37.0948 -19 0
      vertex -37.0948 -7.38599 12
      vertex -37.0948 -7.38599 0
    endloop
  endfacet
  facet normal -1 0 0
    outer loop
      vertex -37.0948 -19 0
      vertex -37.0948 -19 12
      vertex -37.0948 -7.38599 12
    endloop
  endfacet
  facet normal 0 -1 0
    outer loop
      vertex -29.3719 -19 0
      vertex -37.0948 -19 12
      vertex -37.0948 -19 0
    endloop
  endfacet
  facet normal 0 -1 0
    outer loop
      vertex -29.3719 -19 0
      vertex -29.3719 -19 12
      vertex -37.0948 -19 12
    endloop
  endfacet
  facet normal 1 0 0
    outer loop
      vertex -29.3719 19.912 0
      vertex -29.3719 -19 12
      vertex -29.3719 -19 0
    endloop
  endfacet
  facet normal 1 0 -0
    outer loop
      vertex -29.3719 19.912 0
      vertex -29.3719 19.912 12
      vertex -29.3719 -19 12
    endloop
  endfacet
  facet normal 0 1 0
    outer loop
      vertex -52.6499 19.912 0
      vertex -29.3719 19.912 12
      vertex -29.3719 19.912 0
    endloop
  endfacet
  facet normal 0 1 0
    outer loop
      vertex -52.6499 19.912 0
      vertex -52.6499 19.912 12
      vertex -29.3719 19.912 12
    endloop
  endfacet
  facet normal -0.710673 0.703523 0
    outer loop
      vertex -64.2608 8.183 0
      vertex -52.6499 19.912 12
      vertex -52.6499 19.912 0
    endloop
  endfacet
  facet normal -0.710673 0.703523 0
    outer loop
      vertex -64.2608 8.183 0
      vertex -64.2608 8.183 12
      vertex -52.6499 19.912 12
    endloop
  endfacet
  facet normal -1 0 0
    outer loop
      vertex -64.2608 -19 0
      vertex -64.2608 8.183 12
      vertex -64.2608 8.183 0
    endloop
  endfacet
  facet normal -1 0 0
    outer loop
      vertex -64.2608 -19 0
      vertex -64.2608 -19 12
      vertex -64.2608 8.183 12
    endloop
  endfacet
  facet normal 0 -1 0
    outer loop
      vertex -56.4828 -19 0
      vertex -64.2608 -19 12
      vertex -64.2608 -19 0
    endloop
  endfacet
  facet normal 0 -1 0
    outer loop
      vertex -56.4828 -19 0
      vertex -56.4828 -19 12
      vertex -64.2608 -19 12
    endloop
  endfacet
  facet normal 1 0 0
    outer loop
      vertex -56.4828 -7.38599 0
      vertex -56.4828 -19 12
      vertex -56.4828 -19 0
    endloop
  endfacet
  facet normal 1 0 -0
    outer loop
      vertex -56.4828 -7.38599 0
      vertex -56.4828 -7.38599 12
      vertex -56.4828 -19 12
    endloop
  endfacet
  facet normal 1 0 -0
    outer loop
      vertex -56.4828 4.28699 0
      vertex -56.4828 4.28699 12
      vertex -56.4828 0.391998 0
    endloop
  endfacet
  facet normal 1 -0 0
    outer loop
      vertex -56.4828 0.391998 12
      vertex -56.4828 0.391998 0
      vertex -56.4828 4.28699 12
    endloop
  endfacet
  facet normal 0.712761 -0.701407 0
    outer loop
      vertex -48.7608 12.134 0
      vertex -48.7608 12.134 12
      vertex -56.4828 4.28699 0
    endloop
  endfacet
  facet normal 0.712761 -0.701407 0
    outer loop
      vertex -56.4828 4.28699 12
      vertex -56.4828 4.28699 0
      vertex -48.7608 12.134 12
    endloop
  endfacet
  facet normal 0 -1 0
    outer loop
      vertex -37.0948 12.134 0
      vertex -37.0948 12.134 12
      vertex -48.7608 12.134 0
    endloop
  endfacet
  facet normal 0 -1 0
    outer loop
      vertex -48.7608 12.134 12
      vertex -48.7608 12.134 0
      vertex -37.0948 12.134 12
    endloop
  endfacet
  facet normal -1 0 0
    outer loop
      vertex -37.0948 0.391998 0
      vertex -37.0948 0.391998 12
      vertex -37.0948 12.134 0
    endloop
  endfacet
  facet normal -1 -0 -0
    outer loop
      vertex -37.0948 12.134 12
      vertex -37.0948 12.134 0
      vertex -37.0948 0.391998 12
    endloop
  endfacet
  facet normal 0 1 0
    outer loop
      vertex -56.4828 0.391998 0
      vertex -56.4828 0.391998 12
      vertex -37.0948 0.391998 0
    endloop
  endfacet
  facet normal 0 1 0
    outer loop
      vertex -37.0948 0.391998 12
      vertex -37.0948 0.391998 0
      vertex -56.4828 0.391998 12
    endloop
  endfacet
  facet normal -0.801199 -0.598399 0
    outer loop
      vertex 6.31064 -19 0
      vertex -13.0783 6.95999 12
      vertex -13.0783 6.95999 0
    endloop
  endfacet
  facet normal -0.801199 -0.598399 0
    outer loop
      vertex 6.31064 -19 0
      vertex 6.31064 -19 12
      vertex -13.0783 6.95999 12
    endloop
  endfacet
  facet normal 0 -1 0
    outer loop
      vertex 14.0326 -19 0
      vertex 6.31064 -19 12
      vertex 6.31064 -19 0
    endloop
  endfacet
  facet normal 0 -1 0
    outer loop
      vertex 14.0326 -19 0
      vertex 14.0326 -19 12
      vertex 6.31064 -19 12
    endloop
  endfacet
  facet normal 1 0 0
    outer loop
      vertex 14.0326 19.912 0
      vertex 14.0326 -19 12
      vertex 14.0326 -19 0
    endloop
  endfacet
  facet normal 1 0 -0
    outer loop
      vertex 14.0326 19.912 0
      vertex 14.0326 19.912 12
      vertex 14.0326 -19 12
    endloop
  endfacet
  facet normal 0 1 0
    outer loop
      vertex 6.31064 19.912 0
      vertex 14.0326 19.912 12
      vertex 14.0326 19.912 0
    endloop
  endfacet
  facet normal 0 1 0
    outer loop
      vertex 6.31064 19.912 0
      vertex 6.31064 19.912 12
      vertex 14.0326 19.912 12
    endloop
  endfacet
  facet normal -1 0 0
    outer loop
      vertex 6.31064 -5.993 0
      vertex 6.31064 19.912 12
      vertex 6.31064 19.912 0
    endloop
  endfacet
  facet normal -1 0 0
    outer loop
      vertex 6.31064 -5.993 0
      vertex 6.31064 -5.993 12
      vertex 6.31064 19.912 12
    endloop
  endfacet
  facet normal 0.800589 0.599213 0
    outer loop
      vertex -13.0783 19.912 0
      vertex 6.31064 -5.993 12
      vertex 6.31064 -5.993 0
    endloop
  endfacet
  facet normal 0.800589 0.599213 -0
    outer loop
      vertex -13.0783 19.912 0
      vertex -13.0783 19.912 12
      vertex 6.31064 -5.993 12
    endloop
  endfacet
  facet normal 0 1 0
    outer loop
      vertex -20.8563 19.912 0
      vertex -13.0783 19.912 12
      vertex -13.0783 19.912 0
    endloop
  endfacet
  facet normal 0 1 0
    outer loop
      vertex -20.8563 19.912 0
      vertex -20.8563 19.912 12
      vertex -13.0783 19.912 12
    endloop
  endfacet
  facet normal -1 0 0
    outer loop
      vertex -20.8563 -19 0
      vertex -20.8563 19.912 12
      vertex -20.8563 19.912 0
    endloop
  endfacet
  facet normal -1 0 0
    outer loop
      vertex -20.8563 -19 0
      vertex -20.8563 -19 12
      vertex -20.8563 19.912 12
    endloop
  endfacet
  facet normal 0 -1 0
    outer loop
      vertex -13.0783 -19 0
      vertex -20.8563 -19 12
      vertex -20.8563 -19 0
    endloop
  endfacet
  facet normal 0 -1 0
    outer loop
      vertex -13.0783 -19 0
      vertex -13.0783 -19 12
      vertex -20.8563 -19 12
    endloop
  endfacet
  facet normal 1 0 0
    outer loop
      vertex -13.0783 6.95999 0
      vertex -13.0783 -19 12
      vertex -13.0783 -19 0
    endloop
  endfacet
  facet normal 1 0 -0
    outer loop
      vertex -13.0783 6.95999 0
      vertex -13.0783 6.95999 12
      vertex -13.0783 -19 12
    endloop
  endfacet
  facet normal 1 0 0
    outer loop
      vertex 57.4794 8.241 0
      vertex 57.4794 -15.167 12
      vertex 57.4794 -15.167 0
    endloop
  endfacet
  facet normal 1 0 -0
    outer loop
      vertex 57.4794 8.241 0
      vertex 57.4794 8.241 12
      vertex 57.4794 -15.167 12
    endloop
  endfacet
  facet normal 0.708927 0.705282 0
    outer loop
      vertex 45.8684 19.912 0
      vertex 57.4794 8.241 12
      vertex 57.4794 8.241 0
    endloop
  endfacet
  facet normal 0.708927 0.705282 -0
    outer loop
      vertex 45.8684 19.912 0
      vertex 45.8684 19.912 12
      vertex 57.4794 8.241 12
    endloop
  endfacet
  facet normal 0 1 0
    outer loop
      vertex 22.5904 19.912 0
      vertex 45.8684 19.912 12
      vertex 45.8684 19.912 0
    endloop
  endfacet
  facet normal 0 1 0
    outer loop
      vertex 22.5904 19.912 0
      vertex 22.5904 19.912 12
      vertex 45.8684 19.912 12
    endloop
  endfacet
  facet normal -1 0 0
    outer loop
      vertex 22.5904 -19 0
      vertex 22.5904 19.912 12
      vertex 22.5904 19.912 0
    endloop
  endfacet
  facet normal -1 0 0
    outer loop
      vertex 22.5904 -19 0
      vertex 22.5904 -19 12
      vertex 22.5904 19.912 12
    endloop
  endfacet
  facet normal 0 -1 0
    outer loop
      vertex 53.6464 -19 0
      vertex 22.5904 -19 12
      vertex 22.5904 -19 0
    endloop
  endfacet
  facet normal 0 -1 0
    outer loop
      vertex 53.6464 -19 0
      vertex 53.6464 -19 12
      vertex 22.5904 -19 12
    endloop
  endfacet
  facet normal 0.707108 -0.707105 0
    outer loop
      vertex 57.4794 -15.167 0
      vertex 53.6464 -19 12
      vertex 53.6464 -19 0
    endloop
  endfacet
  facet normal 0.707108 -0.707105 0
    outer loop
      vertex 57.4794 -15.167 0
      vertex 57.4794 -15.167 12
      vertex 53.6464 -19 12
    endloop
  endfacet
  facet normal 1 0 -0
    outer loop
      vertex 30.3684 12.134 0
      vertex 30.3684 12.134 12
      vertex 30.3684 -11.223 0
    endloop
  endfacet
  facet normal 1 -0 0
    outer loop
      vertex 30.3684 -11.223 12
      vertex 30.3684 -11.223 0
      vertex 30.3684 12.134 12
    endloop
  endfacet
  facet normal 0 -1 0
    outer loop
      vertex 41.9794 12.134 0
      vertex 41.9794 12.134 12
      vertex 30.3684 12.134 0
    endloop
  endfacet
  facet normal 0 -1 0
    outer loop
      vertex 30.3684 12.134 12
      vertex 30.3684 12.134 0
      vertex 41.9794 12.134 12
    endloop
  endfacet
  facet normal -0.70747 -0.706743 0
    outer loop
      vertex 49.7574 4.34799 0
      vertex 49.7574 4.34799 12
      vertex 41.9794 12.134 0
    endloop
  endfacet
  facet normal -0.70747 -0.706743 -0
    outer loop
      vertex 41.9794 12.134 12
      vertex 41.9794 12.134 0
      vertex 49.7574 4.34799 12
    endloop
  endfacet
  facet normal -1 0 0
    outer loop
      vertex 49.7574 -11.223 0
      vertex 49.7574 -11.223 12
      vertex 49.7574 4.34799 0
    endloop
  endfacet
  facet normal -1 -0 -0
    outer loop
      vertex 49.7574 4.34799 12
      vertex 49.7574 4.34799 0
      vertex 49.7574 -11.223 12
    endloop
  endfacet
  facet normal 0 1 0
    outer loop
      vertex 30.3684 -11.223 0
      vertex 30.3684 -11.223 12
      vertex 49.7574 -11.223 0
    endloop
  endfacet
  facet normal 0 1 0
    outer loop
      vertex 49.7574 -11.223 12
      vertex 49.7574 -11.223 0
      vertex 30.3684 -11.223 12
    endloop
  endfacet
  facet normal 1 0 0
    outer loop
      vertex 100.329 0.470993 0
      vertex 100.329 -15.167 12
      vertex 100.329 -15.167 0
    endloop
  endfacet
  facet normal 1 0 -0
    outer loop
      vertex 100.329 0.470993 0
      vertex 100.329 0.470993 12
      vertex 100.329 -15.167 12
    endloop
  endfacet
  facet normal 0.712215 0.701962 0
    outer loop
      vertex 96.4959 4.35999 0
      vertex 100.329 0.470993 12
      vertex 100.329 0.470993 0
    endloop
  endfacet
  facet normal 0.712215 0.701962 -0
    outer loop
      vertex 96.4959 4.35999 0
      vertex 96.4959 4.35999 12
      vertex 100.329 0.470993 12
    endloop
  endfacet
  facet normal 0 1 0
    outer loop
      vertex 73.2179 4.35999 0
      vertex 96.4959 4.35999 12
      vertex 96.4959 4.35999 0
    endloop
  endfacet
  facet normal 0 1 0
    outer loop
      vertex 73.2179 4.35999 0
      vertex 73.2179 4.35999 12
      vertex 96.4959 4.35999 12
    endloop
  endfacet
  facet normal 1 0 0
    outer loop
      vertex 73.2179 12.134 0
      vertex 73.2179 4.35999 12
      vertex 73.2179 4.35999 0
    endloop
  endfacet
  facet normal 1 0 -0
    outer loop
      vertex 73.2179 12.134 0
      vertex 73.2179 12.134 12
      vertex 73.2179 4.35999 12
    endloop
  endfacet
  facet normal 0 -1 0
    outer loop
      vertex 92.6069 12.134 0
      vertex 73.2179 12.134 12
      vertex 73.2179 12.134 0
    endloop
  endfacet
  facet normal 0 -1 0
    outer loop
      vertex 92.6069 12.134 0
      vertex 92.6069 12.134 12
      vertex 73.2179 12.134 12
    endloop
  endfacet
  facet normal -1 0 0
    outer loop
      vertex 92.6069 8.245 0
      vertex 92.6069 12.134 12
      vertex 92.6069 12.134 0
    endloop
  endfacet
  facet normal -1 0 0
    outer loop
      vertex 92.6069 8.245 0
      vertex 92.6069 8.245 12
      vertex 92.6069 12.134 12
    endloop
  endfacet
  facet normal 0 -1 0
    outer loop
      vertex 100.329 8.245 0
      vertex 92.6069 8.245 12
      vertex 92.6069 8.245 0
    endloop
  endfacet
  facet normal 0 -1 0
    outer loop
      vertex 100.329 8.245 0
      vertex 100.329 8.245 12
      vertex 92.6069 8.245 12
    endloop
  endfacet
  facet normal 1 0 0
    outer loop
      vertex 100.329 15.967 0
      vertex 100.329 8.245 12
      vertex 100.329 8.245 0
    endloop
  endfacet
  facet normal 1 0 -0
    outer loop
      vertex 100.329 15.967 0
      vertex 100.329 15.967 12
      vertex 100.329 8.245 12
    endloop
  endfacet
  facet normal 0.717213 0.696854 0
    outer loop
      vertex 96.4959 19.912 0
      vertex 100.329 15.967 12
      vertex 100.329 15.967 0
    endloop
  endfacet
  facet normal 0.717213 0.696854 -0
    outer loop
      vertex 96.4959 19.912 0
      vertex 96.4959 19.912 12
      vertex 100.329 15.967 12
    endloop
  endfacet
  facet normal 0 1 0
    outer loop
      vertex 69.2739 19.912 0
      vertex 96.4959 19.912 12
      vertex 96.4959 19.912 0
    endloop
  endfacet
  facet normal 0 1 0
    outer loop
      vertex 69.2739 19.912 0
      vertex 69.2739 19.912 12
      vertex 96.4959 19.912 12
    endloop
  endfacet
  facet normal -0.717123 0.696947 0
    outer loop
      vertex 65.4399 15.967 0
      vertex 69.2739 19.912 12
      vertex 69.2739 19.912 0
    endloop
  endfacet
  facet normal -0.717123 0.696947 0
    outer loop
      vertex 65.4399 15.967 0
      vertex 65.4399 15.967 12
      vertex 69.2739 19.912 12
    endloop
  endfacet
  facet normal -1 0 0
    outer loop
      vertex 65.4399 -0.695999 0
      vertex 65.4399 15.967 12
      vertex 65.4399 15.967 0
    endloop
  endfacet
  facet normal -1 0 0
    outer loop
      vertex 65.4399 -0.695999 0
      vertex 65.4399 -0.695999 12
      vertex 65.4399 15.967 12
    endloop
  endfacet
  facet normal -0.586739 -0.809776 0
    outer loop
      vertex 69.2739 -3.474 0
      vertex 65.4399 -0.695999 12
      vertex 65.4399 -0.695999 0
    endloop
  endfacet
  facet normal -0.586739 -0.809776 0
    outer loop
      vertex 69.2739 -3.474 0
      vertex 69.2739 -3.474 12
      vertex 65.4399 -0.695999 12
    endloop
  endfacet
  facet normal 0 -1 0
    outer loop
      vertex 92.6069 -3.474 0
      vertex 69.2739 -3.474 12
      vertex 69.2739 -3.474 0
    endloop
  endfacet
  facet normal 0 -1 0
    outer loop
      vertex 92.6069 -3.474 0
      vertex 92.6069 -3.474 12
      vertex 69.2739 -3.474 12
    endloop
  endfacet
  facet normal -1 0 0
    outer loop
      vertex 92.6069 -11.223 0
      vertex 92.6069 -3.474 12
      vertex 92.6069 -3.474 0
    endloop
  endfacet
  facet normal -1 0 0
    outer loop
      vertex 92.6069 -11.223 0
      vertex 92.6069 -11.223 12
      vertex 92.6069 -3.474 12
    endloop
  endfacet
  facet normal 0 1 0
    outer loop
      vertex 73.2179 -11.223 0
      vertex 92.6069 -11.223 12
      vertex 92.6069 -11.223 0
    endloop
  endfacet
  facet normal 0 1 0
    outer loop
      vertex 73.2179 -11.223 0
      vertex 73.2179 -11.223 12
      vertex 92.6069 -11.223 12
    endloop
  endfacet
  facet normal 1 0 0
    outer loop
      vertex 73.2179 -7.37599 0
      vertex 73.2179 -11.223 12
      vertex 73.2179 -11.223 0
    endloop
  endfacet
  facet normal 1 0 -0
    outer loop
      vertex 73.2179 -7.37599 0
      vertex 73.2179 -7.37599 12
      vertex 73.2179 -11.223 12
    endloop
  endfacet
  facet normal 0 1 0
    outer loop
      vertex 65.4399 -7.37599 0
      vertex 73.2179 -7.37599 12
      vertex 73.2179 -7.37599 0
    endloop
  endfacet
  facet normal 0 1 0
    outer loop
      vertex 65.4399 -7.37599 0
      vertex 65.4399 -7.37599 12
      vertex 73.2179 -7.37599 12
    endloop
  endfacet
  facet normal -1 0 0
    outer loop
      vertex 65.4399 -15.167 0
      vertex 65.4399 -7.37599 12
      vertex 65.4399 -7.37599 0
    endloop
  endfacet
  facet normal -1 0 0
    outer loop
      vertex 65.4399 -15.167 0
      vertex 65.4399 -15.167 12
      vertex 65.4399 -7.37599 12
    endloop
  endfacet
  facet normal -0.707015 -0.707198 0
    outer loop
      vertex 69.2739 -19 0
      vertex 65.4399 -15.167 12
      vertex 65.4399 -15.167 0
    endloop
  endfacet
  facet normal -0.707015 -0.707198 0
    outer loop
      vertex 69.2739 -19 0
      vertex 69.2739 -19 12
      vertex 65.4399 -15.167 12
    endloop
  endfacet
  facet normal 0 -1 0
    outer loop
      vertex 96.4959 -19 0
      vertex 69.2739 -19 12
      vertex 69.2739 -19 0
    endloop
  endfacet
  facet normal 0 -1 0
    outer loop
      vertex 96.4959 -19 0
      vertex 96.4959 -19 12
      vertex 69.2739 -19 12
    endloop
  endfacet
  facet normal 0.707107 -0.707107 0
    outer loop
      vertex 100.329 -15.167 0
      vertex 96.4959 -19 12
      vertex 96.4959 -19 0
    endloop
  endfacet
  facet normal 0.707107 -0.707107 0
    outer loop
      vertex 100.329 -15.167 0
      vertex 100.329 -15.167 12
      vertex 96.4959 -19 12
    endloop
  endfacet
endsolid OpenSCAD_Model
